<svg width="24" height="24" viewBox="0 0 24 24" fill="none" xmlns="http://www.w3.org/2000/svg">
<path d="M7.71689 5.72309C6.71581 6.1899 6.2827 7.37986 6.74951 8.38094C7.21632 9.38202 8.40628 9.81513 9.40736 9.34832L20.2831 4.2769C21.2841 3.81009 21.7172 2.62013 21.2504 1.61905C20.7836 0.617967 19.5937 0.184857 18.5926 0.651668L7.71689 5.72309Z" fill="black"/>
<path d="M4.74951 15.3809C4.2827 14.3799 4.71581 13.1899 5.71689 12.7231L16.5926 7.65167C17.5937 7.18486 18.7836 7.61797 19.2504 8.61905C19.7172 9.62013 19.2841 10.8101 18.2831 11.2769L7.40736 16.3483C6.40628 16.8151 5.21632 16.382 4.74951 15.3809Z" fill="black"/>
<path d="M2.74951 22.3809C2.2827 21.3799 2.71581 20.1899 3.71689 19.7231L14.5926 14.6517C15.5937 14.1849 16.7836 14.618 17.2504 15.619C17.7172 16.6201 17.2841 17.8101 16.2831 18.2769L5.40736 23.3483C4.40628 23.8151 3.21632 23.382 2.74951 22.3809Z" fill="black"/>
</svg>
