<svg width="30" height="31" viewBox="0 0 30 31" fill="none" xmlns="http://www.w3.org/2000/svg">
<path d="M21.2581 18.8106C21.1285 18.9132 21.0188 19.0394 20.9347 19.1826C19.6627 21.4232 17.3968 22.8857 14.8092 22.8857C11.4297 22.8857 8.58937 20.3874 7.81442 16.913C7.51237 15.9109 7.35352 14.8702 7.34271 13.8225C7.34271 7.70309 12.2872 2.74063 18.3891 2.74063C20.5923 2.73518 22.7471 3.39559 24.5777 4.63739C26.4084 5.8792 27.8317 7.64593 28.6656 9.71162C27.9643 7.83467 26.8983 6.11934 25.5307 4.66725C24.1631 3.21515 22.5218 2.0558 20.7039 1.25786C18.886 0.459916 16.9285 0.0396098 14.9473 0.021829C12.9661 0.00404823 11.0016 0.389155 9.17001 1.15434C7.33843 1.91953 5.67706 3.04924 4.28429 4.47656C2.89151 5.90389 1.79566 7.5998 1.06163 9.46388C0.327595 11.328 -0.0296924 13.3223 0.0109249 15.3288C0.0515422 17.3352 0.489238 19.313 1.29809 21.1451C1.31494 21.1792 1.3301 21.215 1.34695 21.2509C1.36379 21.2867 1.36885 21.2987 1.38064 21.3243C2.2376 23.1345 3.58443 24.6611 5.26441 25.7263C6.9444 26.7915 8.88847 27.3516 10.8704 27.3413C15.9143 27.343 20.1479 23.698 21.2581 18.8106Z" fill="url(#paint0_linear_236_18543)"/>
<path d="M28.9374 19.4812C29.0755 18.9334 28.7082 18.488 28.1321 18.488H22.0555C21.7613 18.5029 21.4804 18.6163 21.2569 18.8106C20.1467 23.6979 15.9131 27.343 10.8726 27.343C8.89118 27.3537 6.94749 26.7944 5.26756 25.7301C3.58763 24.6658 2.24049 23.1404 1.38281 21.331C2.64227 24.0751 4.6918 26.369 7.26209 27.9113C9.83239 29.4536 12.8032 30.1722 15.7841 29.9726C18.765 29.7731 21.6166 28.6647 23.9642 26.7931C26.3117 24.9216 28.0454 22.3744 28.9374 19.4863V19.4812Z" fill="url(#paint1_linear_236_18543)"/>
<path d="M28.6701 9.727C27.8361 7.66132 26.4128 5.89458 24.5821 4.65277C22.7515 3.41097 20.5967 2.75056 18.3935 2.75601C12.2883 2.74748 7.34375 7.70994 7.34375 13.8226C7.35521 14.8679 7.51405 15.9063 7.81546 16.9062C7.67636 16.2806 7.6063 15.6413 7.60656 15C7.60656 10.5632 10.8378 7.11608 14.8102 7.11608C17.3945 7.11608 19.6638 8.57683 20.9357 10.8174C21.0544 11.0156 21.2181 11.182 21.4134 11.3029C21.6086 11.4237 21.8295 11.4954 22.0577 11.512H28.136C28.7324 11.512 29.1215 11.1007 28.9783 10.6058C28.879 10.3072 28.7796 10.012 28.6701 9.727Z" fill="url(#paint2_linear_236_18543)"/>
<defs>
<linearGradient id="paint0_linear_236_18543" x1="17.0262" y1="0.907868" x2="9.44681" y2="29.6932" gradientUnits="userSpaceOnUse">
<stop stop-color="#252525"/>
<stop offset="0.45" stop-color="#BABABA"/>
<stop offset="0.59" stop-color="#A6A6A6"/>
<stop offset="1" stop-color="#CDCDCD"/>
</linearGradient>
<linearGradient id="paint1_linear_236_18543" x1="8.50899" y1="29.6024" x2="21.3334" y2="13.8608" gradientUnits="userSpaceOnUse">
<stop stop-color="#1A1A1A"/>
<stop offset="1" stop-color="#DEDEDE"/>
</linearGradient>
<linearGradient id="paint2_linear_236_18543" x1="25.7724" y1="15.6946" x2="6.28936" y2="5.8602" gradientUnits="userSpaceOnUse">
<stop stop-color="#1B1B1B"/>
<stop offset="1" stop-color="#D8DADB"/>
</linearGradient>
</defs>
</svg>
