<svg width="65" height="67" viewBox="0 0 65 67" fill="none" xmlns="http://www.w3.org/2000/svg">
<g clip-path="url(#clip0_90_56956)">
<path d="M47.6456 42.0103C47.355 42.2395 47.1092 42.5213 46.9206 42.8412C44.0698 47.8452 38.9911 51.1113 33.1911 51.1113C25.6165 51.1113 19.2501 45.5318 17.5132 37.7723C16.8362 35.5344 16.4801 33.2101 16.4559 30.8703C16.4559 17.2036 27.5385 6.12073 41.2151 6.12073C46.1534 6.10855 50.9829 7.58347 55.0861 10.3568C59.1893 13.1302 62.3795 17.0759 64.2487 21.6893C62.6768 17.4974 60.2874 13.6665 57.2222 10.4235C54.1569 7.18048 50.478 4.59127 46.4034 2.8092C42.3288 1.02713 37.9412 0.0884497 33.5007 0.0487393C29.0602 0.00902884 24.6569 0.8691 20.5516 2.57802C16.4463 4.28693 12.7226 6.80995 9.60082 9.99764C6.47909 13.1853 4.02287 16.9729 2.37763 21.136C0.732379 25.2991 -0.0684377 29.7531 0.0226011 34.2342C0.11364 38.7153 1.09468 43.1324 2.90763 47.224C2.94539 47.3002 2.97937 47.3802 3.01713 47.4603C3.05489 47.5403 3.06622 47.567 3.09265 47.6241C5.01342 51.6671 8.03217 55.0764 11.7977 57.4553C15.5632 59.8343 19.9205 61.0851 24.3628 61.0623C35.6682 61.0661 45.1573 52.9255 47.6456 42.0103Z" fill="url(#paint0_linear_90_56956)"/>
<path d="M64.8603 43.5081C65.1699 42.2847 64.3468 41.29 63.0554 41.29H49.4353C48.7761 41.3231 48.1465 41.5765 47.6455 42.0103C45.1571 52.9254 35.6681 61.066 24.3703 61.066C19.9292 61.0899 15.5727 59.8408 11.8073 57.4639C8.04193 55.0871 5.02248 51.6801 3.1001 47.6394C5.92302 53.7677 10.5168 58.8907 16.2778 62.3352C22.0388 65.7798 28.6975 67.3846 35.3789 66.9389C42.0603 66.4932 48.4517 64.0178 53.7135 59.838C58.9752 55.6582 62.861 49.9695 64.8603 43.5195V43.5081Z" fill="url(#paint1_linear_90_56956)"/>
<path d="M64.2559 21.7236C62.3867 17.1102 59.1965 13.1645 55.0933 10.3911C50.9901 7.61775 46.1606 6.14283 41.2223 6.15501C27.5381 6.13596 16.4556 17.2188 16.4556 30.8703C16.4812 33.205 16.8373 35.524 17.5128 37.7571C17.2011 36.3599 17.044 34.9321 17.0446 33.5C17.0446 23.591 24.287 15.8925 33.1908 15.8925C38.9832 15.8925 44.0694 19.1548 46.9203 24.1589C47.1862 24.6014 47.5533 24.9731 47.9909 25.243C48.4284 25.5129 48.9237 25.673 49.4351 25.71L63.0589 25.71C64.3956 25.71 65.2679 24.7915 64.9469 23.6863C64.7241 23.0193 64.5013 22.36 64.2559 21.7236Z" fill="url(#paint2_linear_90_56956)"/>
</g>
<defs>
<linearGradient id="paint0_linear_90_56956" x1="38.1603" y1="2.02756" x2="21.2859" y2="66.3446" gradientUnits="userSpaceOnUse">
<stop stop-color="#424242"/>
<stop offset="0.45" stop-color="#4D4C4C"/>
<stop offset="0.59" stop-color="#323232"/>
<stop offset="1" stop-color="#353535"/>
</linearGradient>
<linearGradient id="paint1_linear_90_56956" x1="19.0726" y1="66.112" x2="47.6928" y2="30.8549" gradientUnits="userSpaceOnUse">
<stop stop-color="#3D3D3D"/>
<stop offset="1" stop-color="#292828"/>
</linearGradient>
<linearGradient id="paint2_linear_90_56956" x1="57.7612" y1="35.0511" x2="14.1562" y2="12.9615" gradientUnits="userSpaceOnUse">
<stop stop-color="#383838"/>
<stop offset="1" stop-color="#847B7B"/>
</linearGradient>
<clipPath id="clip0_90_56956">
<rect width="65" height="67" fill="white"/>
</clipPath>
</defs>
</svg>
