<svg width="550" height="363" viewBox="0 0 550 363" fill="none" xmlns="http://www.w3.org/2000/svg">
<g clip-path="url(#clip0_714_8413)">
<path opacity="0.47" d="M545.23 143.85H448.96C446.475 143.85 444.46 145.865 444.46 148.35V253.28C444.46 255.765 446.475 257.78 448.96 257.78H545.23C547.715 257.78 549.73 255.765 549.73 253.28V148.35C549.73 145.865 547.715 143.85 545.23 143.85Z" fill="white"/>
<path d="M526.12 153.23H468.06C466.983 153.23 466.11 154.103 466.11 155.18V163.26C466.11 164.337 466.983 165.21 468.06 165.21H526.12C527.197 165.21 528.07 164.337 528.07 163.26V155.18C528.07 154.103 527.197 153.23 526.12 153.23Z" fill="white"/>
<path d="M526.12 170.52H468.06C466.983 170.52 466.11 171.393 466.11 172.47V172.54C466.11 173.617 466.983 174.49 468.06 174.49H526.12C527.197 174.49 528.07 173.617 528.07 172.54V172.47C528.07 171.393 527.197 170.52 526.12 170.52Z" fill="white"/>
<path d="M526.12 179.68H468.06C466.983 179.68 466.11 180.553 466.11 181.63V181.7C466.11 182.777 466.983 183.65 468.06 183.65H526.12C527.197 183.65 528.07 182.777 528.07 181.7V181.63C528.07 180.553 527.197 179.68 526.12 179.68Z" fill="white"/>
<path d="M470.11 197.15C470.11 198.139 469.817 199.106 469.267 199.928C468.718 200.75 467.937 201.391 467.023 201.769C466.11 202.148 465.104 202.247 464.135 202.054C463.165 201.861 462.274 201.385 461.574 200.686C460.875 199.986 460.399 199.095 460.206 198.125C460.013 197.156 460.112 196.15 460.491 195.237C460.869 194.323 461.51 193.542 462.332 192.993C463.154 192.443 464.121 192.15 465.11 192.15C466.436 192.15 467.708 192.677 468.646 193.615C469.583 194.552 470.11 195.824 470.11 197.15Z" fill="white"/>
<path d="M470.11 219.8C470.11 220.789 469.817 221.756 469.267 222.578C468.718 223.4 467.937 224.041 467.023 224.419C466.11 224.798 465.104 224.897 464.135 224.704C463.165 224.511 462.274 224.035 461.574 223.336C460.875 222.636 460.399 221.745 460.206 220.775C460.013 219.806 460.112 218.8 460.491 217.887C460.869 216.973 461.51 216.192 462.332 215.643C463.154 215.093 464.121 214.8 465.11 214.8C466.436 214.8 467.708 215.327 468.646 216.264C469.583 217.202 470.11 218.474 470.11 219.8Z" fill="white"/>
<path d="M470.11 241.79C470.11 242.779 469.817 243.746 469.267 244.568C468.718 245.39 467.937 246.031 467.023 246.409C466.11 246.788 465.104 246.887 464.135 246.694C463.165 246.501 462.274 246.025 461.574 245.326C460.875 244.626 460.399 243.735 460.206 242.765C460.013 241.796 460.112 240.79 460.491 239.877C460.869 238.963 461.51 238.182 462.332 237.633C463.154 237.083 464.121 236.79 465.11 236.79C466.436 236.79 467.708 237.317 468.646 238.254C469.583 239.192 470.11 240.464 470.11 241.79Z" fill="white"/>
<path d="M520.75 195.21H472.94C472.807 195.21 472.68 195.157 472.586 195.064C472.493 194.97 472.44 194.843 472.44 194.71C472.44 194.577 472.493 194.45 472.586 194.356C472.68 194.263 472.807 194.21 472.94 194.21H520.75C520.883 194.21 521.01 194.263 521.104 194.356C521.197 194.45 521.25 194.577 521.25 194.71C521.25 194.843 521.197 194.97 521.104 195.064C521.01 195.157 520.883 195.21 520.75 195.21Z" fill="white"/>
<path d="M496.84 200.3H472.94C472.807 200.3 472.68 200.247 472.586 200.154C472.493 200.06 472.44 199.933 472.44 199.8C472.44 199.667 472.493 199.54 472.586 199.446C472.68 199.353 472.807 199.3 472.94 199.3H496.84C496.973 199.3 497.1 199.353 497.194 199.446C497.287 199.54 497.34 199.667 497.34 199.8C497.34 199.933 497.287 200.06 497.194 200.154C497.1 200.247 496.973 200.3 496.84 200.3Z" fill="white"/>
<path d="M520.75 218.61H472.94C472.807 218.61 472.68 218.557 472.586 218.464C472.493 218.37 472.44 218.243 472.44 218.11C472.44 217.977 472.493 217.85 472.586 217.756C472.68 217.663 472.807 217.61 472.94 217.61H520.75C520.883 217.61 521.01 217.663 521.104 217.756C521.197 217.85 521.25 217.977 521.25 218.11C521.25 218.243 521.197 218.37 521.104 218.464C521.01 218.557 520.883 218.61 520.75 218.61Z" fill="white"/>
<path d="M496.84 223.69H472.94C472.807 223.69 472.68 223.637 472.586 223.544C472.493 223.45 472.44 223.323 472.44 223.19C472.44 223.057 472.493 222.93 472.586 222.836C472.68 222.743 472.807 222.69 472.94 222.69H496.84C496.973 222.69 497.1 222.743 497.194 222.836C497.287 222.93 497.34 223.057 497.34 223.19C497.34 223.323 497.287 223.45 497.194 223.544C497.1 223.637 496.973 223.69 496.84 223.69Z" fill="white"/>
<path d="M520.75 240H472.94C472.807 240 472.68 239.947 472.586 239.854C472.493 239.76 472.44 239.633 472.44 239.5C472.44 239.367 472.493 239.24 472.586 239.146C472.68 239.053 472.807 239 472.94 239H520.75C520.883 239 521.01 239.053 521.104 239.146C521.197 239.24 521.25 239.367 521.25 239.5C521.25 239.633 521.197 239.76 521.104 239.854C521.01 239.947 520.883 240 520.75 240Z" fill="white"/>
<path d="M496.84 245.06H472.94C472.807 245.06 472.68 245.007 472.586 244.914C472.493 244.82 472.44 244.693 472.44 244.56C472.44 244.427 472.493 244.3 472.586 244.206C472.68 244.113 472.807 244.06 472.94 244.06H496.84C496.973 244.06 497.1 244.113 497.194 244.206C497.287 244.3 497.34 244.427 497.34 244.56C497.34 244.693 497.287 244.82 497.194 244.914C497.1 245.007 496.973 245.06 496.84 245.06Z" fill="white"/>
<path opacity="0.53" d="M331.2 1.33257e-10H456.52C456.796 1.33249e-10 457.069 0.0543181 457.324 0.159853C457.578 0.265388 457.81 0.420073 458.005 0.615076C458.2 0.810079 458.355 1.04158 458.46 1.29636C458.566 1.55115 458.62 1.82422 458.62 2.1V43.31C458.621 43.5866 458.568 43.8608 458.463 44.1167C458.358 44.3726 458.204 44.6053 458.008 44.8014C457.813 44.9975 457.581 45.153 457.326 45.2592C457.071 45.3654 456.797 45.42 456.52 45.42H366.25L345.57 66.1V45.42H331.2C330.64 45.42 330.104 45.1977 329.708 44.802C329.312 44.4063 329.09 43.8696 329.09 43.31V2.1C329.093 1.54213 329.316 1.00801 329.712 0.614465C330.107 0.220923 330.642 -6.26524e-06 331.2 1.33257e-10V1.33257e-10Z" fill="#4C65BA"/>
<path d="M349.22 13.78H438.22C438.78 13.78 439.22 13.5 439.22 13.15C439.22 12.8 438.76 12.52 438.22 12.52H349.22C348.66 12.52 348.22 12.8 348.22 13.15C348.22 13.5 348.66 13.78 349.22 13.78Z" fill="white"/>
<path d="M349.22 34.81H438.22C438.78 34.81 439.22 34.53 439.22 34.18C439.22 33.83 438.76 33.55 438.22 33.55H349.22C348.66 33.55 348.22 33.83 348.22 34.18C348.22 34.53 348.66 34.81 349.22 34.81Z" fill="white"/>
<path d="M391.72 23.87H438.26C438.82 23.87 439.26 23.59 439.26 23.24C439.26 22.89 438.8 22.61 438.26 22.61H391.72C391.16 22.61 390.72 22.89 390.72 23.24C390.72 23.59 391.16 23.87 391.72 23.87Z" fill="white"/>
<path d="M362.71 23.87H383C383.56 23.87 384 23.59 384 23.24C384 22.89 383.55 22.61 383 22.61H362.71C362.15 22.61 361.71 22.89 361.71 23.24C361.71 23.59 362.15 23.87 362.71 23.87Z" fill="white"/>
<path opacity="0.47" d="M478.41 100.08H415.06C412.221 100.08 409.92 102.381 409.92 105.22V125.33C409.92 128.169 412.221 130.47 415.06 130.47H478.41C481.249 130.47 483.55 128.169 483.55 125.33V105.22C483.55 102.381 481.249 100.08 478.41 100.08Z" fill="#599AF2"/>
<path d="M502.94 75.04H427.34C425.048 75.04 423.19 76.898 423.19 79.19V102.35C423.19 104.642 425.048 106.5 427.34 106.5H502.94C505.232 106.5 507.09 104.642 507.09 102.35V79.19C507.09 76.898 505.232 75.04 502.94 75.04Z" fill="white"/>
<path opacity="0.74" d="M502.94 75.04H427.34C425.048 75.04 423.19 76.898 423.19 79.19V102.35C423.19 104.642 425.048 106.5 427.34 106.5H502.94C505.232 106.5 507.09 104.642 507.09 102.35V79.19C507.09 76.898 505.232 75.04 502.94 75.04Z" fill="#EF929C"/>
<path d="M480.46 94.42C479.73 94.42 479.017 94.2036 478.41 93.7981C477.803 93.3926 477.33 92.8163 477.051 92.1421C476.772 91.4678 476.699 90.7259 476.841 90.0101C476.983 89.2943 477.335 88.6368 477.851 88.1208C478.367 87.6047 479.024 87.2533 479.74 87.1109C480.456 86.9685 481.198 87.0416 481.872 87.3209C482.546 87.6002 483.123 88.0731 483.528 88.6799C483.934 89.2867 484.15 90.0002 484.15 90.73C484.147 91.7078 483.758 92.6449 483.066 93.3363C482.375 94.0277 481.438 94.4173 480.46 94.42ZM480.46 88.04C479.928 88.04 479.408 88.1977 478.966 88.4933C478.523 88.7889 478.178 89.209 477.975 89.7006C477.771 90.1921 477.718 90.733 477.822 91.2548C477.925 91.7766 478.182 92.2559 478.558 92.6321C478.934 93.0083 479.413 93.2645 479.935 93.3683C480.457 93.4721 480.998 93.4188 481.489 93.2152C481.981 93.0116 482.401 92.6668 482.697 92.2245C482.992 91.7821 483.15 91.262 483.15 90.73C483.154 90.3737 483.087 90.0202 482.954 89.6898C482.821 89.3594 482.623 89.0587 482.373 88.8049C482.123 88.5511 481.826 88.3494 481.497 88.2112C481.169 88.0731 480.816 88.0013 480.46 88V88.04Z" fill="white"/>
<path d="M465.42 94.42C464.69 94.42 463.977 94.2036 463.37 93.7981C462.763 93.3926 462.29 92.8163 462.011 92.1421C461.732 91.4678 461.659 90.7259 461.801 90.0101C461.943 89.2943 462.295 88.6368 462.811 88.1208C463.327 87.6047 463.984 87.2533 464.7 87.1109C465.416 86.9685 466.158 87.0416 466.832 87.3209C467.506 87.6002 468.083 88.0731 468.488 88.6799C468.894 89.2867 469.11 90.0002 469.11 90.73C469.11 91.7086 468.721 92.6472 468.029 93.3392C467.337 94.0312 466.399 94.42 465.42 94.42ZM465.42 88.04C464.888 88.04 464.368 88.1977 463.926 88.4933C463.483 88.7889 463.138 89.209 462.935 89.7006C462.731 90.1921 462.678 90.733 462.782 91.2548C462.885 91.7766 463.142 92.2559 463.518 92.6321C463.894 93.0083 464.373 93.2645 464.895 93.3683C465.417 93.4721 465.958 93.4188 466.449 93.2152C466.941 93.0116 467.361 92.6668 467.657 92.2245C467.952 91.7821 468.11 91.262 468.11 90.73C468.115 90.3734 468.05 90.0193 467.917 89.6883C467.784 89.3573 467.587 89.056 467.336 88.802C467.086 88.5479 466.788 88.3462 466.459 88.2085C466.13 88.0708 465.777 87.9999 465.42 88V88.04Z" fill="white"/>
<path d="M451.41 94.42C450.68 94.422 449.965 94.2073 449.357 93.803C448.749 93.3988 448.275 92.8232 447.994 92.1491C447.713 91.475 447.638 90.7327 447.78 90.0163C447.921 89.2998 448.272 88.6414 448.787 88.1244C449.303 87.6073 449.96 87.2549 450.676 87.1117C451.392 86.9685 452.135 87.041 452.81 87.32C453.485 87.599 454.061 88.0719 454.467 88.6789C454.873 89.286 455.09 89.9998 455.09 90.73C455.09 91.707 454.703 92.644 454.013 93.3357C453.323 94.0274 452.387 94.4174 451.41 94.42ZM451.41 88.04C450.878 88.0381 450.356 88.1941 449.913 88.4885C449.469 88.7829 449.123 89.2023 448.918 89.6937C448.712 90.185 448.658 90.7262 448.76 91.2487C448.863 91.7711 449.119 92.2514 449.494 92.6286C449.87 93.0058 450.349 93.263 450.872 93.3676C451.394 93.4722 451.935 93.4195 452.427 93.2162C452.919 93.0129 453.34 92.6681 453.636 92.2255C453.932 91.783 454.09 91.2625 454.09 90.73C454.094 90.3746 454.028 90.0219 453.895 89.6922C453.762 89.3624 453.566 89.0621 453.317 88.8085C453.068 88.5549 452.771 88.3529 452.444 88.2141C452.117 88.0754 451.765 88.0026 451.41 88V88.04Z" fill="white"/>
<path d="M451.47 351.88H451.66V353.83L430.57 354.13V352.7C430.57 352.597 430.6 352.497 430.657 352.412C430.714 352.326 430.795 352.259 430.89 352.22C430.943 352.211 430.997 352.211 431.05 352.22L451.47 351.88Z" fill="#373449"/>
<path d="M444.07 344.79L450.45 344.71C450.602 344.709 450.75 344.758 450.87 344.85C450.92 344.882 450.964 344.922 451 344.97C451.115 345.108 451.182 345.28 451.19 345.46V346.2L451.3 348.6L451.44 351.88L431.01 352.17C430.957 352.161 430.903 352.161 430.85 352.17C431.056 351.442 431.45 350.782 431.992 350.255C432.535 349.729 433.207 349.354 433.94 349.17L438.61 348.8L441.78 347.17L443.67 344.83H443.79H443.88L444.07 344.79Z" fill="#373449"/>
<path d="M489.07 273.57L474.21 230.83L474.01 229.25H433.32V251.63C433.32 254.503 433.45 257.37 433.71 260.23L441.46 346.23H452.65L455.47 248.46L456.11 248.37L472 280.11L460 307C459.931 307.173 459.919 307.363 459.965 307.543C460.012 307.723 460.115 307.883 460.26 308L467.74 313.82C467.882 313.929 468.046 314.007 468.221 314.048C468.396 314.089 468.578 314.092 468.754 314.057C468.93 314.022 469.097 313.95 469.243 313.845C469.389 313.74 469.51 313.606 469.6 313.45L488.42 280.28C489.001 279.273 489.359 278.153 489.471 276.995C489.583 275.838 489.447 274.67 489.07 273.57Z" fill="#373449"/>
<path d="M457.39 312.55L457.26 312.4L455.92 313.81L470.69 328.88L471.69 327.88C471.764 327.805 471.814 327.71 471.833 327.607C471.853 327.503 471.841 327.397 471.8 327.3C471.78 327.248 471.749 327.2 471.71 327.16L457.39 312.55Z" fill="#373449"/>
<path d="M467.64 312.72L463.16 308.17C463.052 308.061 462.912 307.991 462.76 307.97C462.704 307.96 462.646 307.96 462.59 307.97C462.41 307.982 462.241 308.056 462.11 308.18L461.56 308.69L459.8 310.32L457.39 312.55L471.69 327.13C471.729 327.17 471.76 327.218 471.78 327.27C472.14 326.609 472.321 325.865 472.305 325.113C472.29 324.361 472.077 323.625 471.69 322.98L468.62 319.43L467.53 316.05L467.83 313.05L467.77 312.94C467.775 312.91 467.775 312.88 467.77 312.85C467.738 312.797 467.693 312.752 467.64 312.72Z" fill="#373449"/>
<path d="M484.18 187.54C483.54 186.43 476.6 193.17 475.03 199.75C474.96 200.01 475.16 199.52 475.03 199.75L480.97 208.15L464.85 226.15L468.92 229.21C468.92 229.21 492.32 213.95 493.76 208.35C494.79 204.42 487.16 192.71 484.18 187.54Z" fill="#F9DCD2"/>
<path d="M398.11 185.62C397.368 184.131 396.269 182.85 394.91 181.89L391.36 178.76C391.231 178.655 391.071 178.598 390.905 178.598C390.739 178.598 390.579 178.655 390.45 178.76L390.35 178.83C390.211 178.934 390.117 179.087 390.087 179.258C390.057 179.429 390.094 179.605 390.19 179.75L391.78 182.33C391.849 182.436 391.888 182.56 391.891 182.687C391.893 182.813 391.861 182.938 391.796 183.048C391.732 183.157 391.638 183.246 391.526 183.305C391.413 183.363 391.287 183.389 391.16 183.38L387.43 183.11H387.32L382.6 182C382.43 181.959 382.252 181.983 382.1 182.069C381.947 182.154 381.833 182.294 381.78 182.46V182.62C381.754 182.713 381.747 182.809 381.759 182.905C381.77 183 381.801 183.092 381.848 183.176C381.895 183.26 381.959 183.333 382.035 183.392C382.111 183.451 382.197 183.495 382.29 183.52L387.18 184.99L381.18 184.07C381.089 184.054 380.996 184.058 380.906 184.08C380.816 184.102 380.732 184.143 380.659 184.199C380.586 184.256 380.525 184.327 380.48 184.408C380.436 184.489 380.408 184.578 380.4 184.67V184.75C380.384 184.927 380.433 185.104 380.538 185.248C380.642 185.391 380.796 185.492 380.97 185.53L387.04 187.01L381.73 186.46C381.623 186.446 381.515 186.458 381.414 186.495C381.313 186.532 381.222 186.593 381.149 186.673C381.077 186.752 381.024 186.848 380.997 186.952C380.969 187.056 380.967 187.165 380.99 187.27V187.46C381.021 187.604 381.093 187.736 381.198 187.839C381.303 187.942 381.436 188.012 381.58 188.04L386.78 189.04L383.09 189.21C382.943 189.213 382.802 189.265 382.688 189.357C382.573 189.449 382.493 189.577 382.46 189.72C382.438 189.822 382.439 189.928 382.46 190.03C382.482 190.132 382.525 190.229 382.586 190.314C382.647 190.399 382.725 190.47 382.816 190.522C382.906 190.575 383.006 190.608 383.11 190.62L387.16 191.06H387.23C390.372 191.775 393.55 192.322 396.75 192.7H396.83L423.21 195.25H423.42C422.126 191.333 421.313 187.273 421 183.16L398.11 185.62Z" fill="#F9DCD2"/>
<path d="M484.51 187.67C482.248 184.918 479.848 182.281 477.32 179.77C472.88 175.56 464.75 176.11 464.75 176.11L442.61 177.86C440.07 178.048 437.542 178.382 435.04 178.86C430.16 179.8 425.78 180.66 420.85 181.69C420.85 182.17 420.91 182.69 420.95 183.13C421.263 187.229 422.072 191.276 423.36 195.18C423.42 195.34 423.47 195.51 423.52 195.67C429.16 195.09 433.45 194.67 433.45 194.67L433.32 240.46L474 231.28L472.15 197.74L475.03 199.58C477.805 195.318 480.979 191.33 484.51 187.67Z" fill="#EF929C"/>
<path d="M475.29 168.14C473.51 162.14 469.86 160.33 467.44 159.85C469.041 157.295 470.04 154.409 470.36 151.41C471.15 142.57 456.53 127.93 447.98 138.65C445.16 138.65 441.86 139.96 438.58 143.92C432.42 151.37 434.3 157.35 436.3 160.56C437.251 162.088 438.683 163.255 440.37 163.88L453.37 168.75C454.68 169.235 456.098 169.354 457.471 169.093C458.843 168.832 460.119 168.202 461.16 167.27C461.98 166.54 462.86 165.68 463.75 164.72C468.12 166.59 466 170.72 466 170.72C461.65 180.09 467 184.78 471 187.54C471.4 187.817 471.863 187.989 472.347 188.041C472.831 188.094 473.32 188.024 473.77 187.839C474.22 187.655 474.617 187.36 474.924 186.983C475.231 186.606 475.44 186.158 475.53 185.68C476.31 181.42 477.09 174.29 475.29 168.14Z" fill="#373449"/>
<path d="M462.18 154.65H461.54L458.72 159.16C454.98 157.27 453.65 152.48 453.23 148.22C448.901 151.085 443.821 152.606 438.63 152.59L437.52 163.49C436.91 169.49 442.31 173.97 447.09 174.26L447.01 177.89C446.32 181.99 448.59 185.79 452.01 186.28C455.21 186.74 458.29 184.14 459.01 180.34L460.31 162.63L460.52 162.58L461.67 162.66C462.378 162.701 463.073 162.46 463.603 161.989C464.134 161.519 464.456 160.858 464.5 160.15L464.66 157.49C464.707 156.785 464.472 156.09 464.007 155.557C463.542 155.025 462.885 154.699 462.18 154.65Z" fill="#F9DCD2"/>
<path opacity="0.37" d="M455.63 174.31L447.04 174.46L446.98 177.53L455.63 174.31Z" fill="#EF929C"/>
<path d="M442.33 156.17C442.104 156.23 441.866 156.23 441.64 156.17C441.39 156.17 441.15 156.11 440.93 156.09C440.71 156.07 440.47 156.09 440.22 156.09C439.984 156.109 439.746 156.068 439.53 155.97C439.35 155.86 439.3 155.57 439.53 155.23C439.709 155.012 439.941 154.843 440.203 154.738C440.465 154.633 440.75 154.596 441.03 154.63C441.313 154.64 441.589 154.72 441.833 154.863C442.078 155.006 442.283 155.208 442.43 155.45C442.63 155.81 442.53 156.08 442.33 156.17Z" fill="#373449"/>
<path d="M450.86 156.69C450.634 156.75 450.396 156.75 450.17 156.69L449.46 156.61C449.24 156.61 449 156.61 448.75 156.61C448.514 156.629 448.276 156.588 448.06 156.49C447.88 156.38 447.82 156.09 448.06 155.75C448.242 155.535 448.474 155.369 448.736 155.264C448.997 155.16 449.28 155.12 449.56 155.15C449.844 155.157 450.121 155.236 450.366 155.38C450.61 155.523 450.815 155.726 450.96 155.97C451.15 156.33 451.06 156.6 450.86 156.69Z" fill="#373449"/>
<path d="M440.41 159.67C440.265 159.655 440.132 159.584 440.038 159.472C439.945 159.36 439.899 159.215 439.91 159.07L440 158C440.015 157.856 440.087 157.723 440.199 157.631C440.311 157.54 440.456 157.496 440.6 157.51C440.672 157.516 440.743 157.537 440.807 157.57C440.871 157.604 440.929 157.65 440.975 157.706C441.021 157.762 441.056 157.826 441.078 157.895C441.099 157.965 441.107 158.038 441.1 158.11L440.99 159.21C440.97 159.346 440.899 159.47 440.791 159.555C440.683 159.641 440.547 159.682 440.41 159.67Z" fill="#373449"/>
<path d="M448.67 160.47C448.598 160.464 448.527 160.443 448.463 160.41C448.399 160.376 448.341 160.33 448.295 160.274C448.249 160.218 448.214 160.154 448.192 160.085C448.171 160.015 448.163 159.942 448.17 159.87L448.28 158.77C448.286 158.698 448.307 158.627 448.34 158.563C448.374 158.499 448.42 158.441 448.476 158.395C448.532 158.349 448.596 158.314 448.665 158.292C448.735 158.271 448.808 158.263 448.88 158.27C448.952 158.276 449.023 158.297 449.087 158.33C449.151 158.364 449.209 158.41 449.255 158.466C449.301 158.522 449.336 158.586 449.358 158.655C449.379 158.725 449.387 158.798 449.38 158.87L449.27 159.97C449.264 160.042 449.243 160.113 449.21 160.177C449.176 160.241 449.13 160.298 449.074 160.345C449.018 160.391 448.954 160.426 448.885 160.448C448.815 160.469 448.742 160.477 448.67 160.47Z" fill="#373449"/>
<path d="M445 162.54H444.11C443.844 162.525 443.587 162.441 443.363 162.298C443.138 162.154 442.955 161.955 442.83 161.72C442.702 161.487 442.635 161.226 442.635 160.96C442.635 160.694 442.702 160.433 442.83 160.2V160.13H442.91C443.3 159.962 443.639 159.694 443.894 159.354C444.148 159.013 444.309 158.612 444.36 158.19V157.87C444.362 157.837 444.372 157.804 444.387 157.774C444.403 157.745 444.425 157.719 444.451 157.698C444.478 157.677 444.508 157.662 444.54 157.654C444.573 157.646 444.607 157.644 444.64 157.65C444.673 157.654 444.705 157.664 444.734 157.68C444.763 157.696 444.788 157.718 444.809 157.744C444.829 157.77 444.844 157.8 444.853 157.832C444.862 157.864 444.864 157.897 444.86 157.93V158.25C444.8 158.745 444.614 159.216 444.319 159.619C444.025 160.021 443.633 160.342 443.18 160.55C443.099 160.704 443.057 160.876 443.057 161.05C443.057 161.224 443.099 161.396 443.18 161.55C443.26 161.714 443.384 161.853 443.537 161.951C443.69 162.05 443.868 162.105 444.05 162.11H444.94C445.005 162.118 445.065 162.15 445.108 162.2C445.151 162.25 445.173 162.314 445.17 162.38C445.157 162.418 445.134 162.453 445.105 162.481C445.075 162.509 445.039 162.529 445 162.54Z" fill="#EF929C"/>
<path d="M448.25 167.21L446.05 167.07C445.813 167.055 445.592 166.946 445.434 166.768C445.277 166.59 445.196 166.357 445.21 166.12L445.34 163.97L450.42 164.28L450.36 165.34C450.327 165.867 450.086 166.36 449.691 166.71C449.295 167.06 448.777 167.24 448.25 167.21Z" fill="white"/>
<path opacity="0.47" d="M125.15 185.4H28.88C26.3947 185.4 24.38 187.415 24.38 189.9V294.83C24.38 297.315 26.3947 299.33 28.88 299.33H125.15C127.635 299.33 129.65 297.315 129.65 294.83V189.9C129.65 187.415 127.635 185.4 125.15 185.4Z" fill="white"/>
<path d="M106.04 194.78H47.98C46.903 194.78 46.03 195.653 46.03 196.73V204.81C46.03 205.887 46.903 206.76 47.98 206.76H106.04C107.117 206.76 107.99 205.887 107.99 204.81V196.73C107.99 195.653 107.117 194.78 106.04 194.78Z" fill="white"/>
<path d="M106.04 212.08H47.98C46.903 212.08 46.03 212.953 46.03 214.03V214.1C46.03 215.177 46.903 216.05 47.98 216.05H106.04C107.117 216.05 107.99 215.177 107.99 214.1V214.03C107.99 212.953 107.117 212.08 106.04 212.08Z" fill="white"/>
<path d="M106.04 221.23H47.98C46.903 221.23 46.03 222.103 46.03 223.18V223.25C46.03 224.327 46.903 225.2 47.98 225.2H106.04C107.117 225.2 107.99 224.327 107.99 223.25V223.18C107.99 222.103 107.117 221.23 106.04 221.23Z" fill="white"/>
<path d="M50 238.7C50 239.689 49.7068 240.656 49.1574 241.478C48.6079 242.3 47.8271 242.941 46.9134 243.319C45.9998 243.698 44.9945 243.797 44.0245 243.604C43.0546 243.411 42.1637 242.935 41.4645 242.236C40.7652 241.536 40.289 240.645 40.0961 239.675C39.9031 238.706 40.0022 237.7 40.3806 236.787C40.759 235.873 41.3999 235.092 42.2222 234.543C43.0444 233.993 44.0111 233.7 45 233.7C46.3261 233.7 47.5979 234.227 48.5355 235.164C49.4732 236.102 50 237.374 50 238.7Z" fill="white"/>
<path d="M50 261.36C50 262.349 49.7068 263.316 49.1574 264.138C48.6079 264.96 47.8271 265.601 46.9134 265.979C45.9998 266.358 44.9945 266.457 44.0245 266.264C43.0546 266.071 42.1637 265.595 41.4645 264.896C40.7652 264.196 40.289 263.305 40.0961 262.335C39.9031 261.366 40.0022 260.36 40.3806 259.447C40.759 258.533 41.3999 257.752 42.2222 257.203C43.0444 256.653 44.0111 256.36 45 256.36C46.3261 256.36 47.5979 256.887 48.5355 257.824C49.4732 258.762 50 260.034 50 261.36Z" fill="white"/>
<path d="M50 283.34C50 284.329 49.7068 285.296 49.1574 286.118C48.6079 286.94 47.8271 287.581 46.9134 287.959C45.9998 288.338 44.9945 288.437 44.0245 288.244C43.0546 288.051 42.1637 287.575 41.4645 286.875C40.7652 286.176 40.289 285.285 40.0961 284.315C39.9031 283.346 40.0022 282.34 40.3806 281.427C40.759 280.513 41.3999 279.732 42.2222 279.183C43.0444 278.633 44.0111 278.34 45 278.34C46.3261 278.34 47.5979 278.867 48.5355 279.804C49.4732 280.742 50 282.014 50 283.34Z" fill="white"/>
<path d="M100.67 236.76H52.86C52.7274 236.76 52.6002 236.707 52.5064 236.614C52.4127 236.52 52.36 236.393 52.36 236.26C52.3626 236.128 52.4161 236.003 52.5093 235.909C52.6025 235.816 52.7282 235.763 52.86 235.76H100.67C100.803 235.76 100.93 235.813 101.024 235.906C101.117 236 101.17 236.127 101.17 236.26C101.17 236.393 101.117 236.52 101.024 236.614C100.93 236.707 100.803 236.76 100.67 236.76Z" fill="white"/>
<path d="M76.77 241.85H52.86C52.7274 241.85 52.6002 241.797 52.5064 241.704C52.4127 241.61 52.36 241.483 52.36 241.35C52.36 241.217 52.4127 241.09 52.5064 240.996C52.6002 240.903 52.7274 240.85 52.86 240.85H76.77C76.9026 240.85 77.0298 240.903 77.1236 240.996C77.2173 241.09 77.27 241.217 77.27 241.35C77.27 241.483 77.2173 241.61 77.1236 241.704C77.0298 241.797 76.9026 241.85 76.77 241.85Z" fill="white"/>
<path d="M100.67 260.16H52.86C52.7274 260.16 52.6002 260.107 52.5064 260.014C52.4127 259.92 52.36 259.793 52.36 259.66C52.36 259.527 52.4127 259.4 52.5064 259.306C52.6002 259.213 52.7274 259.16 52.86 259.16H100.67C100.803 259.16 100.93 259.213 101.024 259.306C101.117 259.4 101.17 259.527 101.17 259.66C101.17 259.793 101.117 259.92 101.024 260.014C100.93 260.107 100.803 260.16 100.67 260.16Z" fill="white"/>
<path d="M76.77 265.25H52.86C52.7282 265.247 52.6025 265.194 52.5093 265.101C52.4161 265.007 52.3626 264.882 52.36 264.75C52.36 264.617 52.4127 264.49 52.5064 264.396C52.6002 264.303 52.7274 264.25 52.86 264.25H76.77C76.9026 264.25 77.0298 264.303 77.1236 264.396C77.2173 264.49 77.27 264.617 77.27 264.75C77.27 264.883 77.2173 265.01 77.1236 265.104C77.0298 265.197 76.9026 265.25 76.77 265.25Z" fill="white"/>
<path d="M100.67 281.52H52.86C52.7274 281.52 52.6002 281.467 52.5064 281.374C52.4127 281.28 52.36 281.153 52.36 281.02C52.3626 280.888 52.4161 280.763 52.5093 280.669C52.6025 280.576 52.7282 280.523 52.86 280.52H100.67C100.803 280.52 100.93 280.573 101.024 280.666C101.117 280.76 101.17 280.887 101.17 281.02C101.17 281.153 101.117 281.28 101.024 281.374C100.93 281.467 100.803 281.52 100.67 281.52Z" fill="white"/>
<path d="M76.77 286.61H52.86C52.7274 286.61 52.6002 286.557 52.5064 286.464C52.4127 286.37 52.36 286.243 52.36 286.11C52.36 285.977 52.4127 285.85 52.5064 285.756C52.6002 285.663 52.7274 285.61 52.86 285.61H76.77C76.9026 285.61 77.0298 285.663 77.1236 285.756C77.2173 285.85 77.27 285.977 77.27 286.11C77.27 286.243 77.2173 286.37 77.1236 286.464C77.0298 286.557 76.9026 286.61 76.77 286.61Z" fill="white"/>
<path opacity="0.79" d="M84.32 130.57H1.39C1.20404 130.57 1.01997 130.607 0.848662 130.68C0.677358 130.752 0.522311 130.858 0.3927 130.991C0.26309 131.125 0.161552 131.282 0.0940978 131.456C0.0266436 131.629 -0.00535531 131.814 -4.1356e-06 132V159.28C-4.1356e-06 159.649 0.146442 160.002 0.407117 160.263C0.667793 160.524 1.02134 160.67 1.39 160.67H61.13L74.81 174.35V160.63H84.32C84.6896 160.63 85.0442 160.484 85.3064 160.223C85.5687 159.963 85.7174 159.61 85.72 159.24V132C85.724 131.814 85.6907 131.628 85.6222 131.455C85.5536 131.282 85.4511 131.124 85.3207 130.991C85.1903 130.857 85.0346 130.752 84.8628 130.679C84.6909 130.607 84.5064 130.57 84.32 130.57Z" fill="#3E479B"/>
<path d="M72.4 139.69H13.47C13.1 139.69 12.8 139.51 12.8 139.28C12.8 139.05 13.1 138.86 13.47 138.86H72.4C72.77 138.86 73.07 139.05 73.07 139.28C73.07 139.51 72.77 139.69 72.4 139.69Z" fill="white"/>
<path d="M72.4 153.61H13.47C13.1 153.61 12.8 153.42 12.8 153.19C12.8 152.96 13.1 152.77 13.47 152.77H72.4C72.77 152.77 73.07 152.96 73.07 153.19C73.07 153.42 72.77 153.61 72.4 153.61Z" fill="white"/>
<path d="M44.27 146.37H13.47C13.1 146.37 12.8 146.18 12.8 145.95C12.8 145.72 13.1 145.53 13.47 145.53H44.27C44.64 145.53 44.94 145.72 44.94 145.95C44.94 146.18 44.64 146.37 44.27 146.37Z" fill="white"/>
<path d="M63.47 146.37H50.08C49.71 146.37 49.41 146.18 49.41 145.95C49.41 145.72 49.71 145.53 50.08 145.53H63.47C63.84 145.53 64.14 145.72 64.14 145.95C64.14 146.18 63.84 146.37 63.47 146.37Z" fill="white"/>
<path opacity="0.47" d="M164.35 59.42H54.4C49.4736 59.42 45.48 63.4136 45.48 68.34V103.25C45.48 108.176 49.4736 112.17 54.4 112.17H164.35C169.276 112.17 173.27 108.176 173.27 103.25V68.34C173.27 63.4136 169.276 59.42 164.35 59.42Z" fill="#599AF2"/>
<path d="M143.03 15.97H11.83C7.84802 15.97 4.62 19.198 4.62 23.18V63.37C4.62 67.3519 7.84802 70.58 11.83 70.58H143.03C147.012 70.58 150.24 67.3519 150.24 63.37V23.18C150.24 19.198 147.012 15.97 143.03 15.97Z" fill="white"/>
<path opacity="0.74" d="M143.03 15.97H11.83C7.84802 15.97 4.62 19.198 4.62 23.18V63.37C4.62 67.3519 7.84802 70.58 11.83 70.58H143.03C147.012 70.58 150.24 67.3519 150.24 63.37V23.18C150.24 19.198 147.012 15.97 143.03 15.97Z" fill="#EF929C"/>
<path d="M50.85 49.23C49.6633 49.23 48.5033 48.8781 47.5166 48.2188C46.5299 47.5595 45.7609 46.6224 45.3067 45.5261C44.8526 44.4297 44.7338 43.2233 44.9653 42.0594C45.1968 40.8956 45.7683 39.8265 46.6074 38.9873C47.4465 38.1482 48.5156 37.5768 49.6795 37.3453C50.8434 37.1138 52.0497 37.2326 53.1461 37.6867C54.2425 38.1408 55.1795 38.9099 55.8388 39.8966C56.4981 40.8833 56.85 42.0433 56.85 43.23C56.85 44.8213 56.2179 46.3474 55.0926 47.4726C53.9674 48.5978 52.4413 49.23 50.85 49.23ZM50.85 38.17C49.8611 38.17 48.8944 38.4632 48.0722 39.0126C47.2499 39.562 46.609 40.3429 46.2306 41.2566C45.8522 42.1702 45.7532 43.1755 45.9461 44.1454C46.139 45.1153 46.6152 46.0063 47.3145 46.7055C48.0137 47.4048 48.9047 47.881 49.8746 48.0739C50.8445 48.2668 51.8498 48.1678 52.7634 47.7894C53.6771 47.4109 54.4579 46.7701 55.0074 45.9478C55.5568 45.1256 55.85 44.1589 55.85 43.17C55.85 41.8439 55.3232 40.5721 54.3855 39.6344C53.4479 38.6968 52.1761 38.17 50.85 38.17Z" fill="white"/>
<path d="M77 49.23C75.8133 49.23 74.6533 48.8781 73.6666 48.2188C72.6799 47.5595 71.9109 46.6224 71.4567 45.5261C71.0026 44.4297 70.8838 43.2233 71.1153 42.0594C71.3468 40.8956 71.9182 39.8265 72.7574 38.9873C73.5965 38.1482 74.6656 37.5768 75.8295 37.3453C76.9933 37.1138 78.1997 37.2326 79.2961 37.6867C80.3925 38.1408 81.3295 38.9099 81.9888 39.8966C82.6481 40.8833 83 42.0433 83 43.23C83 44.8213 82.3679 46.3474 81.2426 47.4726C80.1174 48.5978 78.5913 49.23 77 49.23ZM77 38.17C76.0111 38.17 75.0444 38.4632 74.2221 39.0126C73.3999 39.562 72.759 40.3429 72.3806 41.2566C72.0022 42.1702 71.9032 43.1755 72.0961 44.1454C72.289 45.1153 72.7652 46.0063 73.4645 46.7055C74.1637 47.4048 75.0546 47.881 76.0246 48.0739C76.9945 48.2668 77.9998 48.1678 78.9134 47.7894C79.827 47.4109 80.6079 46.7701 81.1574 45.9478C81.7068 45.1256 82 44.1589 82 43.17C82 42.5134 81.8707 41.8632 81.6194 41.2566C81.3681 40.6499 80.9998 40.0987 80.5355 39.6344C80.0712 39.1702 79.52 38.8019 78.9134 38.5506C78.3068 38.2993 77.6566 38.17 77 38.17Z" fill="white"/>
<path d="M101.28 49.23C100.093 49.23 98.9333 48.8781 97.9466 48.2188C96.9599 47.5595 96.1909 46.6224 95.7367 45.5261C95.2826 44.4297 95.1638 43.2233 95.3953 42.0594C95.6268 40.8956 96.1982 39.8265 97.0374 38.9873C97.8765 38.1482 98.9456 37.5768 100.109 37.3453C101.273 37.1138 102.48 37.2326 103.576 37.6867C104.672 38.1408 105.61 38.9099 106.269 39.8966C106.928 40.8833 107.28 42.0433 107.28 43.23C107.28 44.8213 106.648 46.3474 105.523 47.4726C104.397 48.5978 102.871 49.23 101.28 49.23ZM101.28 38.17C100.291 38.17 99.3244 38.4632 98.5022 39.0126C97.6799 39.562 97.039 40.3429 96.6606 41.2566C96.2822 42.1702 96.1832 43.1755 96.3761 44.1454C96.569 45.1153 97.0452 46.0063 97.7445 46.7055C98.4437 47.4048 99.3346 47.881 100.305 48.0739C101.274 48.2668 102.28 48.1678 103.193 47.7894C104.107 47.4109 104.888 46.7701 105.437 45.9478C105.987 45.1256 106.28 44.1589 106.28 43.17C106.28 41.8439 105.753 40.5721 104.816 39.6344C103.878 38.6968 102.606 38.17 101.28 38.17Z" fill="white"/>
<path d="M290.08 297.11H224.59V345.06H290.08V297.11Z" fill="#3E479B"/>
<path d="M411.63 82.66H103.04C98.4781 82.66 94.78 86.3582 94.78 90.92V273.65C94.78 278.212 98.4781 281.91 103.04 281.91H411.63C416.192 281.91 419.89 278.212 419.89 273.65V90.92C419.89 86.3582 416.192 82.66 411.63 82.66Z" fill="#3E479B"/>
<path d="M410.22 301.79H104.44C99.11 301.79 94.78 296.69 94.78 290.4V260.86H419.89V290.4C419.89 296.69 415.56 301.79 410.22 301.79Z" fill="#4C65BA"/>
<path d="M404.08 96.42H110.58C109.602 96.42 108.81 97.2124 108.81 98.19V258.37C108.81 259.348 109.602 260.14 110.58 260.14H404.08C405.058 260.14 405.85 259.348 405.85 258.37V98.19C405.85 97.2124 405.058 96.42 404.08 96.42Z" fill="white"/>
<path opacity="0.81" d="M383.52 108.11H131.14C130.162 108.11 129.37 108.902 129.37 109.88V247.4C129.37 248.378 130.162 249.17 131.14 249.17H383.52C384.498 249.17 385.29 248.378 385.29 247.4V109.88C385.29 108.902 384.498 108.11 383.52 108.11Z" fill="#ECF1F7"/>
<path d="M257.33 293.52C254.976 293.52 252.676 292.822 250.719 291.514C248.762 290.207 247.237 288.348 246.336 286.174C245.435 283.999 245.199 281.607 245.659 279.298C246.118 276.99 247.251 274.87 248.915 273.205C250.58 271.541 252.7 270.408 255.008 269.949C257.317 269.489 259.709 269.725 261.884 270.626C264.058 271.526 265.917 273.052 267.224 275.009C268.532 276.966 269.23 279.266 269.23 281.62C269.225 284.774 267.969 287.798 265.739 290.029C263.508 292.259 260.484 293.515 257.33 293.52ZM257.33 270.72C255.174 270.72 253.067 271.359 251.274 272.557C249.482 273.755 248.085 275.457 247.26 277.449C246.435 279.44 246.219 281.632 246.639 283.746C247.06 285.861 248.098 287.803 249.623 289.327C251.147 290.852 253.089 291.89 255.204 292.311C257.318 292.731 259.51 292.515 261.501 291.69C263.493 290.865 265.195 289.468 266.393 287.676C267.591 285.883 268.23 283.776 268.23 281.62C268.227 278.73 267.078 275.959 265.035 273.915C262.991 271.872 260.22 270.723 257.33 270.72Z" fill="white"/>
<path d="M326.91 353.25H187.75V351.25C187.75 348.067 189.014 345.015 191.265 342.765C193.515 340.514 196.567 339.25 199.75 339.25H314.91C318.093 339.25 321.145 340.514 323.395 342.765C325.646 345.015 326.91 348.067 326.91 351.25V353.25Z" fill="#4C65BA"/>
<path opacity="0.9" d="M257.33 153.95C262.129 153.95 266.02 150.059 266.02 145.26C266.02 140.461 262.129 136.57 257.33 136.57C252.531 136.57 248.64 140.461 248.64 145.26C248.64 150.059 252.531 153.95 257.33 153.95Z" fill="white"/>
<path opacity="0.15" d="M257.33 219.99C262.129 219.99 266.02 216.099 266.02 211.3C266.02 206.501 262.129 202.61 257.33 202.61C252.531 202.61 248.64 206.501 248.64 211.3C248.64 216.099 252.531 219.99 257.33 219.99Z" fill="white"/>
<path opacity="0.5" d="M290.35 186.97C295.149 186.97 299.04 183.079 299.04 178.28C299.04 173.481 295.149 169.59 290.35 169.59C285.551 169.59 281.66 173.481 281.66 178.28C281.66 183.079 285.551 186.97 290.35 186.97Z" fill="white"/>
<path d="M224.31 186.97C229.109 186.97 233 183.079 233 178.28C233 173.481 229.109 169.59 224.31 169.59C219.511 169.59 215.62 173.481 215.62 178.28C215.62 183.079 219.511 186.97 224.31 186.97Z" fill="white"/>
<path opacity="0.7" d="M286.82 161.08C285.605 162.295 284.056 163.123 282.371 163.458C280.685 163.793 278.938 163.621 277.35 162.963C275.762 162.306 274.405 161.192 273.45 159.763C272.495 158.334 271.985 156.654 271.985 154.935C271.985 153.216 272.495 151.536 273.45 150.107C274.405 148.678 275.762 147.564 277.35 146.907C278.938 146.249 280.685 146.077 282.371 146.412C284.056 146.747 285.605 147.575 286.82 148.79C287.627 149.597 288.267 150.555 288.704 151.609C289.141 152.664 289.365 153.794 289.365 154.935C289.365 156.076 289.141 157.206 288.704 158.261C288.267 159.315 287.627 160.273 286.82 161.08Z" fill="white"/>
<path opacity="0.1" d="M233.98 210.32C238.779 210.32 242.67 206.429 242.67 201.63C242.67 196.831 238.779 192.94 233.98 192.94C229.181 192.94 225.29 196.831 225.29 201.63C225.29 206.429 229.181 210.32 233.98 210.32Z" fill="white"/>
<path opacity="0.3" d="M274.54 207.77C273.323 206.555 272.494 205.007 272.158 203.321C271.822 201.635 271.993 199.887 272.65 198.298C273.308 196.709 274.421 195.351 275.851 194.396C277.28 193.44 278.961 192.93 280.68 192.93C282.399 192.93 284.08 193.44 285.509 194.396C286.939 195.351 288.052 196.709 288.71 198.298C289.367 199.887 289.538 201.635 289.202 203.321C288.866 205.007 288.037 206.555 286.82 207.77C286.014 208.577 285.057 209.217 284.003 209.653C282.95 210.09 281.82 210.315 280.68 210.315C279.54 210.315 278.41 210.09 277.357 209.653C276.303 209.217 275.346 208.577 274.54 207.77Z" fill="white"/>
<path d="M227.84 161.08C226.625 159.865 225.797 158.316 225.462 156.631C225.127 154.945 225.299 153.198 225.957 151.61C226.614 150.022 227.728 148.665 229.157 147.71C230.586 146.755 232.266 146.245 233.985 146.245C235.704 146.245 237.384 146.755 238.813 147.71C240.242 148.665 241.356 150.022 242.013 151.61C242.671 153.198 242.843 154.945 242.508 156.631C242.173 158.316 241.345 159.865 240.13 161.08C238.499 162.707 236.289 163.621 233.985 163.621C231.681 163.621 229.471 162.707 227.84 161.08Z" fill="white"/>
<path opacity="0.47" d="M404.08 96.42H110.58C109.602 96.42 108.81 97.2124 108.81 98.19V111.41C108.81 112.388 109.602 113.18 110.58 113.18H404.08C405.058 113.18 405.85 112.388 405.85 111.41V98.19C405.85 97.2124 405.058 96.42 404.08 96.42Z" fill="#599AF2"/>
<path d="M377.37 104.53C377.37 104.833 377.28 105.128 377.112 105.38C376.944 105.632 376.705 105.828 376.426 105.944C376.146 106.059 375.838 106.09 375.542 106.031C375.245 105.972 374.972 105.826 374.758 105.612C374.544 105.398 374.398 105.125 374.339 104.829C374.28 104.532 374.311 104.224 374.426 103.945C374.542 103.665 374.738 103.426 374.99 103.258C375.242 103.09 375.537 103 375.84 103C376.041 102.999 376.241 103.037 376.427 103.114C376.613 103.19 376.783 103.303 376.925 103.445C377.067 103.588 377.18 103.757 377.256 103.943C377.333 104.129 377.371 104.329 377.37 104.53Z" fill="#ECF1F7"/>
<path d="M393.65 104.53C393.65 104.833 393.56 105.128 393.392 105.38C393.224 105.632 392.985 105.828 392.706 105.944C392.426 106.059 392.118 106.09 391.822 106.031C391.525 105.972 391.252 105.826 391.038 105.612C390.824 105.398 390.678 105.125 390.619 104.828C390.56 104.532 390.591 104.224 390.706 103.944C390.822 103.665 391.018 103.426 391.27 103.258C391.522 103.09 391.817 103 392.12 103C392.526 103 392.915 103.161 393.202 103.448C393.489 103.735 393.65 104.124 393.65 104.53Z" fill="#ECF1F7"/>
<path d="M383.98 106.06C384.825 106.06 385.51 105.375 385.51 104.53C385.51 103.685 384.825 103 383.98 103C383.135 103 382.45 103.685 382.45 104.53C382.45 105.375 383.135 106.06 383.98 106.06Z" fill="#ECF1F7"/>
<path d="M118.25 274.33L119.82 269.81C120.162 268.833 120.798 267.986 121.642 267.385C122.486 266.785 123.495 266.462 124.53 266.46H163.64C164.966 266.46 166.238 266.987 167.176 267.924C168.113 268.862 168.64 270.134 168.64 271.46V349.29C168.64 350.616 168.113 351.888 167.176 352.826C166.238 353.763 164.966 354.29 163.64 354.29H45.64C44.3139 354.29 43.0421 353.763 42.1045 352.826C41.1668 351.888 40.64 350.616 40.64 349.29V282.66C40.64 281.334 41.1668 280.062 42.1045 279.124C43.0421 278.187 44.3139 277.66 45.64 277.66H113.54C114.573 277.659 115.58 277.339 116.424 276.743C117.267 276.146 117.905 275.304 118.25 274.33Z" fill="#599AF2"/>
<path opacity="0.12" d="M121.14 278.92L122.62 274.66C122.942 273.739 123.542 272.941 124.337 272.377C125.133 271.812 126.085 271.509 127.06 271.51H163.93C165.174 271.51 166.367 272.004 167.246 272.884C168.126 273.763 168.62 274.956 168.62 276.2V349.57C168.62 350.815 168.126 352.009 167.247 352.89C166.368 353.771 165.175 354.267 163.93 354.27H52.7C51.4552 354.267 50.2623 353.771 49.3831 352.89C48.5038 352.009 48.01 350.815 48.01 349.57V286.77C48.0087 286.153 48.129 285.542 48.3641 284.972C48.5992 284.402 48.9445 283.884 49.3801 283.447C49.8158 283.011 50.3332 282.664 50.9029 282.428C51.4726 282.192 52.0833 282.07 52.7 282.07H116.7C117.676 282.074 118.629 281.772 119.425 281.207C120.221 280.642 120.821 279.843 121.14 278.92Z" fill="white"/>
<path opacity="0.21" d="M314.29 264.38C352.801 264.38 384.02 233.161 384.02 194.65C384.02 156.139 352.801 124.92 314.29 124.92C275.779 124.92 244.56 156.139 244.56 194.65C244.56 233.161 275.779 264.38 314.29 264.38Z" fill="white"/>
<path opacity="0.81" d="M321.588 167.628C329.713 165.796 334.813 157.724 332.981 149.6C331.149 141.476 323.077 136.375 314.953 138.207C306.828 140.04 301.728 148.111 303.56 156.236C305.392 164.36 313.464 169.461 321.588 167.628Z" fill="#ECF1F7"/>
<path opacity="0.58" d="M314.29 266.38C300.102 266.384 286.232 262.18 274.434 254.301C262.635 246.422 253.438 235.22 248.006 222.114C242.574 209.007 241.15 194.584 243.916 180.668C246.681 166.753 253.511 153.97 263.542 143.936C273.573 133.903 286.354 127.069 300.269 124.3C314.184 121.53 328.607 122.95 341.715 128.378C354.823 133.807 366.027 143.001 373.91 154.797C381.793 166.593 386 180.462 386 194.65C385.979 213.664 378.418 231.894 364.974 245.34C351.531 258.787 333.304 266.354 314.29 266.38ZM314.29 126.92C300.893 126.916 287.797 130.885 276.656 138.325C265.515 145.765 256.831 156.341 251.701 168.717C246.572 181.093 245.228 194.712 247.839 207.851C250.45 220.991 256.899 233.061 266.371 242.535C275.842 252.009 287.91 258.462 301.049 261.077C314.188 263.692 327.807 262.352 340.185 257.226C352.562 252.101 363.141 243.419 370.584 232.281C378.027 221.142 382 208.047 382 194.65C381.981 176.696 374.842 159.482 362.149 146.785C349.455 134.088 332.244 126.944 314.29 126.92Z" fill="#3E479B"/>
<path d="M425.89 293.62L379.94 248.62C379.076 247.768 378.058 247.09 376.94 246.62C390.294 230.572 396.989 210.016 395.649 189.181C394.309 168.346 385.035 148.818 369.734 134.613C354.434 120.407 334.272 112.606 313.395 112.814C292.519 113.022 272.515 121.223 257.501 135.73C242.487 150.236 233.603 169.946 232.678 190.803C231.752 211.66 238.856 232.079 252.526 247.858C266.197 263.638 285.395 273.578 306.172 275.634C326.948 277.689 347.722 271.704 364.22 258.91C364.709 260.227 365.484 261.419 366.49 262.4L412.43 307.4C414.275 309.099 416.708 310.014 419.215 309.949C421.723 309.885 424.106 308.847 425.861 307.056C427.617 305.264 428.605 302.86 428.618 300.352C428.631 297.844 427.667 295.429 425.93 293.62H425.89ZM244.56 194.62C244.56 180.829 248.65 167.347 256.312 155.88C263.974 144.413 274.864 135.476 287.606 130.198C300.347 124.92 314.367 123.539 327.894 126.23C341.42 128.92 353.845 135.562 363.597 145.313C373.348 155.065 379.99 167.49 382.68 181.016C385.371 194.543 383.99 208.563 378.712 221.304C373.434 234.046 364.497 244.936 353.03 252.598C341.563 260.26 328.081 264.35 314.29 264.35C295.802 264.35 278.07 257.008 264.994 243.937C251.918 230.867 244.568 213.138 244.56 194.65V194.62Z" fill="#3E479B"/>
<path d="M475 332.41L408.15 265.56C406.48 263.9 381.8 288.44 383.54 290.17L450.4 357C453.664 360.258 458.088 362.089 462.7 362.089C467.312 362.089 471.736 360.258 475 357C478.255 353.736 480.084 349.315 480.084 344.705C480.084 340.095 478.255 335.674 475 332.41ZM470 343.75C469.936 345.329 469.264 346.822 468.124 347.917C466.984 349.011 465.465 349.623 463.885 349.623C462.305 349.623 460.786 349.011 459.646 347.917C458.506 346.822 457.834 345.329 457.77 343.75C457.737 342.926 457.87 342.104 458.162 341.333C458.455 340.562 458.9 339.858 459.471 339.264C460.042 338.669 460.727 338.196 461.486 337.872C462.244 337.549 463.061 337.383 463.885 337.383C464.71 337.383 465.526 337.549 466.284 337.872C467.043 338.196 467.728 338.669 468.299 339.264C468.87 339.858 469.315 340.562 469.608 341.333C469.9 342.104 470.033 342.926 470 343.75Z" fill="#599AF2"/>
<g opacity="0.1">
<path d="M467.23 348.84C466.31 349.451 465.24 349.801 464.137 349.853C463.033 349.905 461.936 349.657 460.962 349.134C459.988 348.612 459.174 347.836 458.607 346.887C458.04 345.939 457.74 344.855 457.74 343.75C457.741 342.477 458.139 341.236 458.88 340.2C443.62 324.43 421.1 301.2 407.52 287.29C400.52 280.08 395.87 275.29 395.86 275.29C389.24 281.76 382.63 289.2 383.56 290.12L450.4 357C453.664 360.258 458.088 362.089 462.7 362.089C467.312 362.089 471.736 360.258 475 357C475 357 472.06 353.85 467.23 348.84Z" fill="white"/>
</g>
<path d="M403.489 261.45L379.356 285.583C378.254 286.685 378.254 288.47 379.356 289.572L383.711 293.927C384.813 295.029 386.598 295.029 387.7 293.927L411.833 269.794C412.934 268.692 412.934 266.907 411.833 265.806L407.477 261.45C406.376 260.349 404.591 260.349 403.489 261.45Z" fill="white"/>
</g>
<defs>
<clipPath id="clip0_714_8413">
<rect width="549.73" height="362.12" fill="white"/>
</clipPath>
</defs>
</svg>
