<svg width="478" height="388" viewBox="0 0 478 388" fill="none" xmlns="http://www.w3.org/2000/svg">
<g clip-path="url(#clip0_191_5143)">
<path d="M376.347 301.417C376.297 301.331 376.23 301.255 376.15 301.194C376.07 301.133 375.978 301.089 375.881 301.064C375.784 301.039 375.683 301.033 375.583 301.048C375.484 301.062 375.389 301.096 375.302 301.147L372.761 302.644L371.265 300.102C371.162 299.928 370.994 299.802 370.798 299.752C370.602 299.702 370.394 299.732 370.22 299.835C370.046 299.938 369.921 300.107 369.871 300.303C369.821 300.499 369.85 300.706 369.954 300.88L371.45 303.422L368.909 304.918C368.822 304.969 368.746 305.036 368.686 305.116C368.626 305.196 368.583 305.288 368.559 305.385C368.521 305.531 368.526 305.685 368.576 305.828C368.625 305.971 368.716 306.095 368.837 306.186C368.958 306.277 369.103 306.329 369.254 306.337C369.404 306.345 369.554 306.308 369.684 306.23L372.225 304.734L373.717 307.275C373.798 307.411 373.919 307.519 374.064 307.583C374.208 307.647 374.369 307.665 374.524 307.634C374.609 307.619 374.689 307.588 374.762 307.542C374.936 307.44 375.062 307.272 375.113 307.077C375.163 306.882 375.134 306.674 375.032 306.5L373.536 303.959L376.077 302.462C376.164 302.412 376.239 302.344 376.3 302.264C376.36 302.184 376.404 302.093 376.429 301.996C376.454 301.899 376.46 301.798 376.446 301.698C376.432 301.599 376.398 301.504 376.347 301.417Z" fill="#DEDEDE"/>
<path d="M382.76 318.169C382.103 318.169 381.461 317.974 380.914 317.609C380.368 317.244 379.942 316.725 379.691 316.117C379.439 315.51 379.373 314.842 379.502 314.197C379.63 313.553 379.946 312.961 380.411 312.496C380.876 312.031 381.467 311.715 382.112 311.587C382.756 311.458 383.424 311.524 384.032 311.776C384.639 312.027 385.158 312.453 385.523 313C385.888 313.546 386.083 314.189 386.083 314.846C386.082 315.727 385.731 316.572 385.108 317.195C384.486 317.818 383.641 318.168 382.76 318.169ZM382.76 313.302C382.454 313.302 382.155 313.393 381.9 313.563C381.646 313.733 381.448 313.975 381.331 314.258C381.214 314.54 381.183 314.852 381.243 315.152C381.303 315.452 381.451 315.728 381.667 315.944C381.884 316.16 382.16 316.307 382.46 316.367C382.761 316.426 383.072 316.395 383.354 316.277C383.637 316.16 383.878 315.961 384.048 315.706C384.217 315.451 384.308 315.152 384.307 314.846C384.306 314.436 384.143 314.043 383.853 313.754C383.563 313.464 383.17 313.302 382.76 313.302Z" fill="#DEDEDE"/>
<path d="M47.2753 366.923C46.6181 366.924 45.9754 366.73 45.4286 366.365C44.8818 366 44.4555 365.481 44.2036 364.874C43.9516 364.267 43.8854 363.599 44.0132 362.954C44.141 362.309 44.4572 361.717 44.9217 361.252C45.3862 360.787 45.9782 360.47 46.6228 360.342C47.2673 360.213 47.9355 360.279 48.5428 360.53C49.1501 360.782 49.6691 361.207 50.0343 361.754C50.3995 362.301 50.5945 362.943 50.5945 363.6C50.5936 364.481 50.2438 365.325 49.6216 365.948C48.9994 366.571 48.1556 366.922 47.2753 366.923ZM47.2753 362.053C46.9694 362.053 46.6703 362.144 46.4159 362.314C46.1615 362.484 45.9633 362.726 45.8462 363.008C45.7291 363.291 45.6985 363.602 45.7582 363.902C45.8179 364.202 45.9652 364.478 46.1815 364.694C46.3978 364.911 46.6735 365.058 46.9735 365.118C47.2736 365.178 47.5846 365.147 47.8672 365.03C48.1499 364.913 48.3915 364.714 48.5614 364.46C48.7314 364.206 48.8221 363.906 48.8221 363.6C48.8204 363.191 48.6568 362.799 48.367 362.509C48.0772 362.22 47.6847 362.057 47.2753 362.057V362.053Z" fill="#DEDEDE"/>
<path d="M415.098 9.6798C414.441 9.6798 413.798 9.48499 413.252 9.12C412.706 8.75501 412.28 8.23622 412.028 7.62921C411.777 7.0222 411.711 6.35423 411.839 5.70973C411.967 5.06522 412.283 4.47312 412.747 4.00827C413.211 3.54342 413.803 3.22669 414.447 3.09811C415.092 2.96954 415.76 3.03489 416.367 3.28591C416.974 3.53693 417.493 3.96235 417.858 4.50839C418.224 5.05443 418.419 5.69658 418.42 6.35366C418.42 6.7903 418.335 7.22275 418.168 7.62628C418.001 8.0298 417.756 8.3965 417.448 8.7054C417.139 9.0143 416.773 9.25936 416.37 9.42655C415.966 9.59374 415.534 9.6798 415.098 9.6798ZM415.098 4.8129C414.792 4.8129 414.493 4.90364 414.238 5.07363C413.984 5.24363 413.786 5.48526 413.668 5.76796C413.551 6.05066 413.521 6.36173 413.58 6.66184C413.64 6.96195 413.787 7.23762 414.004 7.45399C414.22 7.67036 414.496 7.81771 414.796 7.8774C415.096 7.9371 415.407 7.90646 415.689 7.78936C415.972 7.67226 416.214 7.47397 416.384 7.21954C416.554 6.96512 416.644 6.666 416.644 6.36001C416.644 5.94969 416.481 5.55618 416.191 5.26604C415.901 4.9759 415.508 4.8129 415.098 4.8129Z" fill="#DEDEDE"/>
<path d="M471.956 93.818C471.775 93.9076 471.637 94.065 471.571 94.256C471.506 94.447 471.518 94.6561 471.606 94.8378L472.877 97.4809L470.234 98.7517C470.144 98.795 470.063 98.856 469.996 98.9309C469.929 99.0059 469.878 99.0934 469.846 99.1883C469.813 99.2832 469.8 99.3837 469.807 99.4838C469.813 99.5839 469.84 99.6817 469.885 99.7714C469.928 99.8614 469.988 99.9418 470.063 100.008C470.138 100.074 470.225 100.124 470.32 100.156C470.414 100.189 470.514 100.203 470.614 100.197C470.714 100.191 470.811 100.165 470.901 100.121L473.544 98.8501L474.814 101.493C474.904 101.675 475.061 101.814 475.253 101.881C475.347 101.914 475.447 101.928 475.547 101.921C475.647 101.915 475.745 101.888 475.834 101.843C475.924 101.799 476.004 101.738 476.071 101.664C476.137 101.589 476.188 101.502 476.221 101.408C476.254 101.313 476.268 101.213 476.262 101.113C476.256 101.014 476.23 100.916 476.186 100.826L474.916 98.183L477.555 96.8964C477.645 96.8526 477.726 96.7915 477.793 96.7165C477.859 96.6415 477.91 96.5542 477.943 96.4595C477.976 96.3648 477.989 96.2646 477.983 96.1646C477.977 96.0646 477.952 95.9667 477.908 95.8766C477.864 95.7865 477.803 95.7059 477.728 95.6394C477.653 95.5729 477.566 95.5219 477.471 95.4891C477.376 95.4564 477.276 95.4426 477.176 95.4486C477.076 95.4546 476.978 95.4802 476.888 95.524L474.246 96.8106L472.959 94.1707C472.87 93.9932 472.716 93.8573 472.529 93.7915C472.341 93.7257 472.136 93.7352 471.956 93.818Z" fill="#DEDEDE"/>
<path d="M423.966 157.043C423.309 157.043 422.666 156.848 422.12 156.483C421.573 156.118 421.148 155.599 420.896 154.992C420.645 154.385 420.579 153.717 420.707 153.072C420.835 152.427 421.152 151.835 421.616 151.371C422.081 150.906 422.673 150.589 423.317 150.461C423.962 150.333 424.63 150.399 425.237 150.65C425.844 150.902 426.363 151.328 426.728 151.874C427.093 152.421 427.288 153.063 427.288 153.72C427.287 154.601 426.937 155.446 426.314 156.069C425.691 156.692 424.847 157.042 423.966 157.043ZM423.966 152.173C423.66 152.173 423.361 152.264 423.106 152.434C422.852 152.604 422.654 152.846 422.537 153.128C422.419 153.411 422.389 153.722 422.449 154.022C422.508 154.322 422.656 154.598 422.872 154.814C423.088 155.031 423.364 155.178 423.664 155.238C423.964 155.297 424.275 155.267 424.558 155.15C424.84 155.033 425.082 154.834 425.252 154.58C425.422 154.325 425.512 154.026 425.512 153.72C425.513 153.517 425.473 153.315 425.396 153.127C425.318 152.939 425.204 152.768 425.061 152.624C424.917 152.48 424.746 152.366 424.558 152.288C424.37 152.21 424.169 152.17 423.966 152.17V152.173Z" fill="#DEDEDE"/>
<path d="M0.406563 203.358C0.259708 203.497 0.17388 203.688 0.167925 203.89C0.16197 204.092 0.236374 204.288 0.374801 204.435L2.38537 206.58L0.241398 208.59C0.131434 208.693 0.054473 208.827 0.0202383 208.974C-0.0139964 209.12 -0.003969 209.274 0.0490538 209.415C0.102077 209.556 0.195716 209.678 0.318142 209.766C0.440568 209.854 0.586288 209.904 0.736893 209.909C0.934882 209.912 1.12637 209.838 1.2705 209.702L3.41447 207.691L5.42504 209.836C5.49313 209.909 5.57512 209.968 5.66621 210.008C5.7573 210.049 5.85564 210.072 5.95547 210.074C6.1572 210.081 6.35343 210.008 6.50178 209.871C6.57519 209.802 6.63434 209.72 6.67584 209.628C6.71735 209.537 6.74038 209.438 6.74363 209.338C6.74688 209.238 6.73027 209.138 6.69476 209.044C6.65925 208.95 6.60555 208.864 6.53672 208.791L4.52616 206.649L6.67013 204.638C6.78473 204.53 6.86303 204.389 6.8943 204.234C6.92557 204.079 6.90829 203.919 6.84482 203.774C6.81156 203.695 6.76422 203.621 6.70506 203.558C6.56586 203.411 6.37406 203.325 6.17166 203.319C5.96926 203.313 5.77274 203.388 5.62514 203.527L3.49388 205.541L1.48331 203.4C1.34595 203.251 1.15538 203.164 0.953483 203.156C0.751583 203.148 0.554868 203.221 0.406563 203.358Z" fill="#DEDEDE"/>
<path d="M33.1378 239.885C32.4806 239.886 31.8379 239.692 31.2911 239.327C30.7444 238.962 30.318 238.443 30.0661 237.836C29.8141 237.229 29.7479 236.561 29.8757 235.916C30.0036 235.271 30.3197 234.679 30.7842 234.214C31.2488 233.749 31.8407 233.432 32.4853 233.304C33.1299 233.175 33.798 233.241 34.4053 233.492C35.0126 233.744 35.5316 234.169 35.8968 234.716C36.262 235.262 36.457 235.905 36.457 236.562C36.4561 237.443 36.1063 238.287 35.4841 238.91C34.8619 239.533 34.0181 239.884 33.1378 239.885ZM33.1378 235.015C32.8319 235.015 32.5328 235.106 32.2784 235.276C32.0241 235.446 31.8258 235.688 31.7087 235.97C31.5916 236.253 31.561 236.564 31.6207 236.864C31.6804 237.164 31.8277 237.44 32.044 237.656C32.2604 237.873 32.536 238.02 32.836 238.08C33.1361 238.139 33.4471 238.109 33.7298 237.992C34.0124 237.875 34.254 237.676 34.4239 237.422C34.5939 237.168 34.6846 236.868 34.6846 236.562C34.6838 236.152 34.5206 235.759 34.2307 235.469C33.9407 235.179 33.5478 235.016 33.1378 235.015Z" fill="#DEDEDE"/>
<path d="M90.323 344.308C90.1509 344.302 89.9876 344.231 89.8663 344.108C89.745 343.986 89.6747 343.823 89.6699 343.65C89.665 343.478 89.7259 343.311 89.8401 343.182C89.9544 343.053 90.1134 342.973 90.2849 342.958C92.5082 342.834 94.7729 342.611 96.9931 342.297C97.0837 342.278 97.1772 342.278 97.2678 342.297C97.3583 342.316 97.4441 342.353 97.5197 342.406C97.5953 342.46 97.6592 342.528 97.7074 342.607C97.7556 342.686 97.7871 342.774 97.8 342.865C97.8128 342.957 97.8067 343.05 97.7821 343.14C97.7574 343.229 97.7148 343.312 97.6567 343.384C97.5986 343.456 97.5264 343.515 97.4445 343.558C97.3626 343.602 97.2727 343.627 97.1805 343.634C94.9222 343.952 92.6289 344.181 90.3611 344.308H90.323ZM80.8165 344.279H80.772C78.5042 344.136 76.2109 343.895 73.9589 343.561C73.8685 343.551 73.7809 343.523 73.7016 343.478C73.6223 343.434 73.5528 343.373 73.4973 343.301C73.4417 343.229 73.4013 343.147 73.3785 343.058C73.3556 342.97 73.3508 342.878 73.3643 342.788C73.3778 342.698 73.4092 342.612 73.4569 342.534C73.5045 342.457 73.5673 342.39 73.6415 342.337C73.7157 342.284 73.7998 342.247 73.8887 342.228C73.9777 342.208 74.0696 342.207 74.159 342.224C76.3824 342.541 78.6248 342.789 80.8577 342.929C81.0293 342.945 81.1883 343.025 81.3024 343.154C81.4165 343.283 81.4771 343.451 81.4719 343.623C81.4666 343.796 81.3959 343.959 81.2741 344.081C81.1523 344.203 80.9886 344.274 80.8165 344.279ZM106.407 341.766C106.242 341.769 106.081 341.71 105.956 341.601C105.831 341.493 105.751 341.342 105.73 341.177C105.709 341.013 105.75 340.847 105.843 340.711C105.937 340.574 106.078 340.477 106.239 340.438C108.405 339.87 110.572 339.202 112.674 338.456C112.759 338.418 112.851 338.398 112.944 338.397C113.038 338.397 113.13 338.415 113.215 338.452C113.301 338.489 113.378 338.543 113.442 338.611C113.506 338.678 113.555 338.759 113.586 338.846C113.618 338.934 113.631 339.027 113.624 339.12C113.618 339.213 113.592 339.304 113.549 339.386C113.506 339.469 113.447 339.542 113.374 339.601C113.302 339.659 113.218 339.702 113.128 339.727C110.988 340.486 108.783 341.163 106.582 341.741C106.524 341.757 106.464 341.766 106.404 341.766H106.407ZM64.751 341.611C64.6907 341.611 64.6307 341.603 64.5731 341.585C62.3783 340.988 60.1835 340.286 58.0459 339.504C57.96 339.476 57.8807 339.43 57.8126 339.371C57.7446 339.311 57.6892 339.238 57.6498 339.157C57.6104 339.075 57.5878 338.986 57.5832 338.896C57.5787 338.806 57.5924 338.715 57.6234 338.63C57.6544 338.545 57.7022 338.467 57.764 338.401C57.8257 338.335 57.9001 338.281 57.9827 338.244C58.0653 338.207 58.1546 338.187 58.2451 338.186C58.3356 338.184 58.4256 338.2 58.5097 338.234C60.6123 339.002 62.7722 339.692 64.9289 340.283C65.0856 340.327 65.2212 340.426 65.3107 340.562C65.4001 340.698 65.4375 340.862 65.4158 341.024C65.3942 341.185 65.315 341.333 65.1929 341.441C65.0708 341.549 64.9139 341.609 64.751 341.611ZM121.65 336.064C121.524 336.063 121.401 336.027 121.294 335.96C121.186 335.894 121.1 335.799 121.044 335.686C121.005 335.605 120.982 335.518 120.977 335.429C120.972 335.34 120.985 335.251 121.014 335.167C121.044 335.083 121.09 335.005 121.149 334.939C121.209 334.873 121.281 334.819 121.361 334.78C123.365 333.789 125.351 332.696 127.263 331.537C127.339 331.488 127.424 331.454 127.513 331.439C127.602 331.423 127.693 331.426 127.781 331.446C127.869 331.466 127.953 331.504 128.026 331.557C128.099 331.61 128.161 331.677 128.208 331.754C128.255 331.831 128.286 331.917 128.299 332.007C128.312 332.096 128.307 332.187 128.285 332.275C128.262 332.363 128.222 332.445 128.167 332.516C128.112 332.588 128.043 332.648 127.965 332.693C126.021 333.872 124.001 334.984 121.962 335.991C121.865 336.039 121.758 336.064 121.65 336.064ZM49.5495 335.746C49.4392 335.749 49.33 335.723 49.2318 335.673C47.2054 334.644 45.1948 333.516 43.2573 332.321C43.1782 332.277 43.109 332.216 43.0538 332.144C42.9985 332.071 42.9585 331.989 42.936 331.901C42.9134 331.812 42.9089 331.721 42.9227 331.631C42.9365 331.541 42.9683 331.454 43.0161 331.377C43.064 331.3 43.127 331.233 43.2013 331.18C43.2757 331.128 43.3598 331.091 43.4488 331.072C43.5377 331.052 43.6296 331.051 43.719 331.069C43.8083 331.086 43.8933 331.121 43.9688 331.171C45.8745 332.347 47.8502 333.456 49.8449 334.469C49.9764 334.541 50.0804 334.654 50.1406 334.791C50.2007 334.929 50.2137 335.082 50.1773 335.227C50.141 335.373 50.0575 335.502 49.9398 335.595C49.8221 335.687 49.677 335.738 49.5272 335.74L49.5495 335.746ZM135.423 327.388C135.282 327.387 135.146 327.343 135.032 327.261C134.918 327.179 134.832 327.064 134.787 326.932C134.741 326.799 134.738 326.656 134.777 326.521C134.816 326.387 134.897 326.268 135.006 326.181C136.769 324.802 138.5 323.322 140.133 321.809C140.265 321.69 140.438 321.627 140.616 321.635C140.794 321.643 140.961 321.72 141.082 321.85C141.204 321.981 141.268 322.153 141.263 322.331C141.258 322.509 141.183 322.678 141.054 322.801C139.386 324.348 137.63 325.844 135.839 327.248C135.722 327.341 135.578 327.391 135.429 327.391L135.423 327.388ZM35.844 326.959C35.6907 326.959 35.542 326.908 35.4215 326.813C33.6396 325.396 31.8959 323.89 30.2411 322.33C30.1699 322.271 30.1116 322.199 30.0697 322.116C30.0278 322.034 30.0032 321.944 29.9975 321.852C29.9917 321.759 30.0048 321.667 30.0361 321.58C30.0674 321.493 30.1162 321.414 30.1794 321.346C30.2426 321.279 30.319 321.225 30.4037 321.188C30.4885 321.152 30.5799 321.133 30.6722 321.133C30.7646 321.133 30.856 321.151 30.9408 321.188C31.0256 321.225 31.102 321.278 31.1653 321.346C32.7948 322.88 34.5099 324.36 36.2473 325.752C36.3574 325.839 36.4377 325.958 36.477 326.093C36.5162 326.228 36.5126 326.372 36.4665 326.504C36.4204 326.637 36.3342 326.752 36.2198 326.834C36.1054 326.915 35.9685 326.959 35.8281 326.959H35.844ZM147.165 316.113C147.037 316.112 146.911 316.074 146.803 316.004C146.695 315.934 146.609 315.835 146.556 315.718C146.502 315.602 146.482 315.472 146.499 315.345C146.516 315.217 146.568 315.097 146.651 314.998C148.102 313.295 149.509 311.504 150.799 309.687C150.906 309.548 151.063 309.457 151.236 309.432C151.409 309.406 151.585 309.449 151.728 309.551C151.87 309.653 151.967 309.806 151.999 309.979C152.03 310.151 151.994 310.328 151.898 310.474C150.573 312.323 149.157 314.141 147.683 315.875C147.62 315.95 147.542 316.011 147.454 316.052C147.366 316.094 147.269 316.116 147.171 316.116L147.165 316.113ZM24.1776 315.605C24.0785 315.605 23.9806 315.583 23.8907 315.541C23.8008 315.5 23.7209 315.439 23.6567 315.364C22.1956 313.616 20.7981 311.79 19.4831 309.931C19.4273 309.859 19.3867 309.776 19.3638 309.688C19.3409 309.599 19.3361 309.507 19.3498 309.417C19.3635 309.326 19.3953 309.24 19.4433 309.162C19.4913 309.084 19.5546 309.017 19.6293 308.965C19.704 308.912 19.7885 308.875 19.8779 308.856C19.9672 308.837 20.0594 308.836 20.1491 308.854C20.2387 308.871 20.3238 308.907 20.3993 308.958C20.4748 309.01 20.5392 309.076 20.5884 309.153C21.8589 310.98 23.2565 312.778 24.6953 314.493C24.7768 314.592 24.8287 314.712 24.8448 314.839C24.861 314.967 24.8409 315.096 24.7867 315.212C24.7326 315.329 24.6467 315.427 24.5389 315.497C24.4311 315.566 24.3058 315.604 24.1776 315.605ZM156.414 302.71C156.297 302.71 156.182 302.679 156.08 302.62C155.978 302.562 155.893 302.478 155.833 302.377C155.773 302.276 155.741 302.161 155.738 302.043C155.736 301.926 155.764 301.81 155.82 301.706C156.9 299.746 157.91 297.716 158.819 295.67C158.853 295.586 158.903 295.51 158.968 295.445C159.032 295.381 159.108 295.33 159.192 295.296C159.277 295.262 159.367 295.245 159.458 295.247C159.549 295.248 159.638 295.268 159.721 295.305C159.804 295.342 159.879 295.395 159.941 295.462C160.003 295.528 160.051 295.606 160.082 295.692C160.113 295.777 160.127 295.868 160.122 295.959C160.117 296.049 160.094 296.138 160.054 296.22C159.13 298.298 158.104 300.35 157.005 302.354C156.949 302.461 156.865 302.551 156.762 302.614C156.659 302.678 156.541 302.712 156.421 302.713L156.414 302.71ZM15.0427 302.132C14.9208 302.132 14.8011 302.099 14.6965 302.036C14.5919 301.974 14.5063 301.884 14.4488 301.776C13.3688 299.772 12.362 297.697 11.4567 295.61C11.3855 295.445 11.383 295.257 11.4497 295.09C11.5165 294.923 11.6469 294.789 11.8125 294.717C11.978 294.646 12.165 294.644 12.3324 294.71C12.4998 294.777 12.6338 294.908 12.705 295.073C13.5943 297.125 14.5822 299.165 15.643 301.135C15.6854 301.213 15.7119 301.298 15.7211 301.386C15.7303 301.475 15.722 301.564 15.6966 301.649C15.6712 301.734 15.6293 301.813 15.5732 301.882C15.5171 301.951 15.448 302.008 15.3699 302.049C15.2699 302.105 15.1571 302.134 15.0427 302.132ZM162.795 287.725C162.727 287.725 162.66 287.715 162.595 287.693C162.425 287.64 162.282 287.521 162.199 287.363C162.115 287.204 162.098 287.019 162.151 286.848C162.811 284.71 163.393 282.518 163.872 280.333C163.911 280.158 164.017 280.005 164.167 279.909C164.318 279.812 164.501 279.78 164.676 279.818C164.851 279.856 165.003 279.963 165.099 280.113C165.196 280.264 165.229 280.447 165.19 280.622C164.704 282.846 164.114 285.069 163.44 287.249C163.398 287.386 163.312 287.507 163.196 287.593C163.08 287.678 162.94 287.725 162.795 287.725ZM8.82044 287.09C8.67705 287.087 8.53825 287.039 8.42407 286.952C8.30988 286.865 8.22623 286.744 8.18519 286.607C7.54994 284.434 6.96869 282.201 6.50178 279.967C6.47662 279.878 6.47008 279.785 6.48258 279.693C6.49508 279.601 6.52633 279.512 6.57441 279.433C6.62249 279.354 6.68637 279.285 6.76207 279.232C6.83777 279.178 6.92368 279.14 7.01446 279.121C7.10524 279.103 7.19896 279.102 7.28979 279.121C7.38062 279.14 7.46663 279.177 7.54246 279.231C7.61829 279.284 7.68234 279.352 7.73062 279.432C7.77889 279.511 7.81037 279.599 7.8231 279.691C8.28365 281.886 8.84267 284.081 9.4811 286.219C9.50695 286.304 9.51568 286.394 9.50681 286.482C9.49794 286.571 9.47163 286.657 9.4294 286.735C9.38717 286.813 9.32986 286.882 9.26077 286.938C9.19169 286.994 9.1122 287.036 9.02689 287.061C8.95961 287.079 8.88999 287.087 8.82044 287.083V287.09ZM166.016 271.762H165.949C165.861 271.753 165.775 271.728 165.697 271.686C165.619 271.644 165.549 271.588 165.493 271.519C165.437 271.451 165.394 271.372 165.369 271.287C165.343 271.202 165.334 271.113 165.343 271.025C165.559 268.801 165.679 266.536 165.708 264.296C165.71 264.115 165.784 263.943 165.913 263.817C166.042 263.69 166.217 263.621 166.397 263.623C166.578 263.625 166.75 263.699 166.877 263.828C167.003 263.957 167.073 264.131 167.071 264.312C167.045 266.59 166.918 268.89 166.699 271.155C166.681 271.322 166.601 271.477 166.474 271.588C166.348 271.699 166.184 271.759 166.016 271.755V271.762ZM5.73948 271.091C5.57383 271.087 5.41539 271.023 5.2942 270.91C5.17301 270.797 5.09751 270.643 5.08199 270.478C4.87871 268.207 4.76437 265.904 4.76437 263.632C4.76246 263.459 4.82742 263.291 4.94573 263.165C5.06405 263.038 5.22662 262.962 5.39962 262.952C5.57795 262.952 5.74908 263.023 5.87577 263.148C6.00247 263.274 6.07448 263.444 6.07616 263.623C6.07616 265.846 6.19686 268.124 6.39378 270.354C6.40207 270.443 6.39276 270.532 6.36638 270.617C6.34001 270.702 6.29709 270.781 6.2401 270.849C6.18311 270.917 6.11318 270.973 6.03434 271.014C5.95551 271.056 5.86933 271.081 5.78077 271.088L5.73948 271.091ZM165.93 255.471C165.764 255.47 165.604 255.408 165.48 255.297C165.356 255.186 165.278 255.033 165.26 254.867C165.022 252.644 164.688 250.42 164.266 248.196V248.11C164.249 248.023 164.25 247.934 164.267 247.847C164.285 247.76 164.319 247.678 164.369 247.604C164.419 247.531 164.482 247.468 164.556 247.419C164.63 247.37 164.713 247.336 164.8 247.319C164.887 247.302 164.976 247.303 165.063 247.32C165.15 247.338 165.232 247.373 165.306 247.422C165.379 247.472 165.442 247.535 165.491 247.609C165.54 247.683 165.574 247.766 165.591 247.853L165.61 247.942C166.038 250.166 166.378 252.462 166.62 254.718C166.629 254.806 166.621 254.896 166.597 254.981C166.572 255.067 166.53 255.146 166.474 255.216C166.419 255.285 166.35 255.343 166.272 255.385C166.194 255.428 166.108 255.455 166.019 255.465L165.93 255.471ZM5.92688 254.801H5.84747C5.66933 254.78 5.50671 254.689 5.39533 254.549C5.28396 254.408 5.23295 254.229 5.25351 254.051C5.51079 251.792 5.8697 249.514 6.31755 247.281C6.36086 247.113 6.46676 246.969 6.61346 246.877C6.76015 246.785 6.93649 246.753 7.10617 246.787C7.27586 246.821 7.42599 246.919 7.52567 247.061C7.62535 247.202 7.667 247.377 7.64205 247.548C7.20055 249.743 6.85116 251.995 6.59706 254.219C6.57348 254.38 6.49286 254.528 6.36987 254.634C6.24688 254.741 6.08968 254.8 5.92688 254.801ZM162.567 239.447C162.425 239.444 162.287 239.397 162.173 239.312C162.059 239.228 161.975 239.109 161.931 238.974C161.255 236.839 160.477 234.71 159.622 232.645C159.582 232.562 159.558 232.472 159.554 232.379C159.549 232.287 159.564 232.194 159.597 232.108C159.63 232.021 159.68 231.942 159.744 231.876C159.809 231.809 159.886 231.757 159.972 231.721C160.057 231.686 160.149 231.669 160.242 231.67C160.334 231.672 160.426 231.693 160.51 231.731C160.594 231.77 160.67 231.825 160.732 231.893C160.794 231.962 160.841 232.043 160.871 232.131C161.741 234.231 162.532 236.394 163.221 238.564C163.248 238.648 163.258 238.738 163.251 238.826C163.244 238.915 163.219 239.001 163.178 239.08C163.138 239.159 163.082 239.23 163.014 239.287C162.946 239.345 162.867 239.388 162.783 239.415C162.713 239.438 162.64 239.448 162.567 239.447ZM9.40487 238.897C9.33377 238.898 9.26304 238.887 9.19524 238.866C9.02509 238.809 8.88421 238.687 8.8033 238.527C8.72239 238.367 8.708 238.182 8.76327 238.011C9.47475 235.851 10.2847 233.694 11.174 231.597C11.2063 231.512 11.2555 231.434 11.3185 231.369C11.3815 231.303 11.4571 231.251 11.5408 231.215C11.6245 231.179 11.7145 231.161 11.8055 231.161C11.8964 231.16 11.9865 231.179 12.0703 231.214C12.1541 231.25 12.2299 231.302 12.2931 231.367C12.3563 231.433 12.4056 231.51 12.4382 231.595C12.4708 231.68 12.4859 231.771 12.4826 231.862C12.4793 231.953 12.4577 232.042 12.4191 232.124C11.5425 234.186 10.7452 236.308 10.0496 238.434C10.0048 238.569 9.91827 238.687 9.80247 238.77C9.68667 238.853 9.54751 238.898 9.40487 238.897ZM156.084 224.519C155.964 224.519 155.846 224.487 155.743 224.426C155.64 224.365 155.554 224.278 155.496 224.173C154.401 222.225 153.21 220.297 151.952 218.454C151.861 218.306 151.832 218.129 151.869 217.959C151.905 217.789 152.006 217.64 152.15 217.543C152.293 217.445 152.469 217.407 152.64 217.435C152.811 217.464 152.965 217.557 153.07 217.695C154.34 219.579 155.56 221.539 156.675 223.522C156.732 223.625 156.762 223.741 156.761 223.859C156.76 223.977 156.728 224.093 156.668 224.194C156.608 224.296 156.523 224.381 156.42 224.439C156.318 224.498 156.202 224.529 156.084 224.529V224.519ZM16.0115 224.017C15.8935 224.017 15.7775 223.986 15.6748 223.928C15.5197 223.839 15.4062 223.692 15.3591 223.519C15.3121 223.347 15.3354 223.162 15.4239 223.007C16.5546 221.031 17.7806 219.08 19.0702 217.206C19.1191 217.13 19.1828 217.064 19.2576 217.012C19.3324 216.961 19.4168 216.925 19.5057 216.907C19.5946 216.889 19.6862 216.889 19.7751 216.907C19.864 216.926 19.9483 216.961 20.0231 217.013C20.0979 217.064 20.1616 217.13 20.2104 217.206C20.2592 217.283 20.2921 217.368 20.3072 217.458C20.3223 217.547 20.3193 217.639 20.2983 217.727C20.2773 217.815 20.2388 217.899 20.1851 217.972C18.9146 219.814 17.7076 221.736 16.5991 223.69C16.5381 223.787 16.4533 223.868 16.3528 223.923C16.2522 223.979 16.1391 224.008 16.0242 224.008L16.0115 224.017ZM146.701 211.211C146.605 211.211 146.509 211.19 146.421 211.15C146.334 211.109 146.256 211.05 146.193 210.976C144.726 209.289 143.169 207.641 141.562 206.081C141.454 205.951 141.398 205.786 141.406 205.617C141.414 205.448 141.484 205.288 141.603 205.169C141.723 205.049 141.883 204.979 142.051 204.971C142.22 204.964 142.385 205.02 142.515 205.128C144.148 206.716 145.729 208.39 147.222 210.106C147.306 210.204 147.361 210.325 147.379 210.453C147.397 210.581 147.378 210.712 147.324 210.829C147.27 210.947 147.184 211.047 147.075 211.118C146.967 211.188 146.84 211.226 146.711 211.227L146.701 211.211ZM25.4735 210.767C25.3438 210.765 25.217 210.727 25.1083 210.656C24.9996 210.586 24.9134 210.485 24.86 210.367C24.8065 210.248 24.7881 210.117 24.8067 209.989C24.8254 209.861 24.8804 209.74 24.9653 209.642C26.4677 207.933 28.0622 206.268 29.7011 204.692C29.7649 204.63 29.8404 204.581 29.9233 204.547C30.0062 204.514 30.0949 204.497 30.1843 204.498C30.2736 204.499 30.362 204.517 30.4442 204.552C30.5264 204.587 30.6009 204.638 30.6635 204.702C30.7261 204.766 30.7754 204.841 30.8088 204.924C30.8422 205.007 30.8589 205.096 30.8581 205.185C30.8572 205.275 30.8387 205.363 30.8037 205.445C30.7687 205.527 30.7178 205.602 30.654 205.665C29.0404 207.215 27.4777 208.841 25.9976 210.535C25.933 210.606 25.8541 210.663 25.7659 210.701C25.6777 210.739 25.5824 210.758 25.4862 210.757L25.4735 210.767ZM134.838 200.057C134.69 200.058 134.546 200.009 134.428 199.918C132.653 198.558 130.795 197.256 128.911 196.048C128.77 195.947 128.672 195.796 128.639 195.625C128.606 195.455 128.64 195.278 128.734 195.131C128.828 194.985 128.975 194.881 129.144 194.84C129.313 194.799 129.491 194.824 129.642 194.911C131.548 196.137 133.453 197.452 135.251 198.844C135.363 198.93 135.446 199.049 135.487 199.185C135.528 199.32 135.525 199.465 135.48 199.599C135.434 199.733 135.348 199.849 135.233 199.931C135.118 200.014 134.98 200.058 134.838 200.057ZM37.4003 199.686C37.2583 199.686 37.1198 199.642 37.0043 199.559C36.8889 199.477 36.8024 199.36 36.757 199.225C36.7117 199.091 36.7099 198.945 36.7518 198.809C36.7937 198.674 36.8773 198.555 36.9906 198.469C38.8074 197.097 40.7004 195.785 42.6252 194.571C42.7773 194.475 42.9611 194.444 43.1362 194.484C43.3114 194.524 43.4635 194.632 43.5591 194.784C43.6547 194.936 43.686 195.12 43.6461 195.295C43.6062 195.47 43.4983 195.622 43.3463 195.718C41.4564 196.909 39.5919 198.199 37.8069 199.546C37.6929 199.63 37.5549 199.676 37.413 199.676L37.4003 199.686ZM120.98 191.505C120.879 191.505 120.779 191.483 120.688 191.439C118.674 190.46 116.594 189.558 114.507 188.754C114.338 188.69 114.202 188.561 114.129 188.396C114.055 188.232 114.05 188.044 114.115 187.876C114.179 187.707 114.308 187.571 114.473 187.498C114.637 187.424 114.824 187.419 114.993 187.484C117.115 188.303 119.23 189.221 121.276 190.216C121.406 190.286 121.509 190.398 121.57 190.533C121.63 190.668 121.645 190.819 121.612 190.964C121.578 191.108 121.498 191.237 121.384 191.332C121.27 191.426 121.128 191.48 120.98 191.486V191.505ZM51.3313 191.245C51.1781 191.245 51.0294 191.193 50.9097 191.097C50.79 191.001 50.7063 190.868 50.6723 190.718C50.6384 190.569 50.6562 190.412 50.7228 190.274C50.7894 190.136 50.901 190.025 51.0391 189.958C53.0942 188.983 55.2159 188.084 57.3472 187.283C57.4306 187.252 57.5193 187.238 57.6084 187.241C57.6974 187.244 57.785 187.264 57.8661 187.301C57.9472 187.338 58.0203 187.39 58.0811 187.456C58.1419 187.521 58.1893 187.597 58.2206 187.681C58.2519 187.764 58.2665 187.853 58.2634 187.942C58.2604 188.031 58.2399 188.119 58.203 188.2C58.1661 188.281 58.1137 188.354 58.0486 188.415C57.9835 188.475 57.907 188.523 57.8236 188.554C55.7273 189.339 53.6405 190.222 51.6204 191.181C51.5299 191.224 51.4312 191.245 51.3313 191.245ZM105.702 185.917C105.646 185.916 105.589 185.909 105.534 185.895C103.365 185.342 101.148 184.879 98.9401 184.513C98.7677 184.479 98.6154 184.379 98.5155 184.234C98.4156 184.09 98.3759 183.912 98.4047 183.738C98.4336 183.565 98.5289 183.41 98.6703 183.305C98.8118 183.201 98.9883 183.156 99.1625 183.179C101.405 183.551 103.663 184.024 105.868 184.583C106.029 184.622 106.17 184.719 106.265 184.856C106.359 184.993 106.4 185.159 106.38 185.324C106.359 185.489 106.279 185.64 106.154 185.75C106.029 185.859 105.868 185.919 105.702 185.917ZM66.6694 185.79C66.5061 185.787 66.3494 185.725 66.2283 185.616C66.1072 185.506 66.0298 185.356 66.0104 185.194C65.9911 185.032 66.031 184.868 66.123 184.733C66.2149 184.598 66.3526 184.501 66.5106 184.459C67.851 184.142 69.2263 183.824 70.5921 183.567C71.4624 183.398 72.3486 183.249 73.2252 183.106C73.3971 183.088 73.5692 183.137 73.7061 183.243C73.8431 183.348 73.9345 183.502 73.9617 183.673C73.9889 183.843 73.9499 184.018 73.8525 184.161C73.7551 184.303 73.6068 184.403 73.438 184.44C72.5741 184.577 71.7038 184.729 70.8462 184.894C69.5027 185.152 68.1528 185.447 66.8314 185.771C66.7777 185.779 66.7234 185.78 66.6694 185.774V185.79ZM89.5893 183.528H89.5702C88.3855 183.478 87.1848 183.449 86.0033 183.449C84.9519 183.449 83.8847 183.471 82.827 183.513C82.7354 183.521 82.643 183.511 82.5554 183.483C82.4678 183.455 82.3869 183.409 82.3175 183.349C82.2482 183.288 82.192 183.214 82.1522 183.131C82.1125 183.048 82.0901 182.958 82.0864 182.866C82.0827 182.774 82.0978 182.682 82.1308 182.596C82.1638 182.511 82.214 182.432 82.2783 182.366C82.3425 182.301 82.4195 182.248 82.5046 182.213C82.5897 182.178 82.681 182.161 82.773 182.162C83.8434 182.118 84.9265 182.099 85.9969 182.099C87.2007 182.099 88.4204 182.124 89.6242 182.178C89.8036 182.182 89.9742 182.257 90.0984 182.387C90.2226 182.516 90.2902 182.69 90.2864 182.869C90.2827 183.049 90.2077 183.219 90.0782 183.344C89.9486 183.468 89.775 183.535 89.5956 183.532L89.5893 183.528Z" fill="#DEDEDE"/>
<path d="M333.303 282.893L332.134 282.963C331.958 282.968 331.787 282.905 331.658 282.787C331.528 282.668 331.449 282.504 331.438 282.328C331.428 282.153 331.486 281.98 331.6 281.846C331.714 281.713 331.876 281.629 332.051 281.613C334.275 281.489 336.498 281.295 338.721 281.079C338.9 281.061 339.079 281.114 339.218 281.227C339.357 281.34 339.446 281.504 339.465 281.683C339.483 281.861 339.43 282.04 339.317 282.18C339.204 282.319 339.04 282.408 338.861 282.426C337 282.617 335.145 282.773 333.303 282.893ZM322.761 283.182H322.707C320.483 283.16 318.206 283.084 315.976 282.954C315.888 282.949 315.801 282.926 315.721 282.888C315.642 282.85 315.57 282.796 315.511 282.73C315.452 282.664 315.407 282.586 315.377 282.503C315.348 282.419 315.336 282.33 315.341 282.242C315.353 282.063 315.434 281.896 315.568 281.777C315.702 281.658 315.877 281.597 316.056 281.607C318.279 281.737 320.503 281.813 322.726 281.835C322.898 281.841 323.061 281.913 323.183 282.035C323.304 282.157 323.374 282.32 323.379 282.493C323.384 282.665 323.323 282.832 323.209 282.961C323.094 283.09 322.935 283.17 322.764 283.186L322.761 283.182ZM348.117 281.149C347.946 281.156 347.779 281.099 347.649 280.988C347.519 280.877 347.436 280.721 347.417 280.551C347.397 280.381 347.442 280.211 347.543 280.073C347.644 279.935 347.793 279.841 347.961 279.809C350.146 279.434 352.351 279.005 354.511 278.538C354.684 278.505 354.863 278.541 355.01 278.638C355.157 278.735 355.26 278.886 355.298 279.058C355.335 279.23 355.304 279.41 355.211 279.56C355.118 279.71 354.971 279.817 354.8 279.859C352.621 280.336 350.397 280.771 348.187 281.146C348.164 281.149 348.14 281.15 348.117 281.149ZM306.708 282.102C306.666 282.107 306.623 282.107 306.581 282.102C304.358 281.823 302.134 281.489 299.911 281.105C299.734 281.074 299.577 280.974 299.473 280.827C299.37 280.68 299.329 280.499 299.36 280.322C299.391 280.145 299.49 279.987 299.637 279.884C299.784 279.78 299.966 279.74 300.143 279.77C302.322 280.152 304.542 280.485 306.74 280.762C306.904 280.785 307.054 280.869 307.161 280.996C307.268 281.123 307.324 281.285 307.319 281.45C307.315 281.616 307.249 281.775 307.135 281.896C307.021 282.016 306.867 282.091 306.702 282.105L306.708 282.102ZM363.792 277.556C363.624 277.571 363.457 277.522 363.323 277.419C363.19 277.316 363.1 277.167 363.071 277.002C363.042 276.836 363.076 276.665 363.166 276.523C363.257 276.381 363.397 276.278 363.56 276.235C365.685 275.615 367.825 274.938 369.912 274.221C369.998 274.18 370.092 274.157 370.187 274.155C370.282 274.153 370.376 274.171 370.464 274.207C370.552 274.244 370.63 274.299 370.696 274.368C370.761 274.438 370.81 274.52 370.842 274.61C370.873 274.699 370.885 274.795 370.877 274.889C370.869 274.984 370.841 275.076 370.795 275.159C370.749 275.243 370.685 275.315 370.609 275.372C370.534 275.429 370.446 275.47 370.354 275.491C368.238 276.216 366.079 276.899 363.931 277.521C363.888 277.537 363.843 277.547 363.798 277.553L363.792 277.556ZM290.884 279.18C290.816 279.186 290.747 279.179 290.681 279.16C288.508 278.63 286.317 278.039 284.166 277.401C284.078 277.379 283.994 277.339 283.921 277.284C283.848 277.228 283.787 277.159 283.742 277.08C283.696 277 283.668 276.913 283.657 276.822C283.646 276.731 283.654 276.639 283.68 276.551C283.706 276.464 283.75 276.382 283.808 276.312C283.867 276.241 283.939 276.184 284.02 276.142C284.101 276.1 284.19 276.075 284.281 276.069C284.373 276.062 284.464 276.074 284.551 276.104C286.679 276.74 288.848 277.321 291.002 277.848C291.158 277.888 291.294 277.981 291.388 278.113C291.481 278.244 291.524 278.404 291.51 278.564C291.496 278.724 291.425 278.874 291.31 278.987C291.196 279.1 291.044 279.168 290.884 279.18ZM378.958 272.191C378.796 272.207 378.634 272.165 378.501 272.072C378.368 271.978 378.273 271.839 378.234 271.681C378.195 271.523 378.215 271.356 378.29 271.211C378.365 271.067 378.489 270.954 378.641 270.894C380.683 270.037 382.732 269.115 384.729 268.162C384.81 268.118 384.899 268.091 384.991 268.083C385.082 268.074 385.174 268.085 385.262 268.113C385.349 268.141 385.43 268.187 385.499 268.248C385.568 268.308 385.624 268.382 385.664 268.465C385.703 268.548 385.726 268.639 385.729 268.73C385.733 268.822 385.717 268.914 385.684 269C385.651 269.086 385.601 269.164 385.537 269.229C385.473 269.295 385.396 269.347 385.311 269.382C383.294 270.335 381.226 271.272 379.165 272.14C379.099 272.167 379.029 272.184 378.958 272.191ZM275.489 274.459C275.394 274.465 275.298 274.451 275.209 274.417C273.113 273.639 271.004 272.8 268.942 271.924C268.776 271.853 268.644 271.72 268.575 271.552C268.507 271.384 268.508 271.196 268.579 271.029C268.649 270.863 268.783 270.731 268.951 270.662C269.118 270.594 269.306 270.595 269.473 270.666C271.515 271.536 273.602 272.368 275.679 273.137C275.824 273.191 275.946 273.293 276.025 273.427C276.103 273.56 276.134 273.716 276.112 273.868C276.09 274.021 276.016 274.162 275.902 274.267C275.789 274.372 275.643 274.435 275.489 274.446V274.459ZM393.394 265.128C393.239 265.141 393.085 265.1 392.957 265.012C392.828 264.924 392.734 264.795 392.69 264.645C392.646 264.496 392.655 264.337 392.715 264.193C392.775 264.05 392.882 263.931 393.019 263.858C394.944 262.774 396.869 261.634 398.737 260.455C398.889 260.365 399.07 260.337 399.242 260.378C399.414 260.42 399.563 260.527 399.657 260.677C399.751 260.827 399.782 261.008 399.745 261.181C399.707 261.354 399.603 261.505 399.455 261.602C397.549 262.787 395.618 263.943 393.674 265.036C393.589 265.088 393.493 265.119 393.394 265.128ZM260.738 268.01C260.618 268.017 260.499 267.991 260.392 267.937C258.394 266.927 256.396 265.853 254.452 264.76C254.37 264.719 254.298 264.661 254.238 264.591C254.179 264.521 254.135 264.44 254.108 264.352C254.082 264.264 254.073 264.172 254.083 264.08C254.094 263.989 254.122 263.901 254.167 263.821C254.213 263.741 254.274 263.672 254.347 263.616C254.42 263.561 254.504 263.521 254.593 263.498C254.682 263.476 254.774 263.473 254.865 263.487C254.955 263.502 255.042 263.535 255.119 263.585C257.047 264.681 259.026 265.742 261.002 266.761C261.131 266.83 261.233 266.939 261.295 267.071C261.357 267.204 261.374 267.352 261.345 267.495C261.315 267.638 261.24 267.768 261.131 267.864C261.021 267.961 260.884 268.02 260.738 268.032V268.01ZM406.919 256.465C406.804 256.472 406.69 256.45 406.586 256.401C406.483 256.352 406.393 256.278 406.325 256.186C406.271 256.113 406.233 256.031 406.212 255.944C406.191 255.857 406.187 255.766 406.201 255.677C406.215 255.588 406.247 255.503 406.295 255.427C406.342 255.351 406.404 255.285 406.477 255.233C408.269 253.933 410.051 252.577 411.778 251.195C411.847 251.134 411.927 251.087 412.014 251.058C412.101 251.029 412.194 251.018 412.285 251.026C412.377 251.034 412.465 251.06 412.547 251.103C412.628 251.146 412.699 251.205 412.756 251.277C412.814 251.349 412.856 251.431 412.88 251.52C412.905 251.608 412.911 251.701 412.899 251.792C412.886 251.883 412.855 251.97 412.808 252.049C412.761 252.128 412.698 252.196 412.623 252.25C410.879 253.644 409.079 255.017 407.271 256.325C407.169 256.404 407.047 256.453 406.919 256.465ZM246.836 259.928C246.689 259.937 246.543 259.898 246.42 259.817C244.552 258.584 242.691 257.275 240.884 255.973C240.805 255.923 240.738 255.858 240.686 255.781C240.634 255.705 240.598 255.618 240.581 255.527C240.563 255.436 240.565 255.342 240.585 255.252C240.606 255.162 240.645 255.076 240.699 255.001C240.754 254.927 240.824 254.864 240.904 254.817C240.984 254.77 241.072 254.74 241.164 254.729C241.256 254.718 241.35 254.726 241.439 254.753C241.527 254.779 241.61 254.824 241.681 254.883C243.469 256.186 245.314 257.469 247.166 258.695C247.284 258.773 247.374 258.885 247.424 259.017C247.475 259.148 247.483 259.292 247.449 259.428C247.414 259.564 247.337 259.686 247.229 259.777C247.122 259.868 246.989 259.923 246.848 259.934L246.836 259.928ZM419.379 246.306C419.239 246.316 419.1 246.282 418.98 246.209C418.86 246.135 418.766 246.027 418.711 245.898C418.656 245.769 418.643 245.625 418.674 245.488C418.704 245.352 418.776 245.227 418.88 245.133C420.513 243.637 422.13 242.084 423.689 240.514C423.819 240.406 423.984 240.35 424.153 240.358C424.322 240.366 424.482 240.436 424.601 240.556C424.72 240.675 424.791 240.835 424.798 241.004C424.806 241.172 424.75 241.338 424.642 241.467C423.054 243.056 421.434 244.622 419.786 246.131C419.671 246.236 419.524 246.297 419.37 246.306H419.379ZM233.924 250.334C233.751 250.344 233.579 250.289 233.445 250.178C231.733 248.742 230.027 247.249 228.385 245.731C228.314 245.672 228.255 245.6 228.213 245.518C228.171 245.436 228.146 245.347 228.14 245.255C228.133 245.163 228.146 245.071 228.176 244.984C228.207 244.897 228.254 244.818 228.317 244.75C228.379 244.682 228.455 244.628 228.539 244.59C228.623 244.553 228.713 244.533 228.805 244.531C228.897 244.53 228.989 244.548 229.074 244.583C229.159 244.618 229.236 244.67 229.3 244.736C230.929 246.236 232.616 247.716 234.312 249.136C234.416 249.223 234.491 249.338 234.528 249.468C234.566 249.598 234.563 249.736 234.522 249.865C234.48 249.993 234.401 250.106 234.294 250.189C234.188 250.272 234.059 250.322 233.924 250.331V250.334ZM430.594 234.806C430.507 234.812 430.418 234.801 430.335 234.773C430.251 234.744 430.174 234.699 430.109 234.64C430.041 234.583 429.986 234.512 429.946 234.433C429.906 234.353 429.882 234.267 429.876 234.178C429.869 234.089 429.881 234 429.909 233.916C429.938 233.832 429.983 233.754 430.042 233.687C431.493 232.016 432.926 230.288 434.298 228.55C434.352 228.477 434.42 228.416 434.498 228.369C434.576 228.323 434.663 228.293 434.753 228.281C434.843 228.268 434.934 228.275 435.022 228.299C435.109 228.323 435.191 228.364 435.263 228.42C435.334 228.477 435.393 228.547 435.437 228.626C435.48 228.706 435.507 228.794 435.516 228.884C435.525 228.975 435.516 229.066 435.489 229.153C435.462 229.239 435.418 229.32 435.359 229.389C433.974 231.143 432.529 232.884 431.061 234.574C430.941 234.706 430.773 234.784 430.594 234.793V234.806ZM222.198 239.32C222.099 239.327 221.999 239.312 221.907 239.275C221.815 239.239 221.732 239.183 221.664 239.11C220.124 237.49 218.602 235.813 217.141 234.126C217.077 234.06 217.027 233.981 216.994 233.895C216.961 233.809 216.946 233.718 216.949 233.625C216.953 233.533 216.976 233.443 217.016 233.36C217.056 233.277 217.112 233.203 217.182 233.143C217.251 233.082 217.332 233.037 217.42 233.009C217.508 232.981 217.6 232.971 217.692 232.98C217.784 232.989 217.872 233.017 217.953 233.061C218.034 233.106 218.104 233.167 218.161 233.239C219.609 234.914 221.118 236.575 222.642 238.179C222.731 238.273 222.79 238.389 222.815 238.515C222.84 238.641 222.828 238.771 222.782 238.891C222.735 239.01 222.655 239.114 222.552 239.19C222.448 239.266 222.326 239.311 222.198 239.32ZM440.444 222.076C440.293 222.087 440.142 222.046 440.018 221.959C439.943 221.908 439.879 221.843 439.83 221.768C439.78 221.692 439.746 221.608 439.73 221.519C439.714 221.43 439.716 221.339 439.735 221.251C439.755 221.163 439.791 221.079 439.844 221.005C441.114 219.182 442.328 217.301 443.496 215.417C443.596 215.276 443.746 215.177 443.915 215.143C444.085 215.108 444.261 215.14 444.408 215.232C444.555 215.323 444.661 215.468 444.705 215.635C444.749 215.803 444.727 215.981 444.643 216.132C443.468 218.038 442.226 219.944 440.959 221.774C440.902 221.861 440.826 221.933 440.737 221.985C440.647 222.038 440.547 222.069 440.444 222.076ZM211.799 227.061C211.687 227.068 211.575 227.047 211.473 227.001C211.371 226.954 211.282 226.883 211.214 226.794C209.871 225.011 208.549 223.175 207.292 221.33C207.19 221.181 207.152 220.999 207.186 220.823C207.219 220.646 207.321 220.49 207.469 220.389C207.618 220.288 207.8 220.25 207.976 220.283C208.153 220.317 208.308 220.419 208.41 220.567C209.655 222.394 210.951 224.214 212.294 225.968C212.348 226.039 212.388 226.12 212.411 226.207C212.433 226.293 212.439 226.383 212.426 226.472C212.414 226.561 212.384 226.646 212.338 226.723C212.293 226.8 212.232 226.867 212.161 226.921C212.058 227.004 211.931 227.053 211.799 227.061ZM448.794 208.317C448.675 208.325 448.555 208.3 448.448 208.246C448.341 208.192 448.25 208.11 448.185 208.009C448.12 207.907 448.084 207.791 448.079 207.671C448.075 207.551 448.102 207.432 448.159 207.326C449.201 205.366 450.208 203.358 451.154 201.357C451.191 201.274 451.243 201.2 451.309 201.138C451.375 201.076 451.452 201.027 451.537 200.996C451.622 200.964 451.712 200.95 451.802 200.954C451.892 200.957 451.981 200.979 452.063 201.018C452.144 201.057 452.217 201.111 452.278 201.179C452.338 201.246 452.384 201.325 452.413 201.41C452.443 201.496 452.455 201.586 452.448 201.676C452.442 201.766 452.418 201.854 452.377 201.935C451.424 203.955 450.405 205.982 449.353 207.971C449.299 208.071 449.22 208.156 449.124 208.217C449.028 208.279 448.918 208.314 448.804 208.32L448.794 208.317ZM202.87 213.718C202.745 213.729 202.62 213.705 202.508 213.649C202.396 213.593 202.301 213.507 202.235 213.4C201.104 211.475 200.012 209.499 198.963 207.526C198.922 207.448 198.896 207.361 198.887 207.273C198.879 207.184 198.888 207.095 198.914 207.01C198.94 206.925 198.983 206.845 199.04 206.777C199.096 206.708 199.166 206.651 199.244 206.61C199.323 206.568 199.409 206.542 199.498 206.534C199.586 206.525 199.676 206.534 199.761 206.56C199.846 206.587 199.925 206.629 199.994 206.686C200.062 206.743 200.119 206.812 200.161 206.891C201.19 208.845 202.279 210.802 203.401 212.708C203.491 212.862 203.516 213.046 203.471 213.22C203.426 213.393 203.314 213.541 203.159 213.632C203.069 213.677 202.971 213.702 202.87 213.705V213.718ZM455.528 193.704C455.429 193.711 455.329 193.696 455.236 193.659C455.069 193.594 454.935 193.464 454.864 193.3C454.792 193.135 454.789 192.949 454.855 192.783C455.668 190.718 456.443 188.605 457.148 186.505C457.22 186.357 457.344 186.24 457.497 186.176C457.649 186.113 457.819 186.107 457.976 186.161C458.132 186.214 458.263 186.323 458.345 186.467C458.426 186.61 458.452 186.779 458.418 186.94C457.701 189.059 456.919 191.191 456.1 193.278C456.054 193.395 455.976 193.497 455.874 193.571C455.773 193.646 455.653 193.691 455.528 193.701V193.704ZM195.53 199.422C195.392 199.432 195.254 199.398 195.136 199.327C195.018 199.255 194.925 199.149 194.869 199.022C193.964 196.979 193.094 194.892 192.287 192.798C192.255 192.715 192.239 192.626 192.242 192.537C192.244 192.447 192.264 192.359 192.3 192.278C192.373 192.112 192.509 191.983 192.678 191.918C192.846 191.854 193.033 191.858 193.198 191.932C193.363 192.005 193.493 192.141 193.557 192.309C194.358 194.377 195.215 196.439 196.098 198.475C196.134 198.557 196.154 198.644 196.156 198.733C196.158 198.821 196.142 198.909 196.11 198.992C196.078 199.075 196.03 199.15 195.968 199.214C195.907 199.278 195.833 199.329 195.752 199.365C195.682 199.394 195.606 199.409 195.53 199.409V199.422ZM460.556 178.401C460.482 178.405 460.408 178.397 460.337 178.379C460.164 178.333 460.016 178.22 459.926 178.065C459.837 177.91 459.812 177.726 459.857 177.553C460.429 175.405 460.953 173.216 461.417 171.05C461.435 170.963 461.471 170.88 461.521 170.807C461.572 170.734 461.636 170.671 461.711 170.623C461.785 170.575 461.869 170.541 461.956 170.525C462.044 170.509 462.133 170.51 462.22 170.529C462.307 170.547 462.39 170.583 462.463 170.633C462.536 170.684 462.599 170.748 462.647 170.823C462.696 170.897 462.729 170.981 462.745 171.068C462.761 171.156 462.76 171.246 462.741 171.333C462.271 173.521 461.741 175.733 461.153 177.899C461.117 178.034 461.041 178.154 460.934 178.244C460.827 178.334 460.695 178.389 460.556 178.401ZM189.876 184.354C189.725 184.363 189.576 184.322 189.452 184.236C189.327 184.15 189.235 184.025 189.19 183.881C188.523 181.746 187.901 179.567 187.338 177.404C187.312 177.316 187.303 177.225 187.313 177.134C187.323 177.044 187.351 176.956 187.396 176.876C187.441 176.797 187.501 176.727 187.573 176.672C187.645 176.616 187.728 176.576 187.816 176.553C187.904 176.53 187.996 176.525 188.086 176.538C188.176 176.552 188.263 176.584 188.34 176.631C188.418 176.679 188.485 176.742 188.538 176.816C188.59 176.89 188.628 176.975 188.647 177.064C189.206 179.208 189.822 181.365 190.48 183.478C190.532 183.649 190.515 183.834 190.432 183.993C190.349 184.152 190.206 184.272 190.035 184.326C189.981 184.342 189.926 184.352 189.87 184.354H189.876ZM463.786 162.628C463.739 162.633 463.691 162.633 463.643 162.628C463.466 162.602 463.306 162.507 463.199 162.363C463.092 162.22 463.046 162.04 463.072 161.863C463.389 159.67 463.659 157.444 463.875 155.239C463.892 155.061 463.98 154.897 464.118 154.783C464.256 154.669 464.434 154.615 464.612 154.632C464.79 154.649 464.954 154.737 465.068 154.875C465.182 155.013 465.236 155.191 465.219 155.369C465.003 157.593 464.733 159.845 464.409 162.056C464.386 162.209 464.311 162.35 464.196 162.454C464.081 162.558 463.934 162.62 463.78 162.628H463.786ZM185.969 168.75C185.805 168.76 185.643 168.711 185.513 168.61C185.383 168.51 185.295 168.365 185.264 168.203C184.845 166.008 184.473 163.756 184.159 161.554C184.156 161.388 184.214 161.226 184.323 161.1C184.432 160.973 184.584 160.892 184.749 160.871C184.914 160.849 185.082 160.89 185.219 160.984C185.356 161.079 185.454 161.221 185.493 161.383C185.811 163.578 186.173 165.792 186.586 167.965C186.619 168.141 186.581 168.323 186.481 168.472C186.38 168.62 186.225 168.722 186.049 168.756L185.969 168.75ZM465.162 146.604H465.098C465.009 146.602 464.922 146.582 464.841 146.545C464.76 146.509 464.687 146.457 464.626 146.392C464.565 146.328 464.518 146.252 464.487 146.169C464.455 146.086 464.441 145.997 464.444 145.908C464.507 143.685 464.52 141.461 464.482 139.237C464.474 139.145 464.485 139.052 464.515 138.964C464.544 138.876 464.591 138.796 464.653 138.727C464.715 138.658 464.791 138.603 464.875 138.564C464.959 138.526 465.051 138.505 465.143 138.503C465.236 138.502 465.328 138.519 465.413 138.554C465.499 138.589 465.577 138.642 465.641 138.708C465.706 138.775 465.756 138.854 465.789 138.94C465.821 139.027 465.836 139.119 465.832 139.212C465.873 141.436 465.86 143.716 465.794 145.95C465.789 146.116 465.724 146.275 465.61 146.396C465.495 146.517 465.34 146.591 465.174 146.604H465.162ZM183.857 152.805C183.768 152.811 183.679 152.8 183.594 152.771C183.51 152.742 183.432 152.697 183.365 152.638C183.299 152.579 183.244 152.507 183.205 152.427C183.167 152.346 183.144 152.259 183.139 152.17C183.098 151.646 183.06 151.118 183.028 150.582C182.917 148.876 182.834 147.141 182.787 145.435C182.781 145.256 182.847 145.081 182.97 144.951C183.093 144.82 183.263 144.743 183.443 144.738C183.622 144.732 183.796 144.798 183.927 144.921C184.058 145.044 184.134 145.214 184.14 145.394C184.187 147.087 184.267 148.803 184.375 150.496C184.41 151.017 184.448 151.538 184.486 152.059C184.493 152.148 184.481 152.238 184.453 152.324C184.424 152.409 184.379 152.487 184.32 152.555C184.261 152.623 184.189 152.678 184.109 152.718C184.028 152.757 183.94 152.781 183.851 152.786L183.857 152.805ZM464.733 130.529C464.556 130.541 464.381 130.482 464.247 130.367C464.113 130.251 464.03 130.087 464.015 129.91C463.831 127.708 463.589 125.462 463.297 123.274L463.269 123.061C463.253 122.971 463.256 122.879 463.277 122.791C463.298 122.702 463.337 122.619 463.391 122.545C463.445 122.472 463.513 122.41 463.591 122.364C463.669 122.318 463.756 122.288 463.846 122.276C463.937 122.264 464.028 122.27 464.116 122.294C464.204 122.319 464.286 122.36 464.357 122.417C464.428 122.474 464.487 122.544 464.53 122.624C464.574 122.704 464.6 122.792 464.609 122.883L464.637 123.099C464.93 125.323 465.174 127.572 465.362 129.796C465.377 129.974 465.32 130.151 465.205 130.288C465.089 130.425 464.924 130.511 464.745 130.526L464.733 130.529ZM183.552 136.724H183.482C183.306 136.714 183.14 136.634 183.021 136.503C182.903 136.372 182.84 136.199 182.847 136.022C182.93 133.798 183.073 131.524 183.263 129.297C183.286 129.124 183.374 128.966 183.51 128.857C183.646 128.748 183.819 128.695 183.993 128.71C184.167 128.725 184.328 128.807 184.443 128.938C184.558 129.07 184.618 129.24 184.61 129.414C184.419 131.619 184.292 133.862 184.197 136.086C184.187 136.253 184.116 136.41 183.996 136.527C183.877 136.644 183.719 136.714 183.552 136.721V136.724ZM462.427 114.385C462.263 114.396 462.102 114.347 461.971 114.248C461.841 114.148 461.751 114.005 461.719 113.845C461.283 111.672 460.791 109.483 460.251 107.335C460.223 107.167 460.259 106.993 460.354 106.85C460.448 106.708 460.593 106.606 460.759 106.565C460.925 106.525 461.101 106.549 461.25 106.633C461.399 106.717 461.511 106.855 461.563 107.018C462.106 109.184 462.605 111.395 463.046 113.587C463.081 113.763 463.045 113.946 462.945 114.095C462.846 114.245 462.691 114.349 462.516 114.385H462.427ZM185.09 120.719C185.04 120.726 184.99 120.726 184.94 120.719C184.853 120.706 184.768 120.676 184.692 120.63C184.617 120.584 184.55 120.524 184.498 120.452C184.445 120.381 184.407 120.3 184.386 120.214C184.365 120.128 184.361 120.038 184.375 119.951C184.718 117.727 185.118 115.503 185.566 113.302C185.58 113.211 185.613 113.125 185.661 113.047C185.71 112.97 185.773 112.903 185.849 112.851C185.924 112.799 186.008 112.763 186.098 112.744C186.188 112.726 186.28 112.726 186.369 112.744C186.459 112.762 186.544 112.798 186.619 112.85C186.694 112.902 186.758 112.969 186.807 113.046C186.855 113.124 186.888 113.21 186.902 113.3C186.917 113.391 186.913 113.483 186.89 113.572C186.446 115.748 186.052 117.962 185.712 120.157C185.686 120.307 185.61 120.443 185.497 120.545C185.385 120.647 185.241 120.708 185.09 120.719ZM458.38 98.8311C458.23 98.8403 458.081 98.7991 457.956 98.7139C457.832 98.6287 457.74 98.5045 457.694 98.3609C457.014 96.2547 456.274 94.1357 455.493 92.0644C455.43 91.8959 455.436 91.7092 455.511 91.5454C455.585 91.3815 455.722 91.254 455.89 91.1908C456.059 91.1276 456.245 91.134 456.409 91.2084C456.573 91.2829 456.7 91.4194 456.764 91.5879C457.551 93.6783 458.301 95.8195 458.987 97.9416C459.042 98.1122 459.027 98.2977 458.945 98.4573C458.864 98.6169 458.722 98.7377 458.552 98.793C458.496 98.8074 458.438 98.817 458.38 98.8216V98.8311ZM188.46 104.962C188.383 104.966 188.307 104.958 188.234 104.937C188.149 104.913 188.069 104.873 187.999 104.819C187.929 104.764 187.871 104.697 187.827 104.62C187.783 104.543 187.755 104.458 187.745 104.37C187.734 104.282 187.74 104.193 187.764 104.108C188.358 101.948 189.012 99.7746 189.708 97.6429C189.736 97.5585 189.78 97.4803 189.838 97.4128C189.896 97.3454 189.966 97.2901 190.046 97.2499C190.125 97.2098 190.211 97.1857 190.3 97.179C190.389 97.1723 190.478 97.1832 190.562 97.2109C190.647 97.2386 190.725 97.2828 190.792 97.3407C190.86 97.3987 190.915 97.4693 190.955 97.5487C190.995 97.6281 191.019 97.7145 191.026 97.8032C191.033 97.8919 191.022 97.981 190.994 98.0655C190.302 100.175 189.654 102.329 189.066 104.467C189.027 104.6 188.948 104.719 188.84 104.806C188.731 104.893 188.598 104.944 188.46 104.953V104.962ZM452.571 83.8333C452.434 83.8413 452.297 83.8077 452.179 83.7369C452.061 83.666 451.968 83.5612 451.91 83.4362C450.992 81.4221 450.005 79.4016 449.001 77.432C448.917 77.2723 448.899 77.0857 448.952 76.9132C449.006 76.7408 449.125 76.5965 449.285 76.5123C449.445 76.428 449.631 76.4107 449.804 76.464C449.976 76.5173 450.12 76.637 450.205 76.7966C451.224 78.7853 452.215 80.8248 453.139 82.8612C453.214 83.0242 453.22 83.2101 453.158 83.3781C453.095 83.5461 452.969 83.6823 452.806 83.757C452.732 83.793 452.653 83.8156 452.571 83.8237V83.8333ZM193.611 89.7041C193.511 89.7098 193.41 89.6935 193.316 89.6564C193.15 89.5887 193.018 89.4583 192.948 89.2935C192.878 89.1287 192.875 88.9429 192.941 88.7764C193.78 86.702 194.679 84.618 195.612 82.5816C195.689 82.4206 195.825 82.2962 195.993 82.2353C196.16 82.1745 196.345 82.1821 196.507 82.2565C196.668 82.331 196.794 82.4662 196.857 82.6329C196.92 82.7997 196.914 82.9844 196.842 83.1471C195.914 85.139 195.022 87.2166 194.196 89.2688C194.15 89.3885 194.07 89.4922 193.966 89.5677C193.863 89.6432 193.739 89.6873 193.611 89.6945V89.7041ZM445.081 69.6106C444.956 69.6225 444.83 69.599 444.718 69.5429C444.606 69.4867 444.512 69.4001 444.446 69.2929C443.306 67.4027 442.102 65.5093 440.873 63.6731C440.773 63.524 440.736 63.3413 440.771 63.1653C440.806 62.9892 440.91 62.8342 441.059 62.7344C441.208 62.6346 441.39 62.598 441.566 62.6329C441.742 62.6677 441.897 62.7711 441.997 62.9202C443.239 64.7755 444.452 66.6848 445.602 68.5972C445.663 68.6963 445.697 68.8094 445.7 68.9254C445.704 69.0415 445.678 69.1565 445.624 69.2595C445.571 69.3624 445.491 69.4497 445.394 69.5129C445.297 69.5761 445.184 69.613 445.069 69.6202L445.081 69.6106ZM200.472 75.132C200.345 75.1412 200.218 75.1136 200.107 75.0525C199.95 74.966 199.834 74.821 199.783 74.649C199.732 74.4771 199.752 74.2922 199.837 74.1344C200.904 72.1712 202.032 70.2015 203.191 68.2891C203.234 68.2077 203.293 68.136 203.365 68.0783C203.437 68.0206 203.52 67.9782 203.608 67.9536C203.697 67.9291 203.79 67.9229 203.881 67.9354C203.972 67.948 204.06 67.979 204.139 68.0267C204.218 68.0743 204.286 68.1375 204.339 68.2124C204.393 68.2874 204.431 68.3724 204.45 68.4624C204.47 68.5524 204.47 68.6454 204.453 68.7358C204.435 68.8262 204.399 68.912 204.347 68.988C203.2 70.8941 202.082 72.8351 201.025 74.7793C200.971 74.8805 200.891 74.9661 200.794 75.0278C200.698 75.0896 200.587 75.1254 200.472 75.132ZM436.019 56.3378C435.908 56.3446 435.797 56.3241 435.696 56.2781C435.595 56.2322 435.506 56.1621 435.438 56.0742C434.088 54.3206 432.675 52.5797 431.246 50.8928C431.13 50.7563 431.073 50.5794 431.087 50.4009C431.102 50.2225 431.187 50.0572 431.323 49.9413C431.46 49.8255 431.637 49.7686 431.815 49.7832C431.994 49.7978 432.159 49.8826 432.275 50.0191C433.72 51.7187 435.133 53.4787 436.509 55.2482C436.564 55.3186 436.604 55.3991 436.628 55.4852C436.652 55.5713 436.658 55.6613 436.647 55.7499C436.635 55.8385 436.607 55.924 436.562 56.0014C436.518 56.0789 436.459 56.1468 436.388 56.2012C436.281 56.2817 436.153 56.3292 436.019 56.3378ZM208.943 61.4494C208.816 61.4584 208.689 61.4311 208.576 61.3706C208.464 61.3102 208.371 61.2191 208.309 61.1079C208.246 60.9967 208.216 60.8701 208.223 60.7427C208.23 60.6153 208.272 60.4924 208.346 60.3883C209.617 58.5553 210.973 56.7318 212.342 54.9623C212.396 54.8922 212.463 54.8335 212.54 54.7895C212.617 54.7455 212.702 54.7171 212.79 54.7059C212.878 54.6946 212.967 54.7009 213.053 54.7241C213.138 54.7474 213.218 54.7873 213.288 54.8416C213.358 54.8958 213.417 54.9633 213.461 55.0402C213.505 55.1172 213.533 55.202 213.545 55.2899C213.556 55.3778 213.55 55.4671 213.526 55.5526C213.503 55.6381 213.463 55.7182 213.409 55.7883C212.056 57.5419 210.725 59.3495 209.451 61.1634C209.394 61.2465 209.318 61.3154 209.23 61.3649C209.142 61.4144 209.044 61.4433 208.943 61.4494ZM425.497 44.1865C425.399 44.1927 425.301 44.1777 425.209 44.1426C425.118 44.1075 425.035 44.0532 424.966 43.9832C423.426 42.3948 421.825 40.8222 420.202 39.3069C420.131 39.2479 420.072 39.1751 420.03 39.0927C419.989 39.0104 419.964 38.9203 419.958 38.8281C419.952 38.7359 419.966 38.6435 419.997 38.5566C420.028 38.4697 420.077 38.3901 420.14 38.3227C420.203 38.2553 420.28 38.2016 420.364 38.1649C420.449 38.1282 420.541 38.1092 420.633 38.1091C420.725 38.1091 420.817 38.128 420.902 38.1646C420.986 38.2012 421.063 38.2548 421.126 38.3221C422.759 39.8501 424.372 41.4354 425.932 43.0397C426.057 43.1668 426.127 43.3379 426.127 43.5162C426.127 43.6944 426.057 43.8656 425.932 43.9927C425.815 44.1084 425.66 44.1774 425.497 44.1865ZM218.904 48.8183C218.815 48.8254 218.725 48.8141 218.64 48.7852C218.556 48.7562 218.478 48.7102 218.412 48.6499C218.345 48.5912 218.291 48.52 218.252 48.4402C218.213 48.3605 218.19 48.2738 218.185 48.1853C218.18 48.0967 218.192 48.008 218.221 47.9242C218.25 47.8404 218.295 47.7631 218.354 47.6969C219.835 46.0227 221.378 44.3612 222.935 42.7601C222.995 42.6879 223.069 42.629 223.153 42.5873C223.238 42.5455 223.33 42.5217 223.424 42.5175C223.517 42.5132 223.611 42.5286 223.699 42.5626C223.786 42.5966 223.866 42.6485 223.932 42.715C223.999 42.7815 224.051 42.8611 224.085 42.9487C224.119 43.0363 224.134 43.1301 224.13 43.224C224.126 43.3179 224.102 43.4099 224.06 43.4941C224.018 43.5783 223.96 43.6529 223.887 43.7131C222.344 45.3016 220.819 46.944 219.352 48.6023C219.236 48.7293 219.075 48.8067 218.904 48.8183ZM413.659 33.3027C413.487 33.3141 413.318 33.2595 413.185 33.1502C411.473 31.7492 409.692 30.3673 407.926 29.0457C407.854 28.9928 407.794 28.9262 407.748 28.85C407.703 28.7737 407.673 28.6892 407.66 28.6013C407.647 28.5134 407.651 28.4238 407.673 28.3376C407.694 28.2515 407.733 28.1704 407.786 28.099C407.839 28.0277 407.905 27.9675 407.982 27.9219C408.058 27.8762 408.142 27.8461 408.23 27.8331C408.318 27.8201 408.408 27.8246 408.494 27.8462C408.58 27.8679 408.661 27.9063 408.732 27.9593C410.527 29.2935 412.315 30.6882 414.043 32.0891C414.148 32.1752 414.224 32.2908 414.262 32.4208C414.3 32.5509 414.299 32.6894 414.257 32.8185C414.216 32.9475 414.137 33.0611 414.03 33.1447C413.923 33.2282 413.794 33.2777 413.659 33.2868V33.3027ZM230.227 37.404C230.087 37.4141 229.947 37.38 229.827 37.3064C229.707 37.2329 229.613 37.1236 229.558 36.9939C229.504 36.8642 229.491 36.7206 229.522 36.5833C229.553 36.4461 229.626 36.322 229.732 36.2285C231.393 34.7323 233.111 33.2614 234.842 31.8477C234.981 31.7344 235.159 31.6807 235.337 31.6986C235.515 31.7165 235.679 31.8044 235.792 31.943C235.905 32.0816 235.959 32.2595 235.941 32.4377C235.923 32.6158 235.835 32.7795 235.697 32.8929C233.985 34.2938 232.282 35.752 230.637 37.2324C230.523 37.3337 230.379 37.394 230.227 37.404ZM400.658 23.8262C400.514 23.8357 400.37 23.7978 400.249 23.7182C398.387 22.5174 396.472 21.3451 394.554 20.2237C394.473 20.1809 394.402 20.1224 394.345 20.0516C394.288 19.9808 394.246 19.8992 394.221 19.8117C394.196 19.7242 394.189 19.6326 394.2 19.5423C394.211 19.452 394.241 19.3649 394.287 19.2862C394.332 19.2075 394.393 19.1389 394.466 19.0844C394.539 19.0299 394.622 18.9907 394.711 18.9691C394.799 18.9475 394.891 18.9439 394.981 18.9586C395.07 18.9733 395.156 19.0059 395.233 19.0546C397.168 20.176 399.102 21.361 400.979 22.5745C401.098 22.6517 401.189 22.7641 401.241 22.8959C401.292 23.0278 401.301 23.1725 401.266 23.3096C401.231 23.4467 401.154 23.5694 401.045 23.6604C400.937 23.7513 400.803 23.806 400.662 23.8167L400.658 23.8262ZM242.77 27.3557C242.655 27.3642 242.54 27.3426 242.436 27.2931C242.332 27.2435 242.242 27.1676 242.176 27.0729C242.123 27.0002 242.085 26.9177 242.065 26.8301C242.044 26.7426 242.041 26.6518 242.056 26.5631C242.07 26.4743 242.103 26.3894 242.151 26.3133C242.199 26.2372 242.261 26.1715 242.335 26.1199C244.155 24.8269 246.029 23.5594 247.906 22.3553C247.982 22.3074 248.066 22.2748 248.155 22.2594C248.243 22.2441 248.333 22.2463 248.421 22.2659C248.508 22.2855 248.591 22.3222 248.664 22.3738C248.738 22.4253 248.8 22.4909 248.848 22.5666C248.896 22.6423 248.928 22.7267 248.944 22.8151C248.959 22.9034 248.957 22.9938 248.937 23.0813C248.918 23.1688 248.881 23.2515 248.83 23.3248C248.778 23.3981 248.712 23.4605 248.637 23.5085C246.775 24.703 244.921 25.9579 243.12 27.2381C243.016 27.3093 242.895 27.3501 242.77 27.3557ZM386.654 15.8873C386.536 15.8956 386.417 15.8715 386.311 15.8174C384.323 14.8358 382.287 13.8891 380.254 13.0028C380.17 12.9687 380.094 12.9182 380.03 12.8543C379.966 12.7904 379.916 12.7143 379.882 12.6305C379.848 12.5467 379.831 12.457 379.832 12.3666C379.834 12.2762 379.853 12.187 379.889 12.1041C379.925 12.0213 379.978 11.9467 380.044 11.8845C380.109 11.8223 380.187 11.774 380.271 11.7422C380.356 11.7105 380.446 11.6961 380.536 11.6998C380.627 11.7035 380.715 11.7252 380.797 11.7638C382.846 12.6565 384.904 13.6159 386.908 14.6071C387.037 14.6755 387.139 14.7834 387.202 14.9148C387.264 15.0463 387.282 15.1943 387.253 15.3369C387.225 15.4795 387.151 15.6091 387.043 15.7065C386.935 15.8039 386.799 15.864 386.654 15.8778V15.8873ZM256.361 18.81C256.207 18.8218 256.053 18.78 255.925 18.6918C255.798 18.6035 255.704 18.4741 255.661 18.3252C255.617 18.1764 255.626 18.017 255.686 17.874C255.746 17.7309 255.853 17.6127 255.99 17.5393C257.949 16.4623 259.96 15.414 261.967 14.4323C262.048 14.3872 262.136 14.359 262.228 14.3493C262.319 14.3397 262.412 14.3488 262.5 14.3762C262.588 14.4035 262.669 14.4486 262.739 14.5085C262.809 14.5684 262.866 14.642 262.906 14.7247C262.947 14.8074 262.97 14.8975 262.975 14.9895C262.979 15.0815 262.965 15.1734 262.932 15.2597C262.9 15.3459 262.851 15.4246 262.787 15.491C262.723 15.5575 262.646 15.6101 262.561 15.6459C260.583 16.6212 258.591 17.66 256.641 18.7433C256.557 18.7842 256.465 18.8069 256.371 18.81H256.361ZM371.84 9.5972C371.748 9.60312 371.655 9.59015 371.567 9.55908C369.48 8.80935 367.346 8.10092 365.215 7.45284C365.051 7.39403 364.917 7.27467 364.839 7.11946C364.761 6.96425 364.746 6.78507 364.797 6.61898C364.847 6.4529 364.96 6.31262 365.111 6.22716C365.262 6.14171 365.44 6.11762 365.608 6.15988C367.749 6.8143 369.903 7.52909 372.012 8.28835C372.159 8.33948 372.284 8.44025 372.366 8.57345C372.447 8.70665 372.48 8.86399 372.458 9.01858C372.436 9.17317 372.361 9.31539 372.246 9.42093C372.131 9.52648 371.983 9.58879 371.828 9.5972H371.84ZM270.867 11.8813C270.707 11.892 270.548 11.8452 270.419 11.7491C270.289 11.6531 270.199 11.5142 270.163 11.3574C270.127 11.2005 270.148 11.036 270.222 10.8933C270.297 10.7507 270.42 10.6392 270.569 10.5788C272.636 9.7338 274.755 8.92371 276.864 8.17716C277.028 8.13424 277.202 8.15443 277.352 8.23373C277.502 8.31303 277.616 8.44566 277.673 8.6054C277.73 8.76514 277.724 8.94034 277.658 9.09635C277.592 9.25235 277.469 9.37781 277.315 9.44789C275.225 10.1881 273.129 10.9887 271.08 11.8273C271.015 11.852 270.946 11.8669 270.877 11.8718L270.867 11.8813ZM356.407 5.02575C356.341 5.02981 356.274 5.02446 356.21 5.00986C354.047 4.50475 351.846 4.05682 349.664 3.64383C349.487 3.61139 349.331 3.51016 349.229 3.36241C349.127 3.21466 349.088 3.03249 349.121 2.85598C349.153 2.67946 349.254 2.52306 349.402 2.42119C349.55 2.31931 349.732 2.2803 349.908 2.31274C352.109 2.71937 354.333 3.18319 356.518 3.69148C356.676 3.7284 356.816 3.82094 356.911 3.95223C357.007 4.08353 357.052 4.2448 357.038 4.40662C357.025 4.56845 356.954 4.72002 356.838 4.83368C356.722 4.94735 356.569 5.01552 356.407 5.02575ZM286.085 6.64275C285.919 6.65102 285.757 6.59835 285.628 6.49474C285.498 6.39112 285.412 6.24374 285.384 6.08051C285.356 5.91728 285.389 5.74952 285.477 5.609C285.564 5.46848 285.7 5.36495 285.859 5.31802C288.009 4.71442 290.204 4.15212 292.386 3.65018C292.561 3.60806 292.746 3.6371 292.899 3.73094C293.052 3.82477 293.162 3.9757 293.204 4.15053C293.246 4.32536 293.217 4.50976 293.124 4.66318C293.03 4.81659 292.879 4.92644 292.704 4.96857C290.544 5.46415 288.372 6.0201 286.24 6.62052C286.189 6.63395 286.137 6.64142 286.085 6.64275ZM340.548 2.26826C340.508 2.27303 340.467 2.27303 340.427 2.26826C338.226 2.01412 335.98 1.81398 333.782 1.66467C333.606 1.64962 333.442 1.56591 333.327 1.43152C333.211 1.29713 333.153 1.12279 333.165 0.945961C333.176 0.769134 333.257 0.603933 333.389 0.48586C333.521 0.367787 333.694 0.306265 333.871 0.314515C336.095 0.463826 338.359 0.670319 340.58 0.924466C340.747 0.944234 340.901 1.0257 341.011 1.15292C341.122 1.28015 341.181 1.44399 341.177 1.61241C341.173 1.78083 341.106 1.9417 340.99 2.06358C340.873 2.18546 340.716 2.25958 340.548 2.27144V2.26826ZM301.788 3.17684C301.614 3.1886 301.442 3.13272 301.309 3.02085C301.175 2.90899 301.089 2.74978 301.07 2.57644C301.051 2.4031 301.099 2.22901 301.205 2.09051C301.311 1.952 301.466 1.85976 301.639 1.83304C303.014 1.61066 304.415 1.40734 305.8 1.22309C306.635 1.11508 307.48 1.01024 308.312 0.905405C308.488 0.890107 308.662 0.943835 308.798 1.05517C308.935 1.16651 309.023 1.32668 309.043 1.50165C309.063 1.67662 309.014 1.85259 308.907 1.99218C308.8 2.13178 308.642 2.22398 308.468 2.2492C307.642 2.34133 306.803 2.44617 305.978 2.56688C304.605 2.74796 303.217 2.95128 301.848 3.17366L301.788 3.17684ZM324.492 1.34381H324.447C322.224 1.34381 320.001 1.39781 317.777 1.50265C317.602 1.5057 317.433 1.44093 317.305 1.32191C317.177 1.20288 317.1 1.03886 317.09 0.864238C317.08 0.689614 317.138 0.517955 317.252 0.385262C317.366 0.252568 317.527 0.169148 317.701 0.152497C319.924 0.0444846 322.202 -0.00952148 324.435 -0.00952148C324.607 -0.0048348 324.771 0.0654741 324.893 0.187046C325.016 0.308619 325.087 0.472283 325.092 0.644615C325.098 0.816946 325.038 0.984945 324.924 1.1143C324.81 1.24366 324.651 1.32461 324.479 1.34063L324.492 1.34381Z" fill="#DEDEDE"/>
<path d="M346.697 84.062V316.65H346.087L328.481 299.514L310.875 316.65H309.039L291.433 299.514L273.824 316.65H272.017L254.44 299.546L236.866 316.65H235.065L217.471 299.527L199.875 316.65H198.02L180.424 299.527L162.827 316.65H160.995L143.433 299.559L125.872 316.65H124.709V19.42H282.067L346.697 84.062Z" fill="#F2F2F2"/>
<path d="M346.697 84.062H282.067V19.42L346.697 84.062Z" fill="#DEDEDE"/>
<path d="M184.448 205.061V196.363H160.979C158.014 196.363 155.791 195.693 154.309 194.352C152.826 193.011 152.085 191.188 152.085 188.881C152.085 188.267 152.193 187.657 152.403 187.08C152.655 186.409 152.984 185.769 153.384 185.174C153.819 184.504 154.274 183.859 154.74 183.233C155.207 182.607 155.785 181.848 156.472 180.943L181.246 147.786C182.868 145.602 184.201 144.02 185.245 143.04C186.256 142.071 187.609 141.541 189.009 141.566C193.748 141.566 196.117 144.279 196.117 149.705V185.886H198.128C200.525 185.886 202.45 186.214 203.902 186.87C205.355 187.527 206.079 188.961 206.075 191.172C206.075 192.981 205.483 194.298 204.299 195.124C203.116 195.95 201.339 196.363 198.97 196.363H196.111V205.061C196.111 207.463 195.582 209.247 194.523 210.414C193.464 211.581 192.047 212.165 190.27 212.168C189.476 212.197 188.685 212.051 187.953 211.74C187.221 211.429 186.567 210.961 186.036 210.369C184.979 209.169 184.45 207.399 184.448 205.061ZM164.345 185.886H184.448V158.717L164.345 185.886Z" fill="#262F5F"/>
<path d="M260.195 177.375C260.195 182.49 259.877 186.886 259.242 190.565C258.678 194.076 257.508 197.462 255.783 200.572C253.666 204.251 250.923 207.088 247.554 209.083C243.876 211.203 239.672 212.232 235.431 212.05C231.191 211.868 227.09 210.481 223.608 208.054C219.849 205.372 217.02 201.666 215.121 196.935C214.108 194.16 213.394 191.284 212.993 188.357C212.526 184.989 212.3 181.592 212.316 178.191C212.289 173.944 212.538 169.699 213.063 165.484C213.453 162.16 214.237 158.895 215.4 155.757C217.241 151.269 219.914 147.847 223.42 145.492C226.927 143.137 231.111 141.96 235.973 141.96C238.961 141.92 241.929 142.452 244.717 143.526C247.311 144.555 249.66 146.117 251.613 148.11C253.703 150.279 255.403 152.791 256.641 155.537C259.01 160.682 260.195 167.961 260.195 177.375ZM247.382 176.441C247.382 170.735 247.039 166.066 246.353 162.434C245.667 158.802 244.514 156.058 242.894 154.203C241.274 152.35 239.03 151.422 236.16 151.42C232.048 151.42 229.19 153.494 227.585 157.64C225.98 161.787 225.177 168.179 225.177 176.816C225.177 182.676 225.52 187.477 226.206 191.22C226.892 194.962 228.045 197.79 229.665 199.705C231.285 201.624 233.483 202.583 236.259 202.583C239.126 202.583 241.371 201.586 242.993 199.59C244.615 197.595 245.752 194.743 246.404 191.032C247.056 187.322 247.382 182.458 247.382 176.441Z" fill="#262F5F"/>
<path d="M298.25 205.061V196.363H274.777C271.813 196.363 269.589 195.693 268.107 194.352C266.625 193.011 265.884 191.188 265.884 188.881C265.884 188.267 265.991 187.657 266.201 187.08C266.452 186.408 266.782 185.768 267.183 185.174C267.618 184.504 268.069 183.859 268.539 183.233C269.009 182.607 269.581 181.848 270.267 180.943L295.042 147.786C296.662 145.602 297.995 144.02 299.041 143.04C300.051 142.07 301.404 141.54 302.804 141.566C307.541 141.566 309.91 144.279 309.91 149.705V185.886H311.92C314.322 185.886 316.246 186.214 317.695 186.87C319.143 187.527 319.868 188.961 319.87 191.172C319.87 192.981 319.278 194.298 318.092 195.124C316.906 195.95 315.129 196.363 312.762 196.363H309.903V205.061C309.903 207.463 309.374 209.247 308.315 210.414C307.257 211.581 305.838 212.165 304.059 212.168C303.265 212.197 302.475 212.05 301.743 211.74C301.012 211.429 300.358 210.961 299.828 210.369C298.776 209.169 298.25 207.399 298.25 205.061ZM278.144 185.886H298.25V158.717L278.144 185.886Z" fill="#262F5F"/>
<path d="M233.975 384.923C233.248 385.651 232.385 386.228 231.435 386.622C230.485 387.016 229.467 387.218 228.439 387.218C227.411 387.218 226.392 387.016 225.443 386.622C224.493 386.228 223.63 385.651 222.903 384.923L175.364 337.379L169.329 331.343C173.734 328.435 177.504 324.663 180.411 320.256L233.991 373.849C234.717 374.577 235.293 375.441 235.686 376.392C236.078 377.342 236.279 378.361 236.278 379.389C236.276 380.418 236.072 381.436 235.677 382.386C235.282 383.335 234.704 384.197 233.975 384.923Z" fill="#9C9C9C"/>
<path d="M182.803 322.664L195.19 335.054C192.287 339.456 188.521 343.223 184.121 346.128L177.768 339.774L171.733 333.738C176.134 330.833 179.899 327.066 182.803 322.664Z" fill="#5E5E5E"/>
<path d="M195.149 296.862C194.881 290.45 193.306 284.162 190.521 278.381C187.735 272.601 183.798 267.451 178.95 263.248C172.112 257.304 163.709 253.452 154.743 252.152C145.777 250.852 136.627 252.159 128.383 255.917C120.139 259.675 113.15 265.725 108.249 273.346C103.348 280.967 100.741 289.837 100.741 298.898C100.741 300.682 100.841 302.465 101.04 304.238C101.643 309.615 103.172 314.848 105.559 319.703C108.912 326.519 113.853 332.428 119.967 336.934C120.956 337.665 121.972 338.356 123.016 339.009C130.93 343.929 140.122 346.4 149.436 346.11C158.75 345.82 167.771 342.782 175.364 337.379C179.645 334.325 183.39 330.582 186.446 326.301C192.156 318.308 195.217 308.725 195.2 298.901C195.193 298.217 195.176 297.537 195.149 296.862ZM147.966 337.728C142.867 337.728 137.819 336.724 133.109 334.773C128.398 332.821 124.118 329.961 120.513 326.355C116.908 322.75 114.049 318.469 112.097 313.758C110.146 309.047 109.142 303.997 109.142 298.898C109.142 293.799 110.146 288.749 112.097 284.038C114.049 279.327 116.908 275.047 120.513 271.441C124.118 267.835 128.398 264.975 133.109 263.024C137.819 261.072 142.867 260.068 147.966 260.068C149.659 260.064 151.352 260.17 153.032 260.385C162.371 261.615 170.945 266.199 177.156 273.283C183.367 280.366 186.792 289.467 186.792 298.889C186.792 299.479 186.776 300.067 186.751 300.652C186.443 307.435 184.363 314.019 180.718 319.747C177.072 325.475 171.989 330.147 165.975 333.297C163.492 334.601 160.874 335.629 158.168 336.362C154.843 337.268 151.412 337.728 147.966 337.728Z" fill="#B8B8B8"/>
<path d="M118.566 303.168C117.605 303.168 116.683 302.786 116.004 302.106C115.324 301.426 114.942 300.504 114.942 299.543C114.942 290.612 118.489 282.047 124.803 275.732C131.117 269.416 139.681 265.869 148.61 265.869C149.553 265.897 150.448 266.291 151.106 266.968C151.763 267.645 152.13 268.551 152.13 269.495C152.13 270.439 151.763 271.345 151.106 272.022C150.448 272.699 149.553 273.093 148.61 273.121C141.604 273.121 134.885 275.905 129.931 280.86C124.977 285.815 122.193 292.536 122.193 299.543C122.193 300.019 122.1 300.491 121.917 300.931C121.735 301.371 121.468 301.771 121.131 302.107C120.794 302.444 120.394 302.711 119.954 302.893C119.514 303.075 119.042 303.168 118.566 303.168Z" fill="white"/>
</g>
<defs>
<clipPath id="clip0_191_5143">
<rect width="478" height="387.217" fill="white"/>
</clipPath>
</defs>
</svg>
