<svg width="1457" height="158" viewBox="0 0 1457 158" fill="none" xmlns="http://www.w3.org/2000/svg">
<g clip-path="url(#clip0_714_8414)">
<path d="M1277.34 112.219H1236.64C1231.98 112.219 1227.5 110.364 1224.2 107.062C1220.9 103.76 1219.05 99.2819 1219.05 94.6123V63.3729C1219.05 60.8248 1219.6 58.3065 1220.66 55.993C1221.73 53.6796 1223.29 51.6264 1225.23 49.9761C1228.41 47.2537 1232.45 45.7601 1236.64 45.766H1277.33L1277.34 112.219Z" fill="#2B3872"/>
<path d="M1372.21 146.922H1290.9C1287.92 146.922 1284.96 146.333 1282.2 145.19C1279.44 144.046 1276.94 142.37 1274.83 140.257C1272.71 138.144 1271.04 135.635 1269.9 132.874C1268.76 130.114 1268.17 127.155 1268.17 124.167V33.8284C1268.17 27.7946 1270.56 22.008 1274.83 17.7414C1279.09 13.4749 1284.87 11.078 1290.9 11.078H1372.19L1372.21 146.922Z" fill="#4656A1"/>
<path d="M1372.21 2.98198V155.008C1372.21 156.658 1373.55 157.995 1375.2 157.995H1387.13C1388.77 157.995 1390.11 156.658 1390.11 155.008V2.98198C1390.11 1.33237 1388.77 -0.00482178 1387.13 -0.00482178H1375.2C1373.55 -0.00482178 1372.21 1.33237 1372.21 2.98198Z" fill="#38488C"/>
<path d="M1390.11 58.6126V35.4594H1445.44C1446.95 35.4594 1448.46 35.7589 1449.86 36.3409C1451.27 36.9228 1452.54 37.7758 1453.61 38.8511C1454.69 39.9264 1455.54 41.2029 1456.12 42.6077C1456.7 44.0125 1457 45.5181 1457 47.0384C1457 48.5584 1456.7 50.0634 1456.12 51.4677C1455.54 52.8719 1454.69 54.1478 1453.61 55.2226C1452.54 56.2973 1451.26 57.1499 1449.86 57.7315C1448.46 58.3132 1446.95 58.6126 1445.44 58.6126H1390.11Z" fill="#232851"/>
<path d="M1457 110.962C1457 112.481 1456.7 113.987 1456.12 115.391C1455.54 116.795 1454.69 118.071 1453.61 119.146C1452.54 120.22 1451.26 121.073 1449.86 121.655C1448.46 122.236 1446.95 122.536 1445.44 122.536H1390.11V99.3824H1445.43C1446.95 99.3818 1448.45 99.6809 1449.86 100.263C1451.26 100.844 1452.54 101.697 1453.61 102.772C1454.69 103.848 1455.54 105.124 1456.12 106.53C1456.7 107.935 1457 109.441 1457 110.962Z" fill="#232851"/>
<path d="M1372.21 146.922H1290.9C1287.92 146.922 1284.96 146.333 1282.2 145.19C1279.44 144.046 1276.94 142.37 1274.83 140.257C1272.71 138.144 1271.04 135.635 1269.9 132.874C1268.76 130.114 1268.17 127.155 1268.17 124.167V33.8284C1268.17 27.7946 1270.56 22.008 1274.83 17.7414C1279.09 13.4749 1284.87 11.078 1290.9 11.078C1297.67 108.623 1372.19 117.584 1372.19 117.584L1372.21 146.922Z" fill="#38488C"/>
<path d="M1372.21 146.922V11.073H1365.66V146.922H1372.21Z" fill="#2B3872"/>
<path d="M1337.85 146.922H1290.9C1287.92 146.922 1284.96 146.333 1282.2 145.19C1279.44 144.046 1276.94 142.37 1274.83 140.257C1272.71 138.144 1271.04 135.635 1269.9 132.874C1268.76 130.114 1268.17 127.155 1268.17 124.167V60.7496C1268.18 124.781 1337.85 146.922 1337.85 146.922Z" fill="#2B3872"/>
<path d="M1268.18 112.214V45.7808H1263.93V112.214H1268.18Z" fill="#232851"/>
<path d="M1398.2 58.6125V35.4594H1390.11V58.6125H1398.2Z" fill="#15172D"/>
<path d="M1398.21 122.536V99.3826H1390.11V122.536H1398.21Z" fill="#15172D"/>
<path d="M1268.18 112.219H1236.64C1231.98 112.219 1227.5 110.364 1224.2 107.062C1220.9 103.76 1219.05 99.282 1219.05 94.6124V63.3729C1219.05 60.8248 1219.6 58.3066 1220.66 55.9931C1221.73 53.6796 1223.29 51.6264 1225.23 49.9762C1219.26 98.6456 1268.18 106.074 1268.18 106.074L1268.18 112.219Z" fill="#232851"/>
<path d="M734.605 83.1315L722.697 78.779L734.139 74.5983L722.289 70.2703L736.112 65.2201H703.097H-380V92.7849H703.097H736.112V92.7652L722.172 87.6708L734.605 83.1315Z" fill="#2C447D"/>
<path d="M991.224 65.2201H958.208V65.2397L972.149 70.3341L959.715 74.8734L971.624 79.226L960.182 83.4067L972.031 87.7347L958.208 92.7849H991.224H1219.05V65.2201H991.224Z" fill="#2C447D"/>
<path d="M753.027 20.9622H760.449C760.956 20.9622 761.441 21.1635 761.799 21.5219C762.157 21.8803 762.359 22.3663 762.359 22.8732C762.359 23.38 762.157 23.8661 761.799 24.2245C761.441 24.5828 760.956 24.7842 760.449 24.7842H753.027C752.521 24.7842 752.035 24.5828 751.677 24.2245C751.319 23.8661 751.118 23.38 751.118 22.8732C751.118 22.3663 751.319 21.8803 751.677 21.5219C752.035 21.1635 752.521 20.9622 753.027 20.9622Z" fill="#2B3872"/>
<path d="M780.741 22.8437C780.749 23.0992 780.705 23.3535 780.612 23.5916C780.519 23.8297 780.38 24.0468 780.202 24.23C780.024 24.4133 779.811 24.5589 779.575 24.6583C779.34 24.7577 779.087 24.8088 778.832 24.8087H771.41C771.159 24.8087 770.911 24.7593 770.679 24.6633C770.448 24.5672 770.237 24.4265 770.06 24.249C769.883 24.0716 769.742 23.8609 769.646 23.629C769.55 23.3972 769.501 23.1487 769.501 22.8977C769.501 22.3909 769.702 21.9048 770.06 21.5464C770.418 21.188 770.904 20.9867 771.41 20.9867H778.773C779.276 20.9847 779.761 21.1763 780.128 21.5218C780.494 21.8674 780.714 22.3406 780.741 22.8437Z" fill="#2B3872"/>
<path d="M767.837 9.96277V17.3907C767.837 17.8975 767.636 18.3836 767.277 18.742C766.919 19.1003 766.434 19.3017 765.927 19.3017C765.421 19.3017 764.935 19.1003 764.577 18.742C764.219 18.3836 764.018 17.8975 764.018 17.3907V9.96277C764.018 9.45594 764.219 8.96987 764.577 8.61148C764.935 8.2531 765.421 8.05176 765.927 8.05176C766.434 8.05176 766.919 8.2531 767.277 8.61148C767.636 8.96987 767.837 9.45594 767.837 9.96277Z" fill="#2B3872"/>
<path d="M765.927 26.4496C766.434 26.4496 766.919 26.6509 767.277 27.0093C767.636 27.3677 767.837 27.8538 767.837 28.3606V35.7885C767.837 36.2953 767.636 36.7814 767.277 37.1398C766.919 37.4982 766.434 37.6995 765.927 37.6995C765.421 37.6995 764.935 37.4982 764.577 37.1398C764.219 36.7814 764.018 36.2953 764.018 35.7885V28.3606C764.018 28.1096 764.067 27.8611 764.163 27.6293C764.259 27.3974 764.4 27.1868 764.577 27.0093C764.754 26.8319 764.965 26.6911 765.196 26.5951C765.428 26.499 765.676 26.4496 765.927 26.4496Z" fill="#2B3872"/>
<path d="M925.124 122.983H932.664C933.176 122.989 933.666 123.196 934.028 123.558C934.39 123.921 934.596 124.41 934.603 124.923C934.603 125.44 934.399 125.936 934.036 126.304C933.673 126.672 933.18 126.882 932.664 126.888H925.124C924.663 126.815 924.243 126.579 923.94 126.223C923.637 125.867 923.47 125.415 923.47 124.948C923.47 124.48 923.637 124.028 923.94 123.672C924.243 123.317 924.663 123.081 925.124 123.007V122.983Z" fill="#2B3872"/>
<path d="M953.266 124.894C953.269 125.151 953.222 125.406 953.126 125.645C953.031 125.883 952.888 126.1 952.708 126.283C952.527 126.466 952.312 126.611 952.075 126.71C951.838 126.809 951.584 126.859 951.327 126.859H943.792C943.271 126.859 942.772 126.652 942.403 126.283C942.035 125.915 941.828 125.415 941.828 124.894C941.835 124.377 942.045 123.883 942.412 123.52C942.78 123.157 943.275 122.953 943.792 122.953H951.283C951.802 122.948 952.303 123.149 952.675 123.513C953.047 123.877 953.259 124.373 953.266 124.894Z" fill="#2B3872"/>
<path d="M940.164 111.811V119.377C940.164 119.894 939.961 120.39 939.598 120.758C939.235 121.126 938.742 121.335 938.225 121.342C937.709 121.335 937.216 121.126 936.853 120.758C936.49 120.39 936.286 119.894 936.287 119.377V111.811C936.242 111.531 936.258 111.244 936.335 110.97C936.412 110.696 936.547 110.443 936.732 110.226C936.916 110.01 937.145 109.836 937.403 109.717C937.661 109.598 937.941 109.537 938.225 109.537C938.509 109.537 938.79 109.598 939.048 109.717C939.306 109.836 939.535 110.01 939.719 110.226C939.904 110.443 940.039 110.696 940.116 110.97C940.192 111.244 940.209 111.531 940.164 111.811Z" fill="#2B3872"/>
<path d="M938.225 128.554C938.738 128.56 939.227 128.767 939.589 129.129C939.952 129.492 940.158 129.982 940.164 130.494V138.045C940.164 138.428 940.05 138.803 939.837 139.121C939.623 139.44 939.321 139.688 938.967 139.835C938.613 139.981 938.224 140.02 937.848 139.945C937.472 139.871 937.127 139.686 936.856 139.416C936.675 139.236 936.531 139.023 936.433 138.788C936.335 138.552 936.286 138.3 936.287 138.045V130.494C936.293 129.982 936.499 129.492 936.861 129.129C937.224 128.767 937.713 128.56 938.225 128.554Z" fill="#2B3872"/>
<path d="M794.392 62.0465L800.195 65.22L794.392 68.3936L791.222 74.1954L788.051 68.3936L782.253 65.22L788.051 62.0465L791.222 56.2397L794.392 62.0465Z" fill="#2B3872"/>
<path d="M927.171 28.901L932.968 32.0745L927.171 35.2481L923.995 41.0499L920.824 35.2481L915.027 32.0745L920.824 28.901L923.995 23.0942L927.171 28.901Z" fill="#2B3872"/>
<path d="M873.176 74.1807C871.448 74.1807 869.759 74.6935 868.322 75.6544C866.885 76.6152 865.765 77.9809 865.104 79.5788C864.443 81.1766 864.269 82.9348 864.607 84.6311C864.944 86.3274 865.776 87.8855 866.998 89.1084C868.22 90.3314 869.777 91.1642 871.472 91.5016C873.166 91.839 874.923 91.6658 876.52 91.004C878.116 90.3421 879.481 89.2213 880.441 87.7833C881.401 86.3453 881.914 84.6546 881.914 82.9251C881.914 80.606 880.993 78.3818 879.354 76.7419C877.716 75.102 875.493 74.1807 873.176 74.1807ZM873.176 87.7837C872.216 87.7837 871.277 87.4988 870.479 86.9649C869.681 86.431 869.058 85.6722 868.691 84.7844C868.324 83.8967 868.227 82.9198 868.415 81.9773C868.602 81.0348 869.064 80.1691 869.743 79.4896C870.422 78.8101 871.287 78.3474 872.229 78.1599C873.171 77.9724 874.147 78.0687 875.034 78.4364C875.921 78.8041 876.679 79.4269 877.213 80.2259C877.746 81.0248 878.031 81.9642 878.031 82.9251C878.033 83.5644 877.909 84.1978 877.665 84.789C877.422 85.3801 877.065 85.9175 876.614 86.3702C876.163 86.8229 875.627 87.1821 875.037 87.4272C874.447 87.6723 873.815 87.7985 873.176 87.7985V87.7837Z" fill="#2B3872"/>
<path d="M767.837 122.983C766.109 122.983 764.419 123.496 762.982 124.456C761.546 125.417 760.426 126.783 759.764 128.381C759.103 129.979 758.93 131.737 759.267 133.433C759.604 135.129 760.437 136.687 761.658 137.91C762.88 139.133 764.437 139.966 766.132 140.304C767.827 140.641 769.584 140.468 771.18 139.806C772.777 139.144 774.142 138.023 775.102 136.585C776.062 135.147 776.574 133.457 776.574 131.727C776.574 129.408 775.654 127.184 774.015 125.544C772.376 123.904 770.154 122.983 767.837 122.983ZM767.837 136.586C766.877 136.586 765.938 136.301 765.14 135.767C764.341 135.233 763.719 134.474 763.352 133.586C762.984 132.699 762.888 131.722 763.075 130.779C763.263 129.837 763.725 128.971 764.404 128.292C765.083 127.612 765.948 127.149 766.89 126.962C767.831 126.774 768.807 126.871 769.695 127.238C770.582 127.606 771.34 128.229 771.873 129.028C772.407 129.827 772.691 130.766 772.691 131.727C772.687 133.013 772.174 134.245 771.264 135.153C770.354 136.061 769.122 136.571 767.837 136.571V136.586Z" fill="#2B3872"/>
</g>
<defs>
<clipPath id="clip0_714_8414">
<rect width="1837" height="158" fill="white" transform="translate(-380)"/>
</clipPath>
</defs>
</svg>
