<svg width="27" height="25" viewBox="0 0 27 25" fill="none" xmlns="http://www.w3.org/2000/svg">
<path fill-rule="evenodd" clip-rule="evenodd" d="M14.3436 12.5H7.59317C7.12784 12.5 6.75026 12.1214 6.75026 11.6562C6.75026 11.1899 7.12784 10.8121 7.59317 10.8121H14.3436C14.8096 10.8121 15.1874 11.1899 15.1874 11.6562C15.1874 12.1214 14.8096 12.5 14.3436 12.5ZM18.5629 11.6562C18.5629 12.1214 18.1842 12.5 17.7187 12.5C17.2527 12.5 16.8749 12.1214 16.8749 11.6562C16.8749 11.1899 17.2527 10.8121 17.7187 10.8121C18.1842 10.8121 18.5629 11.1899 18.5629 11.6562ZM10.1248 8.28041C10.1248 7.81529 10.5024 7.43666 10.9688 7.43666H19.4058C19.8722 7.43666 20.2499 7.81529 20.2499 8.28041C20.2499 8.74679 19.8722 9.12458 19.4058 9.12458H10.9688C10.5024 9.12458 10.1248 8.74679 10.1248 8.28041ZM23.6249 19.2492H16.0311C15.4618 19.2492 14.9369 19.437 14.5142 19.7538L9.18796 23.7485C9.17705 23.7567 9.17088 23.7604 9.15833 23.7703C8.72801 24.1094 8.1848 24.3124 7.59317 24.3124C6.19529 24.3125 5.0625 23.1787 5.0625 21.7808V20.0929C5.0625 19.6278 4.68471 19.2492 4.21854 19.2492H3.37458C1.51058 19.2492 0 17.7384 0 15.8746V4.90583C0 4.43987 0.377789 4.06208 0.843961 4.06208C1.30929 4.06208 1.68687 4.43987 1.68687 4.90583V15.4531C1.68687 16.6174 2.63197 17.5625 3.79709 17.5625H4.64004C5.80516 17.5625 6.75026 18.5063 6.75026 19.6715V21.7808C6.75026 22.2472 7.12784 22.6246 7.59317 22.6246C7.7722 22.6246 7.93784 22.5694 8.07379 22.4742C8.07564 22.4733 8.07564 22.4733 8.07727 22.4725L13.4475 18.4445C13.4484 18.4437 13.4484 18.4445 13.4494 18.4437C14.1624 17.8917 15.0585 17.5625 16.0311 17.5625H23.2031C24.3682 17.5625 25.3121 16.6174 25.3121 15.4531V4.48353C25.3121 3.31926 24.3682 2.37416 23.2031 2.37416H7.59317C7.12784 2.37416 6.75026 1.99679 6.75026 1.53041C6.75026 1.06529 7.12784 0.6875 7.59317 0.6875H23.6249C25.4893 0.6875 27 2.19787 27 4.06208V15.8746C27 17.7384 25.4893 19.2492 23.6249 19.2492ZM4.21859 2.37416C3.75242 2.37416 3.37463 1.99679 3.37463 1.53041C3.37463 1.06529 3.75242 0.6875 4.21859 0.6875C4.68471 0.6875 5.0625 1.06529 5.0625 1.53041C5.0625 1.99679 4.68471 2.37416 4.21859 2.37416Z" fill="black"/>
</svg>
