<svg width="12" height="8" viewBox="0 0 12 8" fill="none" xmlns="http://www.w3.org/2000/svg">
<path d="M9.87994 1.29L5.99994 5.17L2.11993 1.29C1.92863 1.12617 1.68257 1.04057 1.43089 1.05029C1.17921 1.06001 0.940467 1.16434 0.762373 1.34244C0.584278 1.52053 0.479949 1.75927 0.470228 2.01095C0.460507 2.26262 0.546117 2.5087 0.709944 2.7L5.29994 7.29C5.4873 7.47625 5.74076 7.58079 6.00494 7.58079C6.26913 7.58079 6.52258 7.47625 6.70994 7.29L11.2999 2.7C11.4862 2.51264 11.5907 2.25919 11.5907 1.995C11.5907 1.73082 11.4862 1.47736 11.2999 1.29C11.207 1.19627 11.0964 1.12188 10.9745 1.07111C10.8527 1.02034 10.7219 0.994202 10.5899 0.994202C10.4579 0.994202 10.3272 1.02034 10.2054 1.07111C10.0835 1.12188 9.9729 1.19627 9.87994 1.29Z" fill="#536876"/>
</svg>
