<svg width="15" height="12" viewBox="0 0 15 12" fill="none" xmlns="http://www.w3.org/2000/svg">
<path d="M8.6167 11.777C8.54286 11.7013 8.48428 11.6112 8.44429 11.512C8.40431 11.4128 8.38373 11.3065 8.38373 11.1991C8.38373 11.0917 8.40431 10.9853 8.44429 10.8862C8.48428 10.787 8.54286 10.697 8.6167 10.6212L12.2977 6.82382L0.790641 6.82382C0.580958 6.82382 0.379824 6.73784 0.231556 6.58488C0.0832876 6.43193 0 6.22448 0 6.00816C0 5.79185 0.0832876 5.5844 0.231556 5.43144C0.379824 5.27848 0.580958 5.19256 0.790641 5.19256L12.2977 5.19256L8.6167 1.3951C8.46814 1.24183 8.38471 1.03401 8.38471 0.817266C8.38471 0.600522 8.46814 0.392646 8.6167 0.239385C8.76526 0.0861245 8.96677 0 9.17686 0C9.38696 0 9.58846 0.0861245 9.73702 0.239385L14.7543 5.41542C14.8765 5.5353 14.9583 5.69237 14.9878 5.8636C15.0173 6.03484 14.993 6.2113 14.9184 6.36727L14.9104 6.38294L14.9032 6.39699L14.8952 6.41105L14.8864 6.42586L14.8768 6.44159C14.8437 6.49325 14.805 6.54088 14.7616 6.58357L9.7442 11.7596C9.6708 11.8358 9.58353 11.8963 9.4874 11.9375C9.39126 11.9788 9.28816 12 9.18404 12C9.07993 12 8.97687 11.9788 8.88074 11.9375C8.78461 11.8963 8.69733 11.8358 8.62393 11.7596L8.6167 11.777Z" fill="#757575"/>
</svg>
