<svg width="23" height="24" viewBox="0 0 23 24" fill="none" xmlns="http://www.w3.org/2000/svg">
<path d="M11.5 0.0195313C5.2865 0.0192713 0.25025 5.25749 0.25 11.7195C0.25 18.1811 5.28675 23.4195 11.5 23.4195C17.713 23.4195 22.75 18.1816 22.75 11.7195C22.75 5.25749 17.7135 0.0195313 11.5 0.0195313ZM16.289 14.8619C16.7767 15.3692 16.7767 16.1923 16.289 16.7001C15.801 17.2074 15.0095 17.2074 14.5215 16.7001L11.5 13.5577L8.47875 16.6996C7.9905 17.2074 7.199 17.2074 6.711 16.6996C6.223 16.1923 6.223 15.3692 6.711 14.8614L9.73225 11.7195L6.711 8.57691C6.223 8.06939 6.223 7.24623 6.711 6.73871C7.199 6.23119 7.9905 6.23119 8.47875 6.73871L11.5 9.88107L14.5215 6.73871C15.0095 6.23119 15.801 6.23119 16.289 6.73871C16.7767 7.24623 16.7767 8.06939 16.289 8.57691L13.2675 11.7195L16.289 14.8619Z" fill="black"/>
</svg>
