<svg width="17" height="17" viewBox="0 0 17 17" fill="none" xmlns="http://www.w3.org/2000/svg">
<g id="search">
<path id="search_2" fill-rule="evenodd" clip-rule="evenodd" d="M11.9488 10.9491C13.6798 8.72598 13.5234 5.50967 11.4798 3.466C9.26679 1.25303 5.67885 1.25303 3.46588 3.466C1.25291 5.67897 1.25291 9.26691 3.46588 11.4799C5.50955 13.5236 8.72585 13.6799 10.9489 11.9489C10.9585 11.9598 10.9685 11.9704 10.9789 11.9807L13.9841 14.986C14.2607 15.2626 14.7092 15.2626 14.9858 14.986C15.2625 14.7093 15.2625 14.2608 14.9858 13.9842L11.9806 10.979C11.9703 10.9686 11.9596 10.9587 11.9488 10.9491ZM10.478 4.46774C12.1378 6.12747 12.1378 8.81842 10.478 10.4781C8.8183 12.1379 6.12734 12.1379 4.46762 10.4781C2.80789 8.81842 2.80789 6.12747 4.46762 4.46774C6.12734 2.80801 8.8183 2.80801 10.478 4.46774Z" fill="#5FA5D8"/>
</g>
</svg>
