<svg width="19" height="19" viewBox="0 0 19 19" fill="none" xmlns="http://www.w3.org/2000/svg">
<path d="M9.21339 14.2356L13.9009 11.5292L9.21339 8.8229V10.4876H5.09886V12.5709H9.21339V14.2356Z" fill="black"/>
<path d="M5.33333 4.29167C4.75804 4.29167 4.29167 4.75804 4.29167 5.33333C4.29167 5.90863 4.75804 6.375 5.33333 6.375H13.6667C14.242 6.375 14.7083 5.90863 14.7083 5.33333C14.7083 4.75804 14.242 4.29167 13.6667 4.29167H5.33333Z" fill="black"/>
<path fill-rule="evenodd" clip-rule="evenodd" d="M3.25 0.125C1.52411 0.125 0.125 1.52411 0.125 3.25V15.75C0.125 17.4759 1.52411 18.875 3.25 18.875H15.75C17.4759 18.875 18.875 17.4759 18.875 15.75V3.25C18.875 1.52411 17.4759 0.125 15.75 0.125H3.25ZM15.75 2.20833H3.25C2.6747 2.20833 2.20833 2.6747 2.20833 3.25V15.75C2.20833 16.3253 2.6747 16.7917 3.25 16.7917H15.75C16.3253 16.7917 16.7917 16.3253 16.7917 15.75V3.25C16.7917 2.6747 16.3253 2.20833 15.75 2.20833Z" fill="black"/>
</svg>
