<svg width="27" height="27" viewBox="0 0 27 27" fill="none" xmlns="http://www.w3.org/2000/svg">
<path d="M7.875 9C7.875 8.37868 8.37868 7.875 9 7.875H18C18.6213 7.875 19.125 8.37868 19.125 9C19.125 9.62132 18.6213 10.125 18 10.125H9C8.37868 10.125 7.875 9.62132 7.875 9Z" fill="black"/>
<path d="M13.5 18C14.7426 18 15.75 16.9926 15.75 15.75C15.75 14.5074 14.7426 13.5 13.5 13.5C12.2574 13.5 11.25 14.5074 11.25 15.75C11.25 16.9926 12.2574 18 13.5 18Z" fill="black"/>
<path fill-rule="evenodd" clip-rule="evenodd" d="M6.75 3.375C4.88604 3.375 3.375 4.88604 3.375 6.75V20.25C3.375 22.114 4.88604 23.625 6.75 23.625H20.25C22.114 23.625 23.625 22.114 23.625 20.25V6.75C23.625 4.88604 22.114 3.375 20.25 3.375H6.75ZM20.25 5.625H6.75C6.12868 5.625 5.625 6.12868 5.625 6.75V20.25C5.625 20.8713 6.12868 21.375 6.75 21.375H20.25C20.8713 21.375 21.375 20.8713 21.375 20.25V6.75C21.375 6.12868 20.8713 5.625 20.25 5.625Z" fill="black"/>
</svg>
