<svg width="28" height="28" viewBox="0 0 28 28" fill="none" xmlns="http://www.w3.org/2000/svg">
<path d="M13.679 19.3038L18.929 16.2727L13.679 13.2416V15.1061H9.07072V17.4394H13.679V19.3038Z" fill="black"/>
<path d="M9.33333 8.16667C8.689 8.16667 8.16667 8.689 8.16667 9.33333C8.16667 9.97766 8.689 10.5 9.33333 10.5H18.6667C19.311 10.5 19.8333 9.97766 19.8333 9.33333C19.8333 8.689 19.311 8.16667 18.6667 8.16667H9.33333Z" fill="black"/>
<path fill-rule="evenodd" clip-rule="evenodd" d="M7 3.5C5.067 3.5 3.5 5.067 3.5 7V21C3.5 22.933 5.067 24.5 7 24.5H21C22.933 24.5 24.5 22.933 24.5 21V7C24.5 5.067 22.933 3.5 21 3.5H7ZM21 5.83333H7C6.35567 5.83333 5.83333 6.35567 5.83333 7V21C5.83333 21.6443 6.35567 22.1667 7 22.1667H21C21.6443 22.1667 22.1667 21.6443 22.1667 21V7C22.1667 6.35567 21.6443 5.83333 21 5.83333Z" fill="black"/>
</svg>
