<svg width="26" height="26" viewBox="0 0 26 26" fill="none" xmlns="http://www.w3.org/2000/svg">
<path d="M2.29863 3.63477H23.4465C24.3449 3.63477 25.0732 4.36309 25.0732 5.26152V23.9692C25.0732 24.8677 24.3449 25.596 23.4465 25.596H2.29863C1.4002 25.596 0.671875 24.8677 0.671875 23.9692V5.26152C0.671875 4.36309 1.4002 3.63477 2.29863 3.63477ZM2.29863 4.85483C2.07402 4.85483 1.89194 5.03691 1.89194 5.26152V23.9692C1.89194 24.1938 2.07402 24.3759 2.29863 24.3759H23.4465C23.6711 24.3759 23.8532 24.1938 23.8532 23.9692V5.26152C23.8532 5.03691 23.6711 4.85483 23.4465 4.85483H2.29863Z" fill="black"/>
<path d="M1.89844 9.59995H24.8086V8.37988H1.89844V9.59995Z" fill="black"/>
<path d="M5.82097 14.4115H12.5991C12.936 14.4115 13.2092 14.1384 13.2092 13.8014C13.2092 13.4645 12.936 13.1914 12.5991 13.1914H5.82097C5.48406 13.1914 5.21094 13.4645 5.21094 13.8014C5.21094 14.1384 5.48406 14.4115 5.82097 14.4115Z" fill="black"/>
<path d="M5.82097 19.9105H18.0217C18.3586 19.9105 18.6317 19.6374 18.6317 19.3005C18.6317 18.9635 18.3586 18.6904 18.0217 18.6904H5.82097C5.48406 18.6904 5.21094 18.9635 5.21094 19.3005C5.21094 19.6374 5.48406 19.9105 5.82097 19.9105Z" fill="black"/>
<path d="M19.1732 3.63513V1.19499C19.1732 0.858083 18.9001 0.584961 18.5632 0.584961C18.2262 0.584961 17.9531 0.858083 17.9531 1.19499V3.63513C17.9531 3.97204 18.2262 4.24517 18.5632 4.24517C18.9001 4.24517 19.1732 3.97204 19.1732 3.63513Z" fill="black"/>
<path d="M7.79038 3.63513V1.19499C7.79038 0.858083 7.51726 0.584961 7.18035 0.584961C6.84343 0.584961 6.57031 0.858083 6.57031 1.19499V3.63513C6.57031 3.97204 6.84343 4.24517 7.18035 4.24517C7.51726 4.24517 7.79038 3.97204 7.79038 3.63513Z" fill="black"/>
</svg>
