<svg width="37" height="29" viewBox="0 0 37 29" fill="none" xmlns="http://www.w3.org/2000/svg">
<path fill-rule="evenodd" clip-rule="evenodd" d="M36.5015 28.7303C36.5015 28.8313 36.4164 28.9164 36.3155 28.9164H0.686041C0.585123 28.9164 0.5 28.8313 0.5 28.7303V5.43795C0.5 5.33703 0.585123 5.25191 0.686041 5.25191H9.15002C9.4067 5.25191 9.64803 5.13036 9.80029 4.9237L13.371 0.0835684L23.6314 0.0831299L27.2021 4.92326C27.3544 5.12993 27.5957 5.25147 27.8519 5.25147H36.3155C36.4164 5.25147 36.5015 5.33659 36.5015 5.43751V28.7303ZM14.8668 12.0064C14.5413 11.7015 14.0292 11.7186 13.7243 12.0442C12.5865 13.26 11.9599 14.847 11.9599 16.5131C11.9599 16.9593 12.3219 17.3213 12.7682 17.3213C13.2148 17.3213 13.5764 16.9593 13.5764 16.5131C13.5764 15.2586 14.0485 14.0638 14.905 13.149C15.2095 12.823 15.1924 12.3118 14.8668 12.0064ZM33.4832 8.92138C33.4832 8.47515 33.1216 8.11316 32.675 8.11316L30.0853 8.1136C29.6386 8.1136 29.2771 8.47559 29.2771 8.92182C29.2771 9.36806 29.6391 9.73005 30.0853 9.73005H32.675C33.1212 9.72961 33.4832 9.36762 33.4832 8.92138ZM18.5008 24.9981C23.1794 24.9981 26.9862 21.1913 26.9858 16.5126C26.9858 11.834 23.1794 8.0276 18.5008 8.0276C13.8217 8.0276 10.0153 11.834 10.0153 16.5126C10.0153 21.1917 13.8217 24.9981 18.5008 24.9981ZM18.5008 6.41115C12.9305 6.41115 8.39928 10.9428 8.39928 16.5126C8.39928 22.0825 12.931 26.6141 18.5008 26.6141C24.071 26.6141 28.6018 22.0825 28.6018 16.5126C28.6018 10.9428 24.071 6.41115 18.5008 6.41115Z" fill="black"/>
</svg>
