<svg width="28" height="28" viewBox="0 0 28 28" fill="none" xmlns="http://www.w3.org/2000/svg">
<path d="M11.8033 19.3921L6.5 14.0888L8.26777 12.321L11.8033 15.8566L18.8744 8.78551L20.6421 10.5533L11.8033 19.3921Z" fill="#006F85"/>
<path fill-rule="evenodd" clip-rule="evenodd" d="M0.25 5.25C0.25 2.48858 2.48858 0.25 5.25 0.25H22.75C25.5114 0.25 27.75 2.48858 27.75 5.25V22.75C27.75 25.5114 25.5114 27.75 22.75 27.75H5.25C2.48858 27.75 0.25 25.5114 0.25 22.75V5.25ZM5.25 2.75H22.75C24.1307 2.75 25.25 3.86929 25.25 5.25V22.75C25.25 24.1307 24.1307 25.25 22.75 25.25H5.25C3.86929 25.25 2.75 24.1307 2.75 22.75V5.25C2.75 3.86929 3.86929 2.75 5.25 2.75Z" fill="#006F85"/>
</svg>
