<svg width="13" height="11" viewBox="0 0 13 11" fill="none" xmlns="http://www.w3.org/2000/svg">
<path d="M2.19111 4.61937C2.27989 4.62363 2.36695 4.64622 2.44718 4.68579C2.52742 4.72537 2.59922 4.78115 2.65837 4.84986L2.19111 4.61937ZM2.19111 4.61937H1.27883C1.20701 4.62235 1.13909 4.65401 1.08931 4.70772C1.03954 4.76143 1.01176 4.83302 1.01182 4.90748C0.996059 4.96394 0.996059 5.02388 1.01182 5.08034L4.63869 9.77075C4.68633 9.83363 4.74564 9.88599 4.81311 9.92476C4.88058 9.96354 4.95486 9.98794 5.03157 9.99653C5.10829 10.0051 5.18589 9.99773 5.2598 9.97479C5.33371 9.95185 5.40245 9.91382 5.46196 9.86295L5.56209 9.77075L11.9258 1.40407C11.9735 1.3508 12 1.28082 12 1.20816C12 1.1355 11.9735 1.06552 11.9258 1.01225C11.8713 0.995918 11.8134 0.995918 11.7589 1.01225H10.8466C10.7586 1.01135 10.6715 1.03171 10.5923 1.07171C10.5131 1.11172 10.444 1.17027 10.3905 1.24273L5.07258 8.06515M2.16886 4.60784L5.07258 8.06515Z" fill="#5C5C5C"/>
<path d="M2.19111 4.61937C2.27989 4.62363 2.36695 4.64622 2.44718 4.68579C2.52742 4.72537 2.59922 4.78115 2.65837 4.84986L2.19111 4.61937ZM2.19111 4.61937H1.27883C1.20701 4.62235 1.13909 4.65401 1.08931 4.70772C1.03954 4.76143 1.01176 4.83302 1.01182 4.90748C0.996059 4.96394 0.996059 5.02388 1.01182 5.08034L4.63869 9.77075C4.68633 9.83363 4.74564 9.88599 4.81311 9.92476C4.88058 9.96354 4.95486 9.98794 5.03157 9.99653C5.10829 10.0051 5.18589 9.99773 5.2598 9.97479C5.33371 9.95185 5.40245 9.91382 5.46196 9.86295L5.56209 9.77075L11.9258 1.40407C11.9735 1.3508 12 1.28082 12 1.20816C12 1.1355 11.9735 1.06552 11.9258 1.01225C11.8713 0.995918 11.8134 0.995918 11.7589 1.01225H10.8466C10.7586 1.01135 10.6715 1.03171 10.5923 1.07171C10.5131 1.11172 10.444 1.17027 10.3905 1.24273L5.07258 8.06515M5.07258 8.06515L2.16886 4.60784M5.07258 8.06515L2.64725 4.84986" stroke="white" stroke-width="0.3"/>
</svg>
