<svg width="12" height="19" viewBox="0 0 12 19" fill="none" xmlns="http://www.w3.org/2000/svg">
<path d="M1.32211 3.51845L7.30378 9.50013L1.32211 15.4818C1.06955 15.7767 0.93757 16.1561 0.952557 16.5441C0.967544 16.9321 1.12839 17.3001 1.40295 17.5747C1.67751 17.8493 2.04557 18.0101 2.43357 18.0251C2.82157 18.0401 3.20094 17.9081 3.49586 17.6555L10.5721 10.5793C10.8592 10.2904 11.0204 9.8997 11.0204 9.49241C11.0204 9.08512 10.8592 8.69438 10.5721 8.40553L3.49586 1.32929C3.20701 1.04215 2.81627 0.880993 2.40899 0.880993C2.0017 0.880993 1.61096 1.04215 1.32211 1.32929C1.17761 1.47261 1.06292 1.64312 0.984652 1.83098C0.906384 2.01885 0.866088 2.22036 0.866088 2.42388C0.866088 2.6274 0.906384 2.82889 0.984652 3.01676C1.06292 3.20462 1.17761 3.37513 1.32211 3.51845Z" fill="#536876"/>
</svg>
