<svg width="16" height="16" viewBox="0 0 16 16" fill="none" xmlns="http://www.w3.org/2000/svg">
<g clip-path="url(#clip0_188_4149)">
<path d="M5.17159 7.33334L6.1144 6.39054L8.00002 8.27615L9.88562 6.39055L10.8284 7.33336L8.00002 10.1618L5.17159 7.33334Z" fill="black"/>
<path fill-rule="evenodd" clip-rule="evenodd" d="M0.666664 3.33334C0.666664 1.86059 1.86057 0.666677 3.33333 0.666677L12.6667 0.666677C14.1394 0.666677 15.3333 1.86059 15.3333 3.33334L15.3333 12.6667C15.3333 14.1394 14.1394 15.3333 12.6667 15.3333L3.33333 15.3333C1.86057 15.3333 0.666664 14.1394 0.666664 12.6667L0.666664 3.33334ZM3.33333 2.00001L12.6667 2.00001C13.403 2.00001 14 2.59696 14 3.33334L14 12.6667C14 13.4031 13.403 14 12.6667 14L3.33333 14C2.59695 14 2 13.4031 2 12.6667L2 3.33334C2 2.59697 2.59695 2.00001 3.33333 2.00001Z" fill="black"/>
</g>
<defs>
<clipPath id="clip0_188_4149">
<rect width="16" height="16" fill="white" transform="translate(0 16) rotate(-90)"/>
</clipPath>
</defs>
</svg>
