<svg width="36" height="36" viewBox="0 0 36 36" fill="none" xmlns="http://www.w3.org/2000/svg">
<path d="M17.7405 0C7.95837 0 0 7.95758 0 17.7397C0 27.521 7.95837 35.4778 17.7405 35.4778C27.5226 35.4778 35.481 27.521 35.481 17.7397C35.481 7.95758 27.5226 0 17.7405 0ZM17.7405 33.4903C9.05499 33.4903 1.98752 26.4244 1.98752 17.7397C1.98752 9.0542 9.05499 1.98752 17.7405 1.98752C26.426 1.98752 33.4927 9.0542 33.4927 17.7397C33.4931 26.4244 26.426 33.4903 17.7405 33.4903Z" fill="black"/>
<path d="M26.0035 9.47752C25.615 9.08903 24.986 9.08903 24.5979 9.47752L17.7413 16.3333L10.8839 9.47593C10.4962 9.08745 9.86715 9.08745 9.47827 9.47593C9.09058 9.86363 9.09058 10.4934 9.47827 10.8815L16.3357 17.7389L9.47866 24.5955C9.09097 24.984 9.09097 25.613 9.47866 26.0011C9.6733 26.195 9.92768 26.2923 10.1817 26.2923C10.4356 26.2923 10.69 26.195 10.8839 26.0011L17.7413 19.1441L24.5979 26.0007C24.7917 26.1946 25.0461 26.2919 25.3001 26.2919C25.5541 26.2919 25.8084 26.1946 26.0031 26.0007C26.3908 25.613 26.3908 24.984 26.0031 24.5951L19.1468 17.7389L26.0035 10.8831C26.3915 10.4942 26.3915 9.86521 26.0035 9.47752Z" fill="black"/>
</svg>
