<svg width="22" height="22" viewBox="0 0 22 22" fill="none" xmlns="http://www.w3.org/2000/svg">
<g clip-path="url(#clip0_152_4256)">
<path d="M11 22C4.93488 22 0 17.0651 0 11C0 4.93488 4.93488 0 11 0C17.0651 0 22 4.93488 22 11C22 17.0651 17.0651 22 11 22ZM11 1.29387C5.64713 1.29387 1.29387 5.64713 1.29387 11C1.29387 16.3529 5.64713 20.7061 11 20.7061C16.3529 20.7061 20.7061 16.3529 20.7061 11C20.7061 5.64713 16.3529 1.29387 11 1.29387Z" fill="#FF0000"/>
<path d="M14.6258 13.6647C14.8939 13.9329 14.8939 14.3687 14.6244 14.6369C14.3563 14.905 13.9204 14.9036 13.6523 14.6355L7.37402 8.33524C7.10589 8.06574 7.10589 7.63124 7.37539 7.36174C7.64489 7.09499 8.07939 7.09499 8.34752 7.36449L14.6258 13.6647Z" fill="#FF0000"/>
<path d="M7.37402 13.6648C7.10589 13.9329 7.10589 14.3688 7.37539 14.6369C7.64352 14.905 8.07939 14.9036 8.34752 14.6355L14.6244 8.33388C14.8925 8.06438 14.8925 7.62988 14.623 7.36038C14.3535 7.09501 13.9204 7.09501 13.6523 7.36451L7.37402 13.6648Z" fill="#FF0000"/>
</g>
<defs>
<clipPath id="clip0_152_4256">
<rect width="22" height="22" fill="white"/>
</clipPath>
</defs>
</svg>
