<svg width="18" height="18" viewBox="0 0 18 18" fill="none" xmlns="http://www.w3.org/2000/svg">
<g clip-path="url(#clip0_183_4087)">
<path d="M9.00554 0.133789C4.11448 0.133789 0.135296 4.11258 0.135296 9.00364C0.135296 13.8943 4.11448 17.8727 9.00554 17.8727C13.8966 17.8727 17.8758 13.8943 17.8758 9.00364C17.8758 4.11258 13.8966 0.133789 9.00554 0.133789ZM9.00554 16.8789C4.66279 16.8789 1.12905 13.346 1.12905 9.00364C1.12905 4.66089 4.66279 1.12755 9.00554 1.12755C13.3483 1.12755 16.8816 4.66089 16.8816 9.00364C16.8818 13.346 13.3483 16.8789 9.00554 16.8789Z" fill="black"/>
<path d="M13.137 4.87255C12.9428 4.6783 12.6283 4.6783 12.4342 4.87255L9.00593 8.30046L5.57723 4.87176C5.38338 4.67751 5.06888 4.67751 4.87444 4.87176C4.68059 5.0656 4.68059 5.3805 4.87444 5.57455L8.30314 9.00325L4.87464 12.4316C4.68079 12.6258 4.68079 12.9403 4.87464 13.1343C4.97195 13.2313 5.09914 13.2799 5.22613 13.2799C5.35312 13.2799 5.48031 13.2313 5.57723 13.1343L9.00593 9.70584L12.4342 13.1342C12.5312 13.2311 12.6584 13.2797 12.7853 13.2797C12.9123 13.2797 13.0395 13.2311 13.1368 13.1342C13.3307 12.9403 13.3307 12.6258 13.1368 12.4314L9.70872 9.00325L13.137 5.57534C13.3311 5.3809 13.3311 5.06639 13.137 4.87255Z" fill="black"/>
</g>
<defs>
<clipPath id="clip0_183_4087">
<rect width="18" height="18" fill="white"/>
</clipPath>
</defs>
</svg>
