<svg width="11" height="11" viewBox="0 0 11 11" fill="none" xmlns="http://www.w3.org/2000/svg">
<path d="M10.1425 3.5425C10.1996 3.50963 10.2496 3.4658 10.2897 3.41353C10.3298 3.36126 10.3591 3.30159 10.3761 3.23793C10.3931 3.17428 10.3973 3.1079 10.3885 3.04261C10.3797 2.97733 10.3581 2.91442 10.325 2.8575L10.2 2.6425C10.1673 2.58554 10.1237 2.53557 10.0718 2.49544C10.0198 2.45532 9.96042 2.42582 9.89704 2.40864C9.83366 2.39146 9.76752 2.38694 9.7024 2.39532C9.63727 2.4037 9.57443 2.42483 9.51747 2.4575L6.55747 4.1675C6.31997 4.305 6.12497 4.1925 6.12497 3.9175V0.5C6.12497 0.367392 6.0723 0.240215 5.97853 0.146447C5.88476 0.0526785 5.75758 0 5.62497 0H5.37497C5.24237 0 5.11519 0.0526785 5.02142 0.146447C4.92765 0.240215 4.87497 0.367392 4.87497 0.5V3.9175C4.87497 4.1925 4.67997 4.305 4.44247 4.1675L1.48247 2.4575C1.42551 2.42483 1.36268 2.4037 1.29755 2.39532C1.23242 2.38694 1.16628 2.39146 1.10291 2.40864C1.03953 2.42582 0.980159 2.45532 0.928182 2.49544C0.876204 2.53557 0.832639 2.58554 0.799974 2.6425L0.674974 2.8575C0.641812 2.91442 0.620224 2.97733 0.61145 3.04261C0.602676 3.1079 0.606889 3.17428 0.623848 3.23793C0.640807 3.30159 0.670177 3.36126 0.71027 3.41353C0.750363 3.4658 0.800389 3.50963 0.857474 3.5425L3.81747 5.25C3.86925 5.2682 3.91409 5.30203 3.94582 5.34681C3.97754 5.39159 3.99458 5.44512 3.99458 5.5C3.99458 5.55488 3.97754 5.60841 3.94582 5.65319C3.91409 5.69797 3.86925 5.7318 3.81747 5.75L0.857474 7.4575C0.800389 7.49037 0.750363 7.5342 0.71027 7.58647C0.670177 7.63874 0.640807 7.69841 0.623848 7.76207C0.606889 7.82572 0.602676 7.8921 0.61145 7.95739C0.620224 8.02267 0.641812 8.08558 0.674974 8.1425L0.799974 8.3575C0.832639 8.41446 0.876204 8.46443 0.928182 8.50456C0.980159 8.54468 1.03953 8.57418 1.10291 8.59136C1.16628 8.60854 1.23242 8.61306 1.29755 8.60468C1.36268 8.5963 1.42551 8.57517 1.48247 8.5425L4.44247 6.8325C4.67997 6.695 4.87497 6.8075 4.87497 7.0825V10.5C4.87497 10.6326 4.92765 10.7598 5.02142 10.8536C5.11519 10.9473 5.24237 11 5.37497 11H5.62497C5.75758 11 5.88476 10.9473 5.97853 10.8536C6.0723 10.7598 6.12497 10.6326 6.12497 10.5V7.0825C6.12497 6.8075 6.31997 6.695 6.55747 6.8325L9.51747 8.5425C9.57443 8.57517 9.63727 8.5963 9.7024 8.60468C9.76752 8.61306 9.83366 8.60854 9.89704 8.59136C9.96042 8.57418 10.0198 8.54468 10.0718 8.50456C10.1237 8.46443 10.1673 8.41446 10.2 8.3575L10.325 8.1425C10.3581 8.08558 10.3797 8.02267 10.3885 7.95739C10.3973 7.8921 10.3931 7.82572 10.3761 7.76207C10.3591 7.69841 10.3298 7.63874 10.2897 7.58647C10.2496 7.5342 10.1996 7.49037 10.1425 7.4575L7.18247 5.75C7.1307 5.7318 7.08585 5.69797 7.05413 5.65319C7.0224 5.60841 7.00537 5.55488 7.00537 5.5C7.00537 5.44512 7.0224 5.39159 7.05413 5.34681C7.08585 5.30203 7.1307 5.2682 7.18247 5.25L10.1425 3.5425Z" fill="white"/>
</svg>
