<svg width="26" height="25" viewBox="0 0 26 25" fill="none" xmlns="http://www.w3.org/2000/svg">
<path d="M23 0.75H3C2.33696 0.75 1.70107 1.01339 1.23223 1.48223C0.763392 1.95107 0.5 2.58696 0.5 3.25V24C0.5 24.2761 0.723858 24.5 1 24.5H1.54289C1.6755 24.5 1.80268 24.4473 1.89645 24.3536L6.60355 19.6464C6.69732 19.5527 6.8245 19.5 6.95711 19.5H23C23.663 19.5 24.2989 19.2366 24.7678 18.7678C25.2366 18.2989 25.5 17.663 25.5 17V3.25C25.5 2.58696 25.2366 1.95107 24.7678 1.48223C24.2989 1.01339 23.663 0.75 23 0.75ZM23 17H5.70711C5.5745 17 5.44732 17.0527 5.35355 17.1464L3.85355 18.6464C3.53857 18.9614 3 18.7383 3 18.2929V3.75C3 3.47386 3.22386 3.25 3.5 3.25H23" fill="#006F85"/>
</svg>
