<svg width="30" height="26" viewBox="0 0 30 26" fill="none" xmlns="http://www.w3.org/2000/svg">
<path d="M23.1656 12.5C19.4906 12.5 16.5156 15.475 16.5156 19.15C16.5156 22.825 19.4906 25.8 23.1656 25.8C26.8406 25.8 29.8156 22.825 29.8156 19.15C29.8156 15.475 26.8406 12.5 23.1656 12.5ZM23.1656 24.4C20.2606 24.4 17.9156 22.055 17.9156 19.15C17.9156 16.245 20.2606 13.9 23.1656 13.9C26.0706 13.9 28.4156 16.245 28.4156 19.15C28.4156 22.055 26.0356 24.4 23.1656 24.4Z" fill="black"/>
<path d="M25.9953 18.45H23.8953V16.35C23.8953 15.965 23.5803 15.65 23.1953 15.65C22.8103 15.65 22.4953 15.965 22.4953 16.35V18.45H20.3953C20.0103 18.45 19.6953 18.765 19.6953 19.15C19.6953 19.535 20.0103 19.85 20.3953 19.85H22.4953V21.95C22.4953 22.335 22.8103 22.65 23.1953 22.65C23.5803 22.65 23.8953 22.335 23.8953 21.95V19.85H25.9953C26.3803 19.85 26.6953 19.535 26.6953 19.15C26.6953 18.765 26.3803 18.45 25.9953 18.45Z" fill="black"/>
<path d="M22.4969 0.25H5.69688C3.00187 0.25 0.796875 2.455 0.796875 5.15V16C0.796875 18.45 2.61687 20.515 4.99687 20.865V24.75C4.99687 25.03 5.13688 25.24 5.38188 25.38C5.48688 25.415 5.59188 25.45 5.69688 25.45C5.83687 25.45 5.97688 25.415 6.11688 25.31L12.0669 20.9H14.0969C14.4819 20.9 14.7969 20.585 14.7969 20.2C14.7969 19.815 14.4819 19.5 14.0969 19.5H11.8219C11.6819 19.5 11.5419 19.535 11.4019 19.64L6.39687 23.35V20.2C6.39687 19.815 6.08187 19.5 5.69688 19.5C3.77187 19.5 2.19687 17.925 2.19687 16V5.15C2.19687 3.225 3.77187 1.65 5.69688 1.65H22.4969C24.4219 1.65 25.9969 3.225 25.9969 5.15V10.4C25.9969 10.785 26.3119 11.1 26.6969 11.1C27.0819 11.1 27.3969 10.785 27.3969 10.4V5.15C27.3969 2.455 25.1919 0.25 22.4969 0.25Z" fill="black"/>
</svg>
