<svg width="20" height="20" viewBox="0 0 20 20" fill="none" xmlns="http://www.w3.org/2000/svg">
<path fill-rule="evenodd" clip-rule="evenodd" d="M3.33333 1.25C2.41286 1.25 1.66667 1.99619 1.66667 2.91667V3.75C1.66667 3.79722 1.66863 3.84398 1.67248 3.89021C0.698451 4.23176 0 5.15931 0 6.25V16.25C0 17.6307 1.11929 18.75 2.5 18.75H17.5C18.8807 18.75 20 17.6307 20 16.25V6.25C20 4.86929 18.8807 3.75 17.5 3.75H9.89499C9.52495 2.31231 8.21987 1.25 6.66667 1.25H3.33333ZM8.11036 3.75C7.82219 3.25183 7.28357 2.91667 6.66667 2.91667H3.33333V3.75H8.11036ZM2.5 5.41667C2.03976 5.41667 1.66667 5.78976 1.66667 6.25V16.25C1.66667 16.7102 2.03976 17.0833 2.5 17.0833H17.5C17.9602 17.0833 18.3333 16.7102 18.3333 16.25V6.25C18.3333 5.78976 17.9602 5.41667 17.5 5.41667H2.5Z" fill="black"/>
</svg>
