<svg width="25" height="17" viewBox="0 0 25 17" fill="none" xmlns="http://www.w3.org/2000/svg">
<path d="M21.0481 2.62514C20.0481 1.30014 18.1731 1.02514 16.8481 2.00014L9.97313 7.10015L7.84813 5.52513C7.62313 5.35013 7.49812 5.05013 7.57312 4.77513C7.69812 4.25013 7.72313 3.70014 7.59813 3.12514C7.29813 1.75014 6.14812 0.650143 4.74812 0.425143C2.54812 0.0501429 0.623123 1.75013 0.623123 3.90013C0.623123 5.85013 2.19812 7.42514 4.14812 7.42514C4.82312 7.42514 5.42313 7.25014 5.97313 6.92514C6.22313 6.77514 6.54812 6.80015 6.77312 6.97515L8.82312 8.50014L6.77312 10.0251C6.54812 10.2001 6.22313 10.2251 5.97313 10.0751C5.27313 9.65014 4.42312 9.47514 3.52312 9.62514C2.02312 9.90014 0.848117 11.1251 0.648117 12.6501C0.348117 14.9501 2.27312 16.8751 4.57312 16.6251C6.12312 16.4501 7.39812 15.2251 7.64812 13.6751C7.72312 13.1751 7.69812 12.6751 7.57312 12.2251C7.49812 11.9501 7.62313 11.6501 7.84813 11.4751L9.97313 9.90013L16.8481 15.0001C18.1731 16.0001 20.0481 15.7251 21.0481 14.3751L13.1231 8.50014L21.0481 2.62514ZM4.14812 5.37514C3.34812 5.37514 2.67313 4.72513 2.67313 3.90013C2.67313 3.10013 3.32312 2.42514 4.14812 2.42514C4.94812 2.42514 5.62312 3.07513 5.62312 3.90013C5.62312 4.70013 4.97312 5.37514 4.14812 5.37514ZM4.14812 14.5752C3.34812 14.5752 2.67313 13.9251 2.67313 13.1001C2.67313 12.3001 3.32312 11.6251 4.14812 11.6251C4.94812 11.6251 5.62312 12.2751 5.62312 13.1001C5.62312 13.9001 4.97312 14.5752 4.14812 14.5752ZM11.2231 9.20014C10.8481 9.20014 10.5231 8.87514 10.5231 8.50014C10.5231 8.12514 10.8481 7.80014 11.2231 7.80014C11.5981 7.80014 11.9231 8.12514 11.9231 8.50014C11.9231 8.87514 11.6231 9.20014 11.2231 9.20014Z" fill="black"/>
<path d="M19.9469 7.60059H16.7969V9.40057H19.9469V7.60059Z" fill="black"/>
<path d="M24.3766 7.60059H21.2266V9.40057H24.3766V7.60059Z" fill="black"/>
</svg>
