<svg width="30" height="32" viewBox="0 0 30 32" fill="none" xmlns="http://www.w3.org/2000/svg">
<path d="M30 10.6667C30 11.3739 29.7127 12.0522 29.2012 12.5523C28.6897 13.0524 27.996 13.3333 27.2727 13.3333V26.6667C27.2727 28.0812 26.6981 29.4377 25.6751 30.4379C24.6522 31.4381 23.2648 32 21.8182 32H8.18182C6.73518 32 5.3478 31.4381 4.32487 30.4379C3.30195 29.4377 2.72727 28.0812 2.72727 26.6667V13.3333C2.00395 13.3333 1.31026 13.0524 0.7988 12.5523C0.287336 12.0522 0 11.3739 0 10.6667V8C0 7.29276 0.287336 6.61448 0.7988 6.11438C1.31026 5.61428 2.00395 5.33333 2.72727 5.33333H8.18182V2.66667C8.18182 1.95942 8.46916 1.28115 8.98062 0.781049C9.49208 0.280952 10.1858 0 10.9091 0H19.0909C19.8142 0 20.5079 0.280952 21.0194 0.781049C21.5308 1.28115 21.8182 1.95942 21.8182 2.66667V5.33333H27.2727C27.996 5.33333 28.6897 5.61428 29.2012 6.11438C29.7127 6.61448 30 7.29276 30 8V10.6667ZM5.45455 26.6667C5.45455 27.3739 5.74188 28.0522 6.25335 28.5523C6.76481 29.0524 7.4585 29.3333 8.18182 29.3333H21.8182C22.5415 29.3333 23.2352 29.0524 23.7467 28.5523C24.2581 28.0522 24.5455 27.3739 24.5455 26.6667V13.3333H5.45455V26.6667ZM19.0909 2.66667H10.9091V5.33333H19.0909V2.66667ZM27.2727 8H2.72727V10.6667H27.2727V8Z" fill="black"/>
</svg>
