<svg width="36" height="42" viewBox="0 0 36 42" fill="none" xmlns="http://www.w3.org/2000/svg">
<g id="doc-icon">
<g id="sheet">
<path id="sheet_2" d="M31.5799 40.5381H5.05753C4.04653 40.5381 3.13144 40.1249 2.46834 39.4606C1.80289 38.7939 1.39062 37.8742 1.39062 36.8633V4.4688C1.39062 3.45266 1.80134 2.5327 2.46937 1.86755C3.13632 1.20347 4.0593 0.793945 5.08459 0.793945H23.9019L35.2468 12.1389V36.8666C35.2468 37.8802 34.8357 38.7977 34.172 39.4621C33.5081 40.1267 32.5912 40.5381 31.5799 40.5381Z" fill="white" stroke="#C4CCD2"/>
</g>
<g id="fold">
<path id="fold_2" d="M23.9104 0.793945H23.4688V10.362C23.4688 11.5814 24.4573 12.57 25.6768 12.57H35.2448V12.1284L23.9104 0.793945Z" fill="white" stroke="#C4CCD2"/>
</g>
<path id="Shape" fill-rule="evenodd" clip-rule="evenodd" d="M18.3197 14.7773H8.01562V16.2494H18.3197V14.7773ZM8.01562 20.6656V19.1936H28.6237V20.6656H8.01562ZM28.6237 25.081V23.609H8.01562V25.081H28.6237ZM8.01562 29.4973V28.0253H28.6237V29.4973H8.01562ZM8.01562 33.9136V32.4416H28.6237V33.9136H8.01562Z" fill="#8496A5"/>
</g>
</svg>
