<svg width="35" height="32" viewBox="0 0 35 32" fill="none" xmlns="http://www.w3.org/2000/svg">
<path d="M32.1243 2.85313C28.2897 -0.950791 22.0724 -0.951081 18.2375 2.85248L2.07956 18.8787C2.05289 18.9047 2.02647 18.9309 2.00027 18.9574C-0.69716 21.6761 -0.661969 26.0491 2.07891 28.7248C4.8198 31.4005 9.22842 31.3655 11.9259 28.6468L27.0786 13.6226C28.6432 12.0159 28.6432 9.46851 27.0786 7.86177C25.4498 6.33205 22.8996 6.33205 21.2708 7.86177L7.12461 21.8851C6.65665 22.3657 6.65665 23.1276 7.12461 23.6082C7.60432 24.1009 8.39587 24.1146 8.89258 23.6387L23.0363 9.61546C23.6526 9.04811 24.6058 9.04811 25.2221 9.61546C25.8725 10.2142 25.9105 11.2226 25.3069 11.8677L10.1579 26.8931C8.41499 28.6216 5.58945 28.6213 3.84687 26.8925C2.10429 25.1636 2.10459 22.3609 3.84752 20.6324L20.0055 4.60617C22.8465 1.86573 27.3702 1.86573 30.2112 4.60617C33.1092 7.40164 33.1739 11.9982 30.3557 14.8728L15.208 29.8982C14.74 30.3788 14.74 31.1407 15.208 31.6214C15.6877 32.1141 16.4792 32.1277 16.9759 31.6519L32.1236 16.6277C35.9586 12.8241 35.9588 6.65705 32.1243 2.85313Z" fill="black"/>
</svg>
