<svg width="19" height="12" viewBox="0 0 19 12" fill="none" xmlns="http://www.w3.org/2000/svg">
<path d="M15.4844 1.32211L9.50268 7.30378L3.52101 1.32211C3.22608 1.06955 2.84673 0.93757 2.45873 0.952557C2.07073 0.967544 1.70266 1.12839 1.4281 1.40295C1.15354 1.67751 0.992699 2.04557 0.977712 2.43357C0.962725 2.82157 1.09471 3.20094 1.34727 3.49586L8.42352 10.5721C8.71237 10.8593 9.10311 11.0204 9.5104 11.0204C9.91768 11.0204 10.3084 10.8593 10.5973 10.5721L17.6735 3.49586C17.9607 3.20701 18.1218 2.81627 18.1218 2.40899C18.1218 2.0017 17.9607 1.61096 17.6735 1.32211C17.5302 1.17761 17.3597 1.06292 17.1718 0.984653C16.984 0.906384 16.7824 0.866089 16.5789 0.866089C16.3754 0.866089 16.1739 0.906384 15.9861 0.984653C15.7982 1.06292 15.6277 1.17761 15.4844 1.32211Z" fill="#536876"/>
</svg>
