<svg width="40" height="41" viewBox="0 0 40 41" fill="none" xmlns="http://www.w3.org/2000/svg">
<rect y="0.5" width="40" height="40" rx="20" fill="#2F80ED" fill-opacity="0.08"/>
<path d="M29.8078 18.4115H26.4732C23.7386 18.4115 21.5117 16.1846 21.5117 13.45V10.1154C21.5117 9.48075 20.9924 8.96152 20.3578 8.96152H15.4655C11.9117 8.96152 9.03857 11.2692 9.03857 15.3884V25.6115C9.03857 29.7307 11.9117 32.0384 15.4655 32.0384H24.5347C28.0886 32.0384 30.9617 29.7307 30.9617 25.6115V19.5654C30.9617 18.9307 30.4424 18.4115 29.8078 18.4115ZM19.4578 22.2654C19.2847 22.4384 19.0655 22.5192 18.8463 22.5192C18.627 22.5192 18.4078 22.4384 18.2347 22.2654L17.404 21.4346V26.2692C17.404 26.7423 17.0117 27.1346 16.5386 27.1346C16.0655 27.1346 15.6732 26.7423 15.6732 26.2692V21.4346L14.8424 22.2654C14.5078 22.6 13.954 22.6 13.6193 22.2654C13.2847 21.9307 13.2847 21.3769 13.6193 21.0423L15.927 18.7346C16.0078 18.6654 16.0886 18.6077 16.1809 18.5615C16.204 18.55 16.2386 18.5384 16.2617 18.5269C16.3309 18.5038 16.4001 18.4923 16.4809 18.4807C16.5155 18.4807 16.5386 18.4807 16.5732 18.4807C16.6655 18.4807 16.7578 18.5038 16.8501 18.5384C16.8617 18.5384 16.8617 18.5384 16.8732 18.5384C16.9655 18.5731 17.0578 18.6423 17.127 18.7115C17.1386 18.7231 17.1501 18.7231 17.1501 18.7346L19.4578 21.0423C19.7924 21.3769 19.7924 21.9307 19.4578 22.2654Z" fill="#2F80ED"/>
<path d="M26.2654 16.8192C27.3615 16.8308 28.8846 16.8308 30.1884 16.8308C30.8461 16.8308 31.1923 16.0577 30.7307 15.5961C29.0692 13.9231 26.0923 10.9115 24.3846 9.20384C23.9115 8.73076 23.0923 9.05384 23.0923 9.71153V13.7385C23.0923 15.4231 24.5231 16.8192 26.2654 16.8192Z" fill="#2F80ED"/>
</svg>
