<svg width="30" height="34" viewBox="0 0 30 34" fill="none" xmlns="http://www.w3.org/2000/svg">
<path d="M28.0191 31.665H0.132812V33.4073H28.0191V31.665Z" fill="black"/>
<path d="M28.6116 3.29015L26.7631 1.44164C25.2349 -0.0865675 22.7458 -0.0880642 21.2176 1.44164L4.57949 18.0782C4.47472 18.183 4.39838 18.3132 4.35797 18.4554L1.89279 27.0828C1.80597 27.3882 1.89129 27.7144 2.11431 27.939C2.28045 28.1051 2.50197 28.1949 2.73098 28.1949C2.81031 28.1949 2.89113 28.1844 2.97046 28.162L11.5978 25.6968C11.7415 25.6564 11.8703 25.5801 11.975 25.4753L28.6116 8.83568C29.3525 8.09478 29.7612 7.10991 29.7612 6.06366C29.7612 5.01592 29.3525 4.02955 28.6116 3.29015ZM10.9018 24.0803L4.00024 26.0515L5.97149 19.1499L19.3676 5.75233L24.2979 10.6827L10.9018 24.0803ZM27.3798 7.60384L25.5313 9.45235L20.6009 4.52199L22.4494 2.67348C23.2981 1.82481 24.6811 1.82481 25.5313 2.67348L27.3798 4.52199C27.7914 4.9336 28.0174 5.47992 28.0174 6.06217C28.0174 6.64441 27.7914 7.19223 27.3798 7.60384Z" fill="black"/>
</svg>
