<svg width="23" height="23" viewBox="0 0 23 23" fill="none" xmlns="http://www.w3.org/2000/svg">
<path d="M11.1675 16.9932L16.605 13.8539L11.1675 10.7146V12.6456H6.39467V15.0622H11.1675V16.9932Z" fill="black"/>
<path d="M6.66667 5.45833C5.99932 5.45833 5.45833 5.99932 5.45833 6.66667C5.45833 7.33401 5.99932 7.875 6.66667 7.875H16.3333C17.0007 7.875 17.5417 7.33401 17.5417 6.66667C17.5417 5.99932 17.0007 5.45833 16.3333 5.45833H6.66667Z" fill="black"/>
<path fill-rule="evenodd" clip-rule="evenodd" d="M4.25 0.625C2.24797 0.625 0.625 2.24797 0.625 4.25V18.75C0.625 20.752 2.24797 22.375 4.25 22.375H18.75C20.752 22.375 22.375 20.752 22.375 18.75V4.25C22.375 2.24797 20.752 0.625 18.75 0.625H4.25ZM18.75 3.04167H4.25C3.58266 3.04167 3.04167 3.58266 3.04167 4.25V18.75C3.04167 19.4173 3.58266 19.9583 4.25 19.9583H18.75C19.4173 19.9583 19.9583 19.4173 19.9583 18.75V4.25C19.9583 3.58266 19.4173 3.04167 18.75 3.04167Z" fill="black"/>
</svg>
