<svg width="22" height="22" viewBox="0 0 22 22" fill="none" xmlns="http://www.w3.org/2000/svg">
<path d="M8.25 13.75H13.75V11.9167H8.25V13.75Z" fill="black"/>
<path fill-rule="evenodd" clip-rule="evenodd" d="M5.5 1.83337C3.98122 1.83337 2.75 3.06459 2.75 4.58337V17.4167C2.75 18.9355 3.98122 20.1667 5.5 20.1667H16.5C18.0188 20.1667 19.25 18.9355 19.25 17.4167V8.25004C19.25 4.70621 16.3772 1.83337 12.8333 1.83337H5.5ZM5.5 3.66671H11.9167V8.25004H17.4167V17.4167C17.4167 17.923 17.0063 18.3334 16.5 18.3334H5.5C4.99374 18.3334 4.58333 17.923 4.58333 17.4167V4.58337C4.58333 4.07711 4.99374 3.66671 5.5 3.66671ZM13.75 3.75839C15.227 4.05822 16.4462 5.06834 17.0353 6.41671H13.75V3.75839Z" fill="black"/>
</svg>
