<svg width="37" height="45" viewBox="0 0 37 45" fill="none" xmlns="http://www.w3.org/2000/svg">
<path d="M2.76298 38.346C2.76298 38.0517 2.64607 37.7694 2.43796 37.5613C2.22986 37.3532 1.94761 37.2363 1.6533 37.2363C1.35899 37.2363 1.07674 37.3532 0.868633 37.5613C0.660527 37.7694 0.543614 38.0517 0.543614 38.346C0.51394 39.0733 0.629594 39.7991 0.883811 40.4812C1.13803 41.1632 1.5257 41.7877 2.02416 42.3181C2.52261 42.8485 3.12184 43.2742 3.78678 43.5703C4.45172 43.8664 5.16902 44.0268 5.89673 44.0424H30.5835C32.1066 44.0387 33.5683 43.4418 34.6585 42.3783C35.7488 41.3149 36.3819 39.8685 36.4234 38.346V11.9044C36.4152 11.8343 36.3993 11.7654 36.3761 11.6988C36.3675 11.6267 36.3511 11.5557 36.3272 11.4872V11.4724C36.2983 11.4263 36.2662 11.3823 36.2311 11.3407C36.19 11.2666 36.1404 11.1975 36.0831 11.135L36.0668 11.1217L36.0372 11.0966L24.6711 1.17895C24.0915 0.673198 23.3482 0.394609 22.579 0.394773H5.89673C5.1799 0.387925 4.46911 0.526412 3.80727 0.801873C3.14544 1.07733 2.54629 1.48406 2.046 1.99748C1.54571 2.51091 1.15465 3.1204 0.896433 3.78915C0.638215 4.45789 0.518193 5.17203 0.543614 5.88845V32.3108C0.543614 32.6051 0.660527 32.8873 0.868633 33.0955C1.07674 33.3036 1.35899 33.4205 1.6533 33.4205C1.94761 33.4205 2.22986 33.3036 2.43796 33.0955C2.64607 32.8873 2.76298 32.6051 2.76298 32.3108V5.88845C2.74011 5.46432 2.80443 5.04 2.95199 4.64171C3.09954 4.24342 3.32719 3.87961 3.62087 3.57275C3.91456 3.26589 4.26804 3.02251 4.65948 2.85763C5.05092 2.69276 5.47201 2.60989 5.89673 2.61414H22.579C22.812 2.61422 23.037 2.69887 23.2122 2.85236L32.3516 10.8258H25.1106C24.9397 10.8258 24.7759 10.758 24.6549 10.6374C24.534 10.5167 24.4658 10.353 24.4655 10.1822V7.57813C24.4655 7.28383 24.3485 7.00157 24.1404 6.79347C23.9323 6.58536 23.6501 6.46845 23.3558 6.46845C23.0615 6.46845 22.7792 6.58536 22.5711 6.79347C22.363 7.00157 22.2461 7.28383 22.2461 7.57813V10.1778C22.2459 10.5541 22.3198 10.9268 22.4637 11.2746C22.6075 11.6224 22.8185 11.9385 23.0845 12.2047C23.3504 12.471 23.6663 12.6822 24.0139 12.8265C24.3616 12.9707 24.7342 13.045 25.1106 13.0452H34.204V38.346C34.1598 39.2789 33.7599 40.1595 33.0866 40.8067C32.4132 41.454 31.5175 41.8187 30.5835 41.826H5.89673C5.46188 41.805 5.03549 41.6981 4.64215 41.5115C4.24881 41.3249 3.89631 41.0623 3.60498 40.7387C3.31365 40.4152 3.08925 40.0372 2.94474 39.6265C2.80023 39.2159 2.73845 38.7807 2.76298 38.346Z" fill="black"/>
<path d="M29.1683 23.681C29.1683 23.3867 29.0514 23.1044 28.8433 22.8963C28.6352 22.6882 28.353 22.5713 28.0587 22.5713H8.91437C8.62006 22.5713 8.33781 22.6882 8.12971 22.8963C7.9216 23.1044 7.80469 23.3867 7.80469 23.681C7.80469 23.9753 7.9216 24.2575 8.12971 24.4656C8.33781 24.6737 8.62006 24.7907 8.91437 24.7907H28.0587C28.353 24.7907 28.6352 24.6737 28.8433 24.4656C29.0514 24.2575 29.1683 23.9753 29.1683 23.681Z" fill="black"/>
<path d="M12.1566 30.0732C11.8623 30.0732 11.58 30.1902 11.3719 30.3983C11.1638 30.6064 11.0469 30.8886 11.0469 31.1829C11.0469 31.4772 11.1638 31.7595 11.3719 31.9676C11.58 32.1757 11.8623 32.2926 12.1566 32.2926H24.8025C25.0968 32.2926 25.3791 32.1757 25.5872 31.9676C25.7953 31.7595 25.9122 31.4772 25.9122 31.1829C25.9122 30.8886 25.7953 30.6064 25.5872 30.3983C25.3791 30.1902 25.0968 30.0732 24.8025 30.0732H12.1566Z" fill="black"/>
</svg>
