<svg width="25" height="25" viewBox="0 0 25 25" fill="none" xmlns="http://www.w3.org/2000/svg">
<path fill-rule="evenodd" clip-rule="evenodd" d="M3.125 5.20801C3.125 3.48212 4.52411 2.08301 6.25 2.08301H14.5833C18.6104 2.08301 21.875 5.3476 21.875 9.37467V19.7913C21.875 21.5172 20.4759 22.9163 18.75 22.9163H6.25C4.52411 22.9163 3.125 21.5172 3.125 19.7913V5.20801ZM13.5417 4.16634H6.25C5.6747 4.16634 5.20833 4.63271 5.20833 5.20801V19.7913C5.20833 20.3666 5.6747 20.833 6.25 20.833H18.75C19.3253 20.833 19.7917 20.3666 19.7917 19.7913V9.37467H13.5417V4.16634ZM19.3583 7.29134C18.6888 5.75911 17.3035 4.61124 15.625 4.27053V7.29134H19.3583Z" fill="black"/>
</svg>
