<svg width="60" height="46" viewBox="0 0 60 46" fill="none" xmlns="http://www.w3.org/2000/svg">
<g id="folder-one">
<path id="fold" d="M23.9463 7.06414H6.69733C5.30771 7.06414 4.04325 7.59991 3.09909 8.476C2.35009 9.17101 1.65458 10.2711 1.40625 11.297V6.00886C1.40625 4.54809 1.99972 3.22566 2.95613 2.26781C3.91366 1.30884 5.2353 0.714844 6.69071 0.714844H18.9115L23.9463 7.06414Z" fill="#D6EBFB" stroke="#3399E9"/>
<path id="sheet" d="M53.2663 45.1593H6.68991C5.22936 45.1593 3.90698 44.5695 2.95054 43.6119C1.99577 42.656 1.40625 41.3339 1.40625 39.8679V12.3548C1.40625 10.8956 2.00068 9.57464 2.95667 8.61748C3.91488 7.65811 5.23681 7.06348 6.68991 7.06348H53.2663C54.7268 7.06348 56.0492 7.65325 57.0057 8.61085C57.9604 9.56678 58.55 10.8889 58.55 12.3548V39.8679C58.55 41.3272 57.9555 42.6481 56.9995 43.6053C56.0413 44.5647 54.7194 45.1593 53.2663 45.1593Z" fill="#D6EBFB" stroke="#3399E9"/>
</g>
</svg>
