<svg width="11" height="11" viewBox="0 0 11 11" fill="none" xmlns="http://www.w3.org/2000/svg">
<path d="M5.49655 0.543125C5.48504 0.54367 5.47356 0.544817 5.46217 0.546562C5.38077 0.555948 5.30576 0.595283 5.25175 0.656914C5.19775 0.718546 5.1686 0.798065 5.16999 0.88V1.44375L4.5478 1.13437C4.49907 1.10878 4.44471 1.09578 4.38967 1.09656C4.31475 1.09705 4.24223 1.12301 4.18402 1.17018C4.12582 1.21735 4.08539 1.28292 4.06939 1.35611C4.05339 1.42931 4.06277 1.50576 4.09599 1.57292C4.12921 1.64007 4.18429 1.69393 4.25217 1.72562L5.35217 2.27562C5.39806 2.29861 5.44867 2.31058 5.49999 2.31058C5.5513 2.31058 5.60191 2.29861 5.6478 2.27562L6.7478 1.72562C6.8262 1.68642 6.88582 1.61768 6.91354 1.53452C6.94126 1.45136 6.93481 1.36059 6.89561 1.28219C6.85641 1.20378 6.78767 1.14416 6.7045 1.11644C6.62134 1.08872 6.53058 1.09517 6.45217 1.13437L5.82999 1.44375V0.88C5.8309 0.835799 5.82293 0.791864 5.80655 0.750803C5.79016 0.709742 5.76569 0.672392 5.73459 0.640971C5.70349 0.609549 5.66639 0.584697 5.6255 0.567889C5.58461 0.551081 5.54076 0.542659 5.49655 0.543125ZM2.41655 2.19312C2.40504 2.19367 2.39356 2.19482 2.38217 2.19656C2.30077 2.20595 2.22576 2.24528 2.17175 2.30691C2.11775 2.36855 2.0886 2.44807 2.08999 2.53V3.12812L1.70499 2.90469C1.64825 2.86996 1.58235 2.85318 1.51592 2.85656C1.44433 2.86048 1.37597 2.88761 1.32117 2.93385C1.26637 2.98008 1.22811 3.0429 1.21219 3.1128C1.19626 3.18271 1.20354 3.2559 1.23291 3.32131C1.26228 3.38671 1.31216 3.44077 1.37499 3.47531L1.82874 3.74L1.2478 4.125C1.21021 4.14826 1.17768 4.17883 1.15213 4.2149C1.12659 4.25097 1.10855 4.29181 1.09908 4.33498C1.08962 4.37816 1.08893 4.4228 1.09704 4.46625C1.10516 4.5097 1.12192 4.55107 1.14633 4.58792C1.17074 4.62477 1.20231 4.65634 1.23915 4.68075C1.276 4.70517 1.31737 4.72194 1.36082 4.73006C1.40427 4.73818 1.44891 4.73749 1.49208 4.72803C1.53526 4.71858 1.5761 4.70054 1.61217 4.675L2.46124 4.10781L4.84686 5.5L2.46124 6.89219L1.61217 6.325C1.55758 6.28731 1.49289 6.26694 1.42655 6.26656C1.35499 6.26623 1.28526 6.28917 1.22788 6.33192C1.17049 6.37467 1.12855 6.43491 1.10838 6.50356C1.08821 6.57222 1.0909 6.64557 1.11605 6.71257C1.14119 6.77956 1.18743 6.83657 1.2478 6.875L1.82874 7.26L1.37499 7.52469C1.33511 7.54506 1.29979 7.57334 1.27119 7.6078C1.24259 7.64227 1.2213 7.68219 1.20862 7.72514C1.19595 7.76809 1.19214 7.81317 1.19744 7.85764C1.20274 7.90211 1.21704 7.94503 1.23946 7.9838C1.26188 8.02257 1.29195 8.05637 1.32785 8.08314C1.36375 8.10991 1.40472 8.1291 1.44827 8.13953C1.49182 8.14996 1.53704 8.15142 1.58118 8.14382C1.62531 8.13622 1.66743 8.11971 1.70499 8.09531L2.08999 7.87187V8.47C2.08937 8.51373 2.09745 8.55714 2.11375 8.59772C2.13006 8.6383 2.15427 8.67524 2.18497 8.70638C2.21568 8.73752 2.25227 8.76225 2.29261 8.77913C2.33296 8.79601 2.37625 8.8047 2.41999 8.8047C2.46372 8.8047 2.50702 8.79601 2.54736 8.77913C2.58771 8.76225 2.62429 8.73752 2.655 8.70638C2.6857 8.67524 2.70991 8.6383 2.72622 8.59772C2.74253 8.55714 2.7506 8.51373 2.74999 8.47V7.48687L5.16999 6.07406V8.81375L4.25217 9.27437C4.17377 9.31358 4.11415 9.38232 4.08643 9.46548C4.05871 9.54864 4.06516 9.63941 4.10436 9.71781C4.14356 9.79622 4.21231 9.85584 4.29547 9.88356C4.37863 9.91128 4.46939 9.90483 4.5478 9.86562L5.16999 9.55625V10.12C5.16937 10.1637 5.17745 10.2071 5.19375 10.2477C5.21006 10.2883 5.23427 10.3252 5.26497 10.3564C5.29568 10.3875 5.33226 10.4123 5.37261 10.4291C5.41295 10.446 5.45625 10.4547 5.49999 10.4547C5.54372 10.4547 5.58702 10.446 5.62736 10.4291C5.66771 10.4123 5.70429 10.3875 5.735 10.3564C5.7657 10.3252 5.78991 10.2883 5.80622 10.2477C5.82253 10.2071 5.8306 10.1637 5.82999 10.12V9.55625L6.45217 9.86562C6.53058 9.90483 6.62134 9.91128 6.7045 9.88356C6.78767 9.85584 6.85641 9.79622 6.89561 9.71781C6.93481 9.63941 6.94126 9.54864 6.91354 9.46548C6.88582 9.38232 6.8262 9.31358 6.7478 9.27437L5.82999 8.81375V6.07406L8.24999 7.48687V8.47C8.24937 8.51373 8.25745 8.55714 8.27375 8.59772C8.29006 8.6383 8.31427 8.67524 8.34497 8.70638C8.37568 8.73752 8.41227 8.76225 8.45261 8.77913C8.49296 8.79601 8.53625 8.8047 8.57999 8.8047C8.62372 8.8047 8.66702 8.79601 8.70736 8.77913C8.74771 8.76225 8.78429 8.73752 8.815 8.70638C8.8457 8.67524 8.86991 8.6383 8.88622 8.59772C8.90253 8.55714 8.9106 8.51373 8.90999 8.47V7.87187L9.29499 8.09531C9.33254 8.11971 9.37466 8.13622 9.41879 8.14382C9.46293 8.15142 9.50815 8.14996 9.5517 8.13953C9.59525 8.1291 9.63622 8.10991 9.67212 8.08314C9.70802 8.05637 9.7381 8.02257 9.76052 7.9838C9.78294 7.94503 9.79723 7.90211 9.80253 7.85764C9.80783 7.81317 9.80403 7.76809 9.79135 7.72514C9.77867 7.68219 9.75738 7.64227 9.72878 7.6078C9.70018 7.57334 9.66486 7.54506 9.62499 7.52469L9.17124 7.26L9.75217 6.875C9.81339 6.83614 9.8601 6.7782 9.88509 6.71014C9.91009 6.64208 9.91197 6.56768 9.89046 6.49844C9.86894 6.4292 9.82522 6.36897 9.76606 6.32706C9.70689 6.28515 9.63557 6.26389 9.56311 6.26656C9.5003 6.26895 9.43948 6.28922 9.3878 6.325L8.53874 6.89219L6.15311 5.5L8.53874 4.10781L9.3878 4.675C9.42387 4.70054 9.46471 4.71858 9.50789 4.72803C9.55106 4.73749 9.5957 4.73818 9.63915 4.73006C9.6826 4.72194 9.72397 4.70517 9.76082 4.68075C9.79766 4.65634 9.82923 4.62477 9.85364 4.58792C9.87805 4.55107 9.89481 4.5097 9.90293 4.46625C9.91105 4.4228 9.91035 4.37816 9.90089 4.33498C9.89142 4.29181 9.87338 4.25097 9.84784 4.2149C9.82229 4.17883 9.78976 4.14826 9.75217 4.125L9.17124 3.74L9.62499 3.47531C9.68839 3.44025 9.7385 3.38531 9.76758 3.31895C9.79666 3.25259 9.80309 3.1785 9.78589 3.10812C9.76868 3.03774 9.7288 2.97498 9.67238 2.92951C9.61597 2.88405 9.54616 2.85842 9.47374 2.85656C9.41078 2.85522 9.34876 2.87192 9.29499 2.90469L8.90999 3.12812V2.53C8.91078 2.483 8.90153 2.43638 8.88285 2.39325C8.86416 2.35012 8.83649 2.31147 8.80166 2.27991C8.76684 2.24834 8.72567 2.22457 8.68092 2.2102C8.63617 2.19582 8.58887 2.19117 8.54217 2.19656C8.46077 2.20595 8.38576 2.24528 8.33175 2.30691C8.27775 2.36855 8.2486 2.44807 8.24999 2.53V3.51312L5.82999 4.92594V3.08C5.83078 3.033 5.82153 2.98638 5.80285 2.94325C5.78416 2.90012 5.75649 2.86147 5.72166 2.82991C5.68684 2.79834 5.64567 2.77457 5.60092 2.7602C5.55617 2.74582 5.50887 2.74117 5.46217 2.74656C5.38077 2.75595 5.30576 2.79528 5.25175 2.85691C5.19775 2.91855 5.1686 2.99806 5.16999 3.08V4.92594L2.74999 3.51312V2.53C2.7509 2.4858 2.74293 2.44186 2.72655 2.4008C2.71016 2.35974 2.68569 2.32239 2.65459 2.29097C2.62349 2.25955 2.58639 2.2347 2.5455 2.21789C2.50461 2.20108 2.46076 2.19266 2.41655 2.19312Z" fill="white"/>
</svg>
