<svg width="21" height="21" viewBox="0 0 21 21" fill="none" xmlns="http://www.w3.org/2000/svg">
<path d="M20.1453 10.7412C20.1569 10.0544 20.0871 9.36866 19.9374 8.69855H10.6348V12.4046H16.0962C15.9922 13.0544 15.7591 13.6763 15.4109 14.2331C15.0627 14.7898 14.6067 15.27 14.07 15.6449L14.0502 15.768L16.9938 18.0668L17.1951 18.0868C19.0662 16.3435 20.1453 13.7819 20.1453 10.7412Z" fill="#3283FC"/>
<path d="M10.6347 20.5053C13.311 20.5053 15.555 19.6171 17.195 18.0868L14.07 15.6449C13.0558 16.3299 11.8549 16.6788 10.6347 16.6429C9.38204 16.6359 8.1634 16.2314 7.15167 15.4867C6.13995 14.7421 5.38654 13.6951 4.99835 12.4944H4.88285L1.82708 14.8797L1.78418 14.9928C2.6067 16.6491 3.8702 18.042 5.43328 19.0156C6.99637 19.9891 8.79736 20.505 10.6347 20.5053Z" fill="#00AC47"/>
<path d="M4.99839 12.4944C4.78262 11.8582 4.67116 11.1907 4.6684 10.5183C4.67594 9.84632 4.78727 9.17962 4.99839 8.54219V8.41245L1.88982 5.98721L1.78752 6.03379C1.09122 7.42684 0.728516 8.96504 0.728516 10.525C0.728516 12.0849 1.09122 13.6231 1.78752 15.0161L5.00169 12.5077" fill="#FFBB00"/>
<path d="M10.6347 4.39366C12.0546 4.37063 13.428 4.90371 14.466 5.88074L17.261 3.12948C15.4685 1.43234 13.0936 0.501126 10.6347 0.531257C8.7984 0.5307 6.99813 1.04504 5.43514 2.01677C3.87216 2.9885 2.60807 4.37933 1.78418 6.03377L4.98845 8.54218C5.38023 7.34178 6.13593 6.29565 7.14895 5.55135C8.16197 4.80704 9.38121 4.40211 10.6347 4.39366Z" fill="#FE2C25"/>
</svg>
