<svg width="25" height="26" viewBox="0 0 25 26" fill="none" xmlns="http://www.w3.org/2000/svg">
<g opacity="0.5">
<path d="M18.6075 17.3145H6.10156V19.8156H18.6075V17.3145Z" fill="black"/>
<path d="M13.9193 0.76435L13.8777 0.73517L13.836 0.705989C13.3964 0.413114 12.8801 0.256836 12.3519 0.256836C11.8238 0.256836 11.3074 0.413114 10.8679 0.705989L10.8262 0.73517L10.7845 0.76435L1.70935 7.37584L0.679688 8.14287V21.8994C0.679688 22.7839 1.03104 23.6322 1.65646 24.2576C2.28188 24.883 3.13014 25.2344 4.01461 25.2344H20.6892C21.5737 25.2344 22.422 24.883 23.0474 24.2576C23.6728 23.6322 24.0242 22.7839 24.0242 21.8994V8.14287L22.9945 7.39251L13.9193 0.76435ZM21.523 21.8994C21.523 22.1206 21.4351 22.3326 21.2788 22.489C21.1224 22.6453 20.9104 22.7332 20.6892 22.7332H4.01461C3.79349 22.7332 3.58143 22.6453 3.42508 22.489C3.26872 22.3326 3.18088 22.1206 3.18088 21.8994V9.39347L12.256 2.78615C12.2845 2.7675 12.3179 2.75756 12.3519 2.75756C12.386 2.75756 12.4193 2.7675 12.4478 2.78615L21.523 9.39347V21.8994Z" fill="black"/>
</g>
</svg>
