<svg width="12" height="12" viewBox="0 0 12 12" fill="none" xmlns="http://www.w3.org/2000/svg">
<path d="M2.22 2.64H1.38V2.22C1.38 1.52518 1.94518 0.959995 2.64 0.959995C2.87156 0.959995 3.06 0.771555 3.06 0.539995V0.119995H3.9V0.539995C3.9 1.23482 3.33482 1.8 2.64 1.8C2.40844 1.8 2.22 1.98844 2.22 2.22V2.64Z" fill="white"/>
<path d="M5.16 2.64H4.32V2.22C4.32 1.52518 4.88518 0.959995 5.58 0.959995C5.81156 0.959995 6 0.771555 6 0.539995V0.119995H6.84V0.539995C6.84 1.23482 6.27482 1.8 5.58 1.8C5.34844 1.8 5.16 1.98844 5.16 2.22V2.64Z" fill="white"/>
<path d="M8.1 2.64H7.26V2.22C7.26 1.52518 7.82518 0.959995 8.52 0.959995C8.75156 0.959995 8.94 0.771555 8.94 0.539995V0.119995H9.78V0.539995C9.78 1.23482 9.21482 1.8 8.52 1.8C8.28844 1.8 8.1 1.98844 8.1 2.22V2.64Z" fill="white"/>
<path d="M9.78 4.74H9.74332C9.75704 4.4684 9.77104 4.1975 9.77986 3.91288C9.78336 3.7992 9.74066 3.68916 9.66156 3.60754C9.58246 3.5262 9.47368 3.48 9.36 3.48H0.539998C0.426318 3.48 0.317538 3.5262 0.238578 3.60754C0.159478 3.68916 0.116778 3.79948 0.120278 3.91316C0.216598 7.01696 0.600618 9.31576 1.4038 11.5994C1.46288 11.7674 1.62178 11.88 1.8 11.88H8.1C8.27822 11.88 8.43712 11.7674 8.4962 11.5994C8.8021 10.7298 9.04654 9.85742 9.23806 8.94H9.78C10.9379 8.94 11.88 7.99794 11.88 6.84C11.88 5.68206 10.9379 4.74 9.78 4.74ZM7.80012 11.04H2.09988C1.42802 9.03926 1.06948 6.9905 0.959998 4.32H8.9246C8.82982 6.63504 8.53722 8.8448 7.80012 11.04ZM9.78 8.1H9.39654C9.4958 7.51158 9.62292 6.51814 9.69222 5.58C10.5654 5.58 11.04 6.20818 11.04 6.84C11.04 7.53482 10.4748 8.1 9.78 8.1Z" fill="white"/>
</svg>
