<svg width="86" height="86" viewBox="0 0 86 86" fill="none" xmlns="http://www.w3.org/2000/svg">
<path d="M8.37989 19.2343L8.38296 20.2452L7.33477 20.2482L7.33169 19.2374L8.37989 19.2343ZM11.6965 13.9109C11.7696 13.915 11.8526 13.912 11.9324 13.914L11.9186 14.9622C11.8433 14.9637 11.7625 14.9616 11.6857 14.9591C10.8167 14.8951 9.95707 15.1734 9.29041 15.7345C8.97865 16.0967 8.74178 16.517 8.59349 16.9713C8.44521 17.4256 8.38844 17.9048 8.42647 18.3811V18.4564L7.37826 18.4538V18.3791C7.45152 17.4489 7.15487 16.5272 6.55272 15.8144C5.8728 15.2257 4.99223 14.9217 4.09395 14.9653H4.09344C4.02076 14.9653 3.94758 14.9643 3.87285 14.9623L3.88763 13.9141C3.96185 13.9141 4.03504 13.9152 4.1072 13.9172C4.9691 13.9799 5.82158 13.7048 6.48413 13.1499C6.80689 12.7768 7.05216 12.3431 7.20567 11.8743C7.35918 11.4054 7.41785 10.9107 7.37826 10.4189L8.42647 10.4204C8.43878 12.7327 9.47927 13.847 11.6965 13.9109ZM9.35699 14.41C8.73466 14.0795 8.22979 13.5646 7.91158 12.9359C7.7362 13.2969 7.4993 13.6246 7.21149 13.9043C6.98449 14.1229 6.72775 14.3083 6.44889 14.455C7.06893 14.7741 7.5744 15.2782 7.89527 15.8973C8.06409 15.558 8.28827 15.2493 8.55859 14.9837C8.79526 14.7545 9.06424 14.5612 9.35695 14.41H9.35699ZM2.1424 13.9227L2.14547 14.9709L3.15631 14.9684L3.15323 13.9202L2.1424 13.9227ZM13.5917 13.8767L12.5804 13.8792L12.5834 14.9274L13.5948 14.9248L13.5917 13.8767ZM8.44848 9.7632L8.4454 8.75236L7.39721 8.75544L7.40027 9.76627L8.44848 9.7632ZM76.6639 16.9828L77.5789 17.8977L76.6639 18.8127L75.749 17.8977L76.6639 16.9828ZM77.9983 15.6485L78.9132 16.5634L77.9983 17.4783L77.0834 16.5634L77.9983 15.6485ZM75.2595 15.6485L76.1744 16.5634L75.2595 17.4783L74.3445 16.5634L75.2595 15.6485ZM76.5938 14.3141L77.5088 15.229L76.5938 16.1441L75.6788 15.2292L76.5938 14.3141ZM74.5782 7.27461H72.7946V6.10239H74.5782V7.27461ZM71.2667 7.24661H69.4832V6.0744H71.2667V7.24661ZM72.6179 9.20683H71.4457V7.42562H72.6179V9.20683ZM72.6459 5.95138H71.4737V4.16788H72.6459V5.95138ZM20.8175 6.83722H19.0339V5.66502H20.8174L20.8175 6.83722ZM17.506 6.80923H15.7225V5.63703H17.506L17.506 6.80923ZM18.8573 8.76945H17.6851V6.98823H18.8573V8.76945ZM18.8853 5.514H17.713V3.7305H18.8853V5.514ZM69.2952 80.8796L69.2983 81.8904L70.3465 81.8873L70.3434 80.8765L69.2952 80.8796ZM73.66 75.5531C73.7331 75.5571 73.8161 75.5541 73.8959 75.5562L73.8821 76.6044C73.8068 76.6059 73.726 76.6039 73.6492 76.6013C72.7802 76.5373 71.9206 76.8156 71.2539 77.3766C70.9422 77.7388 70.7053 78.1592 70.557 78.6135C70.4087 79.0677 70.3519 79.5469 70.39 80.0232V80.0985L69.3418 80.0959V80.0212C69.415 79.091 69.1184 78.1693 68.5162 77.4565C67.8363 76.8678 66.9557 76.5637 66.0575 76.6074H66.0569C65.9843 76.6074 65.9111 76.6064 65.8363 76.6043L65.8511 75.5561C65.9253 75.5561 65.9985 75.5572 66.0707 75.5592C66.9326 75.6219 67.785 75.3468 68.4476 74.792C68.7703 74.4188 69.0156 73.9852 69.1691 73.5163C69.3226 73.0475 69.3813 72.5527 69.3417 72.0609L70.3899 72.0625C70.4022 74.3749 71.4427 75.4892 73.6599 75.5531L73.66 75.5531ZM71.3205 76.0521C70.6982 75.7217 70.1933 75.2068 69.875 74.5781C69.6996 74.9391 69.4627 75.2668 69.1749 75.5465C68.9479 75.765 68.6911 75.9504 68.4123 76.0972C69.0323 76.4163 69.5378 76.9203 69.8587 77.5395C70.0275 77.2002 70.2517 76.8914 70.522 76.6259C70.7587 76.3967 71.0277 76.2034 71.3204 76.0522L71.3205 76.0521ZM64.1059 75.5649L64.109 76.6131L65.1198 76.6105L65.1167 75.5623L64.1059 75.5649ZM75.5552 75.5188L74.5438 75.5214L74.5469 76.5696L75.5583 76.567L75.5552 75.5188ZM70.412 71.4054L70.4089 70.3945L69.3607 70.3976L69.3638 71.4084L70.412 71.4054ZM82.7809 68.4794H80.9974V67.3072H82.7809L82.7809 68.4794ZM79.4694 68.4514H77.6859V67.2792H79.4694V68.4514ZM80.8206 70.4116H79.6484V68.6304H80.8206V70.4116ZM80.8486 67.1562H79.6764V65.3727H80.8486V67.1562ZM11.2682 79.0192L12.1831 79.9342L11.2682 80.8491L10.3532 79.9342L11.2682 79.0192ZM12.6025 77.6849L13.5174 78.5998L12.6025 79.5147L11.6875 78.6L12.6025 77.6849ZM9.86369 77.6849L10.7786 78.5998L9.86369 79.5147L8.94872 78.6L9.86369 77.6849ZM11.198 76.3505L12.1129 77.2656L11.1979 78.1806L10.283 77.2656L11.198 76.3505ZM9.18241 69.3109H7.39881V68.1389H9.18231L9.18241 69.3109ZM5.87087 69.2831H4.08738V68.1108H5.87087V69.2831ZM7.22208 71.2433H6.04989V69.4621H7.22209L7.22208 71.2433ZM7.25008 67.9878H6.07781V66.2043H7.2501L7.25008 67.9878Z" fill="black"/>
<path d="M52.3794 16.0489H49.2057V17.2384C49.2053 17.5485 49.0819 17.8458 48.8625 18.065C48.6432 18.2842 48.3459 18.4074 48.0358 18.4077H37.9642C37.6542 18.4074 37.3568 18.2842 37.1375 18.065C36.9182 17.8458 36.7948 17.5485 36.7944 17.2384V16.0489H33.6207C32.9544 16.0496 32.3156 16.3146 31.8445 16.7857C31.3734 17.2568 31.1084 17.8956 31.1077 18.5619V63.5027C31.1084 64.1689 31.3734 64.8077 31.8445 65.2788C32.3156 65.7499 32.9544 66.0149 33.6207 66.0156H52.3794C53.0457 66.0149 53.6844 65.7499 54.1555 65.2788C54.6267 64.8077 54.8917 64.1689 54.8924 63.5027V18.5619C54.8917 17.8956 54.6267 17.2568 54.1555 16.7857C53.6844 16.3146 53.0457 16.0496 52.3794 16.0489ZM53.5486 63.5027C53.5484 63.8127 53.4251 64.1099 53.2059 64.3291C52.9867 64.5484 52.6894 64.6716 52.3794 64.6719H33.6207C33.3106 64.6716 33.0134 64.5484 32.7942 64.3291C32.575 64.1099 32.4517 63.8127 32.4514 63.5027V18.5619C32.4517 18.2518 32.575 17.9546 32.7942 17.7354C33.0134 17.5162 33.3106 17.3929 33.6207 17.3926H35.4552C35.4953 18.0311 35.777 18.6303 36.243 19.0684C36.7091 19.5066 37.3245 19.7508 37.9642 19.7514H48.0358C48.6755 19.7508 49.2909 19.5066 49.757 19.0684C50.223 18.6303 50.5047 18.0311 50.5448 17.3926H52.3794C52.6894 17.3929 52.9867 17.5162 53.2059 17.7354C53.4251 17.9546 53.5484 18.2518 53.5486 18.5619V63.5027ZM52.5106 13.4854H33.4895C32.3178 13.4866 31.1946 13.9526 30.3661 14.7811C29.5377 15.6095 29.0717 16.7328 29.0704 17.9044V64.1601C29.0717 65.3317 29.5377 66.455 30.3661 67.2834C31.1946 68.1119 32.3178 68.5779 33.4895 68.5791H52.5106C53.6822 68.5779 54.8055 68.1119 55.6339 67.2834C56.4624 66.455 56.9284 65.3317 56.9296 64.1601V17.9044C56.9284 16.7328 56.4624 15.6095 55.6339 14.7811C54.8055 13.9526 53.6822 13.4866 52.5106 13.4854H52.5106ZM55.5859 64.1601C55.5849 64.9754 55.2606 65.757 54.6841 66.3335C54.1076 66.91 53.3259 67.2344 52.5106 67.2354H33.4895C32.6742 67.2344 31.8925 66.91 31.316 66.3335C30.7395 65.757 30.4152 64.9754 30.4142 64.1601V17.9044C30.4152 17.0891 30.7395 16.3075 31.316 15.731C31.8925 15.1545 32.6742 14.8302 33.4895 14.8291H52.5106C53.3259 14.8302 54.1075 15.1545 54.684 15.731C55.2605 16.3075 55.5849 17.0891 55.5859 17.9044L55.5859 64.1601ZM47.5332 17.3926H46.3738V16.0489H47.5332V17.3926ZM44.9028 17.3926H40.6813V16.0489H44.9028L44.9028 17.3926ZM39.4924 17.3926H38.125V16.0489H39.4924V17.3926ZM46.4169 35.3291C46.2985 34.5081 45.8884 33.7571 45.2616 33.2136C44.6349 32.6702 43.8334 32.3706 43.0039 32.3696C42.1743 32.3686 41.3721 32.6664 40.7441 33.2084C40.1161 33.7504 39.7043 34.5004 39.5839 35.3212C38.2998 35.5517 37.1247 36.1912 36.2338 37.1443C35.343 38.0974 34.7842 39.313 34.6408 40.6097H33.7972V41.2816C33.7979 41.9944 34.0813 42.6778 34.5853 43.1819C35.0892 43.686 35.7726 43.9696 36.4854 43.9704H49.5148C50.2276 43.9696 50.9109 43.686 51.4149 43.1819C51.9188 42.6778 52.2022 41.9944 52.2029 41.2816V40.6097H51.282C51.1405 39.3257 50.592 38.1205 49.7167 37.1704C48.8413 36.2204 47.6851 35.5751 46.4169 35.3291ZM43 33.7132C43.453 33.7148 43.8936 33.8614 44.2572 34.1315C44.6208 34.4016 44.8884 34.7811 45.0207 35.2144H40.9794C41.1117 34.7811 41.3793 34.4016 41.7429 34.1315C42.1065 33.8614 42.547 33.7148 43 33.7132ZM40.6399 36.5581H45.282C46.4181 36.5595 47.5157 36.9696 48.3743 37.7135C49.2329 38.4574 49.7951 39.4855 49.9583 40.6097H35.9644C36.1274 39.4855 36.6895 38.4575 37.548 37.7136C38.4065 36.9697 39.504 36.5595 40.6399 36.5581ZM49.5147 42.6267H36.4853C36.2492 42.6265 36.0173 42.5642 35.8129 42.446C35.6085 42.3278 35.4387 42.158 35.3207 41.9534H50.6793C50.5613 42.158 50.3916 42.3278 50.1872 42.446C49.9828 42.5642 49.7508 42.6265 49.5147 42.6267Z" fill="black"/>
</svg>
