<svg width="14" height="14" viewBox="0 0 14 14" fill="none" xmlns="http://www.w3.org/2000/svg">
<g clip-path="url(#clip0_152_4491)">
<path d="M13.398 6.28851C13.8916 5.80736 13.6193 4.9691 12.9371 4.86998L9.78273 4.41161C9.51186 4.37226 9.27769 4.20212 9.15656 3.95667L7.74586 1.0983C7.44081 0.480184 6.55938 0.480184 6.25433 1.0983L4.84364 3.95667C4.7225 4.20212 4.48832 4.37226 4.21746 4.41161L1.06306 4.86998C0.380923 4.9691 0.108563 5.80736 0.602152 6.28851L2.8847 8.51344C3.0807 8.7045 3.17015 8.97977 3.12387 9.24955L2.58503 12.3912C2.46851 13.0706 3.1816 13.5887 3.79171 13.2679L6.61309 11.7846C6.85538 11.6572 7.14482 11.6572 7.38709 11.7846L10.2085 13.2679C10.8186 13.5887 11.5317 13.0706 11.4152 12.3912L10.8763 9.24955C10.83 8.97977 10.9195 8.7045 11.1155 8.51344L13.398 6.28851Z" fill="#5FA5D8"/>
</g>
<defs>
<clipPath id="clip0_152_4491">
<rect width="14" height="14" fill="white"/>
</clipPath>
</defs>
</svg>
