<svg width="79" height="79" viewBox="0 0 79 79" fill="none" xmlns="http://www.w3.org/2000/svg">
<path d="M71.1 34.76L63.358 30.257V21.33C63.358 21.251 63.279 21.172 63.2 21.093L55.3 16.511C55.221 16.432 55.142 16.432 55.063 16.511L47.4 21.014L39.658 16.511C39.579 16.432 39.5 16.432 39.421 16.511L31.6 21.014L23.858 16.511C23.779 16.432 23.7 16.432 23.621 16.511L15.721 21.093C15.642 21.172 15.563 21.251 15.563 21.33V30.257L7.9 34.76C7.821 34.839 7.742 34.918 7.742 34.997V44.082C7.742 44.161 7.821 44.24 7.9 44.319L15.642 48.822V57.67C15.642 57.749 15.721 57.828 15.8 57.907L23.7 62.489C23.7 62.489 23.779 62.489 23.858 62.489C23.937 62.489 23.937 62.489 24.016 62.489L31.758 57.986L39.5 62.489C39.5 62.489 39.579 62.489 39.658 62.489C39.737 62.489 39.737 62.489 39.816 62.489L47.558 57.986L55.3 62.489C55.3 62.489 55.379 62.489 55.458 62.489C55.537 62.489 55.537 62.489 55.616 62.489L63.516 57.907C63.595 57.828 63.674 57.749 63.674 57.67V48.743L71.1 44.24C71.179 44.161 71.258 44.082 71.258 44.003V34.997C71.258 34.839 71.179 34.76 71.1 34.76ZM8.848 44.24L8.295 43.924V35.392L8.848 35.708V44.24ZM9.954 44.872L9.322 44.556V36.024L9.954 36.34V44.872ZM11.06 45.504L10.428 45.188V36.656L11.06 36.972V45.504ZM12.245 46.215L11.613 45.82V37.367L12.245 37.683V46.215ZM13.351 46.847L12.719 46.531V37.999L13.351 38.315V46.847ZM14.457 47.479L13.825 47.163V38.631L14.457 38.947V47.479ZM15.642 48.111L15.01 47.795V39.342L15.642 39.658V48.111ZM21.725 25.043L22.357 25.359V33.812L21.725 33.496V25.043ZM20.619 24.332L21.251 24.648V33.18L20.619 32.864V24.332ZM19.513 23.7L20.145 24.016V32.469L19.513 32.153V23.7ZM18.328 23.068L18.96 23.384V31.837L18.328 31.521V23.068ZM17.222 22.357L17.854 22.673V31.126L17.222 30.81V22.357ZM16.116 21.804L16.669 22.12V30.573L16.116 30.257V21.804ZM16.669 57.828L16.116 57.512V49.059L16.669 49.375V57.828ZM17.854 58.539L17.222 58.223V49.691L17.854 50.007V58.539ZM18.96 59.171L18.328 58.855V50.323L18.96 50.639V59.171ZM20.066 59.803L19.434 59.487V50.955L20.066 51.271V59.803ZM21.251 60.514L20.619 60.198V51.666L21.251 51.982V60.514ZM16.116 48.111V39.658L23.463 35.392V43.845L21.725 44.872L16.116 48.111ZM22.357 61.146L21.725 60.83V52.298L22.357 52.614V61.146ZM23.463 61.778L22.91 61.462V52.93L23.542 53.246V61.778H23.463ZM23.463 34.523L22.91 34.128V25.675L23.542 25.991V34.523H23.463ZM31.363 57.512L24.016 61.778V53.325L31.363 49.059V57.512ZM24.016 43.924V35.392L24.569 35.708V44.24L24.016 43.924ZM25.122 44.556V36.024L25.754 36.34V44.793L25.122 44.556ZM26.228 45.188V36.656L26.86 36.972V45.425L26.228 45.188ZM27.334 45.82V37.367L27.966 37.683V46.136L27.334 45.82ZM28.519 46.452V37.999L29.151 38.315V46.768L28.519 46.452ZM29.625 47.163V38.631L30.257 38.947V47.4L29.625 47.163ZM30.731 47.795V39.342L31.363 39.658V48.111L30.731 47.795ZM31.363 30.257L24.016 34.523V25.991L31.363 21.725V30.257ZM37.525 25.043L38.157 25.359V33.812L37.525 33.496V25.043ZM36.419 24.332L37.051 24.648V33.18L36.419 32.864V24.332ZM35.234 23.7L35.866 24.016V32.469L35.234 32.153V23.7ZM34.128 23.068L34.76 23.384V31.837L34.128 31.521V23.068ZM33.022 22.357L33.654 22.673V31.126L33.022 30.81V22.357ZM31.916 21.804L32.469 22.12V30.573L31.916 30.257V21.804ZM31.916 39.658L39.263 35.392V43.845L31.916 48.111V39.658ZM32.469 57.828L31.916 57.512V49.059L32.469 49.375V57.828ZM33.575 58.539L32.943 58.223V49.691L33.575 50.007V58.539ZM34.681 59.171L34.049 58.855V50.323L34.681 50.639V59.171ZM35.866 59.803L35.234 59.487V50.955L35.866 51.271V59.803ZM36.972 60.514L36.34 60.119V51.666L36.972 51.982V60.514ZM38.157 61.146L37.525 60.83V52.298L38.157 52.614V61.146ZM39.263 61.778L38.631 61.462V52.93L39.263 53.246V61.778ZM39.263 34.523L38.71 34.128V25.675L39.342 25.991V34.523H39.263ZM39.816 25.991L47.163 21.725V30.178L39.816 34.444V25.991ZM45.978 39.026V47.479L45.346 47.163V38.631L45.978 39.026ZM44.872 38.394V46.847L44.24 46.452V37.999L44.872 38.394ZM43.687 37.683V46.136L43.134 45.82V37.367L43.687 37.683ZM42.581 37.051V45.504L41.949 45.188V36.656L42.581 37.051ZM41.475 36.419V44.872L40.843 44.556V36.024L41.475 36.419ZM39.737 35.392L40.29 35.708V44.24L39.737 43.924V35.392ZM47.084 57.512L39.737 61.778V53.325L47.084 49.059V57.512ZM47.084 48.111L46.452 47.795V39.342L47.084 39.658V48.111ZM53.246 25.043L53.878 25.359V33.812L53.246 33.496V25.043ZM52.14 24.332L52.772 24.648V33.18L52.14 32.864V24.332ZM50.955 23.7L51.587 24.016V32.469L50.955 32.153V23.7ZM49.849 23.068L50.481 23.384V31.837L49.849 31.521V23.068ZM48.743 22.357L49.375 22.673V31.126L48.743 30.81V22.357ZM47.637 21.804L48.19 22.12V30.573L47.637 30.257V21.804ZM48.19 57.828L47.637 57.512V49.059L48.19 49.375V57.828ZM49.296 58.539L48.664 58.223V49.691L49.296 50.007V58.539ZM50.481 59.171L49.849 58.855V50.323L50.481 50.639V59.171ZM51.587 59.803L50.955 59.487V50.955L51.587 51.271V59.803ZM52.772 60.514L52.14 60.119V51.666L52.772 51.982V60.514ZM53.878 61.146L53.246 60.83V52.298L53.878 52.614V61.146ZM47.637 48.111V39.658L54.984 35.392V43.845L53.957 44.477L47.637 48.111ZM54.984 61.778L54.352 61.462V52.93L54.984 53.246V61.778ZM54.984 34.523L54.352 34.207V25.675L54.984 25.991V34.523ZM62.884 57.512L55.537 61.778V53.325L62.884 49.059V57.512ZM55.537 43.924V35.392L56.09 35.708V44.24L55.537 43.924ZM56.564 44.556V36.024L57.196 36.34V44.793L56.564 44.556ZM57.749 45.188V36.656L58.381 36.972V45.425L57.749 45.188ZM58.855 45.82V37.367L59.487 37.683V46.136L58.855 45.82ZM59.961 46.452V37.999L60.593 38.315V46.768L59.961 46.452ZM61.146 47.163V38.631L61.778 38.947V47.4L61.146 47.163ZM62.252 47.795V39.342L62.884 39.658V48.111L62.252 47.795ZM62.884 30.257L55.537 34.523V25.991L62.884 21.725V30.257ZM70.705 43.924L63.358 48.19V39.658L70.705 35.392V43.924Z" fill="black"/>
</svg>
