<svg width="69" height="69" viewBox="0 0 69 69" fill="none" xmlns="http://www.w3.org/2000/svg">
<path d="M52.6934 6.06445C52.6934 5.02406 51.847 4.17773 50.8066 4.17773H18.1934C17.153 4.17773 16.3066 5.02406 16.3066 6.06445V12.2637H52.6934V6.06445ZM35.1738 10.2422C34.0574 10.2422 33.1523 9.3371 33.1523 8.2207C33.1523 7.1043 34.0574 6.19922 35.1738 6.19922C36.2902 6.19922 37.1953 7.1043 37.1953 8.2207C37.1953 9.3371 36.2902 10.2422 35.1738 10.2422Z" fill="black"/>
<path d="M16.3066 62.9355C16.3066 63.9759 17.153 64.8223 18.1934 64.8223H50.8066C51.847 64.8223 52.6934 63.9759 52.6934 62.9355V56.7363H16.3066V62.9355ZM33.1523 58.7578H37.1953V62.8008H33.1523V58.7578Z" fill="black"/>
<path d="M43.2598 34.5V21.0234C43.2598 20.6513 43.5614 20.3496 43.9336 20.3496H52.6934V13.6113H16.3066V33.8262H25.0664C25.4385 33.8262 25.7402 34.1278 25.7402 34.5V47.9766C25.7402 48.3488 25.4385 48.6504 25.0664 48.6504H16.3066V55.3887H52.6934V35.1738H43.9336C43.5614 35.1738 43.2598 34.8722 43.2598 34.5ZM23.7188 20.3496H35.8477C36.2199 20.3496 36.5215 20.6513 36.5215 21.0234C36.5215 21.3955 36.2199 21.6973 35.8477 21.6973H23.7188C23.3467 21.6973 23.0449 21.3955 23.0449 21.0234C23.0449 20.6513 23.3467 20.3496 23.7188 20.3496ZM23.7188 27.0879C23.3467 27.0879 23.0449 26.7861 23.0449 26.4141C23.0449 26.042 23.3467 25.7402 23.7188 25.7402H33.1523C33.5244 25.7402 33.8262 26.042 33.8262 26.4141C33.8262 26.7861 33.5244 27.0879 33.1523 27.0879H23.7188ZM42.5859 48.6504H33.1523C32.7803 48.6504 32.4785 48.3488 32.4785 47.9766C32.4785 47.6043 32.7803 47.3027 33.1523 47.3027H42.5859C42.9582 47.3027 43.2598 47.6043 43.2598 47.9766C43.2598 48.3488 42.9582 48.6504 42.5859 48.6504ZM45.9551 42.5859C45.9551 42.9582 45.6535 43.2598 45.2812 43.2598H33.1523C32.7803 43.2598 32.4785 42.9582 32.4785 42.5859C32.4785 42.2137 32.7803 41.9121 33.1523 41.9121H45.2812C45.6535 41.9121 45.9551 42.2137 45.9551 42.5859Z" fill="black"/>
<path d="M24.3926 35.1738H15.6328H4.17773V47.3027H15.6328H24.3926V35.1738ZM10.6159 42.4745C10.9256 42.6808 11.0091 43.0993 10.8028 43.409C10.673 43.6037 10.4593 43.7091 10.2415 43.7092C10.1131 43.7092 9.98317 43.6726 9.86835 43.5959L7.17304 41.799C6.98558 41.674 6.87305 41.4636 6.87305 41.2383C6.87305 41.013 6.98558 40.8026 7.17317 40.6777L9.86848 38.8808C10.1782 38.6745 10.5965 38.7581 10.8029 39.0677C11.0094 39.3774 10.9257 39.7958 10.616 40.0022L8.76165 41.2383L10.6159 42.4745ZM16.2355 38.8443L13.5402 44.2349C13.4221 44.471 13.1841 44.6076 12.937 44.6076C12.8358 44.6076 12.7329 44.5846 12.6362 44.5363C12.3033 44.37 12.1684 43.9651 12.3348 43.6323L15.0301 38.2416C15.1966 37.9086 15.6013 37.7737 15.9341 37.9404C16.267 38.1067 16.4019 38.5116 16.2355 38.8443ZM21.3971 41.7989L18.7018 43.5957C18.5869 43.6723 18.4571 43.7091 18.3287 43.7091C18.1109 43.7091 17.8973 43.6037 17.7674 43.4088C17.5609 43.0991 17.6446 42.6808 17.9543 42.4744L19.8087 41.2383L17.9544 40.0021C17.6447 39.7957 17.5612 39.3773 17.7675 39.0676C17.974 38.7578 18.3923 38.6742 18.702 38.8807L21.3973 40.6775C21.5847 40.8024 21.6974 41.0128 21.6974 41.2381C21.6974 41.4635 21.5847 41.674 21.3971 41.7989Z" fill="black"/>
<path d="M53.3672 21.6973H44.6074V33.8262H53.3672H64.8223V21.6973H53.3672ZM51.0456 28.9979C51.3553 29.2044 51.439 29.6227 51.2325 29.9324C51.1027 30.1271 50.889 30.2325 50.6712 30.2325C50.5428 30.2325 50.413 30.1959 50.298 30.1193L47.6027 28.3225C47.4153 28.1976 47.3026 27.9872 47.3026 27.7619C47.3026 27.5365 47.4153 27.3262 47.6027 27.2012L50.298 25.4044C50.6079 25.1978 51.0259 25.2816 51.2325 25.5913C51.439 25.9009 51.3553 26.3193 51.0456 26.5258L49.1913 27.7617L51.0456 28.9979ZM56.6652 25.3677L53.9699 30.7584C53.8518 30.9945 53.6138 31.131 53.3666 31.131C53.2654 31.131 53.1625 31.1081 53.0659 31.0597C52.733 30.8933 52.5981 30.4886 52.7646 30.1557L55.46 24.7651C55.6263 24.4322 56.031 24.297 56.364 24.4637C56.6967 24.6302 56.8316 25.0349 56.6652 25.3677ZM61.8268 28.3223L59.1315 30.1192C59.0166 30.1957 58.8869 30.2324 58.7584 30.2324C58.5406 30.2324 58.327 30.127 58.1971 29.9323C57.9906 29.6227 58.0743 29.2042 58.384 28.9978L60.2383 27.7616L58.384 26.5254C58.0743 26.3189 57.9906 25.9006 58.1971 25.5909C58.4032 25.2812 58.8218 25.1975 59.1315 25.404L61.8268 27.2008C62.0143 27.3258 62.127 27.5361 62.127 27.7614C62.127 27.9868 62.0143 28.1974 61.8268 28.3223Z" fill="black"/>
</svg>
