<svg width="67" height="67" viewBox="0 0 67 67" fill="none" xmlns="http://www.w3.org/2000/svg">
<path d="M62.3286 16.7524C62.2965 16.6661 62.2527 16.5847 62.1983 16.5104C62.1595 16.4511 62.1159 16.3951 62.068 16.3429C62.068 16.3243 62.0308 16.3057 62.0122 16.2871C62.0122 16.2685 61.9936 16.2685 61.975 16.2499C61.975 16.2313 61.9564 16.2126 61.9192 16.194C61.813 16.1024 61.6938 16.0271 61.5655 15.9706C61.5656 15.9681 61.5651 15.9657 61.5642 15.9634C61.5633 15.9612 61.5619 15.9591 61.5602 15.9574C61.5584 15.9556 61.5564 15.9543 61.5541 15.9534C61.5518 15.9525 61.5494 15.952 61.5469 15.9521L61.5097 15.9335C61.4911 15.9335 61.4725 15.9148 61.4539 15.9148H61.4353L34.1886 3.07318C33.9731 2.97207 33.738 2.91965 33.5 2.91965C33.262 2.91965 33.0269 2.97207 32.8114 3.07318L5.52749 15.9148L5.45305 15.9521C5.19267 16.0808 4.96872 16.2728 4.80166 16.5104C4.74733 16.5847 4.70349 16.6661 4.67138 16.7523C4.57206 16.955 4.52109 17.178 4.52249 17.4037V49.601C4.52012 49.735 4.54547 49.868 4.59694 49.9918C4.59694 50.029 4.59694 50.0848 4.61555 50.1035C4.62795 50.2026 4.67392 50.2946 4.74582 50.364C4.74515 50.3885 4.74979 50.4128 4.75943 50.4353C4.76907 50.4578 4.78348 50.4779 4.80166 50.4943C4.87836 50.602 4.96561 50.7017 5.06212 50.7921C5.17597 50.8874 5.30096 50.9687 5.43434 51.034C5.43429 51.0365 5.43474 51.0389 5.43566 51.0412C5.43657 51.0435 5.43794 51.0455 5.43968 51.0473C5.44142 51.049 5.44349 51.0504 5.44577 51.0513C5.44805 51.0522 5.4505 51.0527 5.45295 51.0526L5.5274 51.0712L32.8113 63.9129C33.0241 64.023 33.2603 64.0805 33.4999 64.0805C33.7395 64.0805 33.9757 64.023 34.1885 63.9129L61.4538 51.0898C61.4724 51.0712 61.491 51.0712 61.5282 51.0526H61.5468C61.5493 51.0527 61.5517 51.0522 61.554 51.0513C61.5563 51.0504 61.5584 51.049 61.5601 51.0473C61.5619 51.0455 61.5632 51.0435 61.5641 51.0412C61.5651 51.0389 61.5655 51.0365 61.5654 51.034C61.6988 50.9687 61.8238 50.8874 61.9377 50.7921L61.9749 50.7548C61.9935 50.7363 62.0121 50.699 62.0493 50.6804C62.0866 50.6246 62.1424 50.5687 62.1982 50.4943C62.2164 50.4779 62.2308 50.4578 62.2405 50.4353C62.2501 50.4128 62.2547 50.3885 62.2541 50.364C62.2727 50.3454 62.2727 50.3268 62.2913 50.3082C62.3099 50.2523 62.3471 50.1965 62.3657 50.1407C62.3671 50.1264 62.3737 50.1131 62.3843 50.1035C62.403 50.0848 62.403 50.029 62.403 49.9918C62.4544 49.868 62.4798 49.735 62.4774 49.601V17.4037C62.4746 17.1785 62.4239 16.9565 62.3286 16.7524ZM33.5 6.29292L57.0803 17.4038L45.7089 22.7638L34.1886 17.3479C33.9723 17.2498 33.7375 17.199 33.5 17.199C33.2625 17.199 33.0277 17.2498 32.8114 17.3479L21.2911 22.7638L9.91971 17.4038L33.5 6.29292ZM31.8994 21.3493V32.0693L22.9475 36.294V25.5368L25.0692 24.5504L25.1064 24.5318L28.6239 22.894L31.8994 21.3493ZM33.5 42.7521L31.8994 42.0076L25.1064 38.8065L31.8994 35.624L33.5 34.861L35.1005 35.624L41.8936 38.8065L35.1005 42.0076L33.5 42.7521ZM59.2578 48.5774L35.1005 59.9488V45.581L44.0525 41.3749L46.1928 40.3513L46.23 40.3326L46.3417 40.2954C46.4179 40.262 46.4925 40.2247 46.565 40.1838C46.6306 40.1387 46.6928 40.089 46.7511 40.0349C46.7883 39.979 46.8442 39.9418 46.9 39.8674C46.9871 39.7476 47.0678 39.6234 47.1419 39.4951V39.4765C47.1419 39.458 47.1605 39.4207 47.1605 39.4021C47.1605 39.3835 47.1791 39.3649 47.1978 39.3276C47.1965 39.3175 47.1975 39.3073 47.2008 39.2976C47.204 39.288 47.2093 39.2791 47.2164 39.2718C47.235 39.216 47.235 39.1601 47.2536 39.1229C47.2505 39.0542 47.2568 38.9853 47.2722 38.9182V25.574L59.2578 19.9349V48.5774Z" fill="black"/>
</svg>
