<svg width="65" height="65" viewBox="0 0 65 65" fill="none" xmlns="http://www.w3.org/2000/svg">
<path d="M48.3677 22.9412C50.4189 21.5806 51.978 19.5963 52.8147 17.2814C53.6514 14.9665 53.7212 12.4439 53.0139 10.0863C52.3067 7.72863 50.8597 5.66105 48.887 4.18901C46.9142 2.71698 44.5203 1.91857 42.0588 1.91177H22.9412C20.4798 1.91857 18.0858 2.71698 16.113 4.18901C14.1403 5.66105 12.6934 7.72863 11.9861 10.0863C11.2788 12.4439 11.3486 14.9665 12.1853 17.2814C13.022 19.5963 14.5812 21.5806 16.6324 22.9412C15.055 23.9875 13.761 25.4079 12.8659 27.0758C11.9708 28.7437 11.5024 30.6071 11.5024 32.5C11.5024 34.3929 11.9708 36.2563 12.8659 37.9242C13.761 39.5921 15.055 41.0125 16.6324 42.0588C14.9739 43.151 13.6273 44.6551 12.7245 46.4239C11.8217 48.1926 11.3936 50.1654 11.482 52.1493C11.5704 54.1332 12.1723 56.0601 13.2289 57.7415C14.2854 59.423 15.7604 60.8013 17.5095 61.7416C19.2585 62.682 21.2218 63.1522 23.2071 63.1061C25.1924 63.0601 27.1317 62.4995 28.8353 61.479C30.5389 60.4586 31.9485 59.0134 32.9259 57.2848C33.9034 55.5562 34.4154 53.6035 34.4118 51.6176V41.1029C36.5571 42.9065 39.2566 43.9188 42.0588 43.9706C44.5203 43.9638 46.9142 43.1654 48.887 41.6933C50.8597 40.2213 52.3067 38.1537 53.0139 35.7961C53.7212 33.4385 53.6514 30.9158 52.8147 28.601C51.978 26.2861 50.4189 24.3018 48.3677 22.9412ZM34.4118 5.7353H42.0588C44.087 5.7353 46.032 6.54097 47.4661 7.97507C48.9002 9.40917 49.7059 11.3542 49.7059 13.3824C49.7059 15.4105 48.9002 17.3555 47.4661 18.7896C46.032 20.2237 44.087 21.0294 42.0588 21.0294H34.4118V5.7353ZM15.2941 13.3824C15.2941 11.3542 16.0998 9.40917 17.5339 7.97507C18.968 6.54097 20.9131 5.7353 22.9412 5.7353H30.5882V21.0294H22.9412C20.9131 21.0294 18.968 20.2237 17.5339 18.7896C16.0998 17.3555 15.2941 15.4105 15.2941 13.3824ZM15.2941 32.5C15.2941 30.4719 16.0998 28.5268 17.5339 27.0927C18.968 25.6586 20.9131 24.8529 22.9412 24.8529H30.5882V40.1471H22.9412C20.9131 40.1471 18.968 39.3414 17.5339 37.9073C16.0998 36.4732 15.2941 34.5281 15.2941 32.5ZM30.5882 51.6176C30.5882 53.1301 30.1398 54.6086 29.2995 55.8661C28.4592 57.1237 27.2649 58.1038 25.8676 58.6826C24.4703 59.2614 22.9327 59.4128 21.4493 59.1178C19.9659 58.8227 18.6034 58.0944 17.5339 57.0249C16.4644 55.9555 15.7361 54.5929 15.4411 53.1095C15.146 51.6261 15.2974 50.0886 15.8762 48.6912C16.455 47.2939 17.4352 46.0996 18.6927 45.2594C19.9503 44.4191 21.4287 43.9706 22.9412 43.9706H30.5882V51.6176ZM42.0588 40.1471C40.5464 40.1471 39.0679 39.6986 37.8104 38.8583C36.5528 38.018 35.5727 36.8237 34.9939 35.4264C34.4151 34.0291 34.2636 32.4915 34.5587 31.0081C34.8538 29.5248 35.5821 28.1622 36.6515 27.0927C37.721 26.0233 39.0836 25.2949 40.567 24.9999C42.0504 24.7048 43.5879 24.8563 44.9852 25.435C46.3825 26.0138 47.5769 26.994 48.4171 28.2515C49.2574 29.5091 49.7059 30.9876 49.7059 32.5C49.7059 34.5281 48.9002 36.4732 47.4661 37.9073C46.032 39.3414 44.087 40.1471 42.0588 40.1471Z" fill="black"/>
</svg>
