<svg width="67" height="67" viewBox="0 0 67 67" fill="none" xmlns="http://www.w3.org/2000/svg">
<path d="M33.2487 5.37112C33.0149 5.40107 32.7881 5.47195 32.5787 5.58049L3.76874 20.3205C3.43891 20.489 3.16204 20.7453 2.96869 21.0612C2.77533 21.3771 2.67301 21.7403 2.67301 22.1106C2.67301 22.481 2.77533 22.8442 2.96869 23.1601C3.16204 23.476 3.43891 23.7323 3.76874 23.9008L11.4109 27.8161L3.76874 31.7105C3.43892 31.879 3.16206 32.1353 2.96872 32.4512C2.77537 32.7671 2.67305 33.1303 2.67305 33.5006C2.67305 33.871 2.77537 34.2342 2.96872 34.5501C3.16206 34.8659 3.43892 35.1223 3.76874 35.2908L11.4109 39.2061L3.76874 43.1005C3.4389 43.2689 3.16202 43.5253 2.96866 43.8412C2.7753 44.1571 2.67297 44.5202 2.67297 44.8906C2.67297 45.261 2.7753 45.6242 2.96866 45.9401C3.16202 46.256 3.4389 46.5123 3.76874 46.6808L32.5787 61.4208C32.8636 61.5677 33.1795 61.6443 33.5 61.6443C33.8205 61.6443 34.1364 61.5677 34.4212 61.4208L63.2312 46.6808C63.5611 46.5123 63.838 46.256 64.0313 45.9401C64.2247 45.6242 64.327 45.261 64.327 44.8906C64.327 44.5202 64.2247 44.1571 64.0313 43.8412C63.838 43.5253 63.5611 43.2689 63.2312 43.1005L55.5891 39.2061L63.2312 35.2908C63.5611 35.1223 63.8379 34.8659 64.0313 34.5501C64.2246 34.2342 64.3269 33.871 64.3269 33.5006C64.3269 33.1303 64.2246 32.7671 64.0313 32.4512C63.8379 32.1353 63.5611 31.879 63.2312 31.7105L55.5891 27.8161L63.2312 23.9008C63.5611 23.7323 63.8379 23.476 64.0313 23.1601C64.2246 22.8442 64.327 22.481 64.327 22.1106C64.327 21.7403 64.2246 21.3771 64.0313 21.0612C63.8379 20.7453 63.5611 20.489 63.2312 20.3205L34.4212 5.58049C34.0605 5.39386 33.6518 5.32086 33.2487 5.37112ZM33.5 9.64237L57.8921 22.1211L33.5 34.5789L9.10784 22.1211L33.5 9.64237ZM15.8078 30.0564L32.5787 38.6408C32.8636 38.7877 33.1795 38.8643 33.5 38.8643C33.8205 38.8643 34.1364 38.7877 34.4212 38.6408L51.1921 30.0564L57.8921 33.4901L33.5 45.9689L9.10784 33.4901L15.8078 30.0564ZM15.8078 41.4464L32.5787 50.0308C32.8636 50.1777 33.1795 50.2543 33.5 50.2543C33.8205 50.2543 34.1364 50.1777 34.4212 50.0308L51.1921 41.4464L57.8921 44.8801L33.5 57.3589L9.10784 44.8801L15.8078 41.4464Z" fill="black"/>
</svg>
