<svg width="67" height="67" viewBox="0 0 67 67" fill="none" xmlns="http://www.w3.org/2000/svg">
<path d="M49.8572 15.7674C49.8572 15.7483 49.8574 13.1659 49.8574 13.146H52.4746C55.0001 13.146 57.0547 11.0914 57.0547 8.56592C57.0547 6.04046 55.0001 3.98584 52.4746 3.98584C46.2101 3.98584 19.5247 3.98584 15.834 3.98584C13.3085 3.98584 11.2539 6.04046 11.2539 8.56592C11.2539 11.0914 13.3085 13.146 15.834 13.146H18.4512V15.7632C18.4561 15.9372 18.4784 16.0789 18.5438 16.2447C18.6392 16.485 18.8004 16.6864 18.9991 16.828L27.6113 22.9796V26.2319C27.6113 26.6437 27.8053 27.0316 28.1348 27.2788L32.8457 30.812V38.5624C23.0551 44.2167 23.7728 43.7963 23.6551 43.8847C23.3314 44.1386 23.1522 44.5271 23.1522 44.9152V56.1093C23.1522 56.5769 23.4016 57.0089 23.8065 57.2426C34.1748 63.2286 33.5382 62.869 33.662 62.9186C34.0227 63.0658 34.4461 63.0444 34.7983 62.8449C34.8598 62.8108 42.7546 58.252 44.5036 57.2425C44.9086 57.0087 45.158 56.5768 45.158 56.1092C45.1539 44.2718 45.1682 44.9075 45.1466 44.7436C45.1356 44.656 45.1071 44.5419 45.0665 44.4381C44.9696 44.1945 44.8446 44.0424 44.6471 43.8778C44.505 43.7685 44.9611 44.0511 35.4629 38.5623V30.8119L40.1738 27.2787C40.5035 27.0315 40.6973 26.6436 40.6973 26.2318V22.9794C49.7836 16.4798 49.3263 16.8361 49.4731 16.6894C49.7165 16.446 49.8561 16.1107 49.8572 15.7674ZM54.4375 8.56592C54.4375 9.64826 53.5569 10.5288 52.4746 10.5288H49.8574V6.60303H52.4746C53.5569 6.60303 54.4375 7.48358 54.4375 8.56592ZM47.2402 14.4546H21.0684C21.0684 13.7657 21.0684 8.58306 21.0684 6.60303H47.2402C47.2402 7.79385 47.2402 12.3908 47.2402 14.4546ZM15.834 10.5288C14.7516 10.5288 13.8711 9.64826 13.8711 8.56592C13.8711 7.48358 14.7516 6.60303 15.834 6.60303H18.4512V10.5288H15.834ZM34.1543 49.0012L27.0777 44.9151L34.1543 40.8289L41.2321 44.9152L34.1543 49.0012ZM25.7694 47.1819L32.8457 51.2677V59.4397L25.7694 55.3536V47.1819ZM35.4629 59.4401V51.2678L42.5408 47.1816V55.3538L35.4629 59.4401ZM38.0801 25.5776L34.1543 28.522L30.2285 25.5776V23.6147H38.0801V25.5776ZM38.9693 20.9976H29.3393L23.8432 17.0718H44.4654L38.9693 20.9976Z" fill="black"/>
<path d="M24.9941 10.5288H39.3887C40.1113 10.5288 40.6973 9.94295 40.6973 9.22021C40.6973 8.49748 40.1113 7.91162 39.3887 7.91162H24.9941C24.2714 7.91162 23.6855 8.49748 23.6855 9.22021C23.6855 9.94295 24.2714 10.5288 24.9941 10.5288Z" fill="black"/>
<path d="M43.3145 10.5288C44.0372 10.5288 44.623 9.94293 44.623 9.22021C44.623 8.4975 44.0372 7.91162 43.3145 7.91162C42.5917 7.91162 42.0059 8.4975 42.0059 9.22021C42.0059 9.94293 42.5917 10.5288 43.3145 10.5288Z" fill="black"/>
<path d="M59.0176 19.689C59.7403 19.689 60.3262 19.1031 60.3262 18.3804C60.3262 17.6577 59.7403 17.0718 59.0176 17.0718C58.2949 17.0718 57.709 17.6577 57.709 18.3804C57.709 19.1031 58.2949 19.689 59.0176 19.689Z" fill="black"/>
<path d="M44.623 34.0835C45.3458 34.0835 45.9316 33.4976 45.9316 32.7749C45.9316 32.0522 45.3458 31.4663 44.623 31.4663C43.9003 31.4663 43.3145 32.0522 43.3145 32.7749C43.3145 33.4976 43.9003 34.0835 44.623 34.0835Z" fill="black"/>
<path d="M57.709 48.478C58.4317 48.478 59.0176 47.8921 59.0176 47.1694C59.0176 46.4467 58.4317 45.8608 57.709 45.8608C56.9863 45.8608 56.4004 46.4467 56.4004 47.1694C56.4004 47.8921 56.9863 48.478 57.709 48.478Z" fill="black"/>
<path d="M15.834 52.4038C16.5567 52.4038 17.1426 51.8179 17.1426 51.0952C17.1426 50.3725 16.5567 49.7866 15.834 49.7866C15.1113 49.7866 14.5254 50.3725 14.5254 51.0952C14.5254 51.8179 15.1113 52.4038 15.834 52.4038Z" fill="black"/>
<path d="M21.0684 28.8491C21.7911 28.8491 22.377 28.2632 22.377 27.5405C22.377 26.8178 21.7911 26.2319 21.0684 26.2319C20.3456 26.2319 19.7598 26.8178 19.7598 27.5405C19.7598 28.2632 20.3456 28.8491 21.0684 28.8491Z" fill="black"/>
<path d="M7.98242 18.3804C8.70514 18.3804 9.29102 17.7945 9.29102 17.0718C9.29102 16.3491 8.70514 15.7632 7.98242 15.7632C7.25971 15.7632 6.67383 16.3491 6.67383 17.0718C6.67383 17.7945 7.25971 18.3804 7.98242 18.3804Z" fill="black"/>
<path d="M13.2168 32.7748C11.0521 32.7748 9.29102 34.5359 9.29102 36.7005C9.29102 38.8652 11.0521 40.6263 13.2168 40.6263C15.3815 40.6263 17.1426 38.8652 17.1426 36.7005C17.1426 34.5359 15.3815 32.7748 13.2168 32.7748ZM13.2168 38.0093C12.4952 38.0093 11.9082 37.4222 11.9082 36.7007C11.9082 35.9791 12.4952 35.3921 13.2168 35.3921C13.9384 35.3921 14.5254 35.9791 14.5254 36.7007C14.5254 37.4222 13.9384 38.0093 13.2168 38.0093Z" fill="black"/>
<path d="M55.0918 23.6147C52.2056 23.6147 49.8574 25.9629 49.8574 28.8491C49.8574 31.7354 52.2056 34.0835 55.0918 34.0835C57.978 34.0835 60.3262 31.7354 60.3262 28.8491C60.3262 25.9629 57.978 23.6147 55.0918 23.6147ZM55.0918 31.4663C53.6487 31.4663 52.4746 30.2922 52.4746 28.8491C52.4746 27.406 53.6487 26.2319 55.0918 26.2319C56.5349 26.2319 57.709 27.406 57.709 28.8491C57.709 30.2922 56.5349 31.4663 55.0918 31.4663Z" fill="black"/>
</svg>
