<svg width="32" height="32" viewBox="0 0 32 32" fill="none" xmlns="http://www.w3.org/2000/svg">
<path fill-rule="evenodd" clip-rule="evenodd" d="M29.3333 32H2.66667C1.95942 32 1.28118 31.7191 0.781087 31.219C0.28099 30.7189 0 30.0406 0 29.3333V2.66667C0 1.95942 0.28099 1.28114 0.781087 0.781047C1.28118 0.28095 1.95942 0 2.66667 0H29.3333C30.0406 0 30.7188 0.28095 31.2189 0.781047C31.719 1.28114 32 1.95942 32 2.66667V29.3333C32 30.0406 31.719 30.7189 31.2189 31.219C30.7188 31.7191 30.0406 32 29.3333 32ZM29.3333 2.66667H2.66667V23.4454L9.70671 16.4253C9.96314 16.1742 10.3077 16.0335 10.6667 16.0335C11.0256 16.0335 11.3702 16.1742 11.6266 16.4253L17.3734 22.1587L28.7733 14.8627C28.9446 14.7645 29.1363 14.707 29.3333 14.6947V2.66667ZM29.3333 17.8533L18.3066 24.912C18.2933 24.9213 18.2933 24.9347 18.2799 24.944C18.0751 25.1379 17.8134 25.2608 17.5334 25.2947C17.3225 25.35 17.1003 25.3443 16.8926 25.2782C16.6849 25.2121 16.5002 25.0883 16.36 24.9213L10.6667 19.26L3.62663 26.2813C3.3712 26.534 3.02596 26.675 2.66667 26.6733V29.3333H29.3333V17.8533ZM9.33333 12C8.80592 12 8.29042 11.8436 7.85189 11.5506C7.41336 11.2576 7.07146 10.8411 6.86963 10.3538C6.6678 9.86655 6.61504 9.33037 6.71794 8.81309C6.82083 8.29581 7.07481 7.82065 7.44775 7.44771C7.82069 7.07477 8.29587 6.82081 8.81315 6.71792C9.33043 6.61502 9.86657 6.66782 10.3538 6.86965C10.8411 7.07148 11.2576 7.41328 11.5506 7.85181C11.8436 8.29034 12 8.80592 12 9.33333C12 10.0406 11.719 10.7189 11.2189 11.219C10.7188 11.7191 10.0406 12 9.33333 12Z" fill="black"/>
</svg>
