<svg width="24" height="24" viewBox="0 0 24 24" fill="none" xmlns="http://www.w3.org/2000/svg">
<g clip-path="url(#clip0_146_4706)">
<path d="M11.9881 10.4895C11.7895 10.4926 11.6001 10.5744 11.4617 10.7169C11.3233 10.8594 11.2471 11.0511 11.2498 11.2497V16.4997C11.2484 16.5991 11.2668 16.6978 11.3038 16.79C11.3409 16.8823 11.3959 16.9662 11.4657 17.037C11.5355 17.1077 11.6186 17.164 11.7103 17.2023C11.802 17.2407 11.9004 17.2604 11.9998 17.2604C12.0992 17.2604 12.1976 17.2407 12.2893 17.2023C12.381 17.164 12.4642 17.1077 12.534 17.037C12.6037 16.9662 12.6588 16.8823 12.6958 16.79C12.7329 16.6978 12.7512 16.5991 12.7498 16.4997V11.2497C12.7512 11.1494 12.7324 11.0498 12.6946 10.9568C12.6568 10.8639 12.6007 10.7795 12.5297 10.7086C12.4587 10.6377 12.3742 10.5818 12.2811 10.5441C12.1881 10.5065 12.0885 10.4879 11.9881 10.4895H11.9881Z" fill="#0168FF"/>
<path d="M12 8.25C12.4142 8.25 12.75 7.91421 12.75 7.5C12.75 7.08579 12.4142 6.75 12 6.75C11.5858 6.75 11.25 7.08579 11.25 7.5C11.25 7.91421 11.5858 8.25 12 8.25Z" fill="#0168FF"/>
<path d="M12 1.5C6.20993 1.5 1.5 6.20993 1.5 12C1.5 17.7901 6.20993 22.5 12 22.5C17.7901 22.5 22.5 17.7901 22.5 12C22.5 6.20993 17.7901 1.5 12 1.5ZM12 3C16.9795 3 21 7.02053 21 12C21 16.9795 16.9795 21 12 21C7.02053 21 3 16.9795 3 12C3 7.02053 7.02053 3 12 3Z" fill="#0168FF"/>
</g>
<defs>
<clipPath id="clip0_146_4706">
<rect width="24" height="24" fill="white"/>
</clipPath>
</defs>
</svg>
