<svg width="24" height="24" viewBox="0 0 24 24" fill="none" xmlns="http://www.w3.org/2000/svg">
<path d="M12 2C10.0222 2 8.08878 2.58649 6.44429 3.6853C4.7998 4.78412 3.51808 6.34591 2.7612 8.17317C2.00432 10.0004 1.8063 12.0111 2.19215 13.9509C2.57801 15.8907 3.5304 17.6725 4.92893 19.0711C6.32745 20.4696 8.10929 21.422 10.0491 21.8079C11.9889 22.1937 13.9996 21.9957 15.8268 21.2388C17.6541 20.4819 19.2159 19.2002 20.3147 17.5557C21.4135 15.9112 22 13.9778 22 12C22 9.34784 20.9464 6.8043 19.0711 4.92893C17.1957 3.05357 14.6522 2 12 2ZM13 17H11V15H13V17ZM13 13H11V7H13V13Z" fill="#FF9900"/>
</svg>
