<svg width="24" height="24" viewBox="0 0 24 24" fill="none" xmlns="http://www.w3.org/2000/svg">
<g clip-path="url(#clip0_146_4074)">
<path d="M11.988 10.4895C11.7893 10.4926 11.6 10.5744 11.4616 10.7169C11.3232 10.8594 11.247 11.0511 11.2497 11.2497V16.4997C11.2483 16.5991 11.2667 16.6978 11.3037 16.79C11.3408 16.8823 11.3958 16.9662 11.4656 17.037C11.5354 17.1077 11.6185 17.164 11.7102 17.2023C11.8019 17.2407 11.9003 17.2604 11.9997 17.2604C12.0991 17.2604 12.1975 17.2407 12.2892 17.2023C12.3809 17.164 12.464 17.1077 12.5338 17.037C12.6036 16.9662 12.6586 16.8823 12.6957 16.79C12.7328 16.6978 12.7511 16.5991 12.7497 16.4997V11.2497C12.7511 11.1494 12.7323 11.0498 12.6945 10.9568C12.6567 10.8639 12.6006 10.7795 12.5296 10.7086C12.4586 10.6377 12.374 10.5818 12.281 10.5441C12.188 10.5065 12.0883 10.4879 11.988 10.4895Z" fill="black"/>
<path d="M12 8.25C12.4142 8.25 12.75 7.91421 12.75 7.5C12.75 7.08579 12.4142 6.75 12 6.75C11.5858 6.75 11.25 7.08579 11.25 7.5C11.25 7.91421 11.5858 8.25 12 8.25Z" fill="black"/>
<path d="M12 1.5C6.20993 1.5 1.5 6.20993 1.5 12C1.5 17.7901 6.20993 22.5 12 22.5C17.7901 22.5 22.5 17.7901 22.5 12C22.5 6.20993 17.7901 1.5 12 1.5ZM12 3C16.9795 3 21 7.02052 21 12C21 16.9795 16.9795 21 12 21C7.02052 21 3 16.9795 3 12C3 7.02052 7.02052 3 12 3Z" fill="black"/>
</g>
<defs>
<clipPath id="clip0_146_4074">
<rect width="24" height="24" fill="white"/>
</clipPath>
</defs>
</svg>
