<svg width="13" height="10" viewBox="0 0 13 10" fill="none" xmlns="http://www.w3.org/2000/svg">
<path d="M4.00004 10C3.85161 9.99399 3.70638 9.95496 3.57492 9.88576C3.44346 9.81657 3.32906 9.71896 3.24005 9.60002L0.24005 5.60002C0.0809198 5.38785 0.0125858 5.12115 0.050093 4.8586C0.0876003 4.59605 0.227873 4.35915 0.440047 4.20002C0.65222 4.04089 0.91892 3.97256 1.18147 4.01007C1.44402 4.04758 1.68091 4.18785 1.84004 4.40002L4.10005 7.40002L10.29 0.33002C10.46 0.143541 10.6942 0.0282103 10.9456 0.00715267C11.1971 -0.013905 11.4472 0.0608671 11.6458 0.216477C11.8444 0.372086 11.9769 0.597029 12.0166 0.846202C12.0564 1.09537 12.0004 1.35036 11.86 1.56002L11.79 1.65002L4.79004 9.65002C4.6929 9.76371 4.57152 9.85418 4.4348 9.91475C4.29808 9.97532 4.14951 10.0045 4.00004 10Z" fill="#19A04B"/>
</svg>
