<svg width="20" height="20" viewBox="0 0 20 20" fill="none" xmlns="http://www.w3.org/2000/svg">
<path d="M10 0C8.02219 0 6.08878 0.58649 4.44429 1.6853C2.7998 2.78412 1.51808 4.34591 0.761201 6.17317C0.00432432 8.00043 -0.193698 10.0111 0.192155 11.9509C0.578007 13.8907 1.5304 15.6725 2.92893 17.0711C4.32745 18.4696 6.10929 19.422 8.0491 19.8079C9.98891 20.1937 11.9996 19.9957 13.8268 19.2388C15.6541 18.4819 17.2159 17.2002 18.3147 15.5557C19.4135 13.9112 20 11.9778 20 10C20 7.34784 18.9464 4.8043 17.0711 2.92893C15.1957 1.05357 12.6522 0 10 0ZM11 15H9V13H11V15ZM11 11H9V5H11V11Z" fill="#FC6868"/>
</svg>
