<svg width="19" height="16" viewBox="0 0 19 16" fill="none" xmlns="http://www.w3.org/2000/svg">
<path d="M0.125 1C0.125 1.55228 0.59137 2 1.16667 2H17.8333C18.4086 2 18.875 1.55228 18.875 1C18.875 0.447715 18.4086 0 17.8333 0H1.16667C0.59137 0 0.125 0.447715 0.125 1Z" fill="black"/>
<path d="M9.5 16C10.0753 16 10.5417 15.5523 10.5417 15V12H13.6667C14.242 12 14.7083 11.5523 14.7083 11C14.7083 10.4477 14.242 10 13.6667 10H10.5417V7C10.5417 6.44771 10.0753 6 9.5 6C8.9247 6 8.45833 6.44771 8.45833 7V10H5.33333C4.75804 10 4.29167 10.4477 4.29167 11C4.29167 11.5523 4.75804 12 5.33333 12H8.45833V15C8.45833 15.5523 8.9247 16 9.5 16Z" fill="black"/>
</svg>
