<svg width="28" height="28" viewBox="0 0 28 28" fill="none" xmlns="http://www.w3.org/2000/svg">
<path d="M3.5 5.83366C3.5 6.47799 4.02233 7.00033 4.66667 7.00033H23.3333C23.9777 7.00033 24.5 6.47799 24.5 5.83366C24.5 5.18933 23.9777 4.66699 23.3333 4.66699H4.66667C4.02233 4.66699 3.5 5.18933 3.5 5.83366Z" fill="black"/>
<path d="M14 23.3337C14.6443 23.3337 15.1667 22.8113 15.1667 22.167V18.667H18.6667C19.311 18.667 19.8333 18.1447 19.8333 17.5003C19.8333 16.856 19.311 16.3337 18.6667 16.3337H15.1667V12.8337C15.1667 12.1893 14.6443 11.667 14 11.667C13.3557 11.667 12.8333 12.1893 12.8333 12.8337V16.3337H9.33333C8.689 16.3337 8.16667 16.856 8.16667 17.5003C8.16667 18.1447 8.689 18.667 9.33333 18.667H12.8333V22.167C12.8333 22.8113 13.3557 23.3337 14 23.3337Z" fill="black"/>
</svg>
