<svg width="21" height="25" viewBox="0 0 21 25" fill="none" xmlns="http://www.w3.org/2000/svg">
<path d="M6.8776 8.33317C6.21026 8.33317 5.66927 8.8555 5.66927 9.49984C5.66927 10.1442 6.21026 10.6665 6.8776 10.6665H9.29427V12.9998C9.29427 13.6442 9.83526 14.1665 10.5026 14.1665C11.1699 14.1665 11.7109 13.6442 11.7109 12.9998V10.6665H14.1276C14.7949 10.6665 15.3359 10.1442 15.3359 9.49984C15.3359 8.8555 14.7949 8.33317 14.1276 8.33317H11.7109V5.99984C11.7109 5.3555 11.1699 4.83317 10.5026 4.83317C9.83526 4.83317 9.29427 5.3555 9.29427 5.99984V8.33317H6.8776Z" fill="black"/>
<path fill-rule="evenodd" clip-rule="evenodd" d="M0.835938 3.6665C0.835938 1.73351 2.45891 0.166504 4.46094 0.166504H16.5443C18.5463 0.166504 20.1693 1.73351 20.1693 3.6665V15.3332C20.1693 17.2662 18.5463 18.8332 16.5443 18.8332H4.46094C2.45891 18.8332 0.835938 17.2662 0.835938 15.3332V3.6665ZM4.46094 2.49984H16.5443C17.2116 2.49984 17.7526 3.02217 17.7526 3.6665V15.3332C17.7526 15.9775 17.2116 16.4998 16.5443 16.4998H4.46094C3.79359 16.4998 3.2526 15.9775 3.2526 15.3332V3.6665C3.2526 3.02217 3.79359 2.49984 4.46094 2.49984Z" fill="black"/>
<path d="M2.04427 22.3332C1.37693 22.3332 0.835938 22.8555 0.835938 23.4998C0.835938 24.1442 1.37693 24.6665 2.04427 24.6665H18.9609C19.6283 24.6665 20.1693 24.1442 20.1693 23.4998C20.1693 22.8555 19.6283 22.3332 18.9609 22.3332H2.04427Z" fill="black"/>
</svg>
