<svg width="27" height="27" viewBox="0 0 27 27" fill="none" xmlns="http://www.w3.org/2000/svg">
<path d="M23.625 6.75C23.0037 6.75 22.5 7.25368 22.5 7.875V19.125C22.5 19.7463 23.0037 20.25 23.625 20.25C24.2463 20.25 24.75 19.7463 24.75 19.125V7.875C24.75 7.25368 24.2463 6.75 23.625 6.75Z" fill="black"/>
<path d="M4.5 15.75C5.74264 15.75 6.75 14.7426 6.75 13.5C6.75 12.2574 5.74264 11.25 4.5 11.25C3.25736 11.25 2.25 12.2574 2.25 13.5C2.25 14.7426 3.25736 15.75 4.5 15.75Z" fill="black"/>
<path d="M13.5 13.5C13.5 14.7426 12.4926 15.75 11.25 15.75C10.0074 15.75 9 14.7426 9 13.5C9 12.2574 10.0074 11.25 11.25 11.25C12.4926 11.25 13.5 12.2574 13.5 13.5Z" fill="black"/>
<path d="M18 15.75C19.2426 15.75 20.25 14.7426 20.25 13.5C20.25 12.2574 19.2426 11.25 18 11.25C16.7574 11.25 15.75 12.2574 15.75 13.5C15.75 14.7426 16.7574 15.75 18 15.75Z" fill="black"/>
</svg>
