<svg width="21" height="21" viewBox="0 0 21 21" fill="none" xmlns="http://www.w3.org/2000/svg">
<g clip-path="url(#clip0_236_44797)">
<path d="M19.1049 11.1564C19.1049 11.1564 20.0914 10.6742 20.0327 9.56031C20.0144 9.21999 20.007 8.69367 19.1526 8.23831C18.2994 7.78545 13.9333 8.0058 13.9333 8.0058C13.9333 8.0058 14.1646 5.53806 14.2222 5.20026C14.2784 4.85758 14.4388 4.66657 14.4804 3.56493C14.533 2.14016 13.9663 0.805895 12.7141 0.84263C11.7937 0.869559 11.5122 2.53674 11.5122 2.87943C11.5122 3.21974 10.894 5.02404 10.0959 6.33374C9.29786 7.64594 8.89387 7.93963 8.78119 9.24457C8.66613 10.5543 6.82772 10.7549 6.82772 10.7549C6.74074 11.1369 6.82772 19.2425 6.82772 19.2425C6.82772 19.2425 8.11775 19.5486 8.8584 19.622C9.96618 19.7321 10.0713 19.9549 10.8413 20.0259C11.6003 20.097 14.6334 20.2732 15.8684 20.0454C16.5711 19.9157 17.4156 19.8594 17.9445 19.3894C19.0425 18.4102 18.1317 17.2326 18.1317 17.2326C18.1317 17.2326 19.8883 17.0637 19.8883 15.7565C19.8845 14.6083 18.7977 14.1383 18.7977 14.1383C18.7977 14.1383 20.3717 14.1481 20.4672 12.8359C20.559 11.5702 19.1049 11.1564 19.1049 11.1564Z" fill="black"/>
<path d="M4.28371 10.3388H0.523438V19.1128H4.28371V10.3388Z" fill="black"/>
</g>
<defs>
<clipPath id="clip0_236_44797">
<rect width="21" height="21" fill="white"/>
</clipPath>
</defs>
</svg>
