<svg width="20" height="18" viewBox="0 0 20 18" fill="none" xmlns="http://www.w3.org/2000/svg">
<path fill-rule="evenodd" clip-rule="evenodd" d="M3.33333 0.25C2.41286 0.25 1.66667 0.996192 1.66667 1.91667V2.75C1.66667 2.79722 1.66863 2.84398 1.67248 2.89021C0.698451 3.23176 0 4.15931 0 5.25V15.25C0 16.6307 1.11929 17.75 2.5 17.75H17.5C18.8807 17.75 20 16.6307 20 15.25V5.25C20 3.86929 18.8807 2.75 17.5 2.75H9.89499C9.52495 1.31231 8.21987 0.25 6.66667 0.25H3.33333ZM8.11036 2.75C7.82219 2.25183 7.28357 1.91667 6.66667 1.91667H3.33333V2.75H8.11036ZM2.5 4.41667C2.03976 4.41667 1.66667 4.78976 1.66667 5.25V15.25C1.66667 15.7102 2.03976 16.0833 2.5 16.0833H17.5C17.9602 16.0833 18.3333 15.7102 18.3333 15.25V5.25C18.3333 4.78976 17.9602 4.41667 17.5 4.41667H2.5Z" fill="black"/>
</svg>
