<svg width="22" height="19" viewBox="0 0 22 19" fill="none" xmlns="http://www.w3.org/2000/svg">
<path fill-rule="evenodd" clip-rule="evenodd" d="M11.75 3H18.75C19.44 3 20 3.56 20 4.25V7.75C20 8.164 20.336 8.5 20.75 8.5C21.164 8.5 21.5 8.164 21.5 7.75V4.25C21.5 2.732 20.268 1.5 18.75 1.5H11.75C11.336 1.5 11 1.836 11 2.25C11 2.664 11.336 3 11.75 3Z" fill="#676767"/>
<path fill-rule="evenodd" clip-rule="evenodd" d="M18.75 18.5C20.268 18.5 21.5 17.268 21.5 15.75V7.25C21.5 5.732 20.268 4.5 18.75 4.5C18.75 4.5 14.85 4.5 13.338 4.5C13.248 4.5 13.164 4.451 13.12 4.371C12.639 3.505 11.672 1.766 11.191 0.9C10.883 0.345 10.297 0 9.662 0H2.75C1.232 0 0 1.232 0 2.75V15.75C0 17.268 1.232 18.5 2.75 18.5H18.75ZM18.75 17H2.75C2.06 17 1.5 16.44 1.5 15.75V2.75C1.5 2.06 2.06 1.5 2.75 1.5H9.662C9.752 1.5 9.836 1.549 9.88 1.629C10.361 2.495 11.328 4.234 11.809 5.1C12.117 5.655 12.703 6 13.338 6C14.85 6 18.75 6 18.75 6C19.44 6 20 6.56 20 7.25V15.75C20 16.44 19.44 17 18.75 17Z" fill="#676767"/>
</svg>
