<svg width="32" height="28" viewBox="0 0 32 28" fill="none" xmlns="http://www.w3.org/2000/svg">
<path d="M2.48734 0C1.12779 0 0 1.12779 0 2.48734V20.9647C0 22.3243 1.12779 23.4521 2.48734 23.4521H11.0043L15.3349 26.7833C15.5221 26.9292 15.7527 27.0084 15.99 27.0084C16.2274 27.0084 16.4579 26.9292 16.6452 26.7833L21.2645 23.23C21.3754 23.1439 21.4682 23.0369 21.5377 22.915C21.6072 22.7931 21.6519 22.6587 21.6695 22.5195C21.687 22.3803 21.677 22.239 21.6399 22.1037C21.6028 21.9683 21.5395 21.8416 21.4534 21.7308C21.3674 21.62 21.2603 21.5272 21.1384 21.4577C21.0165 21.3882 20.8821 21.3435 20.7429 21.326C20.6037 21.3084 20.4624 21.3185 20.3271 21.3556C20.1917 21.3927 20.0651 21.4561 19.9542 21.5421L15.99 24.5958L12.0258 21.5421C11.8382 21.3973 11.6077 21.3192 11.3707 21.32H2.48734C2.27205 21.32 2.132 21.18 2.132 20.9647V2.48734C2.132 2.27205 2.27205 2.132 2.48734 2.132H29.4927C29.708 2.132 29.8481 2.27205 29.8481 2.48734V20.9647C29.8481 21.18 29.708 21.32 29.4927 21.32H27.0054C26.8641 21.318 26.7239 21.3441 26.5928 21.3968C26.4617 21.4495 26.3424 21.5277 26.2418 21.6269C26.1412 21.7261 26.0613 21.8443 26.0068 21.9746C25.9523 22.1049 25.9242 22.2448 25.9242 22.3861C25.9242 22.5273 25.9523 22.6672 26.0068 22.7975C26.0613 22.9278 26.1412 23.046 26.2418 23.1452C26.3424 23.2444 26.4617 23.3226 26.5928 23.3753C26.7239 23.428 26.8641 23.454 27.0054 23.4521H29.4927C30.8523 23.4521 31.9801 22.3243 31.9801 20.9647V2.48734C31.9801 1.12779 30.8523 0 29.4927 0H2.48734ZM23.8074 21.32C23.2186 21.32 22.7414 21.7973 22.7414 22.3861C22.7414 22.9748 23.2186 23.4521 23.8074 23.4521C24.3961 23.4521 24.8734 22.9748 24.8734 22.3861C24.8734 21.7973 24.3961 21.32 23.8074 21.32Z" fill="black"/>
</svg>
