<svg width="28" height="27" viewBox="0 0 28 27" fill="none" xmlns="http://www.w3.org/2000/svg">
<path d="M19.4609 17.7215L21.9457 20.1175C23.5366 18.3428 24.4989 16.0295 24.4989 13.4995C24.4989 11.0103 23.5674 8.73091 22.0221 6.96777L19.5341 9.36697C20.4523 10.5089 20.9989 11.9427 20.9989 13.4995C20.9989 15.0973 20.4232 16.5654 19.4609 17.7215Z" fill="black" fill-opacity="0.5"/>
<path d="M18.2856 18.8375C17.1014 19.7229 15.6145 20.25 14 20.25C10.134 20.25 7 17.2279 7 13.5C7 9.77208 10.134 6.75 14 6.75C15.6569 6.75 17.1794 7.30512 18.3783 8.23301L20.8631 5.83698C19.0226 4.30292 16.6237 3.375 14 3.375C8.20101 3.375 3.5 7.90812 3.5 13.5C3.5 19.0919 8.20101 23.625 14 23.625C16.5814 23.625 18.9452 22.7267 20.7736 21.2367L18.2856 18.8375Z" fill="black"/>
</svg>
