<svg width="468" height="345" viewBox="0 0 468 345" fill="none" xmlns="http://www.w3.org/2000/svg">
<g clip-path="url(#clip0_135_4269)">
<path d="M185.019 77.0468C184.859 77.052 184.701 77.0253 184.552 76.9683C184.403 76.9113 184.267 76.8252 184.152 76.715C184.033 76.5963 183.938 76.4551 183.873 76.2996C183.808 76.144 183.775 75.9772 183.775 75.8087C183.775 75.6402 183.808 75.4733 183.873 75.3178C183.938 75.1622 184.033 75.0211 184.152 74.9024C185.605 73.3451 187.083 71.7878 188.612 70.2816C188.73 70.162 188.871 70.067 189.027 70.0022C189.182 69.9374 189.348 69.9041 189.517 69.9041C189.685 69.9041 189.851 69.9374 190.007 70.0022C190.162 70.067 190.303 70.162 190.421 70.2816C190.54 70.3981 190.634 70.5371 190.699 70.6905C190.763 70.844 190.796 71.0087 190.796 71.1751C190.796 71.3416 190.763 71.5063 190.699 71.6597C190.634 71.8132 190.54 71.9522 190.421 72.0687C188.943 73.5493 187.465 75.0811 186.038 76.6128C185.914 76.7604 185.757 76.8766 185.58 76.952C185.403 77.0274 185.211 77.0599 185.019 77.0468Z" fill="#0C60FF"/>
<path d="M396.872 286.334C396.699 286.335 396.528 286.299 396.37 286.229C396.212 286.158 396.07 286.055 395.955 285.926C395.835 285.807 395.741 285.666 395.676 285.51C395.611 285.355 395.578 285.188 395.578 285.019C395.578 284.851 395.611 284.684 395.676 284.528C395.741 284.373 395.835 284.232 395.955 284.113C399.09 281.126 402.097 277.986 404.926 274.769C405.033 274.635 405.167 274.524 405.319 274.443C405.471 274.362 405.638 274.313 405.809 274.298C405.98 274.284 406.153 274.304 406.316 274.358C406.48 274.412 406.631 274.498 406.76 274.612C406.889 274.726 406.994 274.865 407.068 275.02C407.142 275.176 407.184 275.344 407.191 275.517C407.198 275.689 407.171 275.861 407.11 276.022C407.049 276.183 406.956 276.33 406.837 276.454C403.957 279.722 400.899 282.939 397.713 285.977C397.485 286.194 397.187 286.321 396.872 286.334ZM414.1 266.702C413.834 266.692 413.577 266.603 413.361 266.447C413.225 266.348 413.11 266.224 413.022 266.08C412.935 265.937 412.876 265.778 412.85 265.612C412.824 265.446 412.831 265.276 412.871 265.113C412.91 264.949 412.982 264.796 413.081 264.66C415.629 261.188 418.05 257.563 420.293 253.887C420.372 253.729 420.483 253.589 420.619 253.476C420.754 253.363 420.912 253.28 421.082 253.231C421.251 253.183 421.429 253.17 421.604 253.194C421.778 253.218 421.946 253.278 422.097 253.37C422.247 253.462 422.377 253.585 422.478 253.73C422.579 253.875 422.648 254.039 422.682 254.212C422.716 254.386 422.714 254.564 422.676 254.737C422.637 254.909 422.563 255.072 422.459 255.214C420.191 258.941 417.719 262.643 415.145 266.166C415.028 266.334 414.871 266.471 414.689 266.565C414.507 266.658 414.305 266.706 414.1 266.702ZM427.683 244.364C427.486 244.365 427.292 244.312 427.123 244.211C426.972 244.138 426.837 244.035 426.726 243.909C426.615 243.783 426.53 243.637 426.475 243.478C426.421 243.319 426.398 243.151 426.409 242.983C426.419 242.815 426.463 242.651 426.536 242.501C428.448 238.646 430.206 234.638 431.633 230.63C431.69 230.472 431.777 230.328 431.891 230.206C432.005 230.084 432.142 229.987 432.295 229.92C432.448 229.853 432.613 229.818 432.779 229.817C432.946 229.816 433.111 229.849 433.264 229.915C433.577 230.035 433.83 230.274 433.969 230.58C434.107 230.886 434.12 231.234 434.004 231.549C432.423 235.633 430.64 239.692 428.703 243.649C428.604 243.843 428.46 244.01 428.282 244.134C428.104 244.259 427.899 244.338 427.683 244.364ZM437.138 219.959C437.021 219.985 436.899 219.985 436.781 219.959C436.458 219.869 436.183 219.655 436.016 219.364C435.849 219.072 435.803 218.726 435.889 218.401C437.087 214.266 438.132 210.028 438.948 205.637C439.021 205.308 439.219 205.021 439.499 204.835C439.779 204.65 440.121 204.58 440.451 204.641C440.617 204.671 440.775 204.735 440.915 204.828C441.056 204.921 441.176 205.041 441.269 205.182C441.362 205.323 441.425 205.481 441.455 205.647C441.486 205.812 441.482 205.983 441.445 206.147C440.604 210.462 439.559 214.776 438.361 218.912C438.304 219.199 438.153 219.458 437.931 219.648C437.709 219.837 437.43 219.947 437.138 219.959ZM442.235 194.429H442.082C441.918 194.413 441.758 194.365 441.613 194.287C441.467 194.209 441.339 194.103 441.234 193.974C441.13 193.846 441.052 193.699 441.005 193.54C440.958 193.382 440.943 193.215 440.961 193.051C441.42 188.762 441.674 184.422 441.751 180.082C441.764 179.75 441.903 179.436 442.14 179.203C442.377 178.97 442.693 178.837 443.025 178.831C443.192 178.834 443.357 178.871 443.511 178.938C443.664 179.005 443.803 179.102 443.919 179.223C444.035 179.344 444.126 179.487 444.187 179.643C444.248 179.799 444.277 179.965 444.274 180.133C444.274 184.55 443.917 188.966 443.458 193.306C443.398 193.601 443.233 193.864 442.994 194.047C442.755 194.23 442.459 194.32 442.159 194.302L442.235 194.429ZM442.719 168.288C442.394 168.288 442.081 168.164 441.844 167.941C441.607 167.718 441.465 167.413 441.445 167.088C441.139 162.799 440.655 158.459 439.992 154.196C439.948 153.861 440.035 153.523 440.234 153.252C440.434 152.98 440.731 152.797 441.063 152.74C441.228 152.715 441.398 152.723 441.56 152.763C441.723 152.803 441.876 152.875 442.011 152.975C442.146 153.074 442.26 153.2 442.347 153.343C442.433 153.487 442.49 153.647 442.515 153.813C443.203 158.127 443.688 162.544 443.993 166.909C444.015 167.25 443.901 167.586 443.677 167.844C443.453 168.102 443.136 168.261 442.796 168.288H442.719ZM438.591 142.325C438.304 142.327 438.025 142.233 437.798 142.057C437.572 141.881 437.411 141.633 437.342 141.354C436.323 137.193 435.074 133.006 433.672 128.922C433.561 128.583 433.588 128.214 433.748 127.896C433.908 127.577 434.188 127.336 434.526 127.224C434.864 127.112 435.232 127.14 435.55 127.3C435.868 127.461 436.109 127.741 436.221 128.079C437.648 132.241 438.769 136.504 439.941 140.844C439.984 141.006 439.993 141.176 439.97 141.342C439.947 141.509 439.891 141.669 439.805 141.813C439.72 141.958 439.607 142.084 439.473 142.185C439.339 142.286 439.186 142.36 439.024 142.401L438.591 142.325ZM430.079 117.612C429.837 117.614 429.599 117.544 429.396 117.413C429.192 117.282 429.031 117.094 428.932 116.872C427.174 112.941 425.211 109.035 423.122 105.282C422.956 104.984 422.915 104.632 423.008 104.304C423.102 103.976 423.321 103.699 423.619 103.533C423.916 103.367 424.267 103.327 424.594 103.42C424.922 103.513 425.199 103.733 425.364 104.031C427.479 107.86 429.467 111.69 431.251 115.825C431.372 116.116 431.381 116.44 431.278 116.737C431.174 117.034 430.965 117.282 430.691 117.434C430.504 117.542 430.294 117.604 430.079 117.612ZM417.337 94.7894C417.126 94.7875 416.92 94.7356 416.734 94.6379C416.548 94.5403 416.387 94.3997 416.266 94.2278C413.871 90.6537 411.169 87.1562 408.621 83.8119C408.41 83.5506 408.31 83.2163 408.343 82.8817C408.377 82.547 408.54 82.2392 408.799 82.0249C409.06 81.8133 409.394 81.7133 409.728 81.7468C410.062 81.7803 410.369 81.9444 410.583 82.2036C413.361 85.599 416.011 89.173 418.458 92.7982C418.554 92.9349 418.621 93.0894 418.657 93.2527C418.692 93.416 418.694 93.5847 418.663 93.7489C418.632 93.9131 418.569 94.0695 418.477 94.2087C418.385 94.348 418.266 94.4673 418.127 94.5597C417.909 94.7096 417.651 94.7898 417.388 94.7894H417.337ZM400.848 74.5193C400.553 74.4491 400.291 74.2775 400.109 74.0343C397.102 70.9453 393.942 67.9328 390.68 65.1246C390.552 65.0169 390.448 64.8847 390.372 64.7359C390.297 64.5871 390.252 64.4246 390.24 64.258C390.228 64.0915 390.249 63.9242 390.303 63.7662C390.357 63.6081 390.441 63.4624 390.552 63.3376C390.778 63.0843 391.093 62.9291 391.431 62.9053C391.769 62.8815 392.103 62.9908 392.362 63.21C395.649 66.0692 398.886 69.1072 401.944 72.2472C402.063 72.3659 402.158 72.5071 402.223 72.6626C402.287 72.8182 402.321 72.985 402.321 73.1535C402.321 73.322 402.287 73.4889 402.223 73.6444C402.158 73.8 402.063 73.9412 401.944 74.0598C401.813 74.2068 401.651 74.3239 401.471 74.4032C401.291 74.4824 401.096 74.5221 400.899 74.5193H400.848ZM199.112 63.6695C198.922 63.6699 198.736 63.629 198.564 63.5496C198.392 63.4703 198.24 63.3544 198.118 63.21C197.906 62.9486 197.807 62.6143 197.84 62.2797C197.873 61.9451 198.037 61.6372 198.296 61.4229C201.66 58.6147 205.202 55.9342 208.796 53.4323C208.932 53.3363 209.087 53.2686 209.25 53.2332C209.413 53.1979 209.581 53.1956 209.745 53.2265C209.909 53.2575 210.065 53.321 210.204 53.4133C210.343 53.5057 210.462 53.625 210.554 53.7642C210.651 53.8994 210.72 54.0526 210.758 54.2149C210.795 54.3772 210.799 54.5453 210.771 54.7094C210.743 54.8734 210.682 55.0302 210.592 55.1703C210.502 55.3105 210.385 55.4313 210.248 55.5257C206.706 58.0786 203.24 60.6315 200.054 63.3887C199.925 63.4983 199.775 63.5799 199.612 63.6282C199.45 63.6765 199.28 63.6906 199.112 63.6695ZM381.148 57.4404C380.875 57.4292 380.61 57.3407 380.384 57.1851C376.918 54.6322 373.274 52.258 369.578 50.0625C369.289 49.892 369.079 49.614 368.993 49.289C368.907 48.9639 368.952 48.6181 369.12 48.3265C369.295 48.0349 369.577 47.8236 369.905 47.7377C370.234 47.6518 370.583 47.6982 370.878 47.867C374.624 50.1135 378.345 52.5388 381.887 55.1172C382.11 55.2732 382.278 55.4965 382.365 55.7546C382.452 56.0127 382.455 56.2919 382.372 56.5515C382.29 56.8112 382.126 57.0375 381.906 57.1974C381.686 57.3573 381.42 57.4425 381.148 57.4404ZM220.595 48.786C220.317 48.7832 220.048 48.6893 219.828 48.5187C219.608 48.348 219.45 48.11 219.378 47.841C219.305 47.572 219.323 47.2867 219.428 47.0286C219.533 46.7706 219.719 46.554 219.958 46.4118C223.781 44.2419 227.603 42.1995 231.681 40.387C231.833 40.3138 231.998 40.2715 232.167 40.2628C232.335 40.254 232.504 40.2788 232.663 40.3358C232.821 40.3928 232.967 40.4808 233.092 40.5948C233.217 40.7088 233.317 40.8464 233.388 40.9997C233.521 41.3123 233.528 41.6638 233.41 41.982C233.291 42.3002 233.056 42.5607 232.751 42.7101C228.852 44.4971 225.106 46.4884 221.232 48.6329C221.028 48.7386 220.8 48.7913 220.57 48.786H220.595ZM358.747 44.0376C358.552 44.0471 358.358 44.003 358.187 43.91C354.313 42.0464 350.312 40.3359 346.285 38.8042C345.972 38.6839 345.719 38.445 345.581 38.1392C345.443 37.8334 345.43 37.4853 345.546 37.1703C345.661 36.8522 345.898 36.5928 346.204 36.4492C346.509 36.3056 346.86 36.2895 347.177 36.4044C351.28 37.9617 355.358 39.7232 359.283 41.5102C359.541 41.6354 359.749 41.8441 359.874 42.1026C359.999 42.361 360.034 42.6542 359.972 42.9347C359.91 43.2152 359.755 43.4666 359.533 43.6482C359.311 43.8298 359.034 43.931 358.747 43.9355V44.0376ZM244.321 37.8851C244.059 37.8888 243.801 37.8093 243.586 37.6581C243.371 37.5068 243.209 37.2915 243.124 37.0427C243.009 36.7244 243.025 36.3736 243.168 36.0672C243.312 35.7608 243.57 35.524 243.888 35.4088C248.017 33.9536 252.247 32.6516 256.63 31.5539C256.968 31.4693 257.326 31.5226 257.625 31.7021C257.923 31.8817 258.139 32.1727 258.223 32.5112C258.308 32.8498 258.254 33.2081 258.075 33.5073C257.896 33.8065 257.605 34.0222 257.268 34.1068C253.088 35.179 248.934 36.4555 244.882 37.8851C244.689 37.9298 244.489 37.9298 244.296 37.8851H244.321ZM334.308 34.8216H333.976C329.848 33.6473 325.592 32.6772 321.361 31.8858C321.195 31.8552 321.037 31.7918 320.895 31.6992C320.753 31.6066 320.632 31.4868 320.537 31.3466C320.442 31.2064 320.376 31.0487 320.342 30.8827C320.309 30.7167 320.309 30.5456 320.342 30.3796C320.41 30.0515 320.601 29.7624 320.877 29.5722C321.152 29.382 321.49 29.3054 321.82 29.3584C326.127 30.1753 330.459 31.171 334.562 32.3453C334.884 32.446 335.156 32.6658 335.321 32.9598C335.487 33.2539 335.535 33.6001 335.454 33.9281C335.369 34.1765 335.212 34.394 335.004 34.5531C334.795 34.7121 334.544 34.8056 334.282 34.8216H334.308ZM269.602 31.3497C269.3 31.3528 269.006 31.2458 268.777 31.0486C268.547 30.8514 268.397 30.5774 268.353 30.2774C268.321 30.1126 268.322 29.9427 268.357 29.7783C268.393 29.614 268.462 29.4588 268.56 29.3223C268.658 29.1858 268.783 29.071 268.927 28.985C269.071 28.8989 269.232 28.8436 269.398 28.8223C273.705 28.1075 278.114 27.5714 282.472 27.214C282.804 27.2103 283.126 27.3272 283.379 27.543C283.632 27.7589 283.799 28.0591 283.848 28.3883C283.862 28.556 283.843 28.7249 283.791 28.8851C283.74 29.0453 283.657 29.1938 283.548 29.3219C283.439 29.45 283.306 29.5553 283.156 29.6317C283.007 29.708 282.843 29.754 282.676 29.7669C278.369 30.0987 274.036 30.6349 269.933 31.3241L269.602 31.3497ZM308.67 30.0222C304.389 29.6137 300.056 29.3839 295.749 29.3329C295.411 29.3329 295.087 29.1984 294.848 28.959C294.609 28.7196 294.475 28.395 294.475 28.0564C294.464 27.8859 294.489 27.7149 294.549 27.5549C294.609 27.3949 294.703 27.2496 294.823 27.1288C294.944 27.0079 295.089 26.9143 295.249 26.8541C295.408 26.794 295.579 26.7687 295.749 26.78C300.133 26.78 304.567 27.0608 308.925 27.4692C309.263 27.4692 309.587 27.6037 309.826 27.8431C310.065 28.0825 310.199 28.4072 310.199 28.7457C310.199 29.0842 310.065 29.4089 309.826 29.6483C309.587 29.8877 309.263 30.0222 308.925 30.0222H308.67Z" fill="#0C60FF"/>
<path d="M381.811 298.92C381.543 298.92 381.283 298.836 381.066 298.679C380.849 298.522 380.687 298.301 380.602 298.047C380.517 297.793 380.515 297.519 380.595 297.263C380.674 297.007 380.832 296.783 381.046 296.622C382.754 295.371 384.436 294.069 386.143 292.767C386.413 292.607 386.732 292.549 387.041 292.606C387.35 292.662 387.628 292.829 387.823 293.075C388.019 293.321 388.119 293.629 388.106 293.944C388.092 294.258 387.965 294.556 387.749 294.784C386.05 296.112 384.351 297.414 382.652 298.69C382.407 298.863 382.109 298.945 381.811 298.92Z" fill="#0C60FF"/>
<path d="M357.855 345H6.29474C5.95679 345 5.63269 344.866 5.39372 344.626C5.15476 344.387 5.02051 344.062 5.02051 343.724C5.02051 343.385 5.15476 343.06 5.39372 342.821C5.63269 342.582 5.95679 342.447 6.29474 342.447H357.983C358.321 342.447 358.645 342.582 358.884 342.821C359.123 343.06 359.257 343.385 359.257 343.724C359.258 343.903 359.221 344.08 359.149 344.243C359.078 344.407 358.972 344.554 358.84 344.675C358.708 344.795 358.552 344.886 358.382 344.942C358.213 344.998 358.033 345.018 357.855 345Z" fill="#0C60FF"/>
<path d="M315.067 113.656H90.8527C76.0601 113.656 64.0684 125.668 64.0684 140.487V316.51C64.0684 331.328 76.0601 343.341 90.8527 343.341H315.067C329.859 343.341 341.851 331.328 341.851 316.51V140.487C341.851 125.668 329.859 113.656 315.067 113.656Z" fill="#A6F0FF"/>
<path d="M315.067 337.954H90.8018C87.2835 337.957 83.7991 337.266 80.5479 335.918C77.2968 334.571 74.3428 332.595 71.8549 330.103C69.3671 327.611 67.3943 324.652 66.0495 321.395C64.7046 318.138 64.0141 314.647 64.0175 311.123V316.561C64.0141 320.085 64.7046 323.576 66.0495 326.832C67.3943 330.089 69.3671 333.048 71.8549 335.541C74.3428 338.033 77.2968 340.009 80.5479 341.356C83.7991 342.703 87.2835 343.395 90.8018 343.392H315.067C322.17 343.392 328.983 340.565 334.006 335.533C339.029 330.501 341.851 323.677 341.851 316.561V311.2C341.831 318.302 339 325.107 333.979 330.122C328.958 335.138 322.157 337.954 315.067 337.954Z" fill="#A6F0FF"/>
<path d="M87.0555 241.939C153.035 209.721 165.242 144.724 167.179 113.656H90.8527C83.7602 113.649 76.9552 116.463 71.9329 121.48C66.9106 126.496 64.0819 133.305 64.0684 140.41V227.898C71.2724 233.293 78.9689 237.994 87.0555 241.939Z" fill="#A6F0FF"/>
<path d="M315.067 113.655H90.8018C83.7181 113.662 76.9261 116.482 71.9148 121.498C66.9035 126.513 64.0818 133.314 64.0684 140.41V145.771C64.0684 142.249 64.7613 138.761 66.1077 135.507C67.454 132.253 69.4274 129.297 71.9149 126.808C74.4024 124.318 77.3552 122.344 80.6047 120.999C83.8542 119.653 87.3366 118.962 90.8527 118.965H315.118C322.217 118.965 329.026 121.789 334.048 126.815C339.07 131.841 341.895 138.659 341.902 145.771V140.41C341.882 133.298 339.044 126.486 334.012 121.469C328.98 116.452 322.166 113.642 315.067 113.655Z" fill="white"/>
<path d="M341.851 210.717H291.723C289.567 210.717 287.432 211.144 285.442 211.975C283.452 212.805 281.645 214.022 280.126 215.555C278.608 217.088 277.407 218.907 276.594 220.907C275.78 222.907 275.37 225.049 275.387 227.209V240.739C275.387 245.079 277.108 249.242 280.172 252.31C283.235 255.379 287.39 257.103 291.723 257.103H341.851V210.717Z" fill="#A6F0FF"/>
<path d="M315.067 344.643H90.8018C83.3669 344.643 76.2366 341.684 70.9794 336.418C65.7222 331.151 62.7687 324.008 62.7687 316.561V140.41C62.7687 132.962 65.7222 125.819 70.9794 120.553C76.2366 115.287 83.3669 112.328 90.8018 112.328H190.064C190.402 112.328 190.727 112.462 190.966 112.702C191.204 112.941 191.339 113.266 191.339 113.604C191.332 113.941 191.196 114.262 190.958 114.5C190.721 114.738 190.4 114.874 190.064 114.881H90.8273C84.0683 114.881 77.5862 117.571 72.8069 122.358C68.0276 127.146 65.3426 133.639 65.3426 140.41V316.561C65.3426 323.331 68.0276 329.825 72.8069 334.612C77.5862 339.4 84.0683 342.09 90.8273 342.09H315.092C321.851 342.09 328.333 339.4 333.113 334.612C337.892 329.825 340.577 323.331 340.577 316.561V140.41C340.577 133.639 337.892 127.146 333.113 122.358C328.333 117.571 321.851 114.881 315.092 114.881H212.567C212.229 114.881 211.905 114.746 211.666 114.507C211.427 114.268 211.293 113.943 211.293 113.604C211.293 113.266 211.427 112.941 211.666 112.702C211.905 112.462 212.229 112.328 212.567 112.328H315.067C322.501 112.328 329.632 115.287 334.889 120.553C340.146 125.819 343.1 132.962 343.1 140.41V316.561C343.1 324.008 340.146 331.151 334.889 336.418C329.632 341.684 322.501 344.643 315.067 344.643Z" fill="#0C60FF"/>
<path d="M315.067 331.189H309.384C309.048 331.182 308.727 331.046 308.49 330.808C308.252 330.57 308.116 330.249 308.109 329.912C308.109 329.574 308.244 329.249 308.483 329.01C308.721 328.77 309.046 328.636 309.384 328.636H315.067C315.681 328.636 316.295 328.584 316.902 328.483C317.239 328.432 317.584 328.518 317.859 328.721C318.133 328.925 318.316 329.229 318.367 329.568C318.418 329.906 318.332 330.251 318.129 330.526C317.926 330.802 317.622 330.985 317.284 331.036C316.549 331.139 315.808 331.191 315.067 331.189ZM296.539 331.189H288.894C288.556 331.189 288.232 331.054 287.993 330.815C287.754 330.576 287.62 330.251 287.62 329.912C287.62 329.574 287.754 329.249 287.993 329.01C288.232 328.77 288.556 328.636 288.894 328.636H296.539C296.877 328.636 297.201 328.77 297.44 329.01C297.679 329.249 297.814 329.574 297.814 329.912C297.814 330.251 297.679 330.576 297.44 330.815C297.201 331.054 296.877 331.189 296.539 331.189ZM275.999 331.189H268.353C268.015 331.189 267.691 331.054 267.452 330.815C267.213 330.576 267.079 330.251 267.079 329.912C267.079 329.574 267.213 329.249 267.452 329.01C267.691 328.77 268.015 328.636 268.353 328.636H275.999C276.337 328.636 276.661 328.77 276.9 329.01C277.139 329.249 277.273 329.574 277.273 329.912C277.266 330.249 277.13 330.57 276.892 330.808C276.655 331.046 276.335 331.182 275.999 331.189ZM255.433 331.189H247.787C247.449 331.189 247.125 331.054 246.886 330.815C246.647 330.576 246.513 330.251 246.513 329.912C246.513 329.574 246.647 329.249 246.886 329.01C247.125 328.77 247.449 328.636 247.787 328.636H255.433C255.771 328.636 256.095 328.77 256.334 329.01C256.573 329.249 256.707 329.574 256.707 329.912C256.707 330.251 256.573 330.576 256.334 330.815C256.095 331.054 255.771 331.189 255.433 331.189ZM234.866 331.189H227.221C226.883 331.189 226.559 331.054 226.32 330.815C226.081 330.576 225.947 330.251 225.947 329.912C225.947 329.574 226.081 329.249 226.32 329.01C226.559 328.77 226.883 328.636 227.221 328.636H234.866C235.204 328.636 235.529 328.77 235.767 329.01C236.006 329.249 236.141 329.574 236.141 329.912C236.141 330.251 236.006 330.576 235.767 330.815C235.529 331.054 235.204 331.189 234.866 331.189ZM214.326 331.189H206.68C206.345 331.182 206.024 331.046 205.787 330.808C205.549 330.57 205.413 330.249 205.406 329.912C205.406 329.574 205.54 329.249 205.779 329.01C206.018 328.77 206.342 328.636 206.68 328.636H214.326C214.664 328.636 214.988 328.77 215.227 329.01C215.466 329.249 215.6 329.574 215.6 329.912C215.6 330.251 215.466 330.576 215.227 330.815C214.988 331.054 214.664 331.189 214.326 331.189ZM193.76 331.189H186.038C185.7 331.189 185.376 331.054 185.137 330.815C184.898 330.576 184.764 330.251 184.764 329.912C184.764 329.574 184.898 329.249 185.137 329.01C185.376 328.77 185.7 328.636 186.038 328.636H193.683C194.021 328.636 194.345 328.77 194.584 329.01C194.823 329.249 194.958 329.574 194.958 329.912C194.958 330.251 194.823 330.576 194.584 330.815C194.345 331.054 194.021 331.189 193.683 331.189H193.76ZM173.219 331.189H165.574C165.238 331.182 164.917 331.046 164.68 330.808C164.442 330.57 164.306 330.249 164.299 329.912C164.299 329.574 164.434 329.249 164.673 329.01C164.912 328.77 165.236 328.636 165.574 328.636H173.219C173.557 328.636 173.881 328.77 174.12 329.01C174.359 329.249 174.493 329.574 174.493 329.912C174.488 330.236 174.362 330.547 174.141 330.783C173.919 331.019 173.618 331.163 173.296 331.189H173.219ZM152.653 331.189H145.008C144.67 331.189 144.346 331.054 144.107 330.815C143.868 330.576 143.733 330.251 143.733 329.912C143.733 329.574 143.868 329.249 144.107 329.01C144.346 328.77 144.67 328.636 145.008 328.636H152.653C152.991 328.636 153.315 328.77 153.554 329.01C153.793 329.249 153.927 329.574 153.927 329.912C153.927 330.251 153.793 330.576 153.554 330.815C153.315 331.054 152.991 331.189 152.653 331.189ZM132.112 331.189H124.467C124.131 331.182 123.811 331.046 123.573 330.808C123.336 330.57 123.199 330.249 123.193 329.912C123.193 329.574 123.327 329.249 123.566 329.01C123.805 328.77 124.129 328.636 124.467 328.636H132.112C132.45 328.636 132.774 328.77 133.013 329.01C133.252 329.249 133.387 329.574 133.387 329.912C133.38 330.249 133.244 330.57 133.006 330.808C132.769 331.046 132.448 331.182 132.112 331.189ZM111.546 331.189H103.901C103.563 331.189 103.239 331.054 103 330.815C102.761 330.576 102.627 330.251 102.627 329.912C102.627 329.574 102.761 329.249 103 329.01C103.239 328.77 103.563 328.636 103.901 328.636H111.546C111.884 328.636 112.208 328.77 112.447 329.01C112.686 329.249 112.821 329.574 112.821 329.912C112.821 330.251 112.686 330.576 112.447 330.815C112.208 331.054 111.884 331.189 111.546 331.189ZM91.0056 331.189H90.8273C87.9948 331.189 85.2233 330.364 82.8506 328.815C82.5667 328.628 82.3683 328.337 82.299 328.004C82.2297 327.671 82.2952 327.325 82.481 327.04C82.6669 326.756 82.9579 326.557 83.2901 326.488C83.6223 326.418 83.9683 326.484 84.2522 326.67C86.2075 327.95 88.4918 328.633 90.8273 328.636C91.177 328.629 91.5159 328.758 91.7726 328.996C92.0292 329.234 92.1837 329.562 92.2034 329.912C92.2102 330.075 92.1845 330.238 92.1277 330.391C92.0708 330.544 91.9841 330.684 91.8725 330.803C91.761 330.922 91.6268 331.017 91.478 331.083C91.3291 331.15 91.1685 331.186 91.0056 331.189ZM327.07 323.709C326.886 323.759 326.693 323.759 326.509 323.709C326.358 323.635 326.224 323.533 326.112 323.407C326.001 323.281 325.916 323.134 325.862 322.975C325.807 322.817 325.785 322.648 325.795 322.481C325.806 322.313 325.849 322.149 325.923 321.998C326.755 320.326 327.183 318.48 327.172 316.612V315.054C327.178 314.718 327.315 314.397 327.552 314.159C327.79 313.921 328.11 313.785 328.446 313.778C328.784 313.778 329.108 313.912 329.347 314.152C329.586 314.391 329.72 314.716 329.72 315.054V316.561C329.726 318.826 329.211 321.062 328.217 323.096C328.096 323.29 327.927 323.449 327.725 323.556C327.524 323.664 327.298 323.716 327.07 323.709ZM77.4478 318.246C77.1204 318.24 76.8072 318.11 76.571 317.883C76.3347 317.656 76.1928 317.348 76.1736 317.02V309.361C76.1736 309.023 76.3078 308.698 76.5468 308.459C76.7858 308.219 77.1099 308.085 77.4478 308.085C77.7858 308.085 78.1099 308.219 78.3488 308.459C78.5878 308.698 78.722 309.023 78.722 309.361V317.02C78.7289 317.188 78.7026 317.355 78.6448 317.513C78.587 317.67 78.4988 317.815 78.3852 317.938C78.2716 318.061 78.1348 318.161 77.9827 318.231C77.8306 318.302 77.6662 318.341 77.4988 318.348L77.4478 318.246ZM328.446 303.337C328.108 303.337 327.784 303.202 327.545 302.963C327.306 302.723 327.172 302.399 327.172 302.06V294.401C327.172 294.063 327.306 293.738 327.545 293.499C327.784 293.259 328.108 293.125 328.446 293.125C328.784 293.125 329.108 293.259 329.347 293.499C329.586 293.738 329.72 294.063 329.72 294.401V302.06C329.72 302.228 329.687 302.394 329.623 302.549C329.559 302.703 329.465 302.844 329.347 302.963C329.229 303.081 329.088 303.175 328.934 303.239C328.779 303.304 328.613 303.337 328.446 303.337ZM77.4478 297.669C77.1099 297.669 76.7858 297.535 76.5468 297.295C76.3078 297.056 76.1736 296.731 76.1736 296.393V288.734C76.1736 288.395 76.3078 288.071 76.5468 287.831C76.7858 287.592 77.1099 287.457 77.4478 287.457C77.7858 287.457 78.1099 287.592 78.3488 287.831C78.5878 288.071 78.722 288.395 78.722 288.734V296.393C78.722 296.731 78.5878 297.056 78.3488 297.295C78.1099 297.535 77.7858 297.669 77.4478 297.669ZM328.446 282.76C328.11 282.754 327.79 282.617 327.552 282.379C327.315 282.141 327.178 281.82 327.172 281.484V273.825C327.172 273.486 327.306 273.162 327.545 272.922C327.784 272.683 328.108 272.548 328.446 272.548C328.784 272.548 329.108 272.683 329.347 272.922C329.586 273.162 329.72 273.486 329.72 273.825V281.484C329.72 281.822 329.586 282.147 329.347 282.386C329.108 282.626 328.784 282.76 328.446 282.76ZM77.4478 277.067C77.1099 277.067 76.7858 276.933 76.5468 276.693C76.3078 276.454 76.1736 276.129 76.1736 275.791V268.132C76.1736 267.793 76.3078 267.469 76.5468 267.229C76.7858 266.99 77.1099 266.855 77.4478 266.855C77.7858 266.855 78.1099 266.99 78.3488 267.229C78.5878 267.469 78.722 267.793 78.722 268.132V275.791C78.722 275.958 78.6891 276.124 78.6251 276.279C78.561 276.434 78.4672 276.575 78.3488 276.693C78.2305 276.812 78.09 276.906 77.9354 276.97C77.7808 277.034 77.6152 277.067 77.4478 277.067ZM328.446 262.158C328.108 262.158 327.784 262.024 327.545 261.784C327.306 261.545 327.172 261.22 327.172 260.882V253.223C327.172 252.884 327.306 252.56 327.545 252.32C327.784 252.081 328.108 251.947 328.446 251.947C328.784 251.947 329.108 252.081 329.347 252.32C329.586 252.56 329.72 252.884 329.72 253.223V260.882C329.72 261.049 329.687 261.215 329.623 261.37C329.559 261.525 329.465 261.666 329.347 261.784C329.229 261.903 329.088 261.997 328.934 262.061C328.779 262.125 328.613 262.158 328.446 262.158ZM77.4478 256.465C77.1099 256.465 76.7858 256.331 76.5468 256.091C76.3078 255.852 76.1736 255.527 76.1736 255.189V247.53C76.1736 247.191 76.3078 246.867 76.5468 246.627C76.7858 246.388 77.1099 246.254 77.4478 246.254C77.7858 246.254 78.1099 246.388 78.3488 246.627C78.5878 246.867 78.722 247.191 78.722 247.53V255.189C78.722 255.527 78.5878 255.852 78.3488 256.091C78.1099 256.331 77.7858 256.465 77.4478 256.465ZM328.446 241.556C328.108 241.556 327.784 241.422 327.545 241.182C327.306 240.943 327.172 240.618 327.172 240.28V232.621C327.172 232.282 327.306 231.958 327.545 231.718C327.784 231.479 328.108 231.345 328.446 231.345C328.784 231.345 329.108 231.479 329.347 231.718C329.586 231.958 329.72 232.282 329.72 232.621V240.28C329.72 240.447 329.687 240.613 329.623 240.768C329.559 240.923 329.465 241.064 329.347 241.182C329.229 241.301 329.088 241.395 328.934 241.459C328.779 241.523 328.613 241.556 328.446 241.556ZM77.4478 235.889C77.1099 235.889 76.7858 235.754 76.5468 235.515C76.3078 235.275 76.1736 234.951 76.1736 234.612V226.954C76.1736 226.615 76.3078 226.29 76.5468 226.051C76.7858 225.812 77.1099 225.677 77.4478 225.677C77.7858 225.677 78.1099 225.812 78.3488 226.051C78.5878 226.29 78.722 226.615 78.722 226.954V234.612C78.722 234.951 78.5878 235.275 78.3488 235.515C78.1099 235.754 77.7858 235.889 77.4478 235.889ZM328.446 220.98C328.108 220.98 327.784 220.845 327.545 220.606C327.306 220.366 327.172 220.042 327.172 219.703V211.891C327.178 211.555 327.315 211.234 327.552 210.996C327.79 210.758 328.11 210.621 328.446 210.615C328.784 210.615 329.108 210.749 329.347 210.989C329.586 211.228 329.72 211.553 329.72 211.891V219.55C329.742 219.73 329.725 219.913 329.671 220.086C329.617 220.259 329.526 220.418 329.406 220.553C329.285 220.689 329.137 220.797 328.972 220.87C328.806 220.944 328.627 220.981 328.446 220.98ZM77.4478 215.287C77.1099 215.287 76.7858 215.152 76.5468 214.913C76.3078 214.674 76.1736 214.349 76.1736 214.01V206.352C76.1736 206.013 76.3078 205.688 76.5468 205.449C76.7858 205.21 77.1099 205.075 77.4478 205.075C77.7858 205.075 78.1099 205.21 78.3488 205.449C78.5878 205.688 78.722 206.013 78.722 206.352V214.01C78.722 214.349 78.5878 214.674 78.3488 214.913C78.1099 215.152 77.7858 215.287 77.4478 215.287ZM328.446 200.378C328.108 200.378 327.784 200.243 327.545 200.004C327.306 199.765 327.172 199.44 327.172 199.101V191.468C327.172 191.13 327.306 190.805 327.545 190.566C327.784 190.326 328.108 190.192 328.446 190.192C328.784 190.192 329.108 190.326 329.347 190.566C329.586 190.805 329.72 191.13 329.72 191.468V199.127C329.714 199.461 329.576 199.779 329.338 200.013C329.1 200.247 328.78 200.378 328.446 200.378ZM77.4478 194.71C77.1099 194.71 76.7858 194.576 76.5468 194.336C76.3078 194.097 76.1736 193.772 76.1736 193.434V185.775C76.1736 185.437 76.3078 185.112 76.5468 184.873C76.7858 184.633 77.1099 184.499 77.4478 184.499C77.7858 184.499 78.1099 184.633 78.3488 184.873C78.5878 185.112 78.722 185.437 78.722 185.775V193.434C78.722 193.772 78.5878 194.097 78.3488 194.336C78.1099 194.576 77.7858 194.71 77.4478 194.71ZM328.446 179.801C328.11 179.795 327.79 179.658 327.552 179.42C327.315 179.182 327.178 178.861 327.172 178.525V170.866C327.178 170.53 327.315 170.209 327.552 169.971C327.79 169.733 328.11 169.596 328.446 169.59C328.784 169.59 329.108 169.724 329.347 169.964C329.586 170.203 329.72 170.528 329.72 170.866V178.525C329.72 178.693 329.687 178.858 329.623 179.013C329.559 179.168 329.465 179.309 329.347 179.427C329.229 179.546 329.088 179.64 328.934 179.704C328.779 179.768 328.613 179.801 328.446 179.801ZM77.4478 174.108C77.1099 174.108 76.7858 173.974 76.5468 173.734C76.3078 173.495 76.1736 173.17 76.1736 172.832V165.173C76.1736 164.835 76.3078 164.51 76.5468 164.271C76.7858 164.031 77.1099 163.897 77.4478 163.897C77.7858 163.897 78.1099 164.031 78.3488 164.271C78.5878 164.51 78.722 164.835 78.722 165.173V172.832C78.722 173.17 78.5878 173.495 78.3488 173.734C78.1099 173.974 77.7858 174.108 77.4478 174.108ZM328.446 159.199C328.108 159.199 327.784 159.065 327.545 158.825C327.306 158.586 327.172 158.261 327.172 157.923V150.264C327.172 149.926 327.306 149.601 327.545 149.362C327.784 149.122 328.108 148.988 328.446 148.988C328.784 148.988 329.108 149.122 329.347 149.362C329.586 149.601 329.72 149.926 329.72 150.264V157.923C329.72 158.261 329.586 158.586 329.347 158.825C329.108 159.065 328.784 159.199 328.446 159.199ZM77.4478 153.532C77.1099 153.532 76.7858 153.397 76.5468 153.158C76.3078 152.919 76.1736 152.594 76.1736 152.255V144.597C76.1736 144.258 76.3078 143.934 76.5468 143.694C76.7858 143.455 77.1099 143.32 77.4478 143.32C77.7858 143.32 78.1099 143.455 78.3488 143.694C78.5878 143.934 78.722 144.258 78.722 144.597V152.255C78.722 152.594 78.5878 152.919 78.3488 153.158C78.1099 153.397 77.7858 153.532 77.4478 153.532ZM328.089 138.648C327.8 138.645 327.521 138.546 327.294 138.365C327.068 138.185 326.909 137.934 326.841 137.653C326.305 135.372 325.118 133.296 323.426 131.679C323.307 131.563 323.213 131.424 323.148 131.27C323.084 131.117 323.051 130.952 323.051 130.785C323.051 130.619 323.084 130.454 323.148 130.301C323.213 130.147 323.307 130.008 323.426 129.892C323.544 129.772 323.685 129.677 323.84 129.613C323.996 129.548 324.162 129.514 324.33 129.514C324.499 129.514 324.665 129.548 324.82 129.613C324.976 129.677 325.117 129.772 325.235 129.892C327.288 131.847 328.73 134.357 329.389 137.117C329.466 137.445 329.41 137.79 329.233 138.077C329.056 138.364 328.773 138.57 328.446 138.648H328.089ZM80.2511 133.543C79.9641 133.539 79.6863 133.44 79.4611 133.262C79.1947 133.055 79.0209 132.751 78.978 132.416C78.935 132.081 79.0262 131.742 79.2317 131.475C80.9588 129.223 83.3067 127.528 85.9852 126.599C86.294 126.519 86.6214 126.559 86.9025 126.71C87.1837 126.86 87.3982 127.111 87.5038 127.412C87.6095 127.714 87.5984 128.044 87.473 128.337C87.3475 128.631 87.1167 128.867 86.8262 128.998C84.6147 129.772 82.6756 131.174 81.245 133.032C81.133 133.193 80.9847 133.326 80.812 133.419C80.6393 133.512 80.4472 133.563 80.2511 133.568V133.543ZM312.416 128.437H304.771C304.433 128.437 304.109 128.302 303.87 128.063C303.631 127.824 303.497 127.499 303.497 127.16C303.497 126.822 303.631 126.497 303.87 126.258C304.109 126.018 304.433 125.884 304.771 125.884H312.416C312.754 125.884 313.078 126.018 313.317 126.258C313.556 126.497 313.69 126.822 313.69 127.16C313.69 127.499 313.556 127.824 313.317 128.063C313.078 128.302 312.754 128.437 312.416 128.437ZM291.85 128.437H284.205C283.867 128.437 283.543 128.302 283.304 128.063C283.065 127.824 282.93 127.499 282.93 127.16C282.93 126.822 283.065 126.497 283.304 126.258C283.543 126.018 283.867 125.884 284.205 125.884H291.85C292.188 125.884 292.512 126.018 292.751 126.258C292.99 126.497 293.124 126.822 293.124 127.16C293.124 127.499 292.99 127.824 292.751 128.063C292.512 128.302 292.188 128.437 291.85 128.437ZM271.309 128.437H263.664C263.326 128.437 263.002 128.302 262.763 128.063C262.524 127.824 262.39 127.499 262.39 127.16C262.39 126.822 262.524 126.497 262.763 126.258C263.002 126.018 263.326 125.884 263.664 125.884H271.309C271.647 125.884 271.972 126.018 272.211 126.258C272.449 126.497 272.584 126.822 272.584 127.16C272.584 127.499 272.449 127.824 272.211 128.063C271.972 128.302 271.647 128.437 271.309 128.437ZM250.743 128.437H243.098C242.76 128.437 242.436 128.302 242.197 128.063C241.958 127.824 241.824 127.499 241.824 127.16C241.824 126.822 241.958 126.497 242.197 126.258C242.436 126.018 242.76 125.884 243.098 125.884H250.743C251.081 125.884 251.405 126.018 251.644 126.258C251.883 126.497 252.018 126.822 252.018 127.16C252.018 127.499 251.883 127.824 251.644 128.063C251.405 128.302 251.081 128.437 250.743 128.437ZM230.203 128.437H222.557C222.219 128.437 221.895 128.302 221.656 128.063C221.417 127.824 221.283 127.499 221.283 127.16C221.283 126.822 221.417 126.497 221.656 126.258C221.895 126.018 222.219 125.884 222.557 125.884H230.203C230.541 125.884 230.865 126.018 231.104 126.258C231.343 126.497 231.477 126.822 231.477 127.16C231.477 127.499 231.343 127.824 231.104 128.063C230.865 128.302 230.541 128.437 230.203 128.437ZM209.637 128.437H201.991C201.653 128.437 201.329 128.302 201.09 128.063C200.851 127.824 200.717 127.499 200.717 127.16C200.717 126.822 200.851 126.497 201.09 126.258C201.329 126.018 201.653 125.884 201.991 125.884H209.637C209.975 125.884 210.299 126.018 210.538 126.258C210.777 126.497 210.911 126.822 210.911 127.16C210.911 127.499 210.777 127.824 210.538 128.063C210.299 128.302 209.975 128.437 209.637 128.437ZM189.096 128.437H181.451C181.113 128.437 180.789 128.302 180.55 128.063C180.311 127.824 180.176 127.499 180.176 127.16C180.176 126.822 180.311 126.497 180.55 126.258C180.789 126.018 181.113 125.884 181.451 125.884H189.096C189.434 125.884 189.758 126.018 189.997 126.258C190.236 126.497 190.37 126.822 190.37 127.16C190.37 127.499 190.236 127.824 189.997 128.063C189.758 128.302 189.434 128.437 189.096 128.437ZM168.53 128.437H160.885C160.547 128.437 160.222 128.302 159.984 128.063C159.745 127.824 159.61 127.499 159.61 127.16C159.61 126.822 159.745 126.497 159.984 126.258C160.222 126.018 160.547 125.884 160.885 125.884H168.53C168.868 125.884 169.192 126.018 169.431 126.258C169.67 126.497 169.804 126.822 169.804 127.16C169.804 127.499 169.67 127.824 169.431 128.063C169.192 128.302 168.868 128.437 168.53 128.437ZM147.989 128.437H140.166C139.828 128.437 139.503 128.302 139.265 128.063C139.026 127.824 138.891 127.499 138.891 127.16C138.891 126.822 139.026 126.497 139.265 126.258C139.503 126.018 139.828 125.884 140.166 125.884H147.811C148.149 125.884 148.473 126.018 148.712 126.258C148.951 126.497 149.085 126.822 149.085 127.16C149.085 127.499 148.951 127.824 148.712 128.063C148.473 128.302 148.149 128.437 147.811 128.437H147.989ZM127.423 128.437H119.778C119.44 128.437 119.116 128.302 118.877 128.063C118.638 127.824 118.504 127.499 118.504 127.16C118.504 126.822 118.638 126.497 118.877 126.258C119.116 126.018 119.44 125.884 119.778 125.884H127.423C127.761 125.884 128.085 126.018 128.324 126.258C128.563 126.497 128.697 126.822 128.697 127.16C128.697 127.499 128.563 127.824 128.324 128.063C128.085 128.302 127.761 128.437 127.423 128.437ZM106.857 128.437H99.2117C98.8738 128.437 98.5497 128.302 98.3107 128.063C98.0717 127.824 97.9375 127.499 97.9375 127.16C97.9375 126.822 98.0717 126.497 98.3107 126.258C98.5497 126.018 98.8738 125.884 99.2117 125.884H106.857C107.195 125.884 107.519 126.018 107.758 126.258C107.997 126.497 108.131 126.822 108.131 127.16C108.131 127.499 107.997 127.824 107.758 128.063C107.519 128.302 107.195 128.437 106.857 128.437Z" fill="#0C60FF"/>
<path d="M350.643 251.615H291.723C289.575 251.615 287.449 251.191 285.465 250.367C283.482 249.543 281.68 248.335 280.163 246.813C278.645 245.29 277.443 243.483 276.623 241.495C275.804 239.507 275.384 237.376 275.387 235.225V221.72C275.387 217.38 277.108 213.218 280.172 210.149C283.235 207.08 287.39 205.356 291.723 205.356H350.643V251.615Z" fill="#A6F0FF"/>
<path d="M350.643 252.891H291.723C287.05 252.884 282.571 251.02 279.269 247.708C275.967 244.395 274.113 239.906 274.113 235.225V221.72C274.12 217.044 275.977 212.561 279.278 209.254C282.579 205.947 287.054 204.086 291.723 204.079H350.643C350.981 204.079 351.305 204.214 351.544 204.453C351.783 204.693 351.917 205.017 351.917 205.356V251.615C351.917 251.953 351.783 252.278 351.544 252.517C351.305 252.757 350.981 252.891 350.643 252.891ZM291.723 206.632C287.73 206.639 283.903 208.231 281.08 211.059C278.257 213.887 276.668 217.721 276.661 221.72V235.225C276.661 239.229 278.247 243.069 281.071 245.903C283.895 248.736 287.726 250.331 291.723 250.338H349.369V206.632H291.723Z" fill="#0C60FF"/>
<path d="M161.955 90.9602C102.142 93.2322 81.7038 57.5681 81.7038 57.5681C81.7038 57.5681 61.1631 93.2322 1.45262 90.9602C1.45262 90.9602 -6.88085 193.332 81.7038 236.476C170.288 193.332 161.955 90.9602 161.955 90.9602Z" fill="white"/>
<path d="M161.955 90.9602C102.142 93.2322 81.7038 57.5681 81.7038 57.5681C81.7038 57.5681 61.1631 93.2322 1.45262 90.9602C1.45262 90.9602 -6.88085 193.332 81.7038 236.476C170.288 193.332 161.955 90.9602 161.955 90.9602Z" fill="#EFF8FF"/>
<path d="M81.7038 237.829C81.5202 237.879 81.3267 237.879 81.1432 237.829C-7.18662 194.608 5.18002e-05 91.9046 0.178444 90.8579C0.204538 90.5283 0.357242 90.2218 0.604414 90.0028C0.851587 89.7837 1.17395 89.6693 1.50365 89.6835C59.838 91.879 80.506 57.2871 80.506 56.9553C80.6219 56.7589 80.7855 56.5951 80.9816 56.479C81.1776 56.363 81.3997 56.2985 81.6274 56.2915C81.8528 56.2927 82.0737 56.3551 82.2667 56.472C82.4596 56.5888 82.6174 56.7558 82.7232 56.9553C82.9271 57.2616 102.27 89.7857 156.425 89.7857C158.183 89.7857 159.993 89.7857 161.828 89.7857C162.157 89.7714 162.48 89.8858 162.727 90.1049C162.974 90.3239 163.127 90.6305 163.153 90.96C163.153 91.9812 170.518 194.71 82.188 237.803C82.0304 237.847 81.8652 237.856 81.7038 237.829ZM2.70142 92.313C2.16625 103.929 0.739106 195.246 81.7038 235.276C162.719 195.323 161.267 104.005 160.706 92.313C109.125 93.8193 86.6478 66.9882 81.7038 59.9422C76.6833 66.9371 54.1039 93.7937 2.54852 92.262L2.70142 92.313Z" fill="#0C60FF"/>
<path d="M81.7038 221.465C24.8476 190.141 15.9025 130.045 14.7811 104.261C48.8796 102.423 70.0573 88.9434 81.7038 78.0425C93.3503 88.8923 114.681 102.448 148.703 104.261C147.811 130.198 139.095 189.911 81.7038 221.465Z" fill="#A6F0FF"/>
<path d="M81.7038 80.7231C93.3503 91.5729 114.503 105.103 148.601 106.941C148.601 106.022 148.601 105.103 148.601 104.389C114.452 102.576 93.2483 89.0711 81.6019 78.1702C70.0573 88.8924 48.8796 102.423 14.7811 104.261C14.7811 105.103 14.7811 105.997 14.7811 106.814C48.9305 105.052 70.0573 91.5474 81.7038 80.7231Z" fill="white"/>
<path d="M81.7038 222.741C81.4903 222.742 81.28 222.69 81.0921 222.588C23.3694 190.779 14.6027 129.279 13.5068 104.312C13.4929 103.977 13.6106 103.651 13.8347 103.403C14.0587 103.154 14.3711 103.004 14.7046 102.984C48.3189 101.172 69.2163 87.9221 80.9647 77.1233C81.2003 76.9043 81.5098 76.7827 81.8312 76.7827C82.1525 76.7827 82.462 76.9043 82.6977 77.1233C94.3186 87.9221 115.242 101.197 148.958 102.984C149.289 103.01 149.598 103.162 149.82 103.409C150.043 103.656 150.163 103.979 150.156 104.312C149.238 129.177 140.803 190.523 82.4938 222.588C82.2521 222.718 81.9765 222.772 81.7038 222.741ZM16.1063 105.461C17.406 130.658 26.606 189.247 81.7038 220.01C137.388 188.915 146.256 130.556 147.378 105.461C114.502 103.418 93.6306 90.6026 81.7038 79.7783C69.7769 90.5771 48.9305 103.393 16.1063 105.461Z" fill="#0C60FF"/>
<path opacity="0.5" d="M221.181 85.7011C241.196 85.7011 257.42 69.448 257.42 49.3988C257.42 29.3496 241.196 13.0964 221.181 13.0964C201.167 13.0964 184.942 29.3496 184.942 49.3988C184.942 69.448 201.167 85.7011 221.181 85.7011Z" fill="#A6F0FF"/>
<path d="M218.837 81.0039C238.851 81.0039 255.076 64.7508 255.076 44.7015C255.076 24.6523 238.851 8.39917 218.837 8.39917C198.822 8.39917 182.597 24.6523 182.597 44.7015C182.597 64.7508 198.822 81.0039 218.837 81.0039Z" fill="#A6F0FF"/>
<path d="M218.837 11.0541C228.201 11.0603 237.2 14.6975 243.946 21.2034C250.692 27.7093 254.663 36.5786 255.025 45.9524C255.025 45.5184 255.025 45.0589 255.025 44.6249C255.025 34.9969 251.207 25.7632 244.411 18.9552C237.614 12.1472 228.397 8.32251 218.786 8.32251C209.174 8.32251 199.957 12.1472 193.161 18.9552C186.365 25.7632 182.547 34.9969 182.547 44.6249C182.547 45.0589 182.547 45.5184 182.547 45.9524C182.897 36.5567 186.877 27.6649 193.648 21.1536C200.419 14.6423 209.451 11.0211 218.837 11.0541Z" fill="white"/>
<path d="M218.837 82.2802C211.41 82.2853 204.149 80.0835 197.972 75.9534C191.794 71.8233 186.979 65.9506 184.135 59.0782C181.29 52.2059 180.545 44.6428 181.992 37.3459C183.44 30.049 187.016 23.3462 192.267 18.0856C197.519 12.825 204.21 9.24302 211.494 7.79286C218.778 6.34271 226.328 7.08955 233.188 9.93889C240.049 12.7882 245.911 17.612 250.034 23.8C254.157 29.9879 256.355 37.2618 256.35 44.7014C256.336 54.6638 252.38 64.2142 245.348 71.2587C238.315 78.3032 228.782 82.2667 218.837 82.2802ZM218.837 9.64998C211.915 9.64493 205.148 11.6964 199.39 15.5448C193.633 19.3932 189.144 24.8657 186.491 31.2701C183.839 37.6745 183.143 44.7229 184.49 51.5239C185.837 58.3249 189.168 64.5729 194.06 69.4775C198.953 74.382 205.187 77.7229 211.975 79.0774C218.764 80.432 225.8 79.7393 232.195 77.0871C238.591 74.4349 244.057 69.9423 247.903 64.1776C251.749 58.4129 253.802 51.635 253.802 44.7014C253.795 35.4117 250.11 26.504 243.555 19.9328C237 13.3616 228.11 9.6635 218.837 9.64998Z" fill="#0C60FF"/>
<path d="M218.837 74.6982C212.907 74.7033 207.109 72.9461 202.177 69.6492C197.244 66.3523 193.399 61.6637 191.127 56.1768C188.856 50.6899 188.26 44.6514 189.416 38.8252C190.571 32.9991 193.426 27.6473 197.619 23.4471C201.812 19.2469 207.155 16.387 212.971 15.2294C218.787 14.0718 224.815 14.6685 230.292 16.944C235.769 19.2195 240.45 23.0715 243.741 28.0125C247.032 32.9535 248.786 38.7615 248.781 44.7015C248.774 52.6551 245.617 60.2809 240.003 65.9049C234.389 71.5289 226.776 74.6914 218.837 74.6982ZM218.837 15.9813C213.159 15.9763 207.607 17.6585 202.885 20.8152C198.162 23.9719 194.48 28.4611 192.305 33.7148C190.13 38.9684 189.559 44.7503 190.666 50.3288C191.772 55.9073 194.505 61.0317 198.52 65.0534C202.535 69.0751 207.65 71.8134 213.219 72.9217C218.788 74.0301 224.56 73.4586 229.804 71.2798C235.049 69.1009 239.53 65.4125 242.681 60.6814C245.833 55.9503 247.512 50.3891 247.507 44.7015C247.5 37.0842 244.478 29.7804 239.104 24.3917C233.729 19.003 226.441 15.9693 218.837 15.9558V15.9813Z" fill="white"/>
<path d="M312.569 231.166C312.549 233.439 311.858 235.654 310.583 237.534C309.308 239.414 307.506 240.874 305.404 241.73C303.302 242.586 300.994 242.799 298.772 242.343C296.549 241.888 294.51 240.783 292.913 239.169C291.316 237.555 290.231 235.503 289.796 233.273C289.361 231.042 289.594 228.732 290.467 226.634C291.34 224.536 292.813 222.744 294.701 221.484C296.589 220.223 298.807 219.55 301.076 219.55C302.594 219.55 304.097 219.851 305.498 220.436C306.899 221.021 308.17 221.878 309.239 222.958C310.308 224.038 311.152 225.32 311.724 226.728C312.295 228.137 312.583 229.645 312.569 231.166Z" fill="#A6F0FF"/>
<path d="M298.4 239.999C304.747 239.999 309.893 234.844 309.893 228.485C309.893 222.127 304.747 216.972 298.4 216.972C292.052 216.972 286.906 222.127 286.906 228.485C286.906 234.844 292.052 239.999 298.4 239.999Z" fill="#F2F7FA"/>
<path d="M298.4 241.275C295.879 241.275 293.416 240.527 291.32 239.124C289.225 237.722 287.592 235.728 286.627 233.396C285.663 231.063 285.411 228.497 285.902 226.021C286.394 223.544 287.607 221.27 289.389 219.485C291.172 217.7 293.442 216.484 295.914 215.991C298.386 215.499 300.948 215.752 303.276 216.718C305.604 217.684 307.594 219.32 308.995 221.419C310.395 223.518 311.142 225.986 311.142 228.511C311.142 231.896 309.8 235.143 307.41 237.537C305.02 239.93 301.779 241.275 298.4 241.275ZM298.4 218.299C296.384 218.299 294.413 218.898 292.736 220.02C291.06 221.142 289.753 222.737 288.982 224.603C288.21 226.469 288.008 228.522 288.402 230.503C288.795 232.484 289.766 234.303 291.192 235.731C292.617 237.16 294.434 238.132 296.411 238.526C298.388 238.92 300.438 238.718 302.301 237.945C304.163 237.172 305.755 235.863 306.876 234.184C307.996 232.505 308.594 230.53 308.594 228.511C308.6 227.165 308.342 225.832 307.832 224.587C307.323 223.342 306.573 222.211 305.626 221.257C304.679 220.303 303.553 219.547 302.313 219.03C301.072 218.514 299.743 218.248 298.4 218.248V218.299Z" fill="#0C60FF"/>
<path d="M81.7548 89.3518C98.2973 100.948 117.679 107.814 137.821 109.213C136.063 134.028 126.633 182.712 81.7548 211.942V89.3518Z" fill="#EFF8FF"/>
<path d="M196.002 259.656H109.635V296.239H196.002V259.656Z" fill="#A6F0FF"/>
<path d="M193.327 256.976H106.959V293.559H193.327V256.976Z" fill="#EFF8FF"/>
<path d="M213.816 180.848C213.647 180.852 213.479 180.823 213.322 180.762C213.164 180.7 213.02 180.608 212.899 180.491C212.664 180.248 212.532 179.923 212.532 179.584C212.532 179.246 212.664 178.921 212.899 178.678L229.362 162.11C229.48 161.99 229.621 161.895 229.776 161.83C229.932 161.765 230.098 161.732 230.266 161.732C230.435 161.732 230.601 161.765 230.756 161.83C230.912 161.895 231.053 161.99 231.171 162.11C231.405 162.348 231.535 162.669 231.535 163.003C231.535 163.337 231.405 163.658 231.171 163.897L214.606 180.491C214.397 180.704 214.115 180.832 213.816 180.848Z" fill="#0C60FF"/>
<path d="M230.356 175.002C230.024 174.999 229.706 174.871 229.464 174.644C229.344 174.526 229.249 174.385 229.185 174.229C229.12 174.073 229.087 173.907 229.087 173.738C229.087 173.57 229.12 173.403 229.185 173.247C229.249 173.092 229.344 172.95 229.464 172.832L237.491 164.79C237.61 164.671 237.751 164.576 237.906 164.511C238.061 164.446 238.228 164.413 238.396 164.413C238.564 164.413 238.731 164.446 238.886 164.511C239.041 164.576 239.182 164.671 239.301 164.79C239.534 165.029 239.665 165.35 239.665 165.684C239.665 166.018 239.534 166.339 239.301 166.577L231.273 174.644C231.022 174.873 230.695 175 230.356 175.002Z" fill="#0C60FF"/>
<path opacity="0.5" d="M437.699 255.138C454.42 255.138 467.975 241.559 467.975 224.809C467.975 208.059 454.42 194.481 437.699 194.481C420.978 194.481 407.423 208.059 407.423 224.809C407.423 241.559 420.978 255.138 437.699 255.138Z" fill="#A6F0FF"/>
<path d="M435.736 251.206C452.457 251.206 466.012 237.628 466.012 220.878C466.012 204.128 452.457 190.549 435.736 190.549C419.016 190.549 405.461 204.128 405.461 220.878C405.461 237.628 419.016 251.206 435.736 251.206Z" fill="#A6F0FF"/>
<path d="M435.787 193.23C443.584 193.235 451.077 196.254 456.708 201.656C462.338 207.058 465.671 214.428 466.012 222.231C466.012 221.771 466.012 221.337 466.012 220.878C466.012 212.834 462.822 205.12 457.145 199.432C451.467 193.744 443.766 190.549 435.736 190.549C427.707 190.549 420.006 193.744 414.328 199.432C408.65 205.12 405.461 212.834 405.461 220.878C405.461 221.337 405.461 221.771 405.461 222.231C405.796 214.408 409.142 207.02 414.795 201.613C420.449 196.207 427.972 193.203 435.787 193.23Z" fill="white"/>
<path d="M435.787 252.483C429.547 252.483 423.448 250.629 418.259 247.156C413.071 243.683 409.027 238.747 406.639 232.972C404.251 227.197 403.626 220.843 404.844 214.712C406.061 208.581 409.066 202.95 413.478 198.529C417.891 194.109 423.512 191.099 429.632 189.88C435.752 188.66 442.096 189.286 447.861 191.678C453.626 194.071 458.554 198.121 462.02 203.319C465.487 208.516 467.337 214.627 467.337 220.878C467.331 229.258 464.004 237.293 458.089 243.218C452.174 249.144 444.153 252.476 435.787 252.483ZM435.787 191.826C430.051 191.826 424.444 193.529 419.675 196.722C414.906 199.914 411.189 204.451 408.994 209.76C406.798 215.068 406.224 220.91 407.343 226.545C408.462 232.181 411.224 237.358 415.28 241.421C419.336 245.484 424.504 248.25 430.13 249.371C435.755 250.492 441.586 249.917 446.886 247.718C452.185 245.519 456.715 241.796 459.901 237.018C463.088 232.24 464.789 226.624 464.789 220.878C464.782 213.175 461.725 205.789 456.287 200.342C450.85 194.895 443.477 191.832 435.787 191.826Z" fill="#0C60FF"/>
<path d="M435.787 246.049C430.818 246.049 425.959 244.573 421.827 241.807C417.695 239.041 414.474 235.11 412.572 230.51C410.67 225.911 410.173 220.85 411.142 215.967C412.112 211.084 414.505 206.599 418.019 203.079C421.534 199.558 426.011 197.161 430.885 196.19C435.76 195.218 440.812 195.717 445.403 197.622C449.995 199.527 453.919 202.754 456.68 206.893C459.442 211.032 460.915 215.899 460.915 220.878C460.909 227.551 458.259 233.95 453.548 238.669C448.837 243.388 442.45 246.043 435.787 246.049ZM435.787 196.982C431.07 196.982 426.458 198.384 422.535 201.009C418.612 203.635 415.555 207.367 413.75 211.733C411.944 216.1 411.472 220.904 412.392 225.539C413.313 230.175 415.584 234.432 418.92 237.774C422.256 241.116 426.507 243.392 431.134 244.314C435.761 245.236 440.557 244.762 444.916 242.954C449.275 241.145 453 238.083 455.621 234.153C458.242 230.224 459.641 225.604 459.641 220.878C459.634 214.542 457.119 208.468 452.647 203.989C448.175 199.509 442.112 196.989 435.787 196.982Z" fill="white"/>
<path opacity="0.5" d="M454.842 82.3974C460.588 46.6222 436.294 12.9546 400.582 7.19875C364.869 1.44288 331.26 25.7783 325.514 61.5535C319.768 97.3287 344.061 130.996 379.774 136.752C415.487 142.508 449.096 118.173 454.842 82.3974Z" fill="#A6F0FF"/>
<path d="M449.739 77.3092C455.485 41.5341 431.192 7.86649 395.479 2.11062C359.766 -3.64526 326.157 20.6902 320.411 56.4654C314.665 92.2406 338.958 125.908 374.671 131.664C410.384 137.42 443.993 113.084 449.739 77.3092Z" fill="#A6F0FF"/>
<path d="M385.098 3.8548C402.242 3.8581 418.7 10.5945 430.941 22.6178C443.181 34.6411 450.228 50.9928 450.568 68.1626C450.568 67.7541 450.568 67.3201 450.568 66.8861C450.568 49.4853 443.668 32.7972 431.385 20.493C419.102 8.1888 402.443 1.27637 385.073 1.27637C367.702 1.27637 351.043 8.1888 338.761 20.493C326.478 32.7972 319.577 49.4853 319.577 66.8861C319.577 67.3201 319.577 67.7541 319.577 68.1626C319.918 50.984 326.972 34.6247 339.223 22.5999C351.475 10.5752 367.946 3.84474 385.098 3.8548Z" fill="white"/>
<path d="M385.098 133.772C371.893 133.772 358.983 129.85 348.003 122.5C337.023 115.151 328.465 104.704 323.411 92.4825C318.358 80.2606 317.035 66.812 319.612 53.8374C322.188 40.8627 328.547 28.9447 337.885 19.5905C347.223 10.2363 359.12 3.86605 372.072 1.28523C385.024 -1.29559 398.45 0.0289808 410.65 5.09144C422.851 10.1539 433.279 18.7269 440.615 29.7262C447.952 40.7256 451.868 53.6574 451.868 66.8862C451.848 84.6193 444.807 101.62 432.289 114.16C419.772 126.699 402.801 133.752 385.098 133.772ZM385.098 2.55294C372.397 2.55294 359.98 6.32602 349.419 13.3951C338.858 20.4641 330.626 30.5116 325.766 42.2669C320.905 54.0223 319.633 66.9576 322.111 79.437C324.589 91.9165 330.706 103.38 339.687 112.377C348.669 121.374 360.112 127.501 372.569 129.983C385.027 132.466 397.94 131.192 409.675 126.322C421.41 121.453 431.44 113.207 438.496 102.628C445.553 92.0483 449.32 79.6101 449.32 66.8862C449.306 49.8281 442.536 33.4726 430.495 21.4107C418.454 9.34875 402.127 2.56646 385.098 2.55294Z" fill="#0C60FF"/>
<path d="M134.508 64.3844C134.172 64.3779 133.852 64.2413 133.614 64.0033C133.377 63.7654 133.24 63.4445 133.234 63.108C133.234 59.7226 131.891 56.4759 129.502 54.0821C127.112 51.6883 123.871 50.3434 120.491 50.3434C120.153 50.3434 119.829 50.209 119.59 49.9696C119.351 49.7302 119.217 49.4055 119.217 49.067C119.217 48.7285 119.351 48.4038 119.59 48.1644C119.829 47.925 120.153 47.7905 120.491 47.7905C122.198 47.7953 123.888 47.4568 125.461 46.7949C126.974 46.142 128.349 45.2063 129.513 44.0378C130.703 42.8492 131.647 41.4366 132.29 39.8812C132.933 38.3258 133.262 36.6584 133.259 34.9749C133.266 34.6384 133.402 34.3176 133.64 34.0796C133.877 33.8416 134.198 33.705 134.533 33.6985C134.871 33.6985 135.195 33.833 135.434 34.0724C135.673 34.3117 135.808 34.6364 135.808 34.9749C135.827 38.3701 137.171 41.6231 139.554 44.0378C140.727 45.207 142.11 46.1426 143.631 46.7949C145.205 47.4568 146.895 47.7953 148.601 47.7905C148.939 47.7905 149.263 47.925 149.502 48.1644C149.741 48.4038 149.875 48.7285 149.875 49.067C149.875 49.4055 149.741 49.7302 149.502 49.9696C149.263 50.209 148.939 50.3434 148.601 50.3434C146.895 50.3387 145.205 50.6772 143.631 51.3391C142.11 51.9914 140.727 52.927 139.554 54.0962C138.364 55.2847 137.42 56.6974 136.777 58.2528C136.134 59.8082 135.805 61.4756 135.808 63.159C135.794 63.4931 135.651 63.8086 135.408 64.0378C135.165 64.2669 134.842 64.3914 134.508 64.3844ZM126.582 49.067C130.132 50.6131 132.964 53.4505 134.508 57.0065C136.051 53.4505 138.884 50.6131 142.434 49.067C138.884 47.5208 136.051 44.6835 134.508 41.1275C132.964 44.6835 130.132 47.5208 126.582 49.067Z" fill="#0C60FF"/>
<path d="M26.0963 72.9877V71.6602V72.9877ZM26.0963 72.9877C25.1165 72.9948 24.14 72.8747 23.191 72.6303L23.8536 70.0774C24.576 70.2741 25.3223 70.3686 26.0708 70.3582L26.0963 72.9877ZM29.0015 72.6048L28.3135 70.0519C29.0362 69.8535 29.7301 69.5617 30.3777 69.1839L31.7284 71.507C30.8717 71.9917 29.9548 72.3609 29.0015 72.6048ZM20.3877 71.4815C19.5281 70.9964 18.7391 70.3951 18.0431 69.6945L19.929 67.8053C20.4676 68.326 21.0665 68.7803 21.7129 69.1584L20.3877 71.4815ZM33.971 69.6434L32.0852 67.7543C32.6207 67.2221 33.0835 66.6212 33.4614 65.9672L35.7805 67.3203C35.3058 68.1744 34.7234 68.9638 34.0475 69.6689L33.971 69.6434ZM16.1318 67.3713C15.7521 66.5034 15.47 65.5957 15.2908 64.6652L17.8393 63.976C18.042 64.6983 18.333 65.3929 18.7057 66.0438L16.1318 67.3713ZM36.7998 64.5887L34.2514 63.8994C34.4547 63.1766 34.5576 62.4292 34.5572 61.6783L37.2331 61.5507V61.6783C37.2769 62.6639 37.1912 63.651 36.9782 64.6142L36.7998 64.5887ZM14.7811 61.7549C14.771 60.7312 14.8909 59.7104 15.1379 58.717L17.6864 59.4063C17.4897 60.1211 17.3953 60.8603 17.406 61.6017L14.7811 61.7549ZM34.3533 59.3552C34.1551 58.6393 33.8638 57.9527 33.4868 57.3129L35.7805 55.9343C36.2936 56.8021 36.6798 57.7392 36.9273 58.717L34.3533 59.3552ZM18.5783 57.4405L16.2592 56.1641C16.7345 55.3037 17.3263 54.5134 18.0177 53.8154L19.929 55.679C19.3973 56.1987 18.9425 56.7919 18.5783 57.4405ZM32.0852 55.5258C31.5419 55.0106 30.9437 54.5569 30.3013 54.1728L31.6265 51.8496C32.4769 52.3387 33.2643 52.9302 33.971 53.6111L32.0852 55.5258ZM21.7129 54.2494L20.3877 51.9518C21.2435 51.4464 22.1597 51.0518 23.1146 50.7774L23.8282 53.3303C23.0835 53.5358 22.3715 53.8451 21.7129 54.2494ZM28.2115 53.3303C27.5114 53.156 26.7922 53.0703 26.0708 53.075V50.3945C27.0255 50.3858 27.977 50.506 28.8996 50.7519L28.2115 53.3303Z" fill="#0C60FF"/>
<path d="M72.7332 7.12252C72.5666 7.12155 72.4018 7.08716 72.2486 7.0214C72.0954 6.95563 71.9569 6.85981 71.8413 6.73958C71.7218 6.62092 71.627 6.47974 71.5624 6.32419C71.4977 6.16865 71.4644 6.00181 71.4644 5.8333C71.4644 5.66479 71.4977 5.49795 71.5624 5.34241C71.627 5.18686 71.7218 5.04568 71.8413 4.92702L75.4601 1.30189C75.5785 1.18225 75.7195 1.08729 75.8748 1.02248C76.03 0.957681 76.1966 0.924316 76.3648 0.924316C76.533 0.924316 76.6996 0.957681 76.8548 1.02248C77.0101 1.08729 77.151 1.18225 77.2695 1.30189C77.3914 1.41649 77.4885 1.5549 77.555 1.70858C77.6214 1.86226 77.6556 2.02795 77.6556 2.19541C77.6556 2.36287 77.6214 2.52855 77.555 2.68223C77.4885 2.83591 77.3914 2.97432 77.2695 3.08893L73.6507 6.73958C73.4076 6.98395 73.0776 7.12167 72.7332 7.12252Z" fill="#0C60FF"/>
<path d="M67.6873 7.14804C67.5206 7.14707 67.3558 7.11268 67.2026 7.04692C67.0494 6.98115 66.9109 6.88533 66.7953 6.7651L63.151 3.13997C62.9159 2.89706 62.7844 2.57202 62.7844 2.23369C62.7844 1.89536 62.9159 1.57032 63.151 1.32741C63.3935 1.0919 63.718 0.960205 64.0557 0.960205C64.3934 0.960205 64.7179 1.0919 64.9604 1.32741L68.5792 5.10571C68.7011 5.22031 68.7983 5.35873 68.8647 5.5124C68.9311 5.66608 68.9654 5.83177 68.9654 5.99923C68.9654 6.16669 68.9311 6.33238 68.8647 6.48606C68.7983 6.63974 68.7011 6.77815 68.5792 6.89275C68.455 6.99258 68.3121 7.06657 68.1589 7.11041C68.0058 7.15424 67.8454 7.16704 67.6873 7.14804Z" fill="#0C60FF"/>
<path d="M64.0938 15.8535C63.9272 15.8525 63.7624 15.8181 63.6092 15.7524C63.456 15.6866 63.3175 15.5908 63.2019 15.4705C63.0824 15.3519 62.9876 15.2107 62.9229 15.0552C62.8583 14.8996 62.825 14.7328 62.825 14.5643C62.825 14.3958 62.8583 14.2289 62.9229 14.0734C62.9876 13.9178 63.0824 13.7766 63.2019 13.658L66.8207 10.0328C66.9391 9.91321 67.0801 9.81825 67.2353 9.75344C67.3906 9.68864 67.5572 9.65527 67.7254 9.65527C67.8936 9.65527 68.0602 9.68864 68.2154 9.75344C68.3707 9.81825 68.5116 9.91321 68.6301 10.0328C68.8636 10.2715 68.9943 10.5922 68.9943 10.9264C68.9943 11.2605 68.8636 11.5813 68.6301 11.8199L65.0113 15.4705C64.7682 15.7149 64.4382 15.8526 64.0938 15.8535Z" fill="#0C60FF"/>
<path d="M76.4539 15.8025C76.2709 15.7959 76.0915 15.749 75.9285 15.6651C75.7656 15.5813 75.623 15.4626 75.511 15.3174L71.8667 11.7944C71.7479 11.6754 71.6536 11.5341 71.5893 11.3786C71.525 11.2231 71.4919 11.0564 71.4919 10.8881C71.4919 10.7198 71.525 10.5531 71.5893 10.3976C71.6536 10.2421 71.7479 10.1009 71.8667 9.98184C71.9855 9.86283 72.1265 9.76842 72.2818 9.70401C72.437 9.6396 72.6034 9.60645 72.7714 9.60645C72.9394 9.60645 73.1058 9.6396 73.261 9.70401C73.4162 9.76842 73.5573 9.86283 73.6761 9.98184L77.2949 13.6325C77.4168 13.7471 77.514 13.8855 77.5804 14.0392C77.6468 14.1929 77.6811 14.3586 77.6811 14.526C77.6811 14.6935 77.6468 14.8592 77.5804 15.0128C77.514 15.1665 77.4168 15.3049 77.2949 15.4195C77.187 15.536 77.0571 15.6298 76.9128 15.6955C76.7684 15.7612 76.6124 15.7976 76.4539 15.8025Z" fill="#0C60FF"/>
<path d="M416.088 61.0144H364.379C360.776 61.0144 357.855 63.9404 357.855 67.5498V107.631C357.855 111.24 360.776 114.166 364.379 114.166H416.088C419.691 114.166 422.612 111.24 422.612 107.631V67.5498C422.612 63.9404 419.691 61.0144 416.088 61.0144Z" fill="#A6F0FF"/>
<path d="M389.915 26.5247H389.533C384.603 26.5247 379.875 28.4846 376.387 31.9741C372.899 35.4635 370.936 40.1971 370.929 45.1354V61.0144H377.478V45.1354C377.519 41.9615 378.802 38.9304 381.052 36.6955C383.302 34.4607 386.339 33.2009 389.507 33.1877H389.915C393.108 33.2012 396.166 34.4777 398.424 36.7394C400.682 39.001 401.956 42.0646 401.969 45.263V61.0144H408.493V45.1354C408.487 40.2016 406.527 35.4718 403.044 31.9831C399.562 28.4943 394.84 26.5314 389.915 26.5247Z" fill="#A6F0FF"/>
<path d="M410.94 55.8831H359.232C355.628 55.8831 352.708 58.8091 352.708 62.4185V102.499C352.708 106.109 355.628 109.035 359.232 109.035H410.94C414.543 109.035 417.464 106.109 417.464 102.499V62.4185C417.464 58.8091 414.543 55.8831 410.94 55.8831Z" fill="white"/>
<path d="M410.94 110.311H359.333C357.263 110.311 355.277 109.489 353.81 108.025C352.344 106.56 351.516 104.573 351.51 102.499V62.4186C351.516 60.3444 352.344 58.3575 353.81 56.8932C355.277 55.4289 357.263 54.6067 359.333 54.6067H411.016C413.087 54.6067 415.073 55.4289 416.54 56.8932C418.006 58.3575 418.833 60.3444 418.84 62.4186V102.499C418.837 103.533 418.629 104.555 418.23 105.508C417.831 106.461 417.247 107.326 416.513 108.052C415.778 108.778 414.908 109.351 413.951 109.739C412.995 110.127 411.972 110.321 410.94 110.311ZM359.333 57.1596C357.939 57.1596 356.601 57.7128 355.612 58.6984C354.624 59.6839 354.065 61.0215 354.058 62.4186V102.499C354.065 103.896 354.624 105.234 355.612 106.219C356.601 107.205 357.939 107.758 359.333 107.758H411.016C412.411 107.758 413.749 107.205 414.738 106.219C415.726 105.234 416.285 103.896 416.292 102.499V62.4186C416.285 61.0215 415.726 59.6839 414.738 58.6984C413.749 57.7128 412.411 57.1596 411.016 57.1596H359.333Z" fill="#0C60FF"/>
<path d="M392.591 78.3999C392.598 77.0678 392.248 75.7582 391.578 74.6074C390.908 73.4566 389.942 72.5068 388.781 71.8566C387.621 71.2064 386.307 70.8797 384.978 70.9104C383.648 70.9412 382.351 71.3283 381.222 72.0314C380.092 72.7345 379.171 73.7281 378.555 74.9086C377.939 76.0891 377.65 77.4134 377.718 78.7439C377.786 80.0743 378.208 81.3622 378.942 82.4735C379.675 83.5848 380.692 84.479 381.887 85.063V97.8275H388.411V85.063C389.663 84.4582 390.719 83.5123 391.458 82.3338C392.197 81.1552 392.59 79.7918 392.591 78.3999Z" fill="#A6F0FF"/>
<path d="M388.411 99.1294H381.887C381.549 99.1294 381.225 98.9949 380.986 98.7555C380.747 98.5161 380.613 98.1915 380.613 97.8529V85.8287C378.984 84.8443 377.722 83.3512 377.021 81.5788C376.321 79.8064 376.22 77.8526 376.735 76.0175C377.25 74.1825 378.353 72.5675 379.873 71.4206C381.393 70.2737 383.246 69.6583 385.149 69.6688C387.461 69.6688 389.678 70.5887 391.312 72.2261C392.947 73.8634 393.865 76.0842 393.865 78.3998C393.868 79.8942 393.485 81.3638 392.752 82.6657C392.02 83.9676 390.963 85.0573 389.686 85.8287V97.8529C389.686 98.1915 389.551 98.5161 389.312 98.7555C389.073 98.9949 388.749 99.1294 388.411 99.1294ZM383.162 96.5765H387.137V85.0629C387.14 84.8243 387.207 84.5909 387.333 84.3883C387.459 84.1857 387.638 84.0217 387.851 83.9141C388.89 83.417 389.767 82.6352 390.38 81.6592C390.994 80.6833 391.318 79.5531 391.317 78.3998C391.317 76.7613 390.667 75.1899 389.51 74.0312C388.354 72.8726 386.785 72.2217 385.149 72.2217C383.514 72.2217 381.945 72.8726 380.788 74.0312C379.632 75.1899 378.982 76.7613 378.982 78.3998C378.98 79.5531 379.305 80.6833 379.919 81.6592C380.532 82.6352 381.409 83.417 382.448 83.9141C382.661 84.0217 382.84 84.1857 382.965 84.3883C383.091 84.5909 383.159 84.8243 383.162 85.0629V96.5765Z" fill="#0C60FF"/>
<path d="M384.818 21.3679H384.436C381.994 21.3679 379.576 21.8501 377.32 22.787C375.065 23.7239 373.015 25.097 371.29 26.8279C369.565 28.5588 368.197 30.6134 367.264 32.8743C366.332 35.1352 365.854 37.558 365.858 40.0042V55.8832H372.382V40.0042C372.382 36.8016 373.652 33.7302 375.912 31.4657C378.173 29.2011 381.239 27.9289 384.436 27.9289H384.818C388.015 27.9289 391.081 29.2011 393.342 31.4657C395.602 33.7302 396.872 36.8016 396.872 40.0042V55.8832H403.396V40.0042C403.4 37.558 402.922 35.1352 401.99 32.8743C401.057 30.6134 399.689 28.5588 397.964 26.8279C396.238 25.097 394.189 23.7239 391.934 22.787C389.678 21.8501 387.26 21.3679 384.818 21.3679Z" fill="white"/>
<path d="M403.32 57.1595H396.796C396.458 57.1595 396.134 57.0251 395.895 56.7857C395.656 56.5463 395.522 56.2216 395.522 55.8831V40.004C395.522 37.1532 394.396 34.418 392.391 32.395C390.386 30.3721 387.664 29.2254 384.818 29.2052H384.436C381.577 29.2052 378.835 30.3429 376.813 32.3681C374.792 34.3933 373.656 37.14 373.656 40.004V55.8831C373.656 56.2216 373.522 56.5463 373.283 56.7857C373.044 57.0251 372.719 57.1595 372.382 57.1595H365.857C365.52 57.1595 365.195 57.0251 364.956 56.7857C364.718 56.5463 364.583 56.2216 364.583 55.8831V40.004C364.583 34.7272 366.674 29.6662 370.396 25.9326C374.119 22.199 379.168 20.0981 384.436 20.0913H384.818C390.086 20.0981 395.135 22.199 398.857 25.9326C402.58 29.6662 404.671 34.7272 404.671 40.004V55.8831C404.671 56.0574 404.636 56.2298 404.567 56.3899C404.498 56.55 404.397 56.6943 404.271 56.8139C404.144 56.9335 403.995 57.0258 403.831 57.0853C403.668 57.1447 403.494 57.17 403.32 57.1595ZM398.07 54.6066H402.046V40.004C402.046 35.4175 400.234 31.0174 397.006 27.7647C393.778 24.5121 389.396 22.6712 384.818 22.6442H384.436C379.844 22.651 375.443 24.4829 372.198 27.7378C368.954 30.9927 367.132 35.4043 367.132 40.004V54.6066H371.107V40.004C371.107 36.4629 372.512 33.0668 375.011 30.5629C377.511 28.059 380.901 26.6523 384.436 26.6523H384.818C388.353 26.6523 391.743 28.059 394.243 30.5629C396.742 33.0668 398.147 36.4629 398.147 40.004L398.07 54.6066Z" fill="#0C60FF"/>
<path d="M417.489 76.2553H411.755C411.417 76.2553 411.093 76.1208 410.854 75.8814C410.615 75.6421 410.481 75.3174 410.481 74.9788C410.481 74.6403 410.615 74.3156 410.854 74.0763C411.093 73.8369 411.417 73.7024 411.755 73.7024H417.489C417.827 73.7024 418.152 73.8369 418.39 74.0763C418.629 74.3156 418.764 74.6403 418.764 74.9788C418.764 75.3174 418.629 75.6421 418.39 75.8814C418.152 76.1208 417.827 76.2553 417.489 76.2553Z" fill="#0C60FF"/>
<path d="M417.489 81.9484H411.755C411.417 81.9484 411.093 81.8139 410.854 81.5746C410.615 81.3352 410.481 81.0105 410.481 80.672C410.488 80.3355 410.624 80.0146 410.862 79.7766C411.099 79.5386 411.42 79.402 411.755 79.3955H417.489C417.825 79.402 418.146 79.5386 418.383 79.7766C418.621 80.0146 418.757 80.3355 418.764 80.672C418.764 81.0105 418.629 81.3352 418.39 81.5746C418.152 81.8139 417.827 81.9484 417.489 81.9484Z" fill="#0C60FF"/>
<path d="M417.489 87.6413H411.755C411.417 87.6413 411.093 87.5068 410.854 87.2674C410.615 87.028 410.481 86.7034 410.481 86.3648C410.488 86.0283 410.624 85.7074 410.862 85.4695C411.099 85.2315 411.42 85.0949 411.755 85.0884H417.489C417.825 85.0949 418.146 85.2315 418.383 85.4695C418.621 85.7074 418.757 86.0283 418.764 86.3648C418.764 86.7034 418.629 87.028 418.39 87.2674C418.152 87.5068 417.827 87.6413 417.489 87.6413Z" fill="#0C60FF"/>
<path d="M193.327 123.178H187.083C186.745 123.178 186.421 123.043 186.182 122.804C185.943 122.565 185.809 122.24 185.809 121.901C185.809 121.563 185.943 121.238 186.182 120.999C186.421 120.759 186.745 120.625 187.083 120.625H193.327C193.662 120.631 193.983 120.768 194.22 121.006C194.458 121.244 194.594 121.565 194.601 121.901C194.601 122.24 194.467 122.565 194.228 122.804C193.989 123.043 193.665 123.178 193.327 123.178Z" fill="white"/>
<path d="M230.356 123.178H200.462C200.124 123.178 199.8 123.043 199.561 122.804C199.322 122.565 199.188 122.24 199.188 121.901C199.188 121.563 199.322 121.238 199.561 120.999C199.8 120.759 200.124 120.625 200.462 120.625H230.356C230.694 120.625 231.018 120.759 231.257 120.999C231.496 121.238 231.63 121.563 231.63 121.901C231.63 122.24 231.496 122.565 231.257 122.804C231.018 123.043 230.694 123.178 230.356 123.178Z" fill="white"/>
<path d="M294.959 211.891H289.582C289.244 211.891 288.92 211.757 288.681 211.518C288.442 211.278 288.308 210.953 288.308 210.615C288.308 210.276 288.442 209.952 288.681 209.712C288.92 209.473 289.244 209.339 289.582 209.339H294.959C295.297 209.339 295.621 209.473 295.86 209.712C296.099 209.952 296.233 210.276 296.233 210.615C296.233 210.953 296.099 211.278 295.86 211.518C295.621 211.757 295.297 211.891 294.959 211.891Z" fill="white"/>
<path d="M326.815 211.891H301.076C300.738 211.891 300.413 211.757 300.174 211.518C299.936 211.278 299.801 210.953 299.801 210.615C299.801 210.276 299.936 209.952 300.174 209.712C300.413 209.473 300.738 209.339 301.076 209.339H326.815C327.153 209.339 327.477 209.473 327.716 209.712C327.955 209.952 328.089 210.276 328.089 210.615C328.089 210.953 327.955 211.278 327.716 211.518C327.477 211.757 327.153 211.891 326.815 211.891Z" fill="white"/>
<path d="M403.32 344.643H382.27C381.932 344.643 381.608 344.508 381.369 344.269C381.13 344.029 380.995 343.705 380.995 343.366C380.995 343.028 381.13 342.703 381.369 342.464C381.608 342.224 381.932 342.09 382.27 342.09H403.243C403.581 342.09 403.906 342.224 404.144 342.464C404.383 342.703 404.518 343.028 404.518 343.366C404.518 343.705 404.383 344.029 404.144 344.269C403.906 344.508 403.581 344.643 403.243 344.643H403.32Z" fill="#0C60FF"/>
<path d="M388.539 300.324L376.153 300.809L381.913 289.832L388.539 300.324Z" fill="#0C60FF"/>
<path d="M378.243 306.63L365.858 307.14L371.617 296.163L378.243 306.63Z" fill="#0C60FF"/>
</g>
<defs>
<clipPath id="clip0_135_4269">
<rect width="468" height="345" fill="white"/>
</clipPath>
</defs>
</svg>
