<svg width="142" height="166" viewBox="0 0 142 166" fill="none" xmlns="http://www.w3.org/2000/svg">
<g id="pdf-icon">
<g id="sheet">
<path id="sheet_2" d="M123.991 162.788H17.902C13.858 162.788 10.1977 161.135 7.54523 158.478C4.88343 155.811 3.23438 152.132 3.23438 148.089V18.5109C3.23438 14.4464 4.87724 10.7665 7.54936 8.10594C10.2172 5.44964 13.9091 3.81152 18.0102 3.81152H93.2794L138.659 49.1912V148.102C138.659 152.156 137.015 155.827 134.36 158.484C131.704 161.143 128.037 162.788 123.991 162.788Z" fill="white" stroke="#C4CCD2"/>
</g>
<g id="fold">
<path id="fold_2" d="M93.3211 3.81152H91.5547V42.0837C91.5547 46.9615 95.5089 50.9157 100.387 50.9157H138.659V49.1493L93.3211 3.81152Z" fill="white" stroke="#C4CCD2"/>
</g>
<path id="pdf" fill-rule="evenodd" clip-rule="evenodd" d="M36.408 135.27C32.9543 132.824 32.4906 130.102 32.7099 128.248C33.3125 123.151 39.9885 117.813 52.5569 112.376C57.5437 102.056 62.2897 89.3389 65.1189 78.7133C61.8092 71.9109 58.5942 63.0871 60.9384 57.9099C61.7592 56.0967 63.2035 54.8203 65.1148 54.2187C65.872 53.9803 66.6115 53.8594 67.3128 53.8594C68.985 53.8594 70.4788 54.5491 71.5204 55.8018C72.4995 56.9797 75.4465 60.5252 71.011 78.1522C75.4812 86.8694 81.8144 95.7497 87.8838 101.831C92.2315 101.087 95.9721 100.711 99.0198 100.711C104.213 100.711 107.361 101.854 108.643 104.207C109.705 106.156 109.27 108.431 107.349 110.97C105.503 113.411 102.956 114.701 99.9854 114.701C95.9521 114.701 91.2582 112.295 86.0196 107.546C76.61 109.401 65.6229 112.716 56.7429 116.382C53.97 121.938 51.3135 126.413 48.8403 129.693C45.4473 134.195 42.5154 136.292 39.6148 136.292C38.4603 136.292 37.3518 135.938 36.408 135.27ZM48.561 120.099C42.0178 123.591 39.3518 126.461 39.1617 128.077C39.1305 128.344 39.0477 129.047 40.4798 130.09C40.9359 129.953 43.6002 128.799 48.561 120.099ZM92.6104 105.88C95.1039 107.702 97.3096 108.699 98.9412 108.699C99.6583 108.699 100.602 108.538 101.545 107.284C102.002 106.677 102.18 106.286 102.248 106.078C101.873 105.888 100.772 105.499 98.0503 105.499C96.5047 105.499 94.6676 105.629 92.6104 105.88ZM60.2747 108.677C66.6721 106.317 73.6276 104.26 80.1603 102.802C76.0275 98.2429 71.8988 92.5498 68.4608 86.6812C66.2705 93.8758 63.3806 101.642 60.2747 108.677ZM66.9009 60.6299C66.8326 60.6405 66.7361 60.6611 66.6048 60.7023C66.3057 60.7971 66.0642 60.9537 65.8588 61.4106C65.0715 63.1599 65.6927 66.4831 66.8986 70.0548C67.8978 63.9001 67.3667 61.2864 66.9009 60.6299Z" fill="#8496A5"/>
</g>
</svg>
