<svg width="33" height="33" viewBox="0 0 33 33" fill="none" xmlns="http://www.w3.org/2000/svg">
<g opacity="0.4">
<path d="M21.8333 6.70813H5.33325V9.45813H21.8333V6.70813Z" fill="black"/>
<path d="M21.8333 12.2081H5.33325V14.9581H21.8333V12.2081Z" fill="black"/>
<path d="M5.33325 17.7081H16.3333V20.4581H5.33325V17.7081Z" fill="black"/>
<path fill-rule="evenodd" clip-rule="evenodd" d="M18.9164 17.5413C17.3055 19.1522 17.3055 21.764 18.9164 23.3749C20.1864 24.6449 22.0785 24.9137 23.6118 24.1812L25.7223 26.2918L27.6668 24.3472L25.5563 22.2367C26.2888 20.7034 26.02 18.8113 24.75 17.5413C23.1391 15.9304 20.5273 15.9304 18.9164 17.5413ZM20.8609 21.4304C21.3979 21.9674 22.2685 21.9674 22.8055 21.4304C23.3424 20.8934 23.3424 20.0228 22.8055 19.4859C22.2685 18.9489 21.3979 18.9489 20.8609 19.4859C20.324 20.0228 20.324 20.8934 20.8609 21.4304Z" fill="black"/>
</g>
</svg>
