<svg width="25" height="25" viewBox="0 0 25 25" fill="none" xmlns="http://www.w3.org/2000/svg">
<path d="M17.5893 8.53C17.4183 8.359 17.1415 8.359 16.9705 8.53C16.7995 8.70075 16.7995 8.978 16.9705 9.14875C19.4345 11.613 19.4345 15.6225 16.9705 18.0865C14.506 20.5503 10.4968 20.5503 8.03277 18.0865C6.83902 16.893 6.18177 15.3057 6.18177 13.6175C6.18177 11.9295 6.83902 10.3423 8.03277 9.14875C9.50327 7.67825 11.58 7.03975 13.598 7.39525L11.6288 9.3645C11.4578 9.53525 11.4578 9.8125 11.6288 9.98325C11.7143 10.0687 11.8263 10.1115 11.938 10.1115C12.0498 10.1115 12.162 10.0687 12.2473 9.98325L14.7718 7.459C14.771 7.45825 14.7708 7.458 14.77 7.45725C14.8195 7.408 14.8593 7.34775 14.881 7.27625C14.9293 7.1165 14.8805 6.952 14.7703 6.84175C14.7708 6.84125 14.7713 6.84075 14.7715 6.8405L12.2473 4.31575C12.0763 4.14475 11.7995 4.14475 11.6285 4.31575C11.4575 4.4865 11.4575 4.76375 11.6285 4.9345L13.1445 6.4505C11.044 6.2615 8.94177 7.00275 7.41402 8.53025C6.05502 9.88925 5.30652 11.696 5.30652 13.6178C5.30652 15.5398 6.05502 17.3465 7.41402 18.7055C8.77302 20.0645 10.5798 20.813 12.5018 20.813C14.4235 20.813 16.2305 20.0645 17.5893 18.7055C20.3945 15.9 20.3945 11.3352 17.5893 8.53Z" fill="#00A0AA"/>
</svg>
