<svg width="21" height="17" viewBox="0 0 21 17" fill="none" xmlns="http://www.w3.org/2000/svg">
<path d="M1.53281 0.449997C0.903669 0.449997 0.382812 0.970853 0.382812 1.6V12.18C0.382812 12.8091 0.903669 13.33 1.53281 13.33H4.29281V16.09C4.29481 16.2598 4.3992 16.4243 4.55192 16.4984C4.61377 16.5285 4.68415 16.5501 4.75281 16.55C4.85372 16.5499 4.95302 16.5109 5.03312 16.4494L9.04375 13.33H19.4728C20.102 13.33 20.6228 12.8091 20.6228 12.18V1.6C20.6228 0.970853 20.102 0.449997 19.4728 0.449997H1.53281ZM1.53281 1.37H19.4728C19.6082 1.37 19.7028 1.46462 19.7028 1.6V12.18C19.7028 12.3154 19.6082 12.41 19.4728 12.41H8.89281C8.79255 12.4095 8.6924 12.4429 8.6125 12.5034L5.21281 15.1484V12.87C5.21279 12.6291 4.99366 12.41 4.75281 12.41H1.53281C1.39744 12.41 1.30281 12.3154 1.30281 12.18V1.6C1.30281 1.46462 1.39744 1.37 1.53281 1.37ZM4.06281 5.05C4.06281 5.26684 4.28166 5.51 4.52281 5.51H16.4828C16.7258 5.51344 16.9494 5.29305 16.9494 5.05C16.9494 4.80695 16.7258 4.58656 16.4828 4.59H4.52281C4.25618 4.59 4.06281 4.83315 4.06281 5.05ZM4.06281 8.73C4.06281 8.94684 4.28166 9.19 4.52281 9.19H16.4828C16.7258 9.19344 16.9494 8.97305 16.9494 8.73C16.9494 8.48695 16.7258 8.26656 16.4828 8.27H4.52281C4.25618 8.27 4.06281 8.51315 4.06281 8.73Z" fill="black"/>
</svg>
