<svg width="25" height="25" viewBox="0 0 25 25" fill="none" xmlns="http://www.w3.org/2000/svg">
<path d="M22.8265 24.5923L17.18 18.9352C15.0571 20.6119 12.374 21.414 9.67947 21.1775C6.98491 20.941 4.48258 19.6837 2.68412 17.6629C0.88566 15.642 -0.072975 13.0102 0.00433762 10.3058C0.0816503 7.60143 1.189 5.02872 3.09997 3.11394C5.01094 1.19917 7.58111 0.0870039 10.2848 0.00489199C12.9884 -0.07722 15.6213 0.876939 17.6449 2.67222C19.6685 4.4675 20.9301 6.96824 21.1713 9.66298C21.4125 12.3577 20.6151 15.0428 18.9426 17.1691L24.5891 22.8262C24.7144 22.9396 24.8156 23.0773 24.8861 23.231C24.9567 23.3846 24.9953 23.551 24.9996 23.7201C25.0039 23.8891 24.9739 24.0572 24.9112 24.2143C24.8486 24.3713 24.7546 24.514 24.6352 24.6337C24.5157 24.7533 24.3734 24.8475 24.2165 24.9104C24.0596 24.9733 23.8915 25.0037 23.7225 24.9996C23.5535 24.9956 23.3871 24.9573 23.2334 24.887C23.0796 24.8168 22.9418 24.7159 22.8282 24.5908L22.8265 24.5923ZM2.52094 10.6008C2.51847 12.1948 2.9862 13.7541 3.86559 15.0834C4.74499 16.4127 5.99694 17.4529 7.46466 18.0739C8.93239 18.6948 10.5507 18.8688 12.1169 18.5741C13.683 18.2794 15.1273 17.5291 16.2691 16.4171C16.2925 16.389 16.3191 16.3609 16.3456 16.3328C16.3721 16.3048 16.4001 16.2798 16.4298 16.2564C17.3605 15.3049 18.0427 14.1389 18.4165 12.8613C18.7902 11.5837 18.8441 10.2338 18.573 8.93054C18.3019 7.62728 17.7143 6.41077 16.8622 5.38828C16.01 4.36579 14.9195 3.56876 13.6866 3.06745C12.4537 2.56614 11.1163 2.37596 9.79257 2.5137C8.46886 2.65144 7.19952 3.11286 6.09621 3.85727C4.99289 4.60167 4.08961 5.60619 3.46612 6.78223C2.84263 7.95826 2.51801 9.26969 2.52094 10.6008V10.6008Z" fill="black"/>
</svg>
