<svg width="31" height="28" viewBox="0 0 31 28" fill="none" xmlns="http://www.w3.org/2000/svg">
<path d="M30.8132 13.7064C30.8132 13.0754 30.4404 12.4732 29.8381 12.2151L2.537 0.51462C1.70535 0.141811 0.758985 0.51462 0.386175 1.34627C0.214109 1.74776 0.185431 2.23528 0.386175 2.66545L5.29006 13.7064L0.386177 24.7473C0.128078 25.3495 0.271468 26.0664 0.701633 26.5539C1.16048 27.0128 1.87742 27.1562 2.47965 26.8981L29.7808 15.1976C30.4117 14.9108 30.8132 14.3373 30.8132 13.7064ZM5.06064 5.10305L21.2635 12.0717L8.12915 12.0717L5.06064 5.10305ZM5.06064 22.2523L8.15783 15.3123L21.2635 15.2836L5.06064 22.2523Z" fill="white"/>
</svg>
