<svg width="22" height="15" viewBox="0 0 22 15" fill="none" xmlns="http://www.w3.org/2000/svg">
<path d="M20.4266 0.175003H1.57656C1.31798 0.175003 1.06998 0.277726 0.887133 0.460574C0.704285 0.643422 0.601562 0.891417 0.601562 1.15V13.5C0.601562 13.7586 0.704285 14.0066 0.887133 14.1894C1.06998 14.3723 1.31798 14.475 1.57656 14.475H20.4266C20.6851 14.475 20.9331 14.3723 21.116 14.1894C21.2988 14.0066 21.4016 13.7586 21.4016 13.5V1.15C21.4016 0.891417 21.2988 0.643422 21.116 0.460574C20.9331 0.277726 20.6851 0.175003 20.4266 0.175003ZM20.4266 12.798L14.9016 8.248C14.8016 8.16181 14.6714 8.11886 14.5398 8.12861C14.4081 8.13837 14.2858 8.20002 14.1996 8.3C14.1134 8.39999 14.0704 8.53012 14.0802 8.66177C14.0899 8.79342 14.1516 8.91581 14.2516 9.002L19.7278 13.5H2.27531L7.75156 9.002C7.85155 8.91581 7.9132 8.79342 7.92295 8.66177C7.9327 8.53012 7.88976 8.39999 7.80356 8.3C7.71737 8.20002 7.59498 8.13837 7.46333 8.12861C7.33168 8.11886 7.20155 8.16181 7.10156 8.248L1.57656 12.798V1.748L10.6993 9.002C10.7854 9.07001 10.8919 9.10701 11.0016 9.10701C11.1113 9.10701 11.2177 9.07001 11.3038 9.002L20.4266 1.77075V12.8208V12.798ZM2.35981 1.15H19.6433L11.0016 7.99775L2.35981 1.15Z" fill="black"/>
</svg>
