<svg width="31" height="31" viewBox="0 0 31 31" fill="none" xmlns="http://www.w3.org/2000/svg">
<path fill-rule="evenodd" clip-rule="evenodd" d="M4.03013 0.713877C2.14822 0.713877 0.59375 2.26835 0.59375 4.15026V26.9075C0.59375 28.7895 2.14822 30.3439 4.03013 30.3439H26.7874C28.6693 30.3439 30.2238 28.7895 30.2238 26.9075V17.5654C30.2225 17.2396 30.0926 16.9275 29.8622 16.6972C29.6318 16.4668 29.3197 16.3368 28.9939 16.3356C28.8318 16.3349 28.6711 16.3662 28.5211 16.4277C28.371 16.4892 28.2346 16.5796 28.1195 16.6938C28.0044 16.808 27.9129 16.9437 27.8503 17.0933C27.7876 17.2428 27.7551 17.4033 27.7544 17.5654V26.9075C27.7544 27.4642 27.344 27.8746 26.7874 27.8746H4.03013C3.47353 27.8746 3.06312 27.4641 3.06312 26.9075V4.15026C3.06312 3.59366 3.47354 3.18325 4.03013 3.18325H13.3723C13.5352 3.18389 13.6967 3.15226 13.8474 3.0902C13.998 3.02813 14.1349 2.93686 14.2502 2.82163C14.3654 2.7064 14.4567 2.56951 14.5187 2.41883C14.5808 2.26816 14.6124 2.10669 14.6118 1.94374C14.6112 1.78159 14.5786 1.62116 14.516 1.47161C14.4533 1.32205 14.3618 1.18629 14.2467 1.07209C14.1316 0.957888 13.9952 0.867474 13.8451 0.806011C13.6951 0.744549 13.5344 0.713241 13.3723 0.713877H4.03013ZM19.5891 0.713877C19.427 0.713241 19.2663 0.744549 19.1162 0.806011C18.9662 0.867474 18.8297 0.957888 18.7146 1.07209C18.5995 1.18629 18.5081 1.32205 18.4454 1.47161C18.3828 1.62116 18.3502 1.78159 18.3496 1.94374C18.349 2.10669 18.3806 2.26816 18.4426 2.41883C18.5047 2.56951 18.596 2.7064 18.7112 2.82163C18.8264 2.93686 18.9633 3.02813 19.114 3.0902C19.2647 3.15226 19.4262 3.18389 19.5891 3.18325H26.0061L14.8216 14.3774C14.5923 14.6087 14.4636 14.9211 14.4636 15.2468C14.4636 15.5724 14.5923 15.8849 14.8216 16.1161C15.0529 16.3461 15.3659 16.4752 15.6921 16.4752C16.0184 16.4752 16.3313 16.3461 16.5627 16.1161L27.7544 4.934V11.351C27.7538 11.5139 27.7854 11.6754 27.8475 11.8261C27.9096 11.9767 28.0008 12.1136 28.1161 12.2289C28.2313 12.3441 28.3682 12.4354 28.5188 12.4974C28.6695 12.5595 28.831 12.5911 28.9939 12.5905C29.1561 12.5899 29.3165 12.5573 29.4661 12.4947C29.6156 12.432 29.7514 12.3406 29.8656 12.2255C29.9798 12.1104 30.0702 11.9739 30.1317 11.8239C30.1931 11.6738 30.2244 11.5131 30.2238 11.351V4.15026C30.2238 3.29177 29.9006 2.50117 29.3701 1.89551C29.3693 1.89469 29.3685 1.89386 29.3677 1.89304C29.325 1.83003 29.2765 1.77111 29.223 1.71702C29.171 1.66549 29.1145 1.61868 29.0542 1.57716C28.4471 1.04074 27.6514 0.713877 26.7874 0.713877H19.5891Z" fill="black"/>
</svg>
