<svg width="24" height="25" viewBox="0 0 24 25" fill="none" xmlns="http://www.w3.org/2000/svg">
<path d="M17.2406 6.95501C16.7524 6.45059 15.961 6.45059 15.4728 6.95501L6.63397 16.0885C6.14582 16.5929 6.14582 17.4107 6.63397 17.9152C7.12213 18.4196 7.91358 18.4196 8.40174 17.9152L17.2406 8.78171C17.7287 8.27728 17.7287 7.45944 17.2406 6.95501Z" fill="black"/>
<path fill-rule="evenodd" clip-rule="evenodd" d="M0.75 4.75C0.75 2.6099 2.42893 0.875 4.5 0.875H19.5C21.5711 0.875 23.25 2.6099 23.25 4.75V20.25C23.25 22.3901 21.5711 24.125 19.5 24.125H4.5C2.42893 24.125 0.75 22.3901 0.75 20.25V4.75ZM4.5 3.45833H19.5C20.1904 3.45833 20.75 4.03663 20.75 4.75V20.25C20.75 20.9634 20.1904 21.5417 19.5 21.5417H4.5C3.80964 21.5417 3.25 20.9634 3.25 20.25V4.75C3.25 4.03663 3.80964 3.45833 4.5 3.45833Z" fill="black"/>
</svg>
