<svg width="25" height="25" viewBox="0 0 25 25" fill="none" xmlns="http://www.w3.org/2000/svg">
<path d="M10.8879 24.8948C8.17549 24.5372 5.65492 23.303 3.71122 21.3808C1.76752 19.4585 0.507615 16.954 0.123866 14.2496C-0.259883 11.5453 0.253676 8.78997 1.58609 6.40444C2.91851 4.0189 4.99648 2.13438 7.50267 1.03873C7.77936 0.91844 8.09263 0.912796 8.37348 1.02306C8.65434 1.13333 8.87981 1.35045 9.0003 1.62668C9.12079 1.90291 9.12644 2.2156 9.01598 2.49598C8.90553 2.77636 8.68797 3.00144 8.41127 3.12173C6.87585 3.78711 5.52719 4.81807 4.48333 6.12432C3.43946 7.43057 2.73223 8.97234 2.42348 10.6147C2.11474 12.257 2.21395 13.9498 2.71237 15.545C3.21078 17.1402 4.09324 18.5892 5.28252 19.765C6.4718 20.9409 7.93162 21.8079 9.53427 22.29C11.1369 22.7722 12.8335 22.8549 14.4756 22.5309C16.1177 22.2068 17.6552 21.4859 18.9535 20.4313C20.2519 19.3766 21.2715 18.0204 21.9232 16.4812C21.9808 16.3431 22.0651 16.2176 22.1714 16.1121C22.2777 16.0066 22.4038 15.9232 22.5425 15.8665C22.6813 15.8099 22.8299 15.7812 22.9798 15.7821C23.1297 15.783 23.2779 15.8136 23.4159 15.8719C23.554 15.9302 23.679 16.0153 23.784 16.1221C23.889 16.2289 23.9718 16.3553 24.0276 16.4942C24.0834 16.6331 24.1112 16.7816 24.1093 16.9312C24.1074 17.0808 24.0758 17.2286 24.0165 17.366C22.9564 19.8833 21.0976 21.9834 18.7257 23.3436C16.3538 24.7038 13.6002 25.2488 10.8879 24.8948V24.8948ZM12.5029 13.6384C12.3534 13.6386 12.2054 13.6093 12.0673 13.5523C11.9292 13.4952 11.8038 13.4116 11.6981 13.3061C11.5924 13.2006 11.5086 13.0753 11.4515 12.9374C11.3944 12.7996 11.365 12.6518 11.3651 12.5026V1.13689C11.365 0.987734 11.3943 0.840011 11.4513 0.702154C11.5084 0.564297 11.5921 0.439011 11.6976 0.33344C11.8031 0.227868 11.9284 0.144073 12.0664 0.0868584C12.2044 0.0296441 12.3524 0.000146445 12.5018 0C15.8194 0.00502668 18.9993 1.32468 21.3429 3.66903C23.6864 6.01338 25.0018 9.19063 25 12.5026C25.0001 12.6517 24.9709 12.7994 24.9138 12.9372C24.8568 13.075 24.7731 13.2002 24.6675 13.3057C24.562 13.4112 24.4366 13.4949 24.2986 13.552C24.1607 13.609 24.0128 13.6384 23.8634 13.6384H12.5029ZM13.6395 11.3657H22.6676C22.4121 9.06143 21.3792 6.91238 19.7386 5.27153C18.098 3.63069 15.9472 2.59562 13.6395 2.33629V11.3657Z" fill="black"/>
</svg>
