<svg width="37" height="37" viewBox="0 0 37 37" fill="none" xmlns="http://www.w3.org/2000/svg">
<path d="M24.6641 12.3332V24.6665V12.3332ZM18.4974 16.9582V24.6665V16.9582ZM12.3307 21.5832V24.6665V21.5832ZM9.2474 30.8332H27.7474C28.5651 30.8332 29.3494 30.5083 29.9276 29.9301C30.5059 29.3518 30.8307 28.5676 30.8307 27.7498V9.24984C30.8307 8.43209 30.5059 7.64783 29.9276 7.06959C29.3494 6.49135 28.5651 6.1665 27.7474 6.1665H9.2474C8.42964 6.1665 7.64539 6.49135 7.06715 7.06959C6.48891 7.64783 6.16406 8.43209 6.16406 9.24984V27.7498C6.16406 28.5676 6.48891 29.3518 7.06715 29.9301C7.64539 30.5083 8.42964 30.8332 9.2474 30.8332Z" stroke="black" stroke-width="2" stroke-linecap="round" stroke-linejoin="round"/>
</svg>
