<svg width="25" height="21" viewBox="0 0 25 21" fill="none" xmlns="http://www.w3.org/2000/svg">
<path fill-rule="evenodd" clip-rule="evenodd" d="M10.0807 0.166626H7.66406V2.74996H4.03906C2.03703 2.74996 0.414062 4.48486 0.414062 6.62496V14.375C0.414062 16.5151 2.03703 18.25 4.03906 18.25H7.66406V20.8333H10.0807V0.166626ZM7.66406 5.33329V15.6666H4.03906C3.37172 15.6666 2.83073 15.0883 2.83073 14.375V6.62496C2.83073 5.91159 3.37172 5.33329 4.03906 5.33329H7.66406Z" fill="black"/>
<path d="M20.9557 15.6666H12.4974V18.25H20.9557C22.9578 18.25 24.5807 16.5151 24.5807 14.375V6.62496C24.5807 4.48486 22.9578 2.74996 20.9557 2.74996H12.4974V5.33329H20.9557C21.6231 5.33329 22.1641 5.91159 22.1641 6.62496V14.375C22.1641 15.0883 21.6231 15.6666 20.9557 15.6666Z" fill="black"/>
</svg>
