<svg width="24" height="24" viewBox="0 0 24 24" fill="none" xmlns="http://www.w3.org/2000/svg">
<path d="M20.2763 0.187866L23.8119 3.7234L22.0441 5.49117L18.5086 1.95563L20.2763 0.187866Z" fill="#006F85"/>
<path d="M13.0277 7.75068H10.5277V12.7507H13.0277V7.75068Z" fill="#006F85"/>
<path fill-rule="evenodd" clip-rule="evenodd" d="M3.48255 20.5172C7.87595 24.9106 14.9991 24.9106 19.3925 20.5172C23.7858 16.1238 23.7858 9.00068 19.3925 4.60728C14.9991 0.213885 7.87595 0.213885 3.48255 4.60728C-0.910849 9.00068 -0.91085 16.1238 3.48255 20.5172ZM5.25031 18.7494C8.6674 22.1665 14.2076 22.1665 17.6247 18.7494C21.0418 15.3323 21.0418 9.79214 17.6247 6.37505C14.2076 2.95796 8.6674 2.95796 5.25031 6.37505C1.83323 9.79214 1.83323 15.3323 5.25031 18.7494Z" fill="#006F85"/>
</svg>
