<svg width="32" height="32" viewBox="0 0 32 32" fill="none" xmlns="http://www.w3.org/2000/svg">
<path d="M16 5.51999C10.22 5.51999 5.52002 10.22 5.52002 16C5.52002 21.78 10.22 26.48 16 26.48C21.78 26.48 26.48 21.78 26.48 16C26.48 10.22 21.78 5.51999 16 5.51999ZM22.1 13.1L15.06 20.14C14.87 20.43 14.56 20.61 14.21 20.61C13.88 20.61 13.55 20.44 13.36 20.16L9.90002 16.71C9.71002 16.52 9.61002 16.27 9.61002 16C9.61002 15.73 9.71002 15.48 9.90002 15.29C10.29 14.9 10.92 14.9 11.31 15.29L14.2 18.18L20.69 11.69C20.87 11.5 21.13 11.39 21.39 11.39C21.66 11.39 21.91 11.5 22.1 11.69C22.29 11.87 22.39 12.12 22.39 12.39C22.39 12.66 22.29 12.91 22.1 13.1Z" fill="#83FF06"/>
</svg>
