<svg width="21" height="22" viewBox="0 0 21 22" fill="none" xmlns="http://www.w3.org/2000/svg">
<path fill-rule="evenodd" clip-rule="evenodd" d="M16.125 3.625V2.5C16.125 1.25736 15.1176 0.25 13.875 0.25H7.125C5.88236 0.25 4.875 1.25736 4.875 2.5V3.625H1.5C0.87868 3.625 0.375 4.12868 0.375 4.75C0.375 5.37132 0.87868 5.875 1.5 5.875H2.625V18.25C2.625 20.114 4.13604 21.625 6 21.625H15C16.864 21.625 18.375 20.114 18.375 18.25V5.875H19.5C20.1213 5.875 20.625 5.37132 20.625 4.75C20.625 4.12868 20.1213 3.625 19.5 3.625H16.125ZM13.875 2.5H7.125V3.625H13.875V2.5ZM16.125 5.875H4.875V18.25C4.875 18.8713 5.37868 19.375 6 19.375H15C15.6213 19.375 16.125 18.8713 16.125 18.25V5.875Z" fill="black"/>
<path d="M7.125 8.125H9.375V17.125H7.125V8.125Z" fill="black"/>
<path d="M11.625 8.125H13.875V17.125H11.625V8.125Z" fill="black"/>
</svg>
