<svg width="27" height="28" viewBox="0 0 27 28" fill="none" xmlns="http://www.w3.org/2000/svg">
<path d="M16.492 2.24518V3.27855H10.5131V2.24518C10.515 1.98727 10.6153 1.74065 10.792 1.55914C10.9687 1.37763 11.2075 1.27598 11.4562 1.27637H15.5489C15.7976 1.27598 16.0363 1.37763 16.213 1.55914C16.3897 1.74065 16.49 1.98727 16.492 2.24518ZM17.1593 4.66259H5.34375V24.5832C5.34415 25.1508 5.56175 25.695 5.94877 26.0964C6.33578 26.4978 6.86058 26.7234 7.40791 26.7238H19.5971C20.1445 26.7234 20.6693 26.4978 21.0563 26.0964C21.4433 25.695 21.6609 25.1508 21.6613 24.5832V4.66259H17.1593ZM17.6309 22.8578C17.5432 22.8579 17.4564 22.8401 17.3754 22.8054C17.2944 22.7706 17.2208 22.7197 17.1588 22.6554C17.0968 22.5911 17.0476 22.5148 17.0141 22.4308C16.9807 22.3467 16.9635 22.2567 16.9636 22.1658V9.22062C16.9633 9.12954 16.9803 9.03929 17.0137 8.95505C17.0471 8.87081 17.0962 8.79423 17.1582 8.72971C17.2202 8.66519 17.2939 8.61399 17.375 8.57906C17.4561 8.54413 17.5431 8.52615 17.6309 8.52615C17.7187 8.52615 17.8057 8.54413 17.8868 8.57906C17.9679 8.61399 18.0416 8.66519 18.1036 8.72971C18.1656 8.79423 18.2147 8.87081 18.2481 8.95505C18.2815 9.03929 18.2985 9.12954 18.2982 9.22062V22.1658C18.2969 22.3489 18.2262 22.5242 18.1013 22.6537C17.9764 22.7832 17.8074 22.8565 17.6309 22.8578H17.6309ZM13.5026 22.8578C13.326 22.8565 13.157 22.7831 13.0321 22.6537C12.9073 22.5242 12.8365 22.3489 12.8353 22.1658V9.22062C12.8353 9.03709 12.9056 8.86107 13.0307 8.7313C13.1559 8.60152 13.3256 8.52861 13.5026 8.52861C13.6795 8.52861 13.8493 8.60152 13.9744 8.7313C14.0996 8.86107 14.1699 9.03709 14.1699 9.22062V22.1658C14.1686 22.3489 14.0979 22.5242 13.973 22.6537C13.8481 22.7832 13.6791 22.8565 13.5025 22.8578H13.5026ZM9.37424 22.8578C9.19766 22.8565 9.02867 22.7831 8.9038 22.6537C8.77894 22.5242 8.70823 22.3489 8.70695 22.1658V9.22062C8.70664 9.12954 8.72367 9.03929 8.75707 8.95505C8.79046 8.87081 8.83956 8.79423 8.90156 8.72971C8.96355 8.66519 9.03722 8.61399 9.11834 8.57906C9.19945 8.54413 9.28642 8.52615 9.37425 8.52615C9.46208 8.52615 9.54904 8.54413 9.63016 8.57906C9.71127 8.61399 9.78494 8.66519 9.84693 8.72971C9.90893 8.79423 9.95803 8.87081 9.99143 8.95505C10.0248 9.03929 10.0419 9.12954 10.0415 9.22062V22.1658C10.0417 22.2567 10.0245 22.3468 9.99098 22.4308C9.95749 22.5148 9.90833 22.5911 9.84634 22.6554C9.78435 22.7197 9.71073 22.7707 9.62972 22.8054C9.5487 22.8401 9.46187 22.8579 9.3742 22.8578H9.37424Z" fill="black"/>
</svg>
