<svg width="19" height="25" viewBox="0 0 19 25" fill="none" xmlns="http://www.w3.org/2000/svg">
<path d="M1.90625 20.3126C1.90717 18.7874 2.3545 17.2958 3.19308 16.0218C4.03166 14.7478 5.2248 13.7472 6.62534 13.1433C8.02588 12.5394 9.57257 12.3586 11.0746 12.6233C12.5767 12.888 13.9684 13.5866 15.0781 14.6329L16.1484 13.5001C15.2462 12.6487 14.1841 11.9848 13.0234 11.5469C14.176 10.8289 15.0634 9.75511 15.5513 8.4879C16.0392 7.22068 16.1012 5.82903 15.7278 4.52347C15.3544 3.21791 14.566 2.06947 13.4818 1.25189C12.3976 0.434308 11.0767 -0.00793457 9.71875 -0.00793457C8.36084 -0.00793457 7.03988 0.434308 5.95569 1.25189C4.8715 2.06947 4.08307 3.21791 3.70968 4.52347C3.33629 5.82903 3.39825 7.22068 3.88619 8.4879C4.37413 9.75511 5.2615 10.8289 6.41406 11.5469C4.63156 12.2184 3.09587 13.4168 2.01144 14.9827C0.927008 16.5487 0.345297 18.4078 0.34375 20.3126V24.2188C0.34375 24.426 0.42606 24.6247 0.572573 24.7712C0.719086 24.9177 0.9178 25 1.125 25H8.9375V23.4376H1.90625V20.3126ZM5.03125 6.25005C5.03125 5.32295 5.30617 4.41667 5.82124 3.64582C6.33631 2.87496 7.06839 2.27415 7.92492 1.91937C8.78145 1.56458 9.72395 1.47175 10.6332 1.65262C11.5425 1.83349 12.3778 2.27993 13.0333 2.93549C13.6889 3.59105 14.1353 4.42628 14.3162 5.33556C14.497 6.24485 14.4042 7.18735 14.0494 8.04388C13.6946 8.90041 13.0938 9.63249 12.323 10.1476C11.5521 10.6626 10.6459 10.9376 9.71875 10.9376C8.47555 10.9376 7.28326 10.4437 6.40419 9.56461C5.52511 8.68554 5.03125 7.49325 5.03125 6.25005Z" fill="black"/>
<path d="M18.0859 23.6641L15.3203 20.8984C15.8547 20.091 16.0702 19.1139 15.9249 18.1566C15.7797 17.1994 15.2841 16.3301 14.5343 15.7175C13.7845 15.1049 12.8339 14.7927 11.8669 14.8412C10.8999 14.8898 9.98538 15.2958 9.30073 15.9804C8.61609 16.6651 8.21011 17.5796 8.16154 18.5466C8.11297 19.5136 8.42526 20.4642 9.03785 21.214C9.65045 21.9638 10.5197 22.4594 11.477 22.6046C12.4342 22.7498 13.4113 22.5344 14.2188 22L16.9844 24.7656L18.0859 23.6641ZM12.0625 21.0938C11.599 21.0938 11.1458 20.9563 10.7604 20.6988C10.375 20.4412 10.0746 20.0752 9.89716 19.6469C9.71977 19.2187 9.67335 18.7474 9.76379 18.2928C9.85422 17.8381 10.0774 17.4205 10.4052 17.0927C10.733 16.7649 11.1506 16.5417 11.6053 16.4513C12.0599 16.3609 12.5312 16.4073 12.9594 16.5847C13.3877 16.7621 13.7537 17.0625 14.0113 17.4479C14.2688 17.8333 14.4063 18.2865 14.4063 18.75C14.4063 19.3716 14.1593 19.9677 13.7198 20.4073C13.2802 20.8468 12.6841 21.0938 12.0625 21.0938Z" fill="black"/>
</svg>
