<svg width="9" height="14" viewBox="0 0 9 14" fill="none" xmlns="http://www.w3.org/2000/svg">
<path d="M3.62 4.02C3.44 4.02 3.3 3.88 3.3 3.7C3.3 3.28 2.92 2.94 2.44 2.94C1.96 2.94 1.58 3.28 1.58 3.7C1.58 3.88 1.44 4.02 1.26 4.02C1.08 4.02 0.940002 3.88 0.940002 3.7C0.940002 2.92 1.62 2.28 2.44 2.28C3.28 2.28 3.94 2.92 3.94 3.7C3.94 3.86 3.8 4.02 3.62 4.02Z" fill="white"/>
<path d="M2.46 13.36C1.1 13.36 0 12.24 0 10.86C0 9.84001 0.32 9.12001 0.94 8.72001V3.64001C0.94 3.46001 1.08 3.32001 1.26 3.32001C1.44 3.32001 1.58 3.46001 1.58 3.64001V8.92001C1.58 9.04001 1.52 9.16001 1.4 9.20001C0.88 9.46001 0.64 9.98001 0.64 10.86C0.64 11.88 1.46 12.72 2.44 12.72C3.44 12.72 4.24 11.88 4.24 10.86C4.24 9.98001 3.98 9.44001 3.46 9.18001C3.34 9.12001 3.28 9.02001 3.28 8.88001V3.64001C3.28 3.46001 3.42 3.32001 3.6 3.32001C3.78 3.32001 3.92 3.46001 3.92 3.64001V8.72001C4.56 9.12001 4.88 9.84001 4.88 10.88C4.9 12.24 3.8 13.36 2.46 13.36Z" fill="white"/>
<path d="M2.44002 11.82C1.86002 11.82 1.40002 11.36 1.40002 10.78C1.40002 10.2 1.86002 9.73999 2.44002 9.73999C3.02002 9.73999 3.48002 10.2 3.48002 10.78C3.48002 11.36 3.02002 11.82 2.44002 11.82ZM2.44002 10.4C2.22002 10.4 2.04002 10.58 2.04002 10.8C2.04002 11.02 2.22002 11.2 2.44002 11.2C2.66002 11.2 2.84002 11.02 2.84002 10.8C2.84002 10.58 2.66002 10.4 2.44002 10.4Z" fill="white"/>
<path d="M2.39996 10.06C2.21996 10.06 2.07996 9.91997 2.07996 9.73997V4.03997C2.07996 3.85997 2.21996 3.71997 2.39996 3.71997C2.57996 3.71997 2.71996 3.85997 2.71996 4.03997V9.71997C2.71996 9.89997 2.57996 10.06 2.39996 10.06Z" fill="white"/>
<path d="M3.67999 2.1C3.49999 2.1 3.35999 1.96 3.35999 1.78V0.32C3.35999 0.14 3.49999 0 3.67999 0C3.85999 0 3.99999 0.14 3.99999 0.32V1.78C3.99999 1.94 3.83999 2.1 3.67999 2.1Z" fill="white"/>
<path d="M8.59995 5.55998H7.13995C6.95995 5.55998 6.81995 5.41998 6.81995 5.23998C6.81995 5.05998 6.95995 4.91998 7.13995 4.91998H8.59995C8.77995 4.91998 8.91995 5.05998 8.91995 5.23998C8.91995 5.41998 8.77995 5.55998 8.59995 5.55998Z" fill="white"/>
<path d="M7.15996 9.03999C7.07996 9.03999 6.99996 8.99999 6.93996 8.93999L5.91996 7.92C5.79996 7.8 5.79996 7.58 5.91996 7.46C6.03996 7.34 6.25996 7.34 6.37996 7.46L7.39996 8.47999C7.51996 8.59999 7.51996 8.81999 7.39996 8.93999C7.31996 9.01999 7.23996 9.03999 7.15996 9.03999Z" fill="white"/>
<path d="M6.12 3.09999C6.04 3.09999 5.96 3.05999 5.9 2.99999C5.78 2.87999 5.78 2.65999 5.9 2.53999L6.92 1.51999C7.04 1.39999 7.26 1.39999 7.38 1.51999C7.5 1.63999 7.5 1.85999 7.38 1.97999L6.36 2.99999C6.3 3.07999 6.22 3.09999 6.12 3.09999Z" fill="white"/>
<path d="M3.70001 7.41998C3.52001 7.41998 3.38 7.27998 3.38 7.09998C3.38 6.91998 3.52001 6.77998 3.70001 6.77998C4.58001 6.77998 5.28 6.05998 5.28 5.19998C5.28 4.31998 4.56001 3.61998 3.70001 3.61998C3.52001 3.61998 3.38 3.47998 3.38 3.29998C3.38 3.11998 3.52001 2.97998 3.70001 2.97998C4.94001 2.97998 5.94001 3.97998 5.94001 5.21998C5.92001 6.41998 4.92001 7.41998 3.70001 7.41998Z" fill="white"/>
</svg>
