<svg width="50" height="50" viewBox="0 0 50 50" fill="none" xmlns="http://www.w3.org/2000/svg">
<path d="M5.7509 1.03698C4.44916 -0.264768 2.33861 -0.264768 1.03686 1.03698C-0.26489 2.33873 -0.26489 4.44928 1.03686 5.75102L20.286 25.0001L1.03706 44.2491C-0.26469 45.5508 -0.264691 47.6614 1.03706 48.9631C2.3388 50.2649 4.44936 50.2649 5.7511 48.9631L25 29.7142L44.2489 48.9631C45.5507 50.2649 47.6612 50.2649 48.963 48.9631C50.2647 47.6614 50.2647 45.5508 48.963 44.2491L29.7141 25.0001L48.9632 5.75102C50.2649 4.44928 50.2649 2.33873 48.9632 1.03698C47.6614 -0.264768 45.5509 -0.264768 44.2491 1.03698L25 20.2861L5.7509 1.03698Z" fill="black"/>
</svg>
